<svg width="1247" height="1247" viewBox="0 0 1247 1247" fill="none" xmlns="http://www.w3.org/2000/svg">
<path opacity="0.2" fill-rule="evenodd" clip-rule="evenodd" d="M623.5 1246.89C788.73 1246.89 947.192 1181.25 1064.03 1064.41C1180.86 947.579 1246.5 789.117 1246.5 623.887C1246.5 458.657 1180.86 300.194 1064.03 183.359C947.192 66.524 788.73 0.886719 623.5 0.886719C458.27 0.886719 299.808 66.524 182.972 183.359C66.1373 300.194 0.5 458.657 0.5 623.887C0.5 789.117 66.1373 947.579 182.972 1064.41C299.808 1181.25 458.27 1246.89 623.5 1246.89ZM873.121 156.735C881.713 169.142 889.824 181.987 897.452 195.27C931.252 253.993 957.95 323.5 975.639 400.175C999.926 406.531 1022.83 413.502 1044.36 421.086C1073.95 431.608 1101.57 443.444 1126.1 456.728C1083.14 328.113 992.636 220.789 873.121 156.735ZM1137.01 753.826C1109.79 769.608 1078.49 783.484 1044.29 795.517C1024.87 802.4 1004.31 808.757 982.609 814.587C965.315 904.348 936.052 985.495 897.452 1052.5C889.902 1065.69 881.784 1078.55 873.121 1091.04C938.125 1056.24 995.163 1008.27 1040.6 950.2C1086.03 892.129 1118.87 825.293 1137.01 753.826ZM373.879 1090.97C365.216 1078.48 357.098 1065.63 349.548 1052.44C310.948 985.363 281.685 904.283 264.391 814.522C242.69 808.691 222.108 802.334 202.643 795.452C170.563 784.406 139.569 770.428 110.054 753.695C128.188 825.156 161.014 892.054 206.438 950.125C251.862 1008.2 308.887 1056.16 373.879 1090.97ZM120.905 456.728C147.216 442.808 174.539 430.894 202.643 421.086C224.212 413.502 247.14 406.531 271.427 400.175C289.116 323.5 315.748 253.993 349.548 195.27C357.22 181.987 365.33 169.142 373.879 156.735C254.364 220.789 163.861 328.113 120.905 456.728ZM816.502 241.959C839.189 281.348 858.588 327.445 873.515 378.737C810.518 368.282 741.997 361.772 670.255 359.733V105.049C722.336 122.08 773.628 167.52 816.502 241.959ZM895.544 477.639C821.241 463.37 745.891 455.233 670.255 453.308V763.361C747.437 761.362 824.315 752.893 900.082 738.044C904.641 701.307 906.943 663.254 906.987 623.887C906.987 572.989 902.975 523.933 895.544 477.639ZM576.811 105.049V359.733C505.068 361.706 436.547 368.282 373.55 378.672C388.478 327.445 407.811 281.348 430.497 241.893C473.372 167.52 524.73 122.015 576.811 105.049ZM576.811 453.308C501.151 455.251 425.778 463.411 351.455 477.705C337.871 563.876 336.344 651.518 346.918 738.11C414.913 751.919 492.903 760.994 576.811 763.427V453.308ZM233.813 509.269C240.257 506.945 246.877 504.71 253.672 502.561C245.402 572.453 244.3 643.006 250.384 713.122C244.729 711.28 239.205 709.395 233.813 707.466C184.822 690.172 148.523 670.641 125.31 651.308C101.9 631.778 97.0341 617.048 97.0341 608.368C97.0341 599.753 101.9 585.023 125.31 565.427C148.523 546.094 184.822 526.563 233.813 509.269ZM430.497 1005.88C403.076 958.336 380.521 900.929 364.804 836.551C430.169 847.73 501.714 854.832 576.745 856.936V1142.79C524.73 1125.76 473.372 1080.32 430.497 1005.88ZM670.255 1142.79V856.936C741.293 855.128 812.115 848.317 882.195 836.551C866.413 900.929 843.924 958.336 816.437 1005.88C773.628 1080.32 722.336 1125.76 670.255 1142.79ZM1000.3 623.887C1000.3 654.136 999.049 683.859 996.55 713.056C1002.21 711.214 1007.73 709.329 1013.12 707.401C1062.11 690.106 1098.41 670.576 1121.62 651.242C1145.03 631.712 1149.9 616.982 1149.9 608.302C1149.9 599.687 1145.03 584.957 1121.62 565.361C1098.41 546.028 1062.11 526.498 1013.12 509.203C1006.54 506.862 999.917 504.626 993.262 502.496C997.953 541.951 1000.32 582.415 1000.36 623.887" fill="url(#paint0_linear_991_804)"/>
<defs>
<linearGradient id="paint0_linear_991_804" x1="623.5" y1="164.334" x2="623.5" y2="1069.55" gradientUnits="userSpaceOnUse">
<stop stop-color="#88352B" stop-opacity="0"/>
<stop offset="0.515" stop-color="#EE5D4B"/>
<stop offset="1" stop-color="#88352B" stop-opacity="0"/>
</linearGradient>
</defs>
</svg>
