<svg width="76" height="69" viewBox="0 0 76 69" fill="none" xmlns="http://www.w3.org/2000/svg">
<path d="M65.4029 29.9086C62.9767 28.4162 60.3672 27.4737 57.7141 27.046C58.5607 24.7595 59.032 22.2896 59.032 19.7063C59.032 10.6823 53.3505 2.98475 45.3737 0C50.4443 2.76657 53.8916 8.15134 53.8916 14.3303C53.8916 22.7609 47.4944 29.6991 39.2907 30.5544V31.9159C41.9875 32.5093 44.0122 34.9181 44.0122 37.7981C44.0122 38.2694 43.9599 38.7232 43.8551 39.1596L46.4559 40.0323C47.0668 39.273 47.7388 38.5836 48.4544 37.9639C49.4755 37.3792 50.4355 36.7072 51.3432 35.9654C56.3178 33.2686 62.5665 33.2337 67.7331 36.4105C72.2539 39.1945 74.9419 43.8112 75.4394 48.7073C75.7186 41.3414 72.1317 34.0366 65.4029 29.8999V29.9086ZM50.5752 64.303C43.0435 59.6688 40.5824 49.9204 44.9199 42.284L42.7031 41.5421C41.6035 42.9385 39.8929 43.8287 37.9729 43.8287C35.9394 43.8287 34.1329 42.8163 33.042 41.2629L31.0259 42.2665C35.3722 49.9029 32.911 59.6601 25.3794 64.2943C20.0906 67.5496 13.6847 67.4361 8.65777 64.5561C15.404 69.8013 24.9692 70.6129 32.6841 65.8652C34.7612 64.591 36.5329 63.0114 37.9904 61.2223C39.4478 63.0114 41.2195 64.5823 43.2966 65.8652C51.0028 70.6129 60.568 69.8013 67.3229 64.5561C62.2873 67.4361 55.8814 67.5496 50.6014 64.2943L50.5752 64.303ZM24.7161 36.0352C25.5626 36.7246 26.4703 37.353 27.4215 37.9028C28.1808 38.5487 28.8877 39.2817 29.5336 40.0759L32.0383 38.8367C31.9772 38.4963 31.951 38.1472 31.951 37.7981C31.951 34.9181 33.967 32.5093 36.6725 31.9159V30.6242C35.2761 30.5457 33.9321 30.2926 32.6492 29.8911C31.3838 29.1144 30.0398 28.486 28.6521 27.9886C24.2012 25.0736 21.2688 20.0467 21.2688 14.3303C21.2688 9.04152 23.7822 4.34622 27.6834 1.36147C21.2862 4.97458 16.9575 11.8343 16.9575 19.7063C16.9575 22.2809 17.42 24.7507 18.2666 27.0373C15.6047 27.4649 12.9865 28.4075 10.5516 29.9086C3.82283 34.0453 0.235889 41.3501 0.515164 48.716C1.01262 43.82 3.70937 39.2032 8.2214 36.4192C13.4316 33.2163 19.724 33.2773 24.7248 36.0352H24.7161Z" fill="url(#paint0_linear_953_820)"/>
<path d="M27.6835 25.3093C30.5722 23.0053 34.229 21.6263 38.1999 21.6263C41.7345 21.6263 45.016 22.7173 47.7302 24.5762C48.6203 23.59 49.3796 22.4816 49.9644 21.2772C46.6131 18.9819 42.5548 17.6379 38.1999 17.6379C33.2951 17.6379 28.7831 19.3398 25.2136 22.1762C25.8856 23.3369 26.7235 24.3842 27.6835 25.3093Z" fill="url(#paint1_linear_953_820)"/>
<path d="M54.7565 36.1049C55.2976 39.7617 54.6517 43.6104 52.6532 47.049C50.8815 50.1036 48.2895 52.3902 45.3135 53.804C45.7149 55.0694 46.2909 56.2825 47.0415 57.3996C50.707 55.6542 53.9099 52.8265 56.1005 49.0563C58.5616 44.8148 59.3645 40.0584 58.7012 35.5464C57.3572 35.5464 56.0306 35.7384 54.7565 36.1137V36.1049Z" fill="url(#paint2_linear_953_820)"/>
<path d="M30.4669 53.8827C27.1417 52.2681 24.3315 49.5539 22.621 45.9757C21.1024 42.7903 20.6748 39.3517 21.181 36.1051C19.9068 35.7211 18.5802 35.5204 17.2362 35.5029C16.6079 39.5175 17.1402 43.759 19.0166 47.695C21.1286 52.1198 24.6021 55.4711 28.7039 57.4696C29.4632 56.3613 30.048 55.1569 30.4669 53.8914V53.8827Z" fill="url(#paint3_linear_953_820)"/>
<defs>
<linearGradient id="paint0_linear_953_820" x1="46.8429" y1="69" x2="84.7403" y2="57.7288" gradientUnits="userSpaceOnUse">
<stop stop-color="#EE5D4B"/>
<stop offset="1" stop-color="#ED4732"/>
</linearGradient>
<linearGradient id="paint1_linear_953_820" x1="40.5165" y1="25.3093" x2="48.1675" y2="18.5508" gradientUnits="userSpaceOnUse">
<stop stop-color="#EE5D4B"/>
<stop offset="1" stop-color="#ED4732"/>
</linearGradient>
<linearGradient id="paint2_linear_953_820" x1="53.7286" y1="57.3996" x2="61.0073" y2="56.1585" gradientUnits="userSpaceOnUse">
<stop stop-color="#EE5D4B"/>
<stop offset="1" stop-color="#ED4732"/>
</linearGradient>
<linearGradient id="paint3_linear_953_820" x1="25.3204" y1="57.4696" x2="32.5363" y2="56.2571" gradientUnits="userSpaceOnUse">
<stop stop-color="#EE5D4B"/>
<stop offset="1" stop-color="#ED4732"/>
</linearGradient>
</defs>
</svg>
