<svg width="230" height="220" viewBox="0 0 230 220" fill="none" xmlns="http://www.w3.org/2000/svg">
<path fill-rule="evenodd" clip-rule="evenodd" d="M174.653 21.9897C174.367 20.834 173.782 19.7753 172.956 18.9218C172.131 18.0683 171.094 17.4507 169.953 17.1321C168.812 16.8134 167.607 16.8053 166.462 17.1085C165.317 17.4117 164.272 18.0153 163.435 18.8576L136.696 45.742C135.88 46.5636 135.29 47.5835 134.983 48.7025C134.676 49.8214 134.663 51.0012 134.944 52.127L139.757 71.5374L139.57 71.7256L107.603 103.866C105.831 105.777 104.867 108.305 104.913 110.917C104.959 113.528 106.011 116.02 107.848 117.867C109.686 119.715 112.164 120.773 114.762 120.819C117.36 120.865 119.874 119.895 121.775 118.115L153.769 85.9878L153.956 85.7861L173.249 90.6387C174.369 90.9216 175.542 90.908 176.655 90.5994C177.768 90.2908 178.782 89.6977 179.6 88.8778L206.339 61.9935C207.181 61.1523 207.784 60.1011 208.088 58.948C208.391 57.7948 208.384 56.5811 208.067 55.4316C207.75 54.2821 207.134 53.2382 206.283 52.407C205.432 51.5759 204.376 50.9874 203.224 50.7021L180.375 44.9757L174.653 21.9897ZM118.927 27.0977C119.111 29.7642 118.234 32.3949 116.489 34.4115C114.744 36.428 112.274 37.6653 109.622 37.8514C95.6527 38.8247 82.2553 43.8094 71.0214 52.2132C59.7875 60.617 51.1893 72.0866 46.2485 85.2591C41.3077 98.4317 40.2319 112.753 43.1491 126.523C46.0663 140.292 52.8538 152.93 62.705 162.934C72.5562 172.939 85.0571 179.89 98.7222 182.961C112.387 186.033 126.642 185.096 139.793 180.261C152.944 175.426 164.438 166.897 172.909 155.688C181.38 144.478 186.473 131.06 187.581 117.026C187.792 114.359 189.048 111.886 191.073 110.15C193.098 108.415 195.725 107.559 198.378 107.771C201.03 107.983 203.49 109.246 205.216 111.281C206.942 113.317 207.794 115.959 207.583 118.625C206.168 136.506 199.677 153.603 188.882 167.885C178.087 182.166 163.442 193.032 146.685 199.191C129.929 205.35 111.766 206.543 94.3551 202.63C76.944 198.716 61.0162 189.859 48.4642 177.112C35.9121 164.365 27.2635 148.263 23.5457 130.719C19.828 113.175 21.1974 94.9271 27.4913 78.1429C33.7852 61.3586 44.739 46.7436 59.0514 36.0343C73.3637 25.3249 90.4329 18.9714 108.231 17.7285C110.883 17.5438 113.5 18.4256 115.506 20.18C117.511 21.9344 118.742 24.4313 118.927 27.0977ZM109.942 71.4434C110.423 72.6764 110.657 73.9924 110.631 75.3164C110.606 76.6404 110.321 77.9464 109.793 79.1597C109.266 80.3731 108.506 81.47 107.556 82.3878C106.607 83.3057 105.487 84.0265 104.26 84.5091C99.8755 86.2384 95.9885 89.0389 92.9505 92.6577C89.9126 96.2765 87.8194 100.599 86.8603 105.236C85.9012 109.872 86.1064 114.675 87.4573 119.212C88.8082 123.748 91.2622 127.875 94.5975 131.219C97.9328 134.562 102.044 137.017 106.56 138.362C111.076 139.707 115.855 139.9 120.463 138.922C125.072 137.944 129.365 135.827 132.956 132.762C136.546 129.697 139.32 125.781 141.027 121.368C141.505 120.134 142.22 119.006 143.13 118.05C144.041 117.094 145.131 116.327 146.336 115.794C147.542 115.261 148.84 114.972 150.156 114.944C151.473 114.915 152.782 115.148 154.01 115.628C155.237 116.108 156.358 116.826 157.309 117.742C158.26 118.658 159.023 119.753 159.553 120.965C160.083 122.177 160.37 123.482 160.399 124.806C160.427 126.13 160.196 127.446 159.719 128.68C156.803 136.217 152.064 142.904 145.932 148.137C139.8 153.371 132.467 156.985 124.597 158.653C116.727 160.321 108.567 159.991 100.855 157.693C93.1433 155.394 86.1231 151.199 80.4289 145.488C74.7346 139.776 70.546 132.728 68.2417 124.98C65.9373 117.232 65.5899 109.029 67.2308 101.112C68.8718 93.1953 72.4493 85.8145 77.64 79.6369C82.8307 73.4593 89.4709 68.6798 96.9603 65.7304C99.4355 64.7591 102.193 64.8151 104.627 65.8863C107.061 66.9574 108.973 68.9561 109.942 71.4434Z" fill="#EE5D4B"/>
</svg>
