<svg width="194" height="187" viewBox="0 0 194 187" fill="none" xmlns="http://www.w3.org/2000/svg">
<path d="M150.667 81.0298L113.595 64.5536V23.3632M150.667 81.0298L187.738 64.5536V23.3632M150.667 81.0298V39.8393M187.738 23.3632L150.667 6.88696L113.595 23.3632M187.738 23.3632L150.667 39.8393M113.595 23.3632L150.667 39.8393M55.9286 113.982C47.1891 113.982 38.8075 110.51 32.6277 104.331C26.4479 98.1509 22.9762 89.7693 22.9762 81.0298C22.9762 72.2903 26.4479 63.9087 32.6277 57.729C38.8075 51.5492 47.1891 48.0774 55.9286 48.0774C64.6681 48.0774 73.0497 51.5492 79.2294 57.729C85.4092 63.9087 88.881 72.2903 88.881 81.0298C88.881 89.7693 85.4092 98.1509 79.2294 104.331C73.0497 110.51 64.6681 113.982 55.9286 113.982ZM55.9286 113.982C27.0952 113.982 6.5 130.458 6.5 163.411V179.887H105.357V163.411C105.357 130.458 84.7619 113.982 55.9286 113.982Z" stroke="#EE5D4B" stroke-width="12.3571"/>
</svg>
