<svg width="361" height="359" viewBox="0 0 361 359" fill="none" xmlns="http://www.w3.org/2000/svg">
<g opacity="0.3">
<path d="M253.383 317.18C253.383 317.18 253.526 317.045 253.811 316.808L255.078 315.739L257.153 314.02L258.476 312.927C258.943 312.531 259.426 312.087 259.941 311.628L263.37 308.555C264.606 307.415 265.897 306.124 267.33 304.761C268.764 303.399 270.15 301.863 271.678 300.279C273.207 298.695 274.759 296.897 276.43 295.044C278.102 293.19 279.662 291.155 281.38 289.08C282.252 288.042 283.036 286.918 283.883 285.801C284.731 284.684 285.594 283.544 286.441 282.364C287.289 281.184 288.097 279.948 288.944 278.713C289.372 278.087 289.807 277.469 290.227 276.836C290.647 276.202 291.019 275.537 291.455 274.887C292.247 273.572 293.134 272.258 293.95 270.927L296.326 266.73C297.165 265.336 297.91 263.847 298.702 262.374C299.494 260.9 300.286 259.412 300.998 257.851L303.224 253.171C303.905 251.587 304.602 249.947 305.299 248.308C310.95 234.744 314.749 220.481 316.593 205.904C316.799 204.146 317.005 202.398 317.211 200.661C317.345 198.919 317.472 197.2 317.607 195.489C317.741 193.778 317.789 192.099 317.86 190.428C317.931 188.757 318.018 187.102 317.987 185.47C317.955 183.839 317.987 182.223 317.987 180.631C317.987 179.039 317.86 177.463 317.805 175.927C317.773 175.151 317.741 174.382 317.71 173.622C317.71 172.83 317.591 172.109 317.535 171.357C317.409 169.857 317.287 168.387 317.171 166.946C317.028 165.496 316.83 164.078 316.672 162.692C316.514 161.306 316.363 159.928 316.126 158.598C315.666 155.945 315.334 153.371 314.795 150.955C314.256 148.539 313.876 146.203 313.306 144.073C312.736 141.942 312.316 139.859 311.722 137.982C311.128 136.105 310.692 134.331 310.186 132.723C309.679 131.115 309.18 129.674 308.744 128.359C308.522 127.702 308.324 127.084 308.118 126.506C307.912 125.928 307.707 125.397 307.516 124.922C307.144 123.924 306.827 123.085 306.574 122.396L305.996 120.812C305.869 120.463 305.814 120.273 305.814 120.273C305.814 120.273 305.901 120.447 306.035 120.796L306.645 122.332C306.915 123.021 307.247 123.861 307.627 124.843C307.825 125.342 308.031 125.88 308.253 126.427C308.475 126.973 308.665 127.623 308.895 128.272L310.376 132.636C310.89 134.22 311.381 136.002 311.96 137.887C312.538 139.772 313.005 141.847 313.544 143.978C314.082 146.108 314.557 148.444 315.072 150.868C315.587 153.291 315.959 155.858 316.426 158.519C316.672 159.849 316.799 161.227 316.981 162.613C317.163 163.999 317.345 165.425 317.496 166.874C317.646 168.324 317.741 169.805 317.868 171.302C317.931 172.054 318.003 172.806 318.05 173.567C318.098 174.327 318.121 175.103 318.153 175.871C318.216 177.455 318.304 179.039 318.343 180.623C318.383 182.207 318.343 183.831 318.343 185.47C318.343 187.11 318.272 188.765 318.224 190.436C318.177 192.107 318.137 193.81 317.979 195.521C317.82 197.232 317.717 198.95 317.583 200.701C317.448 202.451 317.171 204.185 316.965 205.959C315.137 220.576 311.329 234.876 305.647 248.466C304.942 250.105 304.253 251.729 303.564 253.337L301.331 258.026C300.618 259.61 299.794 261.067 299.018 262.556C298.242 264.045 297.498 265.518 296.642 266.92L294.211 271.117C293.419 272.48 292.524 273.794 291.7 275.077L290.465 277.034C290.053 277.667 289.609 278.285 289.182 278.911L286.726 282.538C285.871 283.718 285 284.851 284.16 285.975C283.321 287.1 282.513 288.217 281.634 289.246C279.907 291.329 278.339 293.396 276.66 295.218C274.981 297.039 273.492 298.853 271.908 300.437C270.324 302.021 268.938 303.605 267.489 304.928C266.039 306.25 264.764 307.565 263.529 308.706L260.068 311.747C259.545 312.198 259.07 312.642 258.595 313.038L257.256 314.115L255.157 315.802L253.858 316.839C253.542 317.069 253.383 317.18 253.383 317.18Z" fill="#E0E0E0"/>
<path d="M286.006 286.181C279.282 281.097 276.834 271.719 278.292 263.419C279.749 255.119 284.509 247.753 289.95 241.314C294.931 247.65 297.973 256.79 296.816 264.758C295.66 272.725 291.122 279.315 286.006 286.181Z" fill="#E0E0E0"/>
<path d="M285.974 286.189C284.81 277.841 289.72 269.478 296.618 264.639C303.517 259.8 312.094 257.954 320.497 257.25C319.547 265.241 315.215 273.882 308.776 278.681C302.337 283.481 294.456 284.954 285.974 286.189Z" fill="#E0E0E0"/>
<path d="M308.958 242.146C302.551 238.843 299.129 231.303 299.145 224.096C299.161 216.889 302.099 209.991 305.735 203.781C310.851 208.375 314.747 215.661 314.938 222.52C315.128 229.379 312.261 235.612 308.95 242.146" fill="#E0E0E0"/>
<path d="M308.902 242.154C306.716 235.295 309.631 227.542 314.731 222.457C319.832 217.372 326.794 214.576 333.739 212.755C334.104 219.622 331.712 227.518 326.984 232.515C322.255 237.513 315.832 239.881 308.871 242.154" fill="#E0E0E0"/>
<path d="M318.724 197.921C312.934 197.129 308.269 192.297 306.321 186.785C304.373 181.273 304.737 175.198 305.854 169.456C311.01 171.579 315.959 176.085 317.971 181.289C319.983 186.492 319.484 192.028 318.724 197.921Z" fill="#E0E0E0"/>
<path d="M318.707 197.937C315.167 193.28 315.286 186.563 317.812 181.305C320.339 176.046 324.893 171.999 329.692 168.72C331.839 173.868 332.156 180.56 329.898 185.661C327.641 190.761 323.372 194.317 318.668 197.952" fill="#E0E0E0"/>
<path d="M316.529 156.848C311.365 157.252 306.423 153.925 303.715 149.514C301.006 145.103 300.19 139.78 300.071 134.601C304.934 135.48 310.066 138.458 312.743 142.592C315.42 146.726 316.054 151.605 316.497 156.848" fill="#E0E0E0"/>
<path d="M316.513 156.864C312.553 153.498 311.436 147.653 312.64 142.608C313.844 137.563 317.036 133.23 320.616 129.492C323.435 133.547 324.956 139.281 323.95 144.12C322.944 148.96 319.911 152.832 316.513 156.856" fill="#E0E0E0"/>
<path d="M308.577 126.53C308.577 126.53 314.288 107.474 294.915 104.354C294.915 104.386 289.831 122.008 308.577 126.53Z" fill="#E0E0E0"/>
</g>
<g opacity="0.4">
<path d="M161.415 0.990017L173.556 85.4647L173.897 85.4093L185.714 168.197L197.419 85.3935H197.602L209.26 2.31266C193.44 -0.235538 177.352 -0.680274 161.415 0.990017Z" fill="#423A36"/>
<path d="M174.32 84.8339L173.979 84.8894L161.984 1.43388C177.545 -0.151985 193.247 0.283342 208.696 2.72904L197.167 84.8935H196.985L196.924 85.3235L185.711 164.642L174.392 85.3386L174.32 84.8339Z" stroke="white" stroke-opacity="0.15"/>
</g>
<g opacity="0.4">
<path d="M295.508 41.5958C283.215 31.3658 269.616 22.8165 255.069 16.1726L220.585 92.165L220.767 92.2442L185.927 168.886L295.508 41.5958Z" fill="#423A36"/>
<path d="M294.797 41.6555L187.829 165.91L221.222 92.4511L221.433 91.9884L221.25 91.909L255.317 16.8363C269.498 23.3608 282.77 31.704 294.797 41.6555Z" stroke="white" stroke-opacity="0.15"/>
</g>
<g opacity="0.4">
<mask id="path-15-inside-1_1959_316" fill="white">
<path d="M104.803 145.419L185.08 168.926H184.763L185.555 169.155H185.61L185.658 169.1L185.721 169.147H185.61L185.666 169.187H185.713H185.761H185.706L186.03 169.329L185.769 169.163L266.505 192.796L266.458 192.971L356.207 219.305C359.065 206.433 360.505 193.286 360.5 180.101C360.5 176.347 360.365 172.616 360.143 168.918H270.046V169.06L185.927 169.147V169.076L186.3 168.965L185.999 169.163L186.743 168.941H186.379L350.323 120.336C344.897 104.923 337.397 90.3219 328.028 76.9347L186.26 168.902H185.967L186.086 168.759L185.872 168.902L185.951 168.45L185.793 168.791V168.902L185.698 168.973L185.658 168.902H185.595V168.783L185.46 168.498L185.515 168.87L185.349 168.759L185.436 168.862H185.159L35.7878 72.7134C25.4697 86.5618 17.2008 101.825 11.2358 118.032L104.803 145.419ZM185.666 169.147V169.203H185.626L185.365 169.036L185.666 169.147Z"/>
</mask>
<path d="M104.803 145.419L185.08 168.926H184.763L185.555 169.155H185.61L185.658 169.1L185.721 169.147H185.61L185.666 169.187H185.713H185.761H185.706L186.03 169.329L185.769 169.163L266.505 192.796L266.458 192.971L356.207 219.305C359.065 206.433 360.505 193.286 360.5 180.101C360.5 176.347 360.365 172.616 360.143 168.918H270.046V169.06L185.927 169.147V169.076L186.3 168.965L185.999 169.163L186.743 168.941H186.379L350.323 120.336C344.897 104.923 337.397 90.3219 328.028 76.9347L186.26 168.902H185.967L186.086 168.759L185.872 168.902L185.951 168.45L185.793 168.791V168.902L185.698 168.973L185.658 168.902H185.595V168.783L185.46 168.498L185.515 168.87L185.349 168.759L185.436 168.862H185.159L35.7878 72.7134C25.4697 86.5618 17.2008 101.825 11.2358 118.032L104.803 145.419ZM185.666 169.147V169.203H185.626L185.365 169.036L185.666 169.147Z" fill="#423A36"/>
<path d="M185.785 169.679H185.832V168.679H185.785V169.679ZM185.666 168.647H185.626V169.647H185.666V168.647ZM104.803 145.419L105.084 144.459L105.084 144.459L104.803 145.419ZM185.08 168.926V169.926L185.361 167.966L185.08 168.926ZM184.763 168.926V167.926L184.485 169.886L184.763 168.926ZM185.555 169.155L185.277 170.116L185.413 170.155H185.555V169.155ZM185.61 169.155V170.155H186.07L186.37 169.806L185.61 169.155ZM185.658 169.1L186.258 168.3L185.508 167.738L184.899 168.449L185.658 169.1ZM185.721 169.147V170.147H188.721L186.321 168.347L185.721 169.147ZM185.61 169.147V168.147H182.49L185.029 169.961L185.61 169.147ZM185.666 169.187L185.085 170.001L185.345 170.187H185.666V169.187ZM185.706 169.187V168.187L185.304 170.103L185.706 169.187ZM186.03 169.329L185.628 170.245L186.567 168.486L186.03 169.329ZM185.769 169.163L186.05 168.203L185.232 170.007L185.769 169.163ZM266.505 192.796L267.47 193.06L267.728 192.112L266.786 191.837L266.505 192.796ZM266.458 192.971L265.493 192.708L265.235 193.654L266.176 193.93L266.458 192.971ZM356.207 219.305L355.926 220.264L356.952 220.565L357.184 219.521L356.207 219.305ZM360.5 180.101H359.5V180.101L360.5 180.101ZM360.143 168.918L361.142 168.858L361.085 167.918H360.143V168.918ZM270.046 168.918V167.918H269.046V168.918H270.046ZM270.046 169.06L270.047 170.06L271.046 170.059V169.06H270.046ZM185.927 169.147H184.927V170.148L185.928 170.147L185.927 169.147ZM185.927 169.076L185.642 168.118L184.927 168.33V169.076H185.927ZM186.3 168.965L186.849 169.801L186.014 168.007L186.3 168.965ZM185.999 169.163L185.449 168.328L186.284 170.122L185.999 169.163ZM186.743 168.941L187.029 169.9L186.743 167.941V168.941ZM186.379 168.941L186.094 167.983L186.379 169.941V168.941ZM350.323 120.336L350.607 121.295L351.615 120.996L351.266 120.004L350.323 120.336ZM328.028 76.9347L328.847 76.3614L328.294 75.5704L327.484 76.0958L328.028 76.9347ZM186.26 168.902V169.902H186.556L186.804 169.741L186.26 168.902ZM185.967 168.902L185.199 168.262L183.832 169.902H185.967V168.902ZM186.086 168.759L186.854 169.399L185.531 167.927L186.086 168.759ZM185.872 168.902L184.887 168.729L184.483 171.029L186.426 169.734L185.872 168.902ZM185.951 168.45L186.936 168.623L185.044 168.029L185.951 168.45ZM185.793 168.791L184.886 168.369L184.793 168.57V168.791H185.793ZM185.793 168.902L186.393 169.702L186.793 169.402V168.902H185.793ZM185.698 168.973L184.823 169.459L185.38 170.461L186.298 169.773L185.698 168.973ZM185.658 168.902L186.532 168.416L186.247 167.902H185.658V168.902ZM185.595 168.902H184.595V169.902H185.595V168.902ZM185.595 168.783H186.595V168.559L186.499 168.356L185.595 168.783ZM185.46 168.498L186.364 168.071L184.471 168.645L185.46 168.498ZM185.515 168.87L184.961 169.702L186.837 170.953L186.505 168.723L185.515 168.87ZM185.349 168.759L185.904 167.927L184.586 169.405L185.349 168.759ZM185.436 168.862V169.862H187.592L186.2 168.216L185.436 168.862ZM185.159 168.862L184.618 169.703L184.865 169.862H185.159V168.862ZM35.7878 72.7134L36.3291 71.8725L35.5439 71.3671L34.9859 72.1159L35.7878 72.7134ZM11.2358 118.032L10.2974 117.686L9.92769 118.691L10.9549 118.991L11.2358 118.032ZM185.666 169.147H186.666V168.45L186.012 168.209L185.666 169.147ZM185.666 169.203V170.203H186.666V169.203H185.666ZM185.626 169.203L185.089 170.046L185.335 170.203H185.626V169.203ZM185.365 169.036L185.711 168.098L184.828 169.88L185.365 169.036ZM104.522 146.379L184.799 169.885L185.361 167.966L105.084 144.459L104.522 146.379ZM185.08 167.926H184.763V169.926H185.08V167.926ZM184.485 169.886L185.277 170.116L185.834 168.195L185.042 167.965L184.485 169.886ZM185.555 170.155H185.61V168.155H185.555V170.155ZM186.37 169.806L186.417 169.751L184.899 168.449L184.851 168.504L186.37 169.806ZM185.058 169.9L185.121 169.947L186.321 168.347L186.258 168.3L185.058 169.9ZM185.721 168.147H185.61V170.147H185.721V168.147ZM185.029 169.961L185.085 170.001L186.247 168.373L186.192 168.334L185.029 169.961ZM185.666 170.187H185.713V168.187H185.666V170.187ZM185.713 170.187H185.761V168.187H185.713V170.187ZM185.761 168.187H185.706V170.187H185.761V168.187ZM185.304 170.103L185.628 170.245L186.432 168.414L186.108 168.271L185.304 170.103ZM186.567 168.486L186.306 168.319L185.232 170.007L185.493 170.173L186.567 168.486ZM185.488 170.123L266.224 193.756L266.786 191.837L186.05 168.203L185.488 170.123ZM265.541 192.533L265.493 192.708L267.423 193.234L267.47 193.06L265.541 192.533ZM266.176 193.93L355.926 220.264L356.489 218.345L266.739 192.011L266.176 193.93ZM357.184 219.521C360.057 206.578 361.505 193.359 361.5 180.1L359.5 180.101C359.505 193.214 358.073 206.287 355.231 219.088L357.184 219.521ZM361.5 180.101C361.5 176.323 361.364 172.572 361.142 168.858L359.145 168.977C359.366 172.66 359.5 176.37 359.5 180.101H361.5ZM360.143 167.918H270.046V169.918H360.143V167.918ZM269.046 168.918V169.06H271.046V168.918H269.046ZM270.045 168.06L185.926 168.147L185.928 170.147L270.047 170.06L270.045 168.06ZM186.927 169.147V169.076H184.927V169.147H186.927ZM186.213 170.034L186.585 169.924L186.014 168.007L185.642 168.118L186.213 170.034ZM185.75 168.13L185.449 168.328L186.548 169.999L186.849 169.801L185.75 168.13ZM186.284 170.122L187.029 169.9L186.458 167.983L185.713 168.205L186.284 170.122ZM186.743 167.941H186.379V169.941H186.743V167.941ZM186.663 169.9L350.607 121.295L350.038 119.378L186.094 167.983L186.663 169.9ZM351.266 120.004C345.811 104.506 338.268 89.8229 328.847 76.3614L327.209 77.5081C336.525 90.8208 343.984 105.341 349.379 120.668L351.266 120.004ZM327.484 76.0958L185.716 168.063L186.804 169.741L328.572 77.7737L327.484 76.0958ZM186.26 167.902H185.967V169.902H186.26V167.902ZM186.735 169.542L186.854 169.399L185.318 168.119L185.199 168.262L186.735 169.542ZM185.531 167.927L185.317 168.07L186.426 169.734L186.64 169.591L185.531 167.927ZM186.857 169.075L186.936 168.623L184.966 168.278L184.887 168.729L186.857 169.075ZM185.044 168.029L184.886 168.369L186.699 169.213L186.858 168.872L185.044 168.029ZM184.793 168.791V168.902H186.793V168.791H184.793ZM185.193 168.102L185.098 168.173L186.298 169.773L186.393 169.702L185.193 168.102ZM186.572 168.488L186.532 168.416L184.784 169.387L184.823 169.459L186.572 168.488ZM185.658 167.902H185.595V169.902H185.658V167.902ZM186.595 168.902V168.783H184.595V168.902H186.595ZM186.499 168.356L186.364 168.071L184.556 168.925L184.69 169.21L186.499 168.356ZM184.471 168.645L184.526 169.017L186.505 168.723L186.449 168.351L184.471 168.645ZM186.07 168.038L185.904 167.927L184.794 169.591L184.961 169.702L186.07 168.038ZM184.586 169.405L184.673 169.508L186.2 168.216L186.112 168.113L184.586 169.405ZM185.436 167.862H185.159V169.862H185.436V167.862ZM185.7 168.021L36.3291 71.8725L35.2466 73.5542L184.618 169.703L185.7 168.021ZM34.9859 72.1159C24.6104 86.0414 16.2955 101.389 10.2974 117.686L12.1743 118.377C18.106 102.26 26.329 87.0823 36.5897 73.3108L34.9859 72.1159ZM10.9549 118.991L104.522 146.379L105.084 144.459L11.5168 117.072L10.9549 118.991ZM184.666 169.147V169.203H186.666V169.147H184.666ZM185.666 168.203H185.626V170.203H185.666V168.203ZM186.163 168.359L185.902 168.193L184.828 169.88L185.089 170.046L186.163 168.359ZM185.019 169.975L185.32 170.086L186.012 168.209L185.711 168.098L185.019 169.975Z" fill="white" fill-opacity="0.15" mask="url(#path-15-inside-1_1959_316)"/>
</g>
<g opacity="0.4">
<path d="M130.416 105.296L185.5 168.862L150.564 92.3077L114.117 12.585C98.7378 18.6815 84.274 26.8715 71.1348 36.9231L130.416 105.296Z" fill="#423A36"/>
<path d="M130.794 104.969L130.794 104.969L71.8613 36.9978C84.7253 27.2172 98.8527 19.2205 113.86 13.2254L150.11 92.5153L150.11 92.5156L183.603 165.91L130.794 104.969Z" stroke="white" stroke-opacity="0.15"/>
</g>
<g opacity="0.4">
<path d="M256.669 214.838L256.621 214.918L186.054 169.48L241.082 232.959L240.947 233.07L306.414 308.762C318.886 296.549 329.522 282.595 337.991 267.332L256.669 214.838Z" fill="#423A36"/>
<path d="M306.444 308.032L241.661 233.13L241.796 233.019L241.46 232.632L188.718 171.791L256.35 215.338L256.784 215.617L256.832 215.539L337.327 267.498C329.004 282.404 318.606 296.052 306.444 308.032Z" stroke="white" stroke-opacity="0.15"/>
</g>
<path d="M185.832 169.33L185.816 169.322L185.824 169.338L185.832 169.33Z" fill="#F5F5F5"/>
<path d="M185.626 169.171L185.618 169.195L185.587 169.171L185.595 169.234L185.603 169.226V169.234L185.658 169.218L185.626 169.202L185.65 169.179H185.666L185.658 169.163L185.666 169.155H185.587L185.626 169.171Z" fill="#F5F5F5"/>
<path d="M185.563 169.25L185.571 169.163L185.555 169.155L185.223 169.345L185.563 169.25Z" fill="#F5F5F5"/>
<g opacity="0.4">
<path d="M185.365 169.504L114.98 215.171L114.814 214.917L25.7849 272.559C35.145 288.177 46.8108 302.291 60.3874 314.424L141.171 220.833L185.365 169.504Z" fill="#423A36"/>
<path d="M26.4626 272.716L114.668 215.607L114.835 215.861L115.252 215.59L182.708 171.824L140.793 220.507L140.792 220.507L60.3417 313.712C47.0841 301.797 35.6668 287.981 26.4626 272.716Z" stroke="white" stroke-opacity="0.15"/>
</g>
<g opacity="0.4">
<path d="M104.85 193.05L185.523 169.155L0.599248 169.353C0.385408 172.909 0.266609 176.481 0.266609 180.101C0.262439 194.363 1.94794 208.575 5.28789 222.441L104.85 193.058V193.05Z" fill="#423A36"/>
<path d="M104.708 192.57L104.35 192.677V192.684L5.65155 221.812C2.4021 208.147 0.762502 194.148 0.766609 180.101V180.101C0.766609 176.651 0.874828 173.245 1.07068 169.853L182.062 169.659L104.708 192.57Z" stroke="white" stroke-opacity="0.15"/>
</g>
<g opacity="0.4">
<path d="M185.484 169.789L106.11 344.227C122.801 351.779 140.553 356.724 158.746 358.887L185.484 169.789Z" fill="#423A36"/>
<path d="M158.319 358.332C140.513 356.165 123.136 351.326 106.773 343.977L184.504 173.151L158.319 358.332Z" stroke="white" stroke-opacity="0.15"/>
</g>
<path d="M185.847 169.195L185.824 169.21L185.84 169.226L185.847 169.195Z" fill="#F5F5F5"/>
<g opacity="0.4">
<path d="M185.927 169.773L212.689 357.303C230.421 354.09 247.567 348.216 263.543 339.879L185.927 169.773Z" fill="#423A36"/>
<path d="M213.11 356.717L186.912 173.136L262.891 339.654C247.233 347.772 230.456 353.523 213.11 356.717Z" stroke="white" stroke-opacity="0.15"/>
</g>
<path d="M185.626 169.472L185.721 170.106L185.808 169.496L185.713 169.29L185.626 169.472Z" fill="#F5F5F5"/>
<path d="M185.816 169.219H185.801L185.816 169.227V169.219Z" fill="#F5F5F5"/>
<g opacity="0.3">
<path d="M111.8 317.18C111.8 317.18 111.641 317.069 111.348 316.84L110.057 315.802L107.95 314.115L106.62 313.038C106.145 312.642 105.662 312.199 105.139 311.747L101.686 308.706C100.442 307.565 99.1434 306.282 97.7258 304.928C96.3081 303.574 94.8587 302.037 93.3064 300.437C91.7541 298.837 90.2018 297.063 88.5544 295.218C86.907 293.373 85.2993 291.329 83.5727 289.246C82.7015 288.217 81.9016 287.092 81.0542 285.975C80.2067 284.859 79.3355 283.718 78.4881 282.538L75.9616 278.895C75.5418 278.269 75.0983 277.651 74.6786 277.018C74.2588 276.384 73.8866 275.719 73.443 275.062C72.651 273.747 71.7561 272.432 70.9324 271.102L68.5089 266.904C67.6614 265.502 66.9249 264.013 66.1329 262.54C65.3409 261.067 64.5489 259.57 63.8282 258.01L61.5947 253.321C60.9083 251.737 60.214 250.114 59.5118 248.45C53.832 234.859 50.0221 220.56 48.1862 205.944L47.5763 200.685C47.4443 198.937 47.3123 197.211 47.1803 195.505C47.0219 193.795 46.9982 192.1 46.9348 190.421C46.8714 188.742 46.7764 187.094 46.816 185.455C46.8556 183.815 46.816 182.2 46.816 180.608C46.816 179.016 46.9427 177.44 47.0061 175.856C47.0061 175.064 47.0694 174.319 47.109 173.551C47.1486 172.783 47.2278 172.038 47.2833 171.286C47.41 169.789 47.5367 168.308 47.6555 166.859C47.7743 165.409 48.004 163.999 48.1703 162.598C48.3366 161.196 48.4871 159.834 48.7326 158.503C49.1999 155.842 49.5246 153.268 50.087 150.852C50.6493 148.437 51.0294 146.1 51.6155 143.962C52.2016 141.823 52.6214 139.748 53.1995 137.871C53.7777 135.994 54.2529 134.22 54.7835 132.62C55.3142 131.021 55.821 129.571 56.2725 128.257C56.4942 127.607 56.7002 126.981 56.914 126.411L57.5318 124.827C57.9198 123.845 58.2446 123.006 58.5138 122.317C58.7831 121.627 58.9811 121.136 59.1237 120.78C59.2662 120.424 59.3454 120.257 59.3454 120.257C59.3454 120.257 59.29 120.447 59.1633 120.796L58.593 122.38C58.3396 123.069 58.0228 123.908 57.6506 124.906L57.0407 126.49C56.8348 127.069 56.6447 127.686 56.423 128.344L54.9736 132.708C54.4746 134.292 53.9915 136.081 53.445 137.966C52.8986 139.851 52.4234 141.926 51.861 144.057C51.2987 146.187 50.8631 148.524 50.3642 150.939C49.8652 153.355 49.493 155.929 49.0415 158.582C48.796 159.913 48.6772 161.283 48.495 162.677C48.3129 164.071 48.1386 165.481 47.9882 166.93L47.6318 171.341C47.5763 172.094 47.4971 172.846 47.4575 173.606C47.4179 174.367 47.3942 175.135 47.3546 175.911C47.2991 177.495 47.212 179.024 47.1803 180.616V185.455C47.1803 187.086 47.2516 188.734 47.307 190.413C47.3625 192.092 47.3942 193.771 47.5605 195.474L47.9565 200.645C48.1624 202.377 48.3683 204.125 48.5742 205.888C50.4082 220.468 54.2073 234.732 59.8682 248.292L61.9432 253.155L64.1608 257.836C64.8657 259.42 65.6973 260.869 66.4655 262.358C67.2338 263.847 67.9782 265.32 68.8415 266.714L71.2571 270.912C72.0491 272.274 72.9362 273.589 73.7598 274.872C74.1717 275.521 74.5518 276.17 74.9874 276.82C75.423 277.469 75.8428 278.071 76.2626 278.697L78.7732 282.348C79.6206 283.528 80.4918 284.661 81.3234 285.785C82.155 286.91 82.9629 288.027 83.8341 289.064C85.5448 291.139 87.113 293.206 88.7841 295.028C90.4552 296.85 91.9521 298.679 93.5361 300.263C95.1201 301.847 96.4902 303.431 97.9238 304.77C99.3573 306.108 100.632 307.423 101.884 308.563L105.313 311.636C105.828 312.096 106.303 312.539 106.77 312.935L108.093 314.028L110.168 315.747L111.443 316.816C111.657 317.046 111.8 317.18 111.8 317.18Z" fill="#E0E0E0"/>
<path d="M79.1852 286.181C85.9093 281.097 88.3487 271.719 86.8914 263.419C85.4341 255.119 80.6821 247.753 75.2331 241.314C70.2594 247.65 67.2181 256.79 68.3665 264.758C69.5149 272.725 74.061 279.315 79.1852 286.181Z" fill="#E0E0E0"/>
<path d="M79.2166 286.189C80.373 277.841 75.4705 269.478 68.5642 264.639C61.658 259.8 53.0965 257.954 44.6934 257.25C45.6358 265.241 49.9681 273.882 56.415 278.681C62.8618 283.481 70.7343 284.954 79.2166 286.189Z" fill="#E0E0E0"/>
<path d="M56.233 242.146C62.6403 238.843 66.0618 231.303 66.038 224.096C66.0142 216.889 63.0918 209.991 59.4406 203.781C54.3243 208.375 50.4356 215.661 50.2455 222.52C50.0554 229.379 52.9225 235.612 56.233 242.146Z" fill="#E0E0E0"/>
<path d="M56.2567 242.154C58.4505 235.295 55.5359 227.542 50.4275 222.457C45.3191 217.372 38.3654 214.576 31.4195 212.755C31.0552 219.622 33.4471 227.518 38.1674 232.515C42.8877 237.513 49.3187 239.881 56.2804 242.154" fill="#E0E0E0"/>
<path d="M46.4673 197.921C52.2568 197.129 56.9217 192.297 58.8621 186.785C60.8025 181.273 60.4461 175.198 59.3373 169.456C54.1814 171.579 49.2234 176.085 47.2118 181.289C45.2001 186.492 45.707 192.028 46.4673 197.921Z" fill="#E0E0E0"/>
<path d="M46.4832 197.937C50.0234 193.28 49.8967 186.564 47.3702 181.305C44.8438 176.046 40.3214 171.975 35.4586 168.704C33.3122 173.852 32.9954 180.545 35.2526 185.645C37.5098 190.745 41.7787 194.302 46.4832 197.937Z" fill="#E0E0E0"/>
<path d="M48.6614 156.848C53.8252 157.252 58.7673 153.925 61.4759 149.514C64.1846 145.103 64.9924 139.78 65.1112 134.601C60.2483 135.48 55.1241 138.458 52.4392 142.592C49.7543 146.726 49.1366 151.605 48.6931 156.848" fill="#E0E0E0"/>
<path d="M48.6692 156.864C52.6292 153.498 53.7538 147.653 52.55 142.608C51.3462 137.563 48.1465 133.23 44.5746 129.492C41.755 133.547 40.2344 139.281 41.2402 144.12C42.2461 148.96 45.2715 152.832 48.6692 156.856" fill="#E0E0E0"/>
<path d="M56.6051 126.53C56.6051 126.53 50.8947 107.474 70.2671 104.354C70.2671 104.386 75.3596 122.008 56.6051 126.53Z" fill="#E0E0E0"/>
</g>
<path d="M240.908 120.582L241.162 121.374C241.217 121.562 241.319 121.732 241.457 121.871C241.595 122.009 241.766 122.111 241.954 122.166L242.746 122.419L241.954 122.705C241.787 122.76 241.635 122.854 241.51 122.977C241.386 123.101 241.291 123.251 241.233 123.417L240.94 124.257L240.615 123.378C240.555 123.215 240.458 123.068 240.334 122.948C240.209 122.827 240.059 122.736 239.895 122.681L239.103 122.419L239.895 122.158C240.055 122.103 240.201 122.014 240.323 121.896C240.445 121.778 240.539 121.635 240.599 121.477L240.908 120.582Z" fill="#EE5D4B"/>
<path d="M214.511 83.271L214.772 84.063C214.825 84.252 214.925 84.4242 215.064 84.5629C215.203 84.7017 215.375 84.8023 215.564 84.855L216.356 85.1084L215.564 85.3936C215.398 85.4509 215.247 85.5447 215.123 85.668C214.998 85.7914 214.903 85.9412 214.843 86.1064L214.55 86.9459L214.234 86.0747C214.173 85.9101 214.075 85.7614 213.949 85.6394C213.823 85.5174 213.671 85.4253 213.505 85.3698L212.713 85.1084L213.505 84.8471C213.665 84.7939 213.811 84.706 213.933 84.5896C214.055 84.4732 214.149 84.3312 214.21 84.1739L214.511 83.271Z" fill="#EE5D4B"/>
<path d="M124.571 244.839L124.825 245.631C124.878 245.82 124.978 245.992 125.117 246.131C125.256 246.27 125.428 246.37 125.617 246.423L126.409 246.676L125.617 246.962C125.451 247.019 125.3 247.113 125.175 247.236C125.051 247.359 124.955 247.509 124.896 247.674L124.611 248.514L124.286 247.643C124.225 247.478 124.128 247.329 124.002 247.207C123.876 247.085 123.724 246.993 123.558 246.938L122.766 246.676L123.558 246.415C123.719 246.361 123.867 246.271 123.99 246.154C124.113 246.036 124.209 245.893 124.27 245.734L124.571 244.839Z" fill="#EE5D4B"/>
<path d="M214.511 218.774L214.772 219.566C214.825 219.755 214.925 219.927 215.064 220.066C215.203 220.205 215.375 220.305 215.564 220.358L216.356 220.612L215.564 220.897C215.398 220.954 215.247 221.048 215.123 221.171C214.998 221.295 214.903 221.444 214.843 221.61L214.55 222.449L214.234 221.578C214.173 221.413 214.075 221.265 213.949 221.143C213.823 221.021 213.671 220.928 213.505 220.873L212.713 220.612L213.505 220.35C213.665 220.297 213.811 220.209 213.933 220.093C214.055 219.976 214.149 219.834 214.21 219.677L214.511 218.774Z" fill="#EE5D4B"/>
<path d="M233.447 88.4426L234.493 91.7927C234.715 92.5352 235.116 93.2121 235.66 93.7643C236.204 94.3164 236.874 94.7272 237.613 94.9607L240.979 96.0062L237.598 97.1625C236.913 97.3946 236.29 97.78 235.777 98.2892C235.264 98.7984 234.873 99.418 234.635 100.101L233.447 103.538L232.085 99.9028C231.838 99.2323 231.442 98.6263 230.928 98.1299C230.414 97.6335 229.794 97.2595 229.115 97.0358L225.876 95.9428L229.044 94.8657C229.701 94.642 230.301 94.2773 230.801 93.797C231.302 93.3168 231.692 92.7327 231.943 92.0858L233.447 88.4426Z" fill="#EE5D4B"/>
<path d="M156.038 281.437L157.075 284.795C157.304 285.531 157.708 286.201 158.253 286.746C158.798 287.291 159.467 287.695 160.203 287.924L163.562 288.969L160.188 290.118C159.502 290.351 158.879 290.737 158.365 291.248C157.852 291.758 157.462 292.38 157.226 293.064L156.038 296.501L154.707 292.913C154.461 292.242 154.067 291.635 153.554 291.137C153.042 290.64 152.423 290.264 151.745 290.038L148.506 288.969L151.674 287.892C152.332 287.669 152.933 287.305 153.436 286.825C153.938 286.344 154.329 285.76 154.58 285.112L156.038 281.437Z" fill="#EE5D4B"/>
<path d="M142.185 119.252L142.613 120.638C142.709 120.941 142.876 121.216 143.101 121.441C143.326 121.666 143.601 121.833 143.904 121.929L145.29 122.356L143.896 122.832C143.614 122.93 143.358 123.09 143.146 123.302C142.935 123.513 142.774 123.769 142.676 124.051L142.185 125.469L141.639 123.988C141.535 123.711 141.372 123.461 141.159 123.255C140.947 123.05 140.691 122.894 140.411 122.8L139.073 122.356L140.395 121.913C140.666 121.82 140.913 121.669 141.12 121.47C141.326 121.272 141.487 121.031 141.591 120.764L142.185 119.252Z" fill="#EE5D4B"/>
<path d="M178.697 274.523L179.124 275.909C179.219 276.212 179.387 276.486 179.611 276.71C179.836 276.933 180.112 277.099 180.415 277.192L181.801 277.628L180.384 278.103C180.101 278.2 179.844 278.36 179.633 278.572C179.421 278.783 179.261 279.04 179.164 279.323L178.673 280.74L178.126 279.251C178.023 278.975 177.859 278.726 177.647 278.522C177.434 278.318 177.179 278.164 176.899 278.071L175.56 277.628L176.883 277.184C177.154 277.091 177.401 276.94 177.607 276.742C177.814 276.544 177.975 276.303 178.079 276.036L178.697 274.523Z" fill="#EE5D4B"/>
<path d="M160.829 189.043C160.829 189.835 141.314 255.317 141.314 255.317L158.089 247.817L167.276 268.069L179.084 190.065L160.829 189.043Z" fill="#EE5D4B"/>
<path d="M175.109 191.815L179.084 266.92L193.697 246.32L212.57 259.824L193.697 186.057L175.109 191.815Z" fill="#EE5D4B"/>
<g opacity="0.5">
<path d="M159.561 194.009C159.996 195.402 160.844 196.63 161.992 197.531C163.141 198.432 164.536 198.963 165.992 199.054C167.711 199.125 169.604 198.594 171.053 199.529C172.503 200.464 173.112 202.642 174.815 202.871C176.811 203.156 177.983 200.495 179.868 199.862C182.442 199.022 185.143 202.127 187.677 201.168C189.309 200.551 190.053 198.452 191.78 198C192.538 197.873 193.314 197.9 194.061 198.08C194.951 198.178 195.851 198.007 196.643 197.589L195.716 193.969L194.132 186.944H160.203L159.561 194.009Z" fill="black"/>
</g>
<path d="M179.401 135.543C181.067 135.686 182.711 136.015 184.304 136.525C184.301 136.254 184.352 135.985 184.454 135.733C185.89 131.889 187.321 128.053 188.747 124.225L188.85 124.13C188.255 123.795 187.764 123.302 187.432 122.705C187.019 122.06 186.447 121.533 185.772 121.172C185.097 120.811 184.34 120.63 183.575 120.646C182.783 123.909 181.84 128.375 181.144 131.155C180.846 132.715 180.254 134.204 179.401 135.543Z" fill="#EE5D4B"/>
<path d="M158.73 170.518C157.669 168.937 156.813 167.229 156.18 165.433C155.958 165.65 155.686 165.808 155.388 165.893L155.047 166.011C154.835 166.148 154.613 166.267 154.382 166.368C153.662 166.643 152.926 166.879 152.18 167.073L149.471 167.825C147.547 168.348 145.797 168.799 144.529 169.1C143.853 169.307 143.158 169.447 142.454 169.52C143.095 169.221 143.763 168.988 144.45 168.823L146.177 168.316L142.217 169.195C141.702 171.445 140.11 173.852 141.512 175.587C141.66 175.764 141.834 175.919 142.027 176.046C147.072 174.177 153.542 171.761 157.779 170.645C158.087 170.548 158.408 170.505 158.73 170.518Z" fill="#EE5D4B"/>
<path d="M171.719 134.965C171.719 135.187 171.719 135.377 171.719 135.551C171.719 135.725 171.719 135.963 171.719 136.161C173.53 135.692 175.392 135.45 177.263 135.44C177.263 135.337 177.263 135.234 177.263 135.131L177.524 130.965C177.524 130.688 177.524 130.403 177.524 130.11C177.579 127.116 177.698 124.637 177.801 124.154C176.962 123.164 176.162 121.089 174.467 120.867C173.065 120.685 172.336 120.867 171.742 121.438C171.806 125.603 171.671 130.87 171.719 134.965Z" fill="#EE5D4B"/>
<path d="M149.836 149.561C150.184 149.699 150.533 149.825 150.881 149.942C149.4 149.356 147.879 148.722 146.422 148.096C147.428 148.564 148.576 149.07 149.836 149.561Z" fill="#EE5D4B"/>
<path d="M154.928 156.84C155.029 155.098 155.332 153.373 155.831 151.7C155.388 151.565 154.928 151.415 154.461 151.257C152.835 150.988 151.242 150.547 149.709 149.942C147.985 149.255 146.305 148.461 144.68 147.566C143.809 147.099 143.191 146.774 142.898 146.544L141.947 146.14C141.33 147.146 140.363 147.97 139.69 148.976C139.329 149.547 139.134 150.208 139.128 150.884C144.284 152.294 150.509 154.155 154.841 156.737L154.928 156.84Z" fill="#EE5D4B"/>
<path d="M156.671 149.197C157.306 147.708 158.103 146.292 159.047 144.976L158.706 144.754C156.103 143.024 153.711 140.996 151.578 138.711L151.523 138.648C150.557 137.856 149.638 137.009 148.822 136.272C148.713 136.619 148.526 136.936 148.276 137.199C147.048 138.426 144.743 137.634 143.389 138.719C142.91 139.118 142.601 139.685 142.526 140.303C146.829 142.693 150.998 145.316 155.015 148.16C155.665 148.564 156.243 148.92 156.671 149.197Z" fill="#EE5D4B"/>
<path d="M158.825 141.396C159.379 142.188 159.87 142.869 160.235 143.408C161.468 141.952 162.881 140.659 164.44 139.559C163.965 138.957 163.379 138.173 162.73 137.302C162.151 136.636 161.494 135.844 160.805 134.981C159.791 133.706 158.92 132.526 158.318 131.647C157.959 131.196 157.658 130.701 157.423 130.174C157.423 130.174 157.669 130.379 158.009 130.799C157.455 130.007 156.932 129.334 156.473 128.732C156.147 129.463 155.619 130.087 154.952 130.53C153.954 131.124 152.632 131.092 151.499 131.322C153.791 134.069 155.907 136.957 157.835 139.971L158.825 141.396Z" fill="#EE5D4B"/>
<path d="M165.842 138.64C167.14 137.859 168.515 137.214 169.945 136.715C169.889 136.549 169.842 136.375 169.786 136.177C169.477 135.108 169.105 133.619 168.78 131.948C168.456 130.277 168.242 128.78 168.123 127.655C168.05 127.085 168.013 126.511 168.012 125.936L167.965 125.627C167.434 125.671 166.901 125.608 166.395 125.444C165.89 125.279 165.421 125.016 165.018 124.669C163.712 123.497 161.494 123.647 159.783 124.384C161.589 128.732 164.29 134.68 165.779 138.49C165.802 138.537 165.818 138.585 165.842 138.64Z" fill="#EE5D4B"/>
<path d="M160.036 143.637L159.981 143.574L160.028 143.653L160.036 143.637Z" fill="#EE5D4B"/>
<path d="M155.784 164.19C155.277 162.415 154.987 160.585 154.92 158.741H154.794C153.21 158.828 151.356 158.804 149.408 158.741C148.814 158.741 148.204 158.741 147.555 158.741C145.67 158.741 143.967 158.59 142.739 158.471C142.177 158.416 141.726 158.361 141.393 158.313L140.189 158.242C139.92 158.654 139.651 159.034 139.397 159.493C138.708 160.705 138.272 162.226 138.922 163.453L138.993 163.556C144.236 163.683 149.474 163.836 154.706 164.015C155.073 164.002 155.439 164.062 155.784 164.19Z" fill="#EE5D4B"/>
<path d="M163.142 175.84L163.474 175.626C161.99 174.442 160.66 173.077 159.514 171.563C159.365 171.832 159.153 172.06 158.896 172.228C158.804 172.467 158.651 172.677 158.453 172.838C157.439 173.63 156.014 174.509 154.422 175.555C152.83 176.6 151.388 177.487 150.327 178.129C149.777 178.512 149.187 178.836 148.569 179.095C149.055 178.639 149.585 178.233 150.153 177.883C150.739 177.487 151.452 176.996 152.252 176.474C150.715 177.4 149.171 178.327 147.785 179.174C148.046 180.346 147.634 181.709 148.173 182.81C148.711 183.91 149.82 184.235 151.056 184.457L160.48 177.456C161.291 176.8 162.186 176.256 163.142 175.84Z" fill="#EE5D4B"/>
<path d="M206.179 179.483L207.47 180.497C207.494 180.466 207.52 180.437 207.549 180.41L207.129 180.133L206.179 179.483Z" fill="#EE5D4B"/>
<path d="M194.418 172.712C193.225 174.086 191.872 175.312 190.386 176.363C190.804 176.79 191.193 177.245 191.55 177.725C191.595 177.754 191.637 177.786 191.677 177.82C192.319 178.459 192.854 179.197 193.261 180.006L194.893 182.786L194.94 182.881C196.002 184.647 197.063 186.485 197.997 188.084C198.114 187.825 198.271 187.587 198.465 187.38C200.112 185.661 203.454 187.332 205.197 185.724C205.368 185.56 205.518 185.374 205.64 185.17C202.433 181.677 198.156 176.783 195.431 173.923C195.052 173.556 194.712 173.15 194.418 172.712ZM195.677 176.466C196.389 177.367 197.045 178.311 197.641 179.293C198.347 180.2 199 181.147 199.597 182.129C198.683 181.406 197.905 180.526 197.3 179.531C196.587 178.61 196.038 177.573 195.677 176.466Z" fill="#EE5D4B"/>
<path d="M178.007 124.297C177.987 124.28 177.968 124.262 177.952 124.241C177.959 124.37 177.959 124.5 177.952 124.629L178.007 124.297Z" fill="#EE5D4B"/>
<path d="M199.787 160.562C199.6 162.181 199.236 163.775 198.702 165.314L199.32 165.615L201.506 166.756C200.762 166.38 200.052 165.94 199.384 165.441C201.675 166.435 203.909 167.556 206.076 168.799C207.66 169.663 209.165 170.478 210.297 171.12L211.034 171.429C211.023 171.058 211.077 170.688 211.192 170.336C211.81 168.554 214.091 167.619 214.875 166.051C210.091 164.301 203.945 162.123 199.787 160.562Z" fill="#EE5D4B"/>
<path d="M195.479 171.413C195.914 171.754 196.469 172.205 197.063 172.633L197.276 172.783C198.583 173.662 200.357 174.898 202.306 176.284C204.254 177.67 206.004 178.953 207.263 179.887L207.739 180.252C208.531 179.681 209.481 179.325 210.305 178.834C206.234 175.27 201.426 170.344 197.767 167.54C197.133 168.903 196.366 170.2 195.479 171.413Z" fill="#EE5D4B"/>
<path d="M169.691 179.468C169.619 179.312 169.537 179.161 169.446 179.016C168.002 178.466 166.619 177.768 165.319 176.933L165.209 177.076C164.915 177.432 164.583 177.812 164.219 178.216C163.569 179.008 162.682 180.03 161.66 181.131C160.639 182.232 159.546 183.309 158.785 184.029C158.401 184.446 157.964 184.81 157.487 185.114C157.487 185.114 157.558 184.964 157.74 184.75C157.091 185.4 156.481 186.033 155.926 186.627C156.797 188.441 155.926 191.086 157.415 192.551C157.678 192.814 157.994 193.017 158.342 193.145C161.51 188.892 165.826 183.388 168.899 179.974C169.092 179.714 169.374 179.533 169.691 179.468Z" fill="#EE5D4B"/>
<path d="M178.72 180.434C178.939 180.736 179.063 181.098 179.076 181.471C179.332 182.253 179.387 183.086 179.235 183.895C179.116 184.853 178.981 185.883 178.847 186.96C178.656 188.393 178.466 189.732 178.3 190.92C178.173 192.432 178.055 193.921 177.92 195.268C178.73 196.028 179.655 196.656 180.66 197.129C182.181 197.62 183.535 196.884 184.882 195.901C184.573 190.825 184.303 184.497 184.509 179.982L184.747 180.537C184.676 180.275 184.652 180.125 184.676 180.117C184.997 180.684 185.249 181.288 185.428 181.915C185.84 183.047 186.363 184.631 186.885 186.39C187.028 186.881 187.163 187.356 187.289 187.815C187.844 189.692 188.327 191.585 188.691 193.359C189.251 193.108 189.86 192.984 190.473 192.995C191.867 193.034 193.34 193.866 194.655 194.04C192.421 188.631 190.038 181.859 189.111 177.234C185.961 179.135 182.393 180.234 178.72 180.434ZM181.595 189.043C181.433 188.315 181.375 187.569 181.421 186.825C181.336 186.085 181.349 185.336 181.46 184.6C181.911 186.04 181.957 187.577 181.595 189.043Z" fill="#EE5D4B"/>
<path d="M176.558 180.529C176.583 180.498 176.612 180.472 176.645 180.45C174.245 180.375 171.872 179.913 169.62 179.079C169.675 179.151 169.739 179.23 169.81 179.333C169.833 179.385 169.86 179.435 169.889 179.483C170.349 179.61 170.491 180.275 170.436 180.774C170.409 181.022 170.367 181.268 170.309 181.511C170.263 182.215 170.105 182.907 169.842 183.562C169.493 184.473 169.05 185.415 168.543 186.413C167.703 188.104 166.772 189.749 165.755 191.34C165.288 192.068 164.908 192.607 164.67 192.924C164.957 192.957 165.239 193.026 165.509 193.129C167.719 193.993 168.915 197.2 171.267 196.923L171.481 196.884C172.859 192.496 174.237 186.413 175.615 182.335C175.791 181.67 176.113 181.053 176.558 180.529Z" fill="#EE5D4B"/>
<path d="M196.112 145.396C196.376 145.158 196.64 144.929 196.904 144.707C197.189 144.305 197.543 143.956 197.95 143.677C198.575 143.234 199.272 142.798 200.017 142.347C201.498 141.444 202.876 140.699 203.898 140.192C204.595 139.852 205.109 139.622 205.379 139.527L206.789 138.695C205.395 136.51 207.2 133.191 205.561 131.179C205.485 131.089 205.403 131.005 205.315 130.926C201.189 133.983 195.867 137.452 191.234 140.192C193.126 141.657 194.773 143.413 196.112 145.396ZM197.102 136.541C198.037 135.865 199.019 135.256 200.041 134.72C199.26 135.587 198.342 136.32 197.324 136.89C196.382 137.579 195.337 138.113 194.227 138.474C195.138 137.761 196.099 137.115 197.102 136.541Z" fill="#EE5D4B"/>
<path d="M199.645 154.313C199.839 155.515 199.937 156.731 199.938 157.949C199.938 158.178 199.938 158.4 199.938 158.622H200.31C200.975 158.622 201.633 158.685 202.298 158.733H202.765C204.127 158.733 206.005 158.859 208.08 159.01C210.02 159.16 211.778 159.335 213.101 159.493C213.433 157.996 215.279 157.252 215.825 155.802C216.067 155.052 216.01 154.238 215.667 153.529C210.828 153.799 204.286 154.195 200.255 154.321L199.645 154.313Z" fill="#EE5D4B"/>
<path d="M194.148 126.293L186.117 136.391C185.947 136.603 185.747 136.79 185.523 136.945C187.292 137.624 188.966 138.526 190.505 139.63L190.616 139.487C190.726 139.194 190.893 138.924 191.107 138.695C191.463 138.284 191.899 137.8 192.358 137.278C194.734 134.427 197.443 131.544 199.708 129.152C199.244 128.98 198.823 128.71 198.473 128.36C197.475 127.354 197.261 125.675 196.097 124.907C195.72 124.676 195.294 124.54 194.853 124.511C194.857 124.54 194.857 124.569 194.853 124.598C194.854 124.913 194.792 125.225 194.671 125.516C194.55 125.807 194.372 126.071 194.148 126.293Z" fill="#EE5D4B"/>
<path d="M199.122 151.945L199.779 151.652C200.274 151.378 200.791 151.145 201.324 150.955C202.306 150.552 203.7 150.029 205.189 149.474C206.678 148.92 208.088 148.437 209.093 148.104C209.628 147.89 210.186 147.738 210.757 147.653C210.757 147.653 210.566 147.795 210.186 147.962L212.23 147.288C212.23 145.641 212.689 143.891 211.85 142.489C211.64 142.146 211.372 141.843 211.058 141.594C206.741 143.336 200.841 146.077 197.055 146.869C197.95 148.47 198.644 150.175 199.122 151.945Z" fill="#EE5D4B"/>
<path d="M213.037 159.842L211.271 159.707C211.857 159.747 212.443 159.794 213.037 159.842Z" fill="#EE5D4B"/>
<path d="M170.087 136.105C170.135 136.296 170.167 136.47 170.198 136.628L170.325 136.589C170.214 136.303 170.103 135.995 169.992 135.654C170 135.804 170.04 135.971 170.087 136.105Z" fill="#EE5D4B"/>
<path d="M190.568 139.676C190.576 139.612 190.592 139.548 190.615 139.487L190.505 139.629L190.568 139.676Z" fill="black"/>
<path d="M196.493 145.982C196.494 145.727 196.542 145.475 196.635 145.237C196.707 145.049 196.803 144.87 196.92 144.707C196.641 144.928 196.377 145.158 196.128 145.396C196.223 145.586 196.366 145.784 196.493 145.982Z" fill="#EE5D4B"/>
<path d="M211.033 171.54V171.429L210.297 171.12L211.033 171.54Z" fill="black"/>
<path d="M197.094 172.632C196.469 172.165 195.914 171.753 195.51 171.413L195.415 171.532C195.685 171.706 196.286 172.094 197.094 172.632Z" fill="black"/>
<path d="M197.744 187.886L197.918 188.211L197.966 188.084C197.031 186.5 195.97 184.647 194.909 182.881C196.033 184.821 197.015 186.595 197.744 187.886Z" fill="black"/>
<path d="M178.261 180.45C178.599 180.666 178.873 180.97 179.053 181.329C179.053 181.376 179.053 181.424 179.108 181.471C179.095 181.098 178.971 180.736 178.752 180.434L178.261 180.45Z" fill="#EE5D4B"/>
<path d="M169.889 179.483C170.141 179.955 170.284 180.477 170.309 181.012C170.321 181.178 170.321 181.345 170.309 181.511C170.366 181.268 170.409 181.022 170.436 180.774C170.491 180.267 170.349 179.61 169.889 179.483Z" fill="#EE5D4B"/>
<path d="M165.335 176.933H165.256C165.114 177.155 164.805 177.567 164.369 178.097C164.329 178.145 164.282 178.208 164.234 178.256C164.599 177.852 164.931 177.464 165.224 177.115L165.335 176.933Z" fill="black"/>
<path d="M155.95 151.161C155.68 151.296 155.38 151.361 155.079 151.351L154.421 151.256C154.889 151.415 155.348 151.565 155.792 151.7C155.831 151.518 155.895 151.383 155.95 151.161Z" fill="black"/>
<path d="M164.718 139.361C164.265 139.007 163.853 138.603 163.49 138.157L162.698 137.301C163.347 138.173 163.933 138.957 164.409 139.559L164.718 139.361Z" fill="black"/>
<path d="M171.671 136.185H171.742C171.742 135.987 171.742 135.781 171.742 135.575C171.74 135.78 171.716 135.984 171.671 136.185Z" fill="black"/>
<path d="M177.294 135.44H177.595C177.556 134.545 177.548 132.898 177.595 130.965L177.334 135.131C177.302 135.234 177.294 135.337 177.294 135.44Z" fill="black"/>
<path d="M184.454 135.725C184.352 135.977 184.301 136.246 184.304 136.517C184.716 136.652 185.096 136.795 185.523 136.953C185.747 136.798 185.947 136.611 186.117 136.399L194.148 126.301C194.598 125.86 194.854 125.259 194.861 124.63C194.865 124.601 194.865 124.571 194.861 124.542C193.412 124.424 191.749 125.144 190.299 124.693C189.953 124.591 189.612 124.472 189.278 124.336C188.866 125.58 188.185 127.504 187.385 129.627C186.606 131.888 185.701 134.104 184.676 136.264C185.318 133.961 186.093 131.698 186.997 129.484C187.789 127.338 188.541 125.437 189.048 124.226C188.987 124.199 188.929 124.167 188.874 124.131L188.771 124.226C187.324 128.075 185.885 131.908 184.454 135.725ZM188.636 132.415C189.328 131.426 190.108 130.501 190.964 129.651C190.442 130.746 189.767 131.762 188.961 132.668C188.265 133.664 187.437 134.559 186.498 135.329C187.122 134.296 187.838 133.321 188.636 132.415Z" fill="#EE5D4B"/>
<path d="M194.481 134.949C195.819 133.5 197.047 132.201 197.95 131.274C198.407 130.742 198.92 130.258 199.478 129.833C199.094 130.42 198.654 130.97 198.164 131.472C197.316 132.446 196.12 133.777 194.79 135.226C193.459 136.676 192.224 137.982 191.321 138.901C191.038 139.135 190.844 139.46 190.774 139.82L191.226 140.168C195.859 137.428 201.181 133.959 205.307 130.902C204.942 130.544 204.501 130.274 204.016 130.11C202.686 129.651 201.046 129.666 199.732 129.152C197.467 131.528 194.742 134.426 192.382 137.278C192.992 136.581 193.712 135.789 194.481 134.949Z" fill="#EE5D4B"/>
<path d="M205.609 139.503C205.116 139.884 204.585 140.214 204.025 140.485C203.05 141.055 201.696 141.832 200.223 142.726C198.75 143.621 197.301 144.366 196.881 145.38C196.739 145.687 196.673 146.024 196.691 146.362L197 146.9C200.785 146.108 206.686 143.368 211.002 141.626C209.687 140.572 207.715 140.16 206.781 138.727L205.395 139.503C205.522 139.503 205.601 139.456 205.609 139.503ZM202.829 144.255C202.109 144.644 201.339 144.929 200.54 145.102C201.863 144.128 203.386 143.46 204.999 143.146C204.329 143.596 203.598 143.948 202.829 144.192V144.255Z" fill="#EE5D4B"/>
<path d="M209.204 148.382C208.222 148.778 206.828 149.3 205.331 149.863C203.834 150.425 202.424 150.9 201.419 151.225C200.888 151.445 200.332 151.596 199.763 151.676L199.106 151.969C199.322 152.751 199.497 153.545 199.629 154.345H200.223C204.254 154.242 210.796 153.846 215.635 153.553C215.395 152.986 215.081 152.453 214.7 151.969C213.837 150.884 212.768 149.886 212.388 148.556C212.274 148.129 212.215 147.69 212.214 147.249L210.17 147.922L209.204 148.382Z" fill="#EE5D4B"/>
<path d="M208.032 159.446L202.733 159.042C201.996 159.021 201.262 158.936 200.54 158.789C201.117 158.714 201.701 158.698 202.282 158.741C201.617 158.693 200.959 158.654 200.294 158.63H199.922C199.922 159.287 199.858 159.929 199.787 160.571C203.945 162.155 210.083 164.309 214.875 166.059C215.042 165.738 215.134 165.383 215.144 165.022C215.199 163.129 212.918 161.679 213.037 159.85C212.443 159.802 211.857 159.755 211.271 159.691L208.032 159.446Z" fill="#EE5D4B"/>
<path d="M201.506 166.756L199.32 165.639L198.702 165.338C198.444 166.088 198.145 166.823 197.807 167.54C201.466 170.344 206.274 175.27 210.344 178.834C210.857 178.553 211.29 178.147 211.604 177.654C212.586 175.927 211.247 173.828 211.057 171.848C209.83 171.239 207.968 170.264 205.893 169.163C204.191 168.253 202.654 167.405 201.506 166.756Z" fill="#EE5D4B"/>
<path d="M202.1 176.624C200.152 175.238 198.393 173.955 197.142 173.021C196.247 172.347 195.605 171.856 195.328 171.603C195.035 171.983 194.734 172.355 194.417 172.712C194.702 173.148 195.031 173.555 195.4 173.924C198.124 176.783 202.401 181.677 205.608 185.17C206.353 183.934 206.171 182.137 207.066 180.925C207.186 180.769 207.321 180.626 207.47 180.497L206.179 179.483C205.022 178.683 203.613 177.701 202.1 176.624Z" fill="#EE5D4B"/>
<path d="M194.505 182.992C193.934 182.01 193.396 181.067 192.921 180.196C192.556 179.416 192.084 178.691 191.519 178.042C191.32 177.85 191.072 177.717 190.802 177.657C190.533 177.597 190.252 177.612 189.99 177.701C189.618 177.836 189.515 178.081 189.483 178.05C189.452 178.018 189.483 177.772 189.919 177.551C190.186 177.431 190.479 177.384 190.77 177.415C191.061 177.445 191.338 177.552 191.574 177.725C191.217 177.245 190.828 176.79 190.41 176.363C189.998 176.648 189.578 176.933 189.151 177.194C190.061 181.82 192.445 188.591 194.695 194.001C195.013 194.06 195.341 194.053 195.657 193.981C195.973 193.908 196.271 193.772 196.532 193.581C197.942 192.504 197.364 190.239 197.847 188.544L197.53 188.037C196.706 186.754 195.645 184.972 194.505 182.992Z" fill="#EE5D4B"/>
<path d="M188.082 190.904C188.268 191.53 188.383 192.176 188.422 192.829C188.157 192.235 187.95 191.617 187.804 190.983L186.49 186.477C185.991 184.798 185.539 183.269 185.151 181.978C184.969 181.337 184.827 180.83 184.747 180.505L184.51 179.951C184.304 184.465 184.573 190.793 184.882 195.87C186.052 194.879 187.33 194.024 188.691 193.32C188.327 191.553 187.844 189.661 187.29 187.776C187.622 188.979 187.892 190.057 188.082 190.904Z" fill="#EE5D4B"/>
<path d="M178.047 192.504C177.967 193.276 177.819 194.039 177.603 194.785C177.582 194.008 177.635 193.231 177.762 192.464C177.912 191.039 178.15 189.074 178.435 186.92L178.863 183.863C179.034 183.076 178.999 182.257 178.76 181.487C178.583 181.074 178.281 180.728 177.896 180.497H177.421C177.16 180.497 176.898 180.497 176.629 180.497C176.597 180.519 176.567 180.546 176.542 180.576C176.097 181.103 175.775 181.723 175.6 182.39C174.221 186.469 172.843 192.551 171.465 196.939C173.097 196.598 174.15 194.611 175.837 194.5C176.6 194.502 177.335 194.784 177.904 195.292C178.039 193.945 178.158 192.456 178.284 190.944C178.213 191.482 178.126 192.029 178.047 192.504Z" fill="#EE5D4B"/>
<path d="M168.179 186.231C168.662 185.249 169.137 184.299 169.493 183.435C169.819 182.685 169.997 181.878 170.016 181.059C170.02 180.515 169.909 179.975 169.691 179.475C169.374 179.541 169.092 179.721 168.899 179.982C165.826 183.396 161.494 188.9 158.342 193.153C160.084 193.811 162.476 192.694 164.528 192.916C164.718 192.567 165.058 191.981 165.51 191.197C166.222 189.938 167.197 188.195 168.179 186.231Z" fill="#EE5D4B"/>
<path d="M157.74 184.75C158.294 184.093 159.72 182.612 161.359 180.846C163.141 178.937 164.63 177.305 165.145 176.83C164.63 176.49 164.131 176.133 163.64 175.761C163.013 176.35 162.355 176.905 161.668 177.424C160.921 178.084 160.09 178.644 159.197 179.087C159.838 178.322 160.585 177.653 161.415 177.099C162.08 176.585 162.69 176.141 163.141 175.84C162.182 176.245 161.281 176.778 160.464 177.424L151.079 184.457C152.711 184.742 154.556 184.814 155.578 186.041C155.732 186.228 155.862 186.433 155.966 186.651C156.481 186.033 157.09 185.439 157.74 184.75Z" fill="#EE5D4B"/>
<path d="M154.168 175.207C155.752 174.177 157.233 173.282 158.231 172.617C158.439 172.471 158.598 172.267 158.691 172.031C158.757 171.852 158.757 171.655 158.691 171.476C158.588 171.167 158.374 171.112 158.39 171.08C158.405 171.049 158.651 171.08 158.841 171.413C158.945 171.624 158.97 171.866 158.912 172.094C158.902 172.141 158.886 172.186 158.865 172.229C159.121 172.06 159.333 171.832 159.483 171.563C159.229 171.223 158.976 170.874 158.73 170.518C158.408 170.505 158.087 170.548 157.78 170.645C153.543 171.761 147.072 174.177 142.027 176.046C143.611 177.202 146.502 176.704 147.523 178.486C147.635 178.703 147.718 178.935 147.769 179.175C149.155 178.327 150.699 177.4 152.236 176.474C152.838 176.07 153.455 175.65 154.168 175.207Z" fill="#EE5D4B"/>
<path d="M149.368 167.429L152.085 166.7C152.924 166.487 153.669 166.32 154.279 166.098C154.931 165.867 155.518 165.481 155.989 164.974C155.989 164.974 155.942 165.188 155.696 165.473C155.51 165.682 155.294 165.864 155.055 166.011L155.395 165.893C155.694 165.808 155.966 165.65 156.187 165.433C156.045 165.021 155.91 164.641 155.791 164.19C155.453 164.058 155.093 163.994 154.73 164C149.492 163.815 144.255 163.662 139.017 163.54C139.745 164.776 141.393 165.322 142.042 166.597C142.42 167.411 142.485 168.336 142.224 169.195L146.184 168.316C147.119 168.015 148.22 167.738 149.368 167.429Z" fill="#EE5D4B"/>
<path d="M140.783 158.147C141.447 158.084 142.115 158.084 142.779 158.147C144.015 158.194 145.71 158.258 147.587 158.297C149.464 158.337 151.166 158.345 152.394 158.353C153.063 158.319 153.734 158.345 154.398 158.432C153.743 158.581 153.073 158.653 152.402 158.646C151.61 158.693 150.565 158.717 149.432 158.725C151.38 158.804 153.249 158.828 154.818 158.725H154.944C154.944 158.464 154.944 158.202 154.944 157.933C154.944 157.664 154.944 157.188 154.944 156.824L154.833 156.753C150.501 154.171 144.276 152.31 139.12 150.9C139.059 151.326 139.147 151.759 139.367 152.128C139.588 152.497 139.928 152.779 140.332 152.927L140.221 152.215C141.496 152.769 141.845 154.488 141.441 155.818C141.143 156.665 140.727 157.465 140.205 158.194L141.409 158.266C141.195 158.262 140.984 158.222 140.783 158.147ZM151.871 157.03C152.769 157.122 153.647 157.349 154.477 157.703C153.577 157.749 152.675 157.661 151.8 157.442C150.905 157.35 150.029 157.123 149.202 156.769C150.1 156.722 151 156.81 151.871 157.03Z" fill="#EE5D4B"/>
<path d="M142.676 146.425C143.405 146.664 144.11 146.969 144.783 147.336L146.422 148.128C147.88 148.754 149.4 149.387 150.881 149.973C152.25 150.47 153.66 150.844 155.095 151.09C155.388 151.123 155.684 151.074 155.95 150.947C155.991 150.92 156.028 150.888 156.061 150.852C156.219 150.385 156.386 149.926 156.576 149.466C155.847 149.11 154.738 148.508 153.503 147.795C152.182 147.127 150.93 146.331 149.765 145.419C151.142 145.977 152.467 146.655 153.725 147.447L155.008 148.239C150.987 145.365 146.812 142.713 142.502 140.295C142.249 141.784 142.819 143.685 142.359 145.229C142.252 145.557 142.105 145.87 141.924 146.164L142.874 146.568C142.748 146.496 142.668 146.433 142.676 146.425Z" fill="#EE5D4B"/>
<path d="M150.327 137.207C150.847 137.59 151.327 138.025 151.76 138.505C152.623 139.297 153.827 140.454 155.205 141.626C156.583 142.798 157.89 143.804 158.849 144.517L159.173 144.762C159.45 144.382 159.728 144.01 160.029 143.653L159.981 143.574C159.561 143.075 159.039 142.402 158.484 141.634C157.72 140.682 157.086 139.633 156.599 138.513C157.061 138.951 157.466 139.446 157.803 139.986C155.875 136.973 153.759 134.085 151.467 131.338C150.805 131.441 150.198 131.768 149.748 132.264C148.869 133.334 149.194 135.013 148.766 136.28C149.558 137.009 150.501 137.816 151.467 138.656C151.03 138.22 150.647 137.734 150.327 137.207Z" fill="#EE5D4B"/>
<path d="M161.13 134.751C163.11 137.254 164.765 139.25 164.725 139.377C165.09 139.128 165.462 138.891 165.842 138.664C165.842 138.608 165.802 138.561 165.779 138.513C164.29 134.712 161.589 128.756 159.783 124.408C159.495 124.537 159.215 124.683 158.944 124.843C157.621 125.635 157.185 127.354 156.473 128.756C156.932 129.358 157.455 130.063 158.009 130.823C158.564 131.583 159.791 133.064 161.13 134.751ZM163.173 133.603C163.68 134.413 164.11 135.27 164.456 136.161C164.923 136.996 165.307 137.874 165.604 138.783C164.399 137.271 163.566 135.496 163.173 133.603Z" fill="#EE5D4B"/>
<path d="M168.036 125.849C168.22 126.424 168.347 127.016 168.416 127.615C168.606 128.7 168.868 130.213 169.208 131.868C169.493 133.318 169.77 134.617 170 135.654C170.111 135.995 170.222 136.304 170.333 136.589C170.753 136.446 171.18 136.319 171.624 136.201C171.431 135.337 171.296 134.461 171.22 133.579C171.032 132.699 170.942 131.802 170.951 130.902C171.343 131.727 171.574 132.62 171.632 133.532C171.703 134.054 171.735 134.545 171.75 134.965C171.75 130.871 171.838 125.604 171.83 121.438C171.172 122.063 170.689 123.156 169.628 124.725C169.439 124.986 169.195 125.203 168.913 125.359C168.631 125.515 168.318 125.607 167.996 125.627L168.044 125.936C168.02 125.889 168.028 125.849 168.036 125.849Z" fill="#EE5D4B"/>
<path d="M178.007 130.118C177.967 132.423 177.896 134.418 177.809 135.44C178.348 135.44 178.886 135.44 179.393 135.527C180.245 134.191 180.837 132.704 181.135 131.148C181.832 128.368 182.791 123.901 183.567 120.638C183.076 120.67 182.598 120.808 182.165 121.042C180.945 121.715 179.464 124.661 178.696 124.677C178.557 124.666 178.423 124.627 178.3 124.562C178.177 124.496 178.069 124.406 177.983 124.297V124.629C178.007 125.596 178.007 127.686 178.007 130.118Z" fill="#EE5D4B"/>
<path d="M201.419 151.225C202.425 150.9 203.795 150.433 205.331 149.862C206.868 149.292 208.222 148.777 209.204 148.381L210.186 147.962C210.566 147.795 210.772 147.684 210.756 147.653C210.186 147.738 209.628 147.889 209.093 148.104C208.087 148.437 206.717 148.896 205.189 149.474C203.66 150.052 202.306 150.551 201.324 150.955C200.791 151.145 200.274 151.378 199.779 151.652C200.341 151.579 200.892 151.435 201.419 151.225Z" fill="#263238"/>
<path d="M202.749 158.757H202.282C201.701 158.713 201.117 158.729 200.54 158.804C201.262 158.952 201.996 159.036 202.733 159.058L208.032 159.461L211.271 159.699L213.037 159.834C213.037 159.762 213.037 159.691 213.037 159.62C213.037 159.549 213.037 159.564 213.037 159.533C211.715 159.374 209.956 159.2 208.016 159.05C205.989 158.883 204.143 158.788 202.749 158.757Z" fill="#263238"/>
<path d="M206.076 168.807C203.909 167.564 201.675 166.443 199.383 165.449C200.052 165.948 200.762 166.388 201.506 166.764C202.654 167.413 204.191 168.261 205.886 169.14C207.961 170.249 209.846 171.215 211.049 171.825C211.049 171.722 211.049 171.619 211.049 171.516L210.313 171.096C209.165 170.478 207.691 169.663 206.076 168.807Z" fill="#263238"/>
<path d="M202.338 176.284C200.389 174.898 198.615 173.662 197.308 172.783L197.095 172.632C196.303 172.094 195.685 171.706 195.384 171.532L195.479 171.413C196.38 170.201 197.16 168.904 197.807 167.54C198.149 166.815 198.45 166.072 198.71 165.314C199.243 163.775 199.607 162.181 199.795 160.562C199.867 159.921 199.914 159.279 199.93 158.622C199.93 158.4 199.93 158.178 199.93 157.949C199.942 155.921 199.675 153.901 199.138 151.945C198.642 150.172 197.929 148.467 197.015 146.869L196.706 146.33C196.689 145.992 196.754 145.655 196.897 145.348C197.316 144.334 198.789 143.614 200.239 142.695C201.688 141.776 203.066 141.024 204.04 140.454C204.601 140.182 205.132 139.853 205.624 139.471C205.624 139.471 205.537 139.471 205.411 139.527C205.141 139.622 204.619 139.852 203.929 140.192C202.908 140.699 201.553 141.444 200.049 142.346C199.304 142.798 198.607 143.233 197.982 143.677C197.575 143.956 197.221 144.304 196.936 144.707C196.818 144.87 196.722 145.049 196.651 145.237C196.558 145.474 196.509 145.727 196.508 145.982C196.382 145.784 196.263 145.586 196.128 145.396C194.788 143.404 193.138 141.639 191.242 140.168L190.79 139.82C190.86 139.46 191.054 139.135 191.337 138.901C192.24 137.982 193.467 136.684 194.806 135.226C196.144 133.769 197.332 132.446 198.18 131.472C198.67 130.97 199.11 130.42 199.494 129.833C198.936 130.258 198.423 130.742 197.966 131.274C197.063 132.201 195.835 133.5 194.497 134.949C193.705 135.789 193.008 136.581 192.374 137.325C191.907 137.848 191.479 138.331 191.123 138.743C190.908 138.972 190.742 139.241 190.632 139.535C190.609 139.596 190.593 139.66 190.584 139.725L190.521 139.677C188.982 138.573 187.308 137.671 185.539 136.992C185.135 136.834 184.747 136.692 184.32 136.557C182.727 136.047 181.083 135.718 179.417 135.575C178.886 135.527 178.348 135.503 177.833 135.488C177.92 134.466 177.991 132.47 178.031 130.165C178.079 127.734 178.031 125.643 178.031 124.677C178.038 124.548 178.038 124.418 178.031 124.289L177.952 124.202C177.849 124.685 177.73 127.164 177.675 130.158C177.675 130.451 177.675 130.736 177.675 131.013C177.675 132.945 177.675 134.593 177.675 135.488H177.374C175.503 135.498 173.641 135.74 171.83 136.208H171.758C171.803 136 171.824 135.788 171.822 135.575C171.822 135.401 171.822 135.21 171.822 134.989C171.822 134.569 171.774 134.078 171.703 133.555C171.645 132.643 171.414 131.751 171.022 130.926C171.014 131.825 171.104 132.723 171.291 133.603C171.367 134.485 171.502 135.36 171.695 136.224C171.252 136.343 170.824 136.47 170.404 136.612L170.277 136.652C170.277 136.494 170.214 136.319 170.167 136.129C170.119 135.939 170.103 135.828 170.071 135.678C169.85 134.64 169.573 133.341 169.279 131.892C168.963 130.237 168.701 128.724 168.487 127.639C168.418 127.039 168.291 126.448 168.107 125.873C168.107 125.873 168.107 125.912 168.107 125.96C168.108 126.535 168.145 127.109 168.218 127.679C168.337 128.779 168.551 130.308 168.876 131.971C169.2 133.634 169.573 135.139 169.881 136.2C169.937 136.398 169.984 136.573 170.04 136.739C168.61 137.238 167.235 137.883 165.937 138.664C165.557 138.891 165.185 139.128 164.821 139.376C164.821 139.25 163.237 137.254 161.225 134.751C159.902 133.088 158.762 131.623 158.104 130.791C157.764 130.371 157.55 130.142 157.518 130.165C157.753 130.692 158.054 131.187 158.413 131.639C159.015 132.518 159.886 133.698 160.9 134.973C161.589 135.836 162.247 136.628 162.825 137.293L163.617 138.149C163.979 138.595 164.391 138.999 164.844 139.353L164.567 139.551C163.008 140.651 161.595 141.944 160.362 143.4C159.997 142.861 159.506 142.156 158.952 141.388L157.93 139.978C157.593 139.438 157.188 138.943 156.726 138.505C157.213 139.625 157.847 140.674 158.611 141.626C159.166 142.418 159.688 143.067 160.108 143.566L160.164 143.629C159.863 143.986 159.585 144.358 159.308 144.738L158.983 144.493C158.025 143.78 156.726 142.774 155.34 141.602C153.954 140.43 152.758 139.305 151.895 138.481C151.462 138.001 150.982 137.566 150.462 137.183C150.792 137.709 151.186 138.193 151.634 138.624L151.689 138.687C153.822 140.972 156.214 143 158.817 144.73L159.158 144.952C158.214 146.268 157.417 147.684 156.782 149.173C156.354 148.896 155.776 148.54 155.103 148.136L153.82 147.344C152.562 146.552 151.237 145.874 149.86 145.316C151.025 146.228 152.277 147.024 153.598 147.692C154.833 148.405 155.974 149.007 156.671 149.364C156.481 149.823 156.314 150.282 156.156 150.75C156.123 150.785 156.086 150.817 156.045 150.845C155.779 150.971 155.483 151.02 155.19 150.987C153.755 150.741 152.345 150.367 150.976 149.87C150.628 149.749 150.279 149.622 149.931 149.49C148.672 148.999 147.555 148.492 146.517 148.025L144.878 147.233C144.205 146.866 143.5 146.561 142.771 146.322C142.771 146.322 142.843 146.394 142.969 146.473C143.262 146.671 143.88 147.027 144.751 147.494C146.377 148.39 148.056 149.184 149.78 149.87C151.314 150.475 152.906 150.916 154.532 151.185L155.19 151.28C155.491 151.29 155.791 151.224 156.061 151.09C156.006 151.272 155.95 151.446 155.903 151.629C155.417 153.303 155.127 155.028 155.039 156.769C155.039 157.133 155.039 157.505 155.039 157.878C155.039 158.25 155.039 158.408 155.039 158.67C155.106 160.514 155.396 162.344 155.903 164.118C156.021 164.538 156.156 164.95 156.299 165.362C156.932 167.157 157.788 168.866 158.849 170.447C159.094 170.803 159.348 171.151 159.601 171.492C160.747 173.006 162.077 174.371 163.561 175.555L163.229 175.769C162.777 176.07 162.167 176.513 161.502 177.028C160.672 177.582 159.925 178.251 159.284 179.016C160.177 178.572 161.008 178.013 161.755 177.353C162.442 176.834 163.1 176.279 163.728 175.69C164.219 176.062 164.718 176.418 165.232 176.759C164.718 177.234 163.229 178.866 161.447 180.774C159.807 182.54 158.382 184.021 157.827 184.679C157.645 184.893 157.55 185.019 157.574 185.043C158.052 184.739 158.488 184.374 158.873 183.958C159.665 183.237 160.655 182.224 161.748 181.059C162.841 179.895 163.656 178.937 164.306 178.145C164.353 178.097 164.401 178.034 164.44 177.986C164.876 177.456 165.185 177.044 165.327 176.822H165.407C166.707 177.657 168.089 178.355 169.533 178.905C169.624 179.05 169.706 179.201 169.778 179.357C169.996 179.856 170.107 180.396 170.103 180.941C170.084 181.759 169.907 182.566 169.58 183.317C169.224 184.18 168.749 185.13 168.266 186.112C167.284 188.084 166.309 189.827 165.597 191.078C165.145 191.87 164.805 192.448 164.615 192.797H164.757C164.995 192.472 165.375 191.934 165.842 191.213C166.86 189.622 167.79 187.978 168.63 186.287C169.121 185.289 169.58 184.346 169.929 183.435C170.192 182.781 170.35 182.088 170.396 181.384C170.408 181.218 170.408 181.051 170.396 180.885C170.372 180.351 170.228 179.829 169.976 179.357C169.947 179.308 169.921 179.258 169.897 179.206C169.826 179.103 169.763 179.024 169.707 178.953C171.959 179.786 174.332 180.248 176.732 180.323C176.986 180.323 177.247 180.323 177.524 180.323H177.999C178.389 180.607 178.671 181.014 178.799 181.479C179.038 182.249 179.074 183.068 178.902 183.855L178.475 186.912C178.189 189.082 177.952 191.046 177.801 192.456C177.675 193.223 177.622 194 177.643 194.777C177.858 194.031 178.007 193.268 178.087 192.496C178.166 192.021 178.253 191.474 178.34 190.912C178.506 189.756 178.696 188.417 178.886 186.952C179.021 185.875 179.156 184.845 179.275 183.887C179.427 183.079 179.372 182.245 179.116 181.463C179.116 181.416 179.116 181.368 179.061 181.321C178.881 180.962 178.607 180.658 178.269 180.442H178.728C182.397 180.224 185.957 179.109 189.095 177.194C189.523 176.933 189.943 176.648 190.355 176.363C191.84 175.312 193.194 174.086 194.386 172.712C194.703 172.355 195.004 171.983 195.297 171.603C195.574 171.856 196.215 172.347 197.11 173.021C198.362 173.955 200.12 175.238 202.068 176.624C203.581 177.701 204.991 178.683 206.147 179.483L207.097 180.133L207.517 180.41L207.739 180.252L207.311 179.895C206.036 178.953 204.286 177.678 202.338 176.284ZM177.421 177.693C173.516 177.693 169.699 176.535 166.452 174.366C163.205 172.196 160.674 169.113 159.18 165.505C157.685 161.897 157.294 157.927 158.056 154.097C158.818 150.267 160.698 146.749 163.46 143.987C166.221 141.226 169.739 139.345 173.569 138.584C177.399 137.822 181.369 138.213 184.977 139.707C188.585 141.202 191.669 143.732 193.838 146.979C196.008 150.226 197.166 154.044 197.166 157.949C197.166 163.185 195.086 168.207 191.383 171.91C187.68 175.613 182.658 177.693 177.421 177.693Z" fill="#263238"/>
<path d="M199.597 182.129C199 181.147 198.347 180.2 197.641 179.293C197.044 178.312 196.388 177.367 195.677 176.466C196.038 177.573 196.587 178.61 197.3 179.531C197.905 180.527 198.683 181.406 199.597 182.129Z" fill="#263238"/>
<path d="M194.908 182.881L194.861 182.786L193.229 180.006C192.822 179.197 192.287 178.459 191.645 177.82C191.605 177.786 191.563 177.754 191.519 177.725C191.288 177.552 191.016 177.441 190.73 177.405C190.444 177.369 190.153 177.408 189.887 177.519C189.483 177.741 189.436 178.026 189.452 178.018C189.467 178.01 189.586 177.804 189.958 177.67C190.22 177.581 190.501 177.565 190.77 177.625C191.04 177.685 191.288 177.819 191.487 178.01C192.053 178.659 192.525 179.384 192.889 180.164C193.388 181.036 193.926 181.978 194.473 182.96C195.613 184.94 196.675 186.722 197.459 188.005L197.775 188.512C197.775 188.401 197.847 188.29 197.886 188.179L197.712 187.855C197.015 186.595 196.033 184.821 194.908 182.881Z" fill="#263238"/>
<path d="M186.49 186.477L187.804 190.983C187.95 191.617 188.157 192.235 188.422 192.829C188.383 192.176 188.268 191.53 188.082 190.904C187.892 190.057 187.622 188.979 187.29 187.784C187.163 187.324 187.028 186.849 186.886 186.358C186.363 184.6 185.84 183.016 185.428 181.883C185.25 181.256 184.997 180.653 184.676 180.085C184.676 180.085 184.676 180.244 184.747 180.505C184.819 180.766 184.969 181.297 185.151 181.978C185.539 183.269 185.991 184.798 186.49 186.477Z" fill="#263238"/>
<path d="M181.46 184.6C181.349 185.337 181.336 186.085 181.421 186.825C181.375 187.569 181.434 188.315 181.595 189.043C181.957 187.577 181.911 186.041 181.46 184.6Z" fill="#263238"/>
<path d="M158.841 171.413C158.651 171.056 158.381 171.064 158.389 171.08C158.397 171.096 158.587 171.167 158.69 171.476C158.757 171.655 158.757 171.852 158.69 172.03C158.598 172.267 158.438 172.471 158.231 172.617C157.233 173.282 155.744 174.201 154.168 175.206C153.487 175.65 152.837 176.07 152.236 176.474C151.444 176.996 150.723 177.487 150.137 177.883C149.569 178.233 149.039 178.639 148.553 179.095C149.171 178.836 149.761 178.512 150.311 178.129C151.372 177.487 152.822 176.545 154.406 175.555C155.99 174.565 157.423 173.614 158.437 172.838C158.635 172.677 158.788 172.467 158.88 172.228C158.902 172.186 158.918 172.141 158.928 172.094C158.981 171.864 158.95 171.622 158.841 171.413Z" fill="#263238"/>
<path d="M155.696 165.473C155.942 165.188 156.005 164.982 155.99 164.974C155.519 165.481 154.932 165.867 154.279 166.098C153.685 166.32 152.924 166.487 152.085 166.7L149.368 167.429C148.22 167.738 147.135 168.039 146.2 168.316L144.474 168.823C143.787 168.988 143.118 169.221 142.478 169.52C143.182 169.447 143.877 169.307 144.553 169.1C145.82 168.799 147.571 168.308 149.495 167.825L152.204 167.073C152.95 166.879 153.685 166.643 154.406 166.368C154.636 166.267 154.859 166.148 155.071 166.011C155.304 165.863 155.515 165.681 155.696 165.473Z" fill="#263238"/>
<path d="M154.374 158.44C153.71 158.353 153.039 158.326 152.37 158.361C151.143 158.361 149.44 158.361 147.563 158.305C145.686 158.25 143.991 158.202 142.755 158.155C142.092 158.092 141.423 158.092 140.76 158.155C140.961 158.239 141.175 158.287 141.393 158.297C141.726 158.345 142.185 158.4 142.74 158.456C143.967 158.574 145.67 158.685 147.555 158.725C148.204 158.725 148.814 158.725 149.408 158.725C150.541 158.725 151.57 158.725 152.378 158.646C153.049 158.655 153.719 158.586 154.374 158.44Z" fill="#263238"/>
<path d="M151.768 157.442C152.643 157.661 153.545 157.75 154.445 157.703C152.746 157.12 150.967 156.805 149.171 156.769C149.998 157.123 150.873 157.35 151.768 157.442Z" fill="#263238"/>
<path d="M165.604 138.759C165.307 137.85 164.922 136.972 164.456 136.137C164.11 135.246 163.68 134.389 163.173 133.579C163.566 135.472 164.399 137.247 165.604 138.759Z" fill="#263238"/>
<path d="M184.652 136.256C185.677 134.096 186.582 131.88 187.361 129.619C188.153 127.481 188.842 125.572 189.254 124.328L189.024 124.218C188.517 125.429 187.773 127.33 186.973 129.476C186.069 131.69 185.294 133.953 184.652 136.256Z" fill="#263238"/>
<path d="M188.961 132.668C189.767 131.761 190.442 130.746 190.964 129.651C190.108 130.501 189.328 131.426 188.636 132.415C187.838 133.321 187.122 134.296 186.498 135.329C187.437 134.559 188.265 133.664 188.961 132.668Z" fill="#263238"/>
<path d="M197.324 136.889C198.342 136.319 199.26 135.586 200.041 134.719C199.019 135.256 198.037 135.865 197.102 136.541C196.099 137.11 195.138 137.75 194.227 138.458C195.336 138.102 196.381 137.573 197.324 136.889Z" fill="#263238"/>
<path d="M202.662 143.811C201.883 144.082 201.162 144.498 200.54 145.039C201.338 144.865 202.109 144.58 202.828 144.192C203.601 143.928 204.332 143.555 204.998 143.083C204.18 143.173 203.387 143.421 202.662 143.811Z" fill="#263238"/>
<path d="M177.421 177.694C188.326 177.694 197.166 168.854 197.166 157.949C197.166 147.044 188.326 138.204 177.421 138.204C166.516 138.204 157.677 147.044 157.677 157.949C157.677 168.854 166.516 177.694 177.421 177.694Z" fill="#FAFAFA"/>
<path d="M186.719 199.069C186.77 199.223 186.801 199.383 186.814 199.544C186.862 199.909 186.925 200.336 187.004 200.923C187.163 202.182 187.377 203.9 187.646 206.007C188.184 210.292 188.961 216.208 189.903 222.734C190.845 229.26 191.804 235.153 192.532 239.414C192.889 241.505 193.174 243.215 193.388 244.459C193.483 245.021 193.554 245.473 193.61 245.837C193.641 245.996 193.66 246.158 193.665 246.32C193.6 246.171 193.555 246.014 193.53 245.853C193.451 245.496 193.356 245.061 193.229 244.49C192.976 243.31 192.643 241.592 192.239 239.461C191.447 235.216 190.449 229.324 189.499 222.829C188.549 216.335 187.82 210.371 187.353 206.071C187.123 203.924 186.949 202.182 186.846 200.978C186.798 200.408 186.759 199.948 186.735 199.584C186.708 199.414 186.703 199.241 186.719 199.069Z" fill="#263238"/>
<path d="M175.275 194.943C175.386 194.943 176.328 211.052 177.381 230.939C178.435 250.827 179.203 266.944 179.084 266.952C178.965 266.96 178.023 250.842 176.97 230.955C175.916 211.068 175.156 194.943 175.275 194.943Z" fill="#263238"/>
<path d="M168.97 198.428C168.975 198.591 168.957 198.754 168.915 198.911C168.852 199.268 168.765 199.703 168.662 200.266C168.416 201.493 168.083 203.18 167.672 205.231C166.785 209.469 165.581 215.226 164.242 221.586C162.904 227.946 161.613 233.688 160.694 237.909C160.235 239.953 159.855 241.632 159.577 242.851C159.443 243.39 159.34 243.833 159.253 244.182C159.224 244.343 159.176 244.5 159.11 244.649C159.111 244.486 159.133 244.324 159.173 244.166C159.237 243.818 159.316 243.374 159.419 242.812C159.664 241.592 160.005 239.905 160.409 237.846C161.304 233.617 162.508 227.859 163.838 221.491C165.169 215.123 166.468 209.389 167.386 205.168C167.854 203.125 168.234 201.446 168.511 200.226C168.638 199.687 168.749 199.244 168.836 198.895C168.87 198.737 168.915 198.581 168.97 198.428Z" fill="#263238"/>
<path d="M178.95 146.861L181.73 152.484C181.798 152.622 181.898 152.742 182.022 152.833C182.146 152.924 182.29 152.983 182.442 153.007L188.652 153.902C188.819 153.933 188.976 154.008 189.105 154.12C189.233 154.232 189.329 154.377 189.383 154.539C189.436 154.701 189.445 154.874 189.408 155.041C189.372 155.207 189.291 155.361 189.174 155.486L184.684 159.858C184.574 159.965 184.492 160.098 184.445 160.244C184.398 160.39 184.387 160.546 184.414 160.697L185.468 166.883C185.499 167.057 185.48 167.236 185.414 167.4C185.349 167.564 185.238 167.706 185.095 167.81C184.952 167.914 184.783 167.976 184.606 167.988C184.43 168.001 184.254 167.964 184.098 167.881L178.554 164.958C178.416 164.888 178.264 164.851 178.11 164.851C177.956 164.851 177.804 164.888 177.667 164.958L172.123 167.881C171.967 167.964 171.79 168.001 171.614 167.988C171.438 167.976 171.268 167.914 171.125 167.81C170.983 167.706 170.872 167.564 170.806 167.4C170.74 167.236 170.721 167.057 170.752 166.883L171.814 160.697C171.839 160.545 171.827 160.389 171.779 160.243C171.73 160.097 171.647 159.965 171.537 159.858L167.046 155.486C166.929 155.361 166.849 155.206 166.812 155.039C166.776 154.872 166.786 154.698 166.84 154.536C166.894 154.374 166.991 154.229 167.121 154.118C167.251 154.006 167.408 153.931 167.577 153.902L173.778 153.007C173.93 152.983 174.074 152.924 174.198 152.833C174.322 152.742 174.423 152.622 174.491 152.484L177.271 146.861C177.35 146.706 177.47 146.576 177.618 146.485C177.766 146.395 177.936 146.347 178.11 146.347C178.284 146.347 178.454 146.395 178.602 146.485C178.751 146.576 178.871 146.706 178.95 146.861Z" fill="#EE5D4B"/>
<path d="M185.61 145.11L185.943 146.188C186.016 146.423 186.146 146.638 186.322 146.812C186.497 146.985 186.712 147.114 186.949 147.185L188.026 147.526L186.941 147.89C186.722 147.966 186.522 148.089 186.358 148.253C186.193 148.416 186.068 148.614 185.99 148.833L185.61 149.934L185.191 148.785C185.111 148.571 184.984 148.377 184.819 148.219C184.655 148.06 184.457 147.939 184.24 147.867L183.203 147.526L184.224 147.178C184.435 147.108 184.628 146.992 184.788 146.839C184.948 146.685 185.072 146.498 185.151 146.29L185.61 145.11Z" fill="#EE5D4B"/>
<g opacity="0.3">
<path d="M184.454 135.725C184.352 135.977 184.301 136.246 184.303 136.517C184.715 136.652 185.095 136.795 185.523 136.953C185.747 136.798 185.947 136.611 186.117 136.399L194.148 126.301C194.597 125.86 194.854 125.259 194.861 124.63C194.864 124.601 194.864 124.571 194.861 124.542C193.411 124.424 191.748 125.144 190.299 124.693C189.952 124.591 189.611 124.472 189.277 124.336C188.865 125.58 188.184 127.504 187.384 129.627C186.605 131.888 185.701 134.104 184.676 136.264C185.318 133.961 186.093 131.698 186.996 129.484C187.788 127.338 188.541 125.437 189.047 124.226C188.987 124.199 188.929 124.167 188.873 124.131L188.77 124.226C187.323 128.075 185.885 131.908 184.454 135.725ZM188.636 132.415C189.328 131.426 190.107 130.501 190.964 129.651C190.441 130.746 189.767 131.762 188.96 132.668C188.265 133.664 187.436 134.559 186.497 135.329C187.122 134.296 187.837 133.321 188.636 132.415Z" fill="black"/>
<path d="M194.481 134.949C195.819 133.5 197.047 132.201 197.95 131.274C198.407 130.742 198.92 130.258 199.478 129.833C199.094 130.42 198.654 130.97 198.164 131.472C197.316 132.446 196.12 133.777 194.79 135.226C193.459 136.676 192.224 137.982 191.321 138.901C191.038 139.135 190.844 139.46 190.774 139.82L191.226 140.168C195.859 137.428 201.181 133.959 205.307 130.902C204.942 130.544 204.501 130.274 204.016 130.11C202.686 129.651 201.046 129.666 199.732 129.152C197.467 131.528 194.742 134.426 192.382 137.278C192.992 136.581 193.712 135.789 194.481 134.949Z" fill="black"/>
<path d="M205.608 139.503C205.116 139.884 204.585 140.214 204.024 140.485C203.05 141.055 201.696 141.832 200.223 142.726C198.749 143.621 197.3 144.366 196.88 145.38C196.738 145.687 196.673 146.024 196.69 146.362L196.999 146.9C200.785 146.108 206.685 143.368 211.002 141.626C209.687 140.572 207.715 140.16 206.78 138.727L205.394 139.503C205.521 139.503 205.6 139.456 205.608 139.503ZM202.828 144.255C202.109 144.644 201.338 144.929 200.539 145.102C201.862 144.128 203.385 143.46 204.998 143.146C204.328 143.596 203.598 143.948 202.828 144.192V144.255Z" fill="black"/>
<path d="M209.204 148.382C208.222 148.778 206.828 149.3 205.331 149.863C203.834 150.425 202.424 150.9 201.419 151.225C200.888 151.445 200.332 151.596 199.763 151.676L199.106 151.969C199.322 152.751 199.497 153.545 199.629 154.345H200.223C204.254 154.242 210.796 153.846 215.635 153.553C215.395 152.986 215.081 152.453 214.7 151.969C213.837 150.884 212.768 149.886 212.388 148.556C212.274 148.129 212.215 147.69 212.214 147.249L210.17 147.922L209.204 148.382Z" fill="black"/>
<path d="M208.032 159.446L202.733 159.042C201.996 159.021 201.262 158.936 200.54 158.789C201.117 158.714 201.701 158.698 202.282 158.741C201.617 158.693 200.959 158.654 200.294 158.63H199.922C199.922 159.287 199.858 159.929 199.787 160.571C203.945 162.155 210.083 164.309 214.875 166.059C215.042 165.738 215.134 165.383 215.144 165.022C215.199 163.129 212.918 161.679 213.037 159.85C212.443 159.802 211.857 159.755 211.271 159.691L208.032 159.446Z" fill="black"/>
<path d="M201.506 166.756L199.32 165.639L198.702 165.338C198.444 166.088 198.145 166.823 197.807 167.54C201.466 170.344 206.274 175.27 210.344 178.834C210.857 178.553 211.29 178.147 211.604 177.654C212.586 175.927 211.247 173.828 211.057 171.848C209.83 171.239 207.968 170.264 205.893 169.163C204.191 168.253 202.654 167.405 201.506 166.756Z" fill="black"/>
<path d="M202.1 176.624C200.152 175.238 198.393 173.955 197.142 173.021C196.247 172.347 195.605 171.856 195.328 171.603C195.035 171.983 194.734 172.355 194.417 172.712C194.702 173.148 195.031 173.555 195.4 173.924C198.124 176.783 202.401 181.677 205.608 185.17C206.353 183.934 206.171 182.137 207.066 180.925C207.186 180.769 207.321 180.626 207.47 180.497L206.179 179.483C205.022 178.683 203.613 177.701 202.1 176.624Z" fill="black"/>
<path d="M194.504 182.992C193.934 182.01 193.395 181.067 192.92 180.196C192.556 179.416 192.084 178.691 191.518 178.042C191.319 177.85 191.072 177.717 190.802 177.657C190.532 177.597 190.251 177.612 189.99 177.701C189.618 177.836 189.515 178.081 189.483 178.05C189.451 178.018 189.483 177.772 189.919 177.551C190.185 177.431 190.479 177.384 190.77 177.415C191.06 177.445 191.338 177.552 191.574 177.725C191.217 177.245 190.828 176.79 190.41 176.363C189.998 176.648 189.578 176.933 189.15 177.194C190.061 181.82 192.445 188.591 194.694 194.001C195.013 194.06 195.341 194.053 195.656 193.981C195.972 193.908 196.27 193.772 196.532 193.581C197.942 192.504 197.363 190.239 197.847 188.544L197.53 188.037C196.706 186.754 195.645 184.972 194.504 182.992Z" fill="black"/>
<path d="M188.081 190.904C188.268 191.53 188.382 192.176 188.422 192.829C188.157 192.235 187.95 191.617 187.804 190.983L186.489 186.477C185.99 184.798 185.539 183.269 185.151 181.978C184.969 181.337 184.826 180.83 184.747 180.505L184.509 179.951C184.303 184.465 184.573 190.793 184.881 195.87C186.051 194.879 187.329 194.024 188.691 193.32C188.327 191.553 187.844 189.661 187.289 187.776C187.622 188.979 187.891 190.057 188.081 190.904Z" fill="black"/>
<path d="M178.047 192.504C177.967 193.276 177.819 194.039 177.603 194.785C177.582 194.008 177.635 193.231 177.762 192.464C177.912 191.039 178.15 189.074 178.435 186.92L178.863 183.863C179.034 183.076 178.999 182.257 178.76 181.487C178.583 181.074 178.281 180.728 177.896 180.497H177.421C177.16 180.497 176.898 180.497 176.629 180.497C176.597 180.519 176.567 180.546 176.542 180.576C176.097 181.103 175.775 181.723 175.6 182.39C174.221 186.469 172.843 192.551 171.465 196.939C173.097 196.598 174.15 194.611 175.837 194.5C176.6 194.502 177.335 194.784 177.904 195.292C178.039 193.945 178.158 192.456 178.284 190.944C178.213 191.482 178.126 192.029 178.047 192.504Z" fill="black"/>
<path d="M168.178 186.231C168.661 185.249 169.137 184.299 169.493 183.435C169.819 182.685 169.996 181.878 170.016 181.059C170.019 180.515 169.908 179.975 169.691 179.475C169.373 179.541 169.091 179.721 168.899 179.982C165.826 183.396 161.494 188.9 158.342 193.153C160.084 193.811 162.476 192.694 164.527 192.916C164.717 192.567 165.058 191.981 165.509 191.197C166.222 189.938 167.196 188.195 168.178 186.231Z" fill="black"/>
<path d="M157.74 184.75C158.294 184.093 159.72 182.612 161.359 180.846C163.141 178.937 164.63 177.305 165.145 176.83C164.63 176.49 164.131 176.133 163.64 175.761C163.013 176.35 162.355 176.905 161.668 177.424C160.921 178.084 160.09 178.644 159.197 179.087C159.838 178.322 160.585 177.653 161.415 177.099C162.08 176.585 162.69 176.141 163.141 175.84C162.182 176.245 161.281 176.778 160.464 177.424L151.079 184.457C152.711 184.742 154.556 184.814 155.578 186.041C155.732 186.228 155.862 186.433 155.966 186.651C156.481 186.033 157.09 185.439 157.74 184.75Z" fill="black"/>
<path d="M154.168 175.207C155.752 174.177 157.233 173.282 158.231 172.617C158.438 172.471 158.598 172.267 158.69 172.031C158.757 171.852 158.757 171.655 158.69 171.476C158.587 171.167 158.373 171.112 158.389 171.08C158.405 171.049 158.65 171.08 158.841 171.413C158.945 171.624 158.97 171.866 158.912 172.094C158.902 172.141 158.886 172.186 158.864 172.229C159.121 172.06 159.333 171.832 159.482 171.563C159.229 171.223 158.975 170.874 158.73 170.518C158.408 170.505 158.086 170.548 157.779 170.645C153.542 171.761 147.071 174.177 142.026 176.046C143.61 177.202 146.501 176.704 147.523 178.486C147.635 178.703 147.718 178.935 147.768 179.175C149.154 178.327 150.699 177.4 152.235 176.474C152.837 176.07 153.455 175.65 154.168 175.207Z" fill="black"/>
<path d="M149.368 167.429L152.085 166.7C152.924 166.487 153.669 166.32 154.279 166.098C154.931 165.867 155.518 165.481 155.989 164.974C155.989 164.974 155.942 165.188 155.696 165.473C155.51 165.682 155.294 165.864 155.055 166.011L155.395 165.893C155.694 165.808 155.966 165.65 156.187 165.433C156.045 165.021 155.91 164.641 155.791 164.19C155.453 164.058 155.093 163.994 154.73 164C149.492 163.815 144.255 163.662 139.017 163.54C139.745 164.776 141.393 165.322 142.042 166.597C142.42 167.411 142.485 168.336 142.224 169.195L146.184 168.316C147.119 168.015 148.22 167.738 149.368 167.429Z" fill="black"/>
<path d="M140.783 158.147C141.447 158.084 142.115 158.084 142.779 158.147C144.014 158.194 145.709 158.258 147.586 158.297C149.463 158.337 151.166 158.345 152.394 158.353C153.063 158.319 153.733 158.345 154.397 158.432C153.743 158.581 153.073 158.653 152.402 158.646C151.61 158.693 150.564 158.717 149.432 158.725C151.38 158.804 153.249 158.828 154.817 158.725H154.944C154.944 158.464 154.944 158.202 154.944 157.933C154.944 157.664 154.944 157.188 154.944 156.824L154.833 156.753C150.501 154.171 144.276 152.31 139.12 150.9C139.059 151.326 139.146 151.759 139.367 152.128C139.587 152.497 139.928 152.779 140.331 152.927L140.221 152.215C141.496 152.769 141.844 154.488 141.44 155.818C141.143 156.665 140.727 157.465 140.205 158.194L141.409 158.266C141.195 158.262 140.983 158.222 140.783 158.147ZM151.871 157.03C152.768 157.122 153.647 157.349 154.477 157.703C153.576 157.749 152.674 157.661 151.8 157.442C150.905 157.35 150.029 157.123 149.202 156.769C150.1 156.722 150.999 156.81 151.871 157.03Z" fill="black"/>
<path d="M142.676 146.425C143.404 146.664 144.109 146.969 144.783 147.336L146.422 148.128C147.879 148.754 149.4 149.387 150.881 149.973C152.25 150.47 153.66 150.844 155.095 151.09C155.387 151.123 155.684 151.074 155.95 150.947C155.99 150.92 156.028 150.888 156.061 150.852C156.219 150.385 156.386 149.926 156.576 149.466C155.847 149.11 154.738 148.508 153.503 147.795C152.182 147.127 150.93 146.331 149.764 145.419C151.142 145.977 152.467 146.655 153.724 147.447L155.007 148.239C150.987 145.365 146.812 142.713 142.502 140.295C142.248 141.784 142.819 143.685 142.359 145.229C142.251 145.557 142.105 145.87 141.924 146.164L142.874 146.568C142.747 146.496 142.668 146.433 142.676 146.425Z" fill="black"/>
<path d="M150.327 137.207C150.847 137.59 151.327 138.025 151.76 138.505C152.623 139.297 153.827 140.454 155.205 141.626C156.583 142.798 157.89 143.804 158.849 144.517L159.173 144.762C159.45 144.382 159.728 144.01 160.029 143.653L159.981 143.574C159.561 143.075 159.039 142.402 158.484 141.634C157.72 140.682 157.086 139.633 156.599 138.513C157.061 138.951 157.466 139.446 157.803 139.986C155.875 136.973 153.759 134.085 151.467 131.338C150.805 131.441 150.198 131.768 149.748 132.264C148.869 133.334 149.194 135.013 148.766 136.28C149.558 137.009 150.501 137.816 151.467 138.656C151.03 138.22 150.647 137.734 150.327 137.207Z" fill="black"/>
<path d="M161.13 134.751C163.11 137.254 164.765 139.25 164.725 139.377C165.09 139.128 165.462 138.891 165.842 138.664C165.842 138.608 165.802 138.561 165.779 138.513C164.29 134.712 161.589 128.756 159.783 124.408C159.495 124.537 159.215 124.683 158.944 124.843C157.621 125.635 157.185 127.354 156.473 128.756C156.932 129.358 157.455 130.063 158.009 130.823C158.564 131.583 159.791 133.064 161.13 134.751ZM163.173 133.603C163.68 134.413 164.11 135.27 164.456 136.161C164.923 136.996 165.307 137.874 165.604 138.783C164.399 137.271 163.566 135.496 163.173 133.603Z" fill="black"/>
<path d="M168.036 125.849C168.219 126.424 168.347 127.016 168.416 127.615C168.606 128.7 168.867 130.213 169.208 131.868C169.493 133.318 169.77 134.617 170 135.654C170.111 135.995 170.222 136.304 170.333 136.589C170.752 136.446 171.18 136.319 171.623 136.201C171.431 135.337 171.296 134.461 171.22 133.579C171.032 132.699 170.942 131.802 170.95 130.902C171.342 131.727 171.573 132.62 171.631 133.532C171.703 134.054 171.734 134.545 171.75 134.965C171.75 130.871 171.837 125.604 171.829 121.438C171.172 122.063 170.689 123.156 169.628 124.725C169.439 124.986 169.195 125.203 168.913 125.359C168.631 125.515 168.318 125.607 167.996 125.627L168.044 125.936C168.02 125.889 168.028 125.849 168.036 125.849Z" fill="black"/>
<path d="M178.007 130.118C177.967 132.423 177.896 134.418 177.809 135.44C178.348 135.44 178.886 135.44 179.393 135.527C180.245 134.191 180.837 132.704 181.135 131.148C181.832 128.368 182.791 123.901 183.567 120.638C183.076 120.67 182.598 120.808 182.165 121.042C180.945 121.715 179.464 124.661 178.696 124.677C178.557 124.666 178.423 124.627 178.3 124.562C178.177 124.496 178.069 124.406 177.983 124.297V124.629C178.007 125.596 178.007 127.686 178.007 130.118Z" fill="black"/>
</g>
</svg>
