<svg width="24" height="24" viewBox="0 0 24 24" fill="none" xmlns="http://www.w3.org/2000/svg">
<path fill-rule="evenodd" clip-rule="evenodd" d="M2.23351 4.357C2.08233 4.53715 1.99947 4.76482 1.99951 5V17C1.99951 17.7956 2.31558 18.5587 2.87819 19.1213C3.4408 19.6839 4.20386 20 4.99951 20H18.9995C19.7952 20 20.5582 19.6839 21.1208 19.1213C21.6834 18.5587 21.9995 17.7956 21.9995 17V5.01C22.0009 4.86092 21.9689 4.71342 21.9059 4.57828C21.843 4.44315 21.7506 4.32381 21.6355 4.229C21.4576 4.08203 21.2343 4.00112 21.0035 4H2.99951C2.85351 3.99998 2.70928 4.03193 2.57695 4.09361C2.44461 4.15528 2.32739 4.24518 2.23351 4.357ZM3.99951 7.414V17C3.99951 17.2652 4.10487 17.5196 4.29241 17.7071C4.47994 17.8946 4.7343 18 4.99951 18H18.9995C19.2647 18 19.5191 17.8946 19.7066 17.7071C19.8942 17.5196 19.9995 17.2652 19.9995 17V7.414L12.7065 14.707C12.519 14.8945 12.2647 14.9998 11.9995 14.9998C11.7343 14.9998 11.48 14.8945 11.2925 14.707L3.99951 7.414Z" fill="white"/>
</svg>
