<svg width="18" height="18" viewBox="0 0 18 18" fill="none" xmlns="http://www.w3.org/2000/svg">
<g clip-path="url(#clip0_1076_726)">
<path d="M3.98869 10.8776L3.36214 13.2166L1.07209 13.2651C0.387707 11.9957 -0.000488281 10.5433 -0.000488281 8.99998C-0.000488281 7.50756 0.362465 6.10018 1.00582 4.86096H1.00632L3.0451 5.23474L3.93821 7.26129C3.75128 7.80625 3.6494 8.39125 3.6494 8.99998C3.64947 9.66063 3.76914 10.2936 3.98869 10.8776Z" fill="#FBBB00"/>
<path d="M17.8422 7.31873C17.9455 7.86316 17.9994 8.42541 17.9994 9.00004C17.9994 9.64438 17.9317 10.2729 17.8026 10.8792C17.3645 12.9422 16.2197 14.7437 14.6338 16.0186L14.6333 16.0181L12.0654 15.887L11.7019 13.6182C12.7542 13.0011 13.5766 12.0353 14.0098 10.8792H9.19727V7.31873H14.08H17.8422Z" fill="#518EF8"/>
<path d="M14.6333 16.0181L14.6338 16.0185C13.0915 17.2583 11.1322 18 8.99944 18C5.57202 18 2.59214 16.0843 1.07202 13.2651L3.98862 10.8777C4.74866 12.9061 6.70542 14.3501 8.99944 14.3501C9.98547 14.3501 10.9092 14.0835 11.7019 13.6182L14.6333 16.0181Z" fill="#28B446"/>
<path d="M14.7442 2.07197L11.8286 4.45894C11.0082 3.94615 10.0385 3.64992 8.99955 3.64992C6.65361 3.64992 4.66025 5.16013 3.93828 7.26131L1.00635 4.86098H1.00586C2.50373 1.97307 5.52119 0 8.99955 0C11.1833 0 13.1855 0.777867 14.7442 2.07197Z" fill="#F14336"/>
</g>
<defs>
<clipPath id="clip0_1076_726">
<rect width="18" height="18" fill="white" transform="translate(-0.000488281)"/>
</clipPath>
</defs>
</svg>
