<svg width="395" height="386" viewBox="0 0 395 386" fill="none" xmlns="http://www.w3.org/2000/svg">
<path d="M132.745 259.48C132.306 259.541 132.204 259.579 132.204 259.601C132.211 259.731 135.62 260.418 137.128 258.87C138.245 257.723 137.601 256.088 138.519 255.691C139.221 255.388 139.98 256.178 141.726 257.174C142.147 257.413 143.341 257.912 145.739 258.915C150.536 260.918 156.388 262.604 156.388 262.604C160.371 263.751 169.691 266.875 191.729 274.908C195.422 276.108 199.346 276.426 203.184 275.836C204.501 275.61 205.799 275.288 207.068 274.872C215.724 271.956 222.881 262.216 222.881 262.216C232.103 249.652 238.779 236.779 239.949 234.506C245.895 222.943 250.466 214.056 255.416 201.041C258.639 192.562 260.546 186.222 263.615 176.007C269.67 155.861 267.133 160.036 271.128 148.054C271.307 147.517 274.79 137.073 275.231 127.202C275.316 125.311 275.339 122.264 274.039 118.775C273.784 118.089 272.683 115.237 269.901 112.092C266.511 108.252 262.779 106.392 261.423 105.71C244.733 97.3165 283.843 114.517 239.388 93.7015C227.86 88.3043 218.67 84.0763 212.341 81.1833L212.724 78.7792C211.64 77.4999 210.554 76.221 209.467 74.9427C198.62 70.6678 189.535 68.8836 183.301 68.0638C177.147 67.2539 173.473 67.3455 169.713 68.1575C162.98 69.6082 158.443 72.8442 156.356 74.3677C149.695 79.2214 146.096 85.1326 144.31 88.7079C129.425 94.3875 116.344 103.97 106.44 116.449C101.54 117.858 96.6385 119.269 91.7372 120.681L82.3929 142.94L89.8759 154.604C87.3586 171.269 89.6802 188.307 96.5649 203.69C95.1398 207.402 94.2889 211.309 94.0415 215.277C93.8741 218.034 93.5967 223.463 95.9838 229.82C97.225 233.014 98.9391 236.003 101.069 238.687C103.44 241.706 106.22 243.8 111.697 247.877C122.082 255.609 127.39 257.739 130.596 258.813C131.491 259.11 132.235 259.333 132.745 259.48Z" fill="url(#paint0_linear_1540_138)"/>
<path d="M125.704 221.366C128.055 228.37 132.598 232.471 134.745 234.358C137.355 236.651 139.652 237.947 145.822 240.902C157.379 246.436 163.159 249.201 169.773 251.307C174.858 252.925 180.048 253.959 190.429 256.024C194.013 256.736 197.922 257.456 203.027 257.211C209.025 256.918 212.166 255.504 213.776 254.642C215.744 253.582 217.068 252.442 218.323 251.364C220.884 249.155 223.137 246.613 225.024 243.807C234.91 229.254 240.053 218.337 240.053 218.337C245.141 207.533 250.044 197.121 255.276 181.724C260.22 167.179 261.923 158.566 262.472 149.895C263.042 140.847 262.077 136.138 260.315 132.134C257.464 125.653 252.988 122.062 247.38 117.675C244.129 115.133 242.206 114.028 218.896 102.649C211.154 98.8631 205.89 96.3436 198.354 95.0024C194.095 94.2465 190.411 94.102 186.665 94.5532C184.046 94.863 179.561 95.4055 175.176 98.0316C170.419 100.89 167.985 104.867 166.128 108.016C156.91 123.644 152.816 132.994 152.816 132.994C142.662 156.18 143.888 151.287 140.213 160.811C133.019 179.451 132.756 182.997 127.037 195.446C126.477 196.681 126.006 200.955 125.162 205.098C124.511 208.304 123.362 214.357 125.704 221.366Z" fill="#1F3133"/>
<path d="M115.353 177.047C115.588 177.716 116.057 179.056 117.363 180.061C118.767 181.143 120.764 181.551 122.449 180.987C124.414 180.332 125.399 178.538 125.992 177.399C128.834 171.931 130.256 169.198 130.817 165.116C131.511 160.06 134.933 149.801 146.918 126.956C147.555 124.714 147.046 122.409 145.538 121.001C144.629 120.183 143.466 119.704 142.245 119.645C139.811 119.516 138.024 121.138 136.958 122.135C134.33 124.591 133.364 127.529 133.123 128.249C132.081 131.371 135.895 119.169 125.927 144.382C118.379 163.472 119.65 161.724 118.726 163.149C118.726 163.149 115.457 168.187 114.966 173.656C114.848 174.801 114.98 175.958 115.353 177.047Z" fill="#1F3133"/>
<path d="M140.294 247.632C141.001 246.239 142.085 245.072 143.422 244.263C144.759 243.455 146.295 243.037 147.858 243.057L135.324 235.14C135.978 236.347 136.744 237.783 137.588 239.415C139.144 242.408 139.732 243.654 140.053 245.403C140.193 246.138 140.273 246.884 140.294 247.632Z" fill="#07040B"/>
<path d="M131.497 232.327L117.356 220.72C118.078 212.869 119.302 207.508 120.37 203.912C120.788 202.506 121.627 199.865 121.253 196.434C120.976 194.037 120.201 191.725 118.978 189.647C120.609 190.1 122.089 190.984 123.261 192.206C126.036 195.123 125.873 198.854 125.827 199.562C125.213 201.775 124.83 204.044 124.683 206.335C124.461 209.805 124.842 212.414 125.151 214.417C125.964 219.715 127.512 223.608 128.478 225.991C129.359 228.161 130.367 230.276 131.497 232.327Z" fill="#07040B"/>
<path d="M146.061 116.335C148.969 117.296 152.081 117.459 155.073 116.807C158.065 116.155 160.827 114.712 163.072 112.629C165.008 108.949 167.557 105.625 170.608 102.8C177.477 96.4605 185.052 94.409 188.754 93.6739L171.979 91.2919C169.677 95.49 167.162 99.568 164.444 103.51C162.922 105.742 161.216 107.843 159.344 109.791C157.091 112.13 155.965 113.298 154.695 113.739C151.669 114.791 148.963 113.405 146.857 115.349C146.547 115.639 146.279 115.971 146.061 116.335Z" fill="#07040B"/>
<path d="M196.706 94.1711L209.185 97.8976C208.042 96.5046 207.273 94.8435 206.95 93.0711C206.746 91.9041 206.741 90.7107 206.936 89.5421C203.817 91.3999 200.399 92.7041 196.836 93.3973C196.792 93.6544 196.749 93.9124 196.706 94.1711Z" fill="#07040B"/>
<path d="M91.396 142.15C93.0199 142.696 94.6475 143.243 96.2788 143.791L102.475 129.045C100.934 128.317 99.3918 127.588 97.8475 126.858L91.396 142.15Z" fill="#4A5624"/>
<path d="M141.417 175.104L147.17 175.286L160.057 146.475C158.672 144.571 157.288 142.667 155.906 140.762C153.238 145.626 150.527 151.095 147.951 157.157C145.46 163.021 143.279 169.012 141.417 175.104Z" fill="#4A580B"/>
<path d="M132.577 215.455C133.95 222.646 139.922 227.362 144.591 231.049C149.584 234.992 153.999 236.898 159.693 239.357C164.492 241.429 168.17 242.538 175.525 244.76C178.276 245.589 194.816 250.507 204.255 249.586C205.773 249.432 207.274 249.136 208.737 248.704C209.584 248.443 212.473 247.496 216.087 244.835C218.619 242.955 220.874 240.728 222.786 238.22C227.841 231.741 230.982 225.494 232.655 222.123C237.297 212.778 239.619 208.104 241.883 202.868C245.13 195.366 249.502 185.17 253.578 171.3C254.383 168.554 257.732 156.889 257.001 146.204C256.629 139.578 254.073 133.263 249.731 128.245C247.108 125.229 245.043 124.131 236.734 119.199C224.534 111.951 226.605 112.897 224.204 111.663C213.774 106.295 205.424 104.362 200.036 103.153C193.513 101.688 190.888 101.734 188.693 102.043C182.927 102.854 178.763 105.671 176.934 106.937C173.323 109.436 171.155 112.084 169.954 113.574C167.733 116.329 166.363 119.007 163.721 124.253C162.53 126.608 161.045 129.676 159.445 133.338C159.858 134.945 160.548 136.468 161.483 137.839C162.975 140 165.022 141.72 167.408 142.818L150.84 181.938C148.396 180.73 145.645 180.291 142.947 180.679C141.245 180.94 139.611 181.533 138.138 182.425C136.42 186.249 133.848 192.723 132.744 199.896C132.434 201.936 132.233 203.99 132.141 206.051C132.101 206.524 131.9 211.916 132.577 215.455Z" fill="url(#paint1_linear_1540_138)"/>
<g opacity="0.49">
<mask id="mask0_1540_138" style="mask-type:luminance" maskUnits="userSpaceOnUse" x="132" y="101" width="126" height="149">
<path d="M132.577 215.455C133.95 222.646 139.922 227.362 144.591 231.049C149.584 234.992 153.999 236.898 159.693 239.357C164.492 241.429 168.17 242.538 175.525 244.76C178.276 245.589 194.816 250.507 204.255 249.586C205.773 249.432 207.274 249.136 208.737 248.704C209.584 248.443 212.473 247.496 216.087 244.835C218.619 242.955 220.874 240.728 222.786 238.22C227.841 231.741 230.982 225.494 232.655 222.123C237.297 212.778 239.619 208.104 241.883 202.868C245.13 195.366 249.502 185.17 253.578 171.3C254.383 168.554 257.732 156.889 257.001 146.204C256.629 139.578 254.073 133.263 249.731 128.245C247.108 125.229 245.043 124.131 236.734 119.199C224.534 111.951 226.605 112.897 224.204 111.663C213.774 106.295 205.424 104.362 200.036 103.153C193.513 101.688 190.888 101.734 188.693 102.043C182.927 102.854 178.763 105.671 176.934 106.937C173.323 109.436 171.155 112.084 169.954 113.574C167.733 116.329 166.363 119.007 163.721 124.253C162.53 126.608 161.045 129.676 159.445 133.338C159.858 134.945 160.548 136.468 161.483 137.839C162.975 140 165.022 141.72 167.408 142.818L150.84 181.938C148.396 180.73 145.645 180.291 142.947 180.679C141.245 180.94 139.611 181.533 138.138 182.425C136.42 186.249 133.848 192.723 132.744 199.896C132.434 201.936 132.233 203.99 132.141 206.051C132.101 206.524 131.9 211.916 132.577 215.455Z" fill="white"/>
</mask>
<g mask="url(#mask0_1540_138)">
<path d="M285.372 111.957L209.171 291.962L96.4403 244.24L172.642 64.2363L285.372 111.957ZM209.038 291.632L285.04 112.093L172.773 64.5662L96.771 244.106L209.038 291.632Z" fill="#8E8E8E"/>
<path d="M278.469 108.639L202.776 288.582L203.009 288.68L278.702 108.737L278.469 108.639Z" fill="#8E8E8E"/>
<path d="M273.838 107.211L197.737 286.981L197.97 287.08L274.071 107.309L273.838 107.211Z" fill="#8E8E8E"/>
<path d="M268.213 104.83L192.111 284.6L192.344 284.699L268.446 104.928L268.213 104.83Z" fill="#8E8E8E"/>
<path d="M261.587 101.538L185.895 281.481L186.128 281.579L261.82 101.636L261.587 101.538Z" fill="#8E8E8E"/>
<path d="M255.96 99.171L180.268 279.114L180.501 279.212L256.193 99.2691L255.96 99.171Z" fill="#8E8E8E"/>
<path d="M251.338 97.6863L175.236 277.457L175.469 277.556L251.571 97.7848L251.338 97.6863Z" fill="#8E8E8E"/>
<path d="M245.713 95.3049L169.611 275.076L169.844 275.174L245.946 95.4035L245.713 95.3049Z" fill="#8E8E8E"/>
<path d="M239.081 92.0675L163.388 272.011L163.621 272.109L239.314 92.1655L239.081 92.0675Z" fill="#8E8E8E"/>
<path d="M234.462 90.5418L158.361 270.312L158.594 270.411L234.695 90.6403L234.462 90.5418Z" fill="#8E8E8E"/>
<path d="M228.837 88.1614L152.735 267.932L152.968 268.031L229.07 88.2599L228.837 88.1614Z" fill="#8E8E8E"/>
<path d="M223.213 85.7788L147.111 265.55L147.344 265.648L223.445 85.8774L223.213 85.7788Z" fill="#8E8E8E"/>
<path d="M217.587 83.398L141.486 263.169L141.718 263.267L217.82 83.4965L217.587 83.398Z" fill="#8E8E8E"/>
<path d="M211.962 81.0171L135.86 260.788L136.093 260.886L212.194 81.1156L211.962 81.0171Z" fill="#8E8E8E"/>
<path d="M206.336 78.6365L130.235 258.407L130.467 258.506L206.569 78.7351L206.336 78.6365Z" fill="#8E8E8E"/>
<path d="M200.71 76.2534L124.609 256.024L124.842 256.123L200.943 76.352L200.71 76.2534Z" fill="#8E8E8E"/>
<path d="M195.086 73.8736L118.985 253.644L119.218 253.743L195.319 73.9721L195.086 73.8736Z" fill="#8E8E8E"/>
<path d="M189.46 71.4917L113.358 251.262L113.591 251.361L189.692 71.5902L189.46 71.4917Z" fill="#8E8E8E"/>
<path d="M183.836 69.1104L107.735 248.881L107.967 248.98L184.069 69.2089L183.836 69.1104Z" fill="#8E8E8E"/>
<path d="M178.21 66.7283L102.108 246.499L102.341 246.598L178.442 66.8268L178.21 66.7283Z" fill="#8E8E8E"/>
<path d="M170.444 69.7284L170.345 69.9612L282.85 117.587L282.949 117.355L170.444 69.7284Z" fill="#8E8E8E"/>
<path d="M168.139 75.1762L168.04 75.4089L280.545 123.035L280.644 122.802L168.139 75.1762Z" fill="#8E8E8E"/>
<path d="M165.83 80.6239L165.732 80.8567L278.237 128.483L278.335 128.25L165.83 80.6239Z" fill="#8E8E8E"/>
<path d="M163.526 86.0716L163.427 86.3044L275.932 133.931L276.031 133.698L163.526 86.0716Z" fill="#8E8E8E"/>
<path d="M161.22 91.518L161.121 91.7507L273.626 139.377L273.725 139.144L161.22 91.518Z" fill="#8E8E8E"/>
<path d="M158.914 96.9672L158.815 97.2L271.32 144.826L271.419 144.593L158.914 96.9672Z" fill="#8E8E8E"/>
<path d="M156.607 102.413L156.508 102.646L269.013 150.272L269.112 150.039L156.607 102.413Z" fill="#8E8E8E"/>
<path d="M154.301 107.863L154.203 108.095L266.708 155.722L266.806 155.489L154.301 107.863Z" fill="#8E8E8E"/>
<path d="M151.995 113.309L151.896 113.542L264.401 161.168L264.5 160.935L151.995 113.309Z" fill="#8E8E8E"/>
<path d="M149.69 118.757L149.592 118.99L262.097 166.616L262.195 166.383L149.69 118.757Z" fill="#8E8E8E"/>
<path d="M147.382 124.204L147.283 124.437L259.788 172.063L259.887 171.83L147.382 124.204Z" fill="#8E8E8E"/>
<path d="M145.077 129.652L144.979 129.885L257.483 177.511L257.582 177.278L145.077 129.652Z" fill="#8E8E8E"/>
<path d="M142.77 135.1L142.672 135.333L255.177 182.959L255.275 182.726L142.77 135.1Z" fill="#8E8E8E"/>
<path d="M140.466 140.546L140.368 140.779L252.873 188.405L252.971 188.173L140.466 140.546Z" fill="#8E8E8E"/>
<path d="M138.158 145.994L138.06 146.227L250.565 193.853L250.663 193.62L138.158 145.994Z" fill="#8E8E8E"/>
<path d="M135.852 151.443L135.754 151.676L248.259 199.302L248.357 199.069L135.852 151.443Z" fill="#8E8E8E"/>
<path d="M133.547 156.89L133.448 157.122L245.953 204.749L246.052 204.516L133.547 156.89Z" fill="#8E8E8E"/>
<path d="M131.239 162.338L131.141 162.571L243.646 210.197L243.744 209.964L131.239 162.338Z" fill="#8E8E8E"/>
<path d="M128.933 167.785L128.834 168.017L241.339 215.644L241.438 215.411L128.933 167.785Z" fill="#8E8E8E"/>
<path d="M126.629 173.232L126.53 173.465L239.035 221.091L239.134 220.859L126.629 173.232Z" fill="#8E8E8E"/>
<path d="M124.322 178.681L124.223 178.913L236.728 226.54L236.827 226.307L124.322 178.681Z" fill="#8E8E8E"/>
<path d="M122.016 184.128L121.917 184.361L234.422 231.987L234.521 231.754L122.016 184.128Z" fill="#8E8E8E"/>
<path d="M119.709 189.574L119.611 189.807L232.116 237.433L232.214 237.2L119.709 189.574Z" fill="#8E8E8E"/>
<path d="M117.404 195.023L117.305 195.256L229.81 242.882L229.909 242.65L117.404 195.023Z" fill="#8E8E8E"/>
<path d="M115.098 200.47L114.999 200.703L227.504 248.329L227.603 248.096L115.098 200.47Z" fill="#8E8E8E"/>
<path d="M112.791 205.918L112.692 206.151L225.197 253.777L225.296 253.545L112.791 205.918Z" fill="#8E8E8E"/>
<path d="M110.486 211.366L110.387 211.599L222.892 259.225L222.991 258.992L110.486 211.366Z" fill="#8E8E8E"/>
<path d="M108.18 216.813L108.081 217.046L220.586 264.672L220.685 264.439L108.18 216.813Z" fill="#8E8E8E"/>
<path d="M105.874 222.262L105.776 222.495L218.281 270.121L218.379 269.888L105.874 222.262Z" fill="#8E8E8E"/>
<path d="M102.887 227.115L102.789 227.348L215.402 274.719L215.5 274.486L102.887 227.115Z" fill="#8E8E8E"/>
<path d="M101.261 233.157L101.163 233.39L213.668 281.016L213.766 280.783L101.261 233.157Z" fill="#8E8E8E"/>
<path d="M98.9547 238.604L98.8562 238.837L211.361 286.463L211.46 286.23L98.9547 238.604Z" fill="#8E8E8E"/>
</g>
</g>
<path d="M131.747 258.775C130.014 259.338 128.189 257.759 126.173 256.259C123.669 254.394 120.811 253.042 118.227 251.314C109.331 245.357 108.95 245.553 106.122 243.075C102.829 240.18 101.177 237.981 100.451 236.965C99.1177 235.089 97.9873 233.077 97.079 230.962C95.8001 227.951 94.9717 224.768 94.6205 221.515C94.1052 216.786 94.7462 213.258 95.5746 208.896C95.9309 207.016 96.4551 204.671 99.2196 195.949C100.247 192.706 101.625 188.456 103.329 183.462C105.303 183.792 107.188 184.524 108.866 185.615C112.05 187.695 113.487 190.454 114.06 191.59C114.788 193.032 115.613 195.204 115.854 198.655C116.495 207.801 112.593 219.605 111.766 222.042C115.776 225.559 119.087 228.354 121.349 230.241C125.63 233.81 127.801 235.495 130.454 238.721C132.691 241.441 134.017 243.089 134.838 245.796C136.21 250.324 135.16 254.474 133.599 257.015C132.89 258.164 132.321 258.589 131.747 258.775Z" fill="url(#paint2_linear_1540_138)"/>
<path d="M135.363 108.427C136.159 108.63 137.3 108.932 138.685 109.284C145.298 110.96 146.189 111.019 147.178 110.99C149.262 110.91 151.294 110.317 153.094 109.264C154.676 108.333 155.64 107.282 156.986 105.81C158.27 104.394 159.426 102.867 160.44 101.247C162.729 97.6588 162.836 96.341 164.99 92.5503C166.025 90.7319 167.17 88.9778 168.417 87.2974C170.783 87.1384 173.155 87.1081 175.524 87.2065C177.707 87.2978 179.503 87.4891 181.722 87.7184C184.358 87.9936 184.487 88.0743 187.385 88.3824C192.237 88.8909 193.371 88.8124 194.345 88.6757C194.865 88.5997 196.041 88.2699 198.393 87.6077C201.615 86.7037 203.248 86.2335 204.111 85.7208C205.676 84.7646 206.981 83.4381 207.912 81.8583C209.131 79.769 209.672 77.3524 209.458 74.9426C197.823 70.4684 187.928 68.8379 181.082 68.1965C171.688 67.3159 167.735 68.2664 165.109 69.2065C157.272 72.0064 152.512 77.7876 150.381 80.4389C148.518 82.7557 147.565 84.4743 143.184 93.013C140.108 99.019 137.463 104.236 135.363 108.427Z" fill="url(#paint3_linear_1540_138)"/>
<path d="M133.098 259.201L136.832 259.131C138.033 257.296 138.877 255.251 139.318 253.103C140.761 245.946 137.048 240.05 135.832 238.123C134.247 235.605 132.426 233.94 128.849 230.715C125.142 227.373 121.238 224.256 117.157 221.382C117.813 218.855 118.694 215.236 119.557 210.844C121.179 202.597 121.991 198.474 121.362 195.168C120.948 192.998 119.162 186.294 108.611 180.386L104.841 182.959C107.312 183.969 113.176 186.776 115.564 192.795C115.912 193.671 116.921 196.466 115.851 205.042C115.147 210.648 113.888 216.169 112.092 221.526C115.856 224.875 118.943 227.503 120.972 229.208C126.815 234.118 129.871 236.402 132.908 240.97C135.316 244.597 135.635 246.547 135.73 247.47C136.015 250.277 135.163 253.045 134.282 255.901C133.851 257.278 133.419 258.409 133.098 259.201Z" fill="#CC9A1F"/>
<path d="M135.834 109.856L136.801 113.614C139.299 114.546 143.842 115.806 149.273 114.867C151.081 114.55 154.263 113.968 157.381 111.682C160.029 109.741 161.286 107.563 162.687 105.265C164.634 102.073 167.569 97.4897 171.715 91.7747C180.037 92.0882 185.747 92.4294 189.98 92.7896C192.147 92.9511 194.324 92.9341 196.489 92.7386C201.358 92.3127 203.329 91.2573 204.204 90.719C205.659 89.8248 206.531 88.8603 207.383 87.8953C208.844 86.2535 211.077 83.2712 212.565 78.5914C211.627 77.4875 210.69 76.3842 209.754 75.2818C209.214 77.0112 208.464 78.668 207.521 80.2151C206.639 81.6672 204.327 85.374 200.237 87.4867C197.505 88.8986 195.226 88.9555 190.909 89.0784C184.899 89.2425 182.68 88.1721 174.285 87.7282C171.958 87.6104 170.082 87.5802 168.951 87.5765C166.39 92.1234 163.559 96.5131 160.474 100.722C157.764 104.415 155.93 106.494 153.067 108.208C151.31 109.265 149.119 110.583 146.12 110.73C144.77 110.797 144.1 110.583 138.849 110.1C137.596 110.002 136.547 109.915 135.834 109.856Z" fill="#CC9A1F"/>
<path d="M96.4353 144.766C98.4392 145.613 100.441 146.461 102.441 147.308L108.775 131.712L102.977 129.264C101.122 132.849 99.47 136.536 98.0286 140.307C97.4478 141.825 96.9167 143.311 96.4353 144.766Z" fill="#CC9A1F"/>
<path d="M84.0274 144.433L89.8142 154.877C97.3823 159.545 104.953 164.209 112.526 168.87L114.554 162.1L86.0821 144.172L84.0274 144.433Z" fill="#CC9A1F"/>
<path d="M92.8372 120.946C104.605 123.987 116.371 127.027 128.137 130.067L130.404 123.987L105.48 116.98C101.102 117.707 96.8463 119.042 92.8372 120.946Z" fill="#CC9A1F"/>
<path d="M202.091 275.958C214.088 262.409 224.635 247.642 233.56 231.899C260.472 184.374 266.498 138.407 267.65 109.954C269.678 111.637 271.399 113.66 272.735 115.932C273.7 117.58 275.608 121.311 275.816 126.186C275.94 129.106 275.359 130.245 273.729 136.53C271.916 143.519 272.658 142.019 270.246 151.747C269.83 153.43 268.717 157.878 266.806 164.741C265.774 168.452 263.082 178.125 260.199 186.944C257.362 195.622 251.55 213.146 240.552 233.433C238.399 237.402 235.811 241.594 230.638 249.97C221.897 264.119 218.437 268.637 212.672 272.024C209.398 273.934 205.818 275.265 202.091 275.958Z" fill="#CC9A1F"/>
<path d="M200.269 276.769L181.381 289.121C161.404 284.145 142.172 276.553 124.184 266.54L117.591 251.977L130.591 258.818L136.824 259.138L138.27 256.361C146.59 259.71 155.401 262.998 164.687 266.148C177.095 270.349 188.996 273.847 200.269 276.769Z" fill="url(#paint4_linear_1540_138)"/>
<path d="M124.875 267.343L120.84 270.676C111.161 266.139 101.244 261.249 91.0899 256.005C79.0955 249.788 67.6898 243.535 56.8727 237.245L46.6755 219.523C64.8858 226.237 83.0972 232.953 101.309 239.67C105.667 243.259 110.27 246.835 115.131 250.363C116.197 251.135 117.259 251.895 118.318 252.642L124.875 267.343Z" fill="#CC9A1F"/>
<path d="M122.573 42.3707L174.393 66.6141C177.728 67.1066 181.128 67.6522 184.593 68.2509C187.971 68.8334 191.274 69.4441 194.501 70.083L210.619 64.6657L210.36 59.6195L141.768 36.5608L123.598 40.064L122.573 42.3707Z" fill="#CC9A1F"/>
<path d="M269.598 111.039C269.149 103.697 267.721 96.4473 265.351 89.4835C248.001 79.2489 229.535 71.0391 210.314 65.0154C207.029 65.6525 203.823 66.6452 200.753 67.9758C199.049 68.7141 197.391 69.5562 195.789 70.4971C200.322 71.892 204.855 73.2881 209.388 74.6855L212.719 78.7809L212.511 80.7364C219.83 84.1868 228.705 88.4316 238.82 93.3924C248.601 98.1887 255.247 101.551 263.559 106.949C266.124 108.606 268.197 110.05 269.598 111.039Z" fill="url(#paint5_linear_1540_138)"/>
<path d="M47.5613 219.848C51.7916 224.259 56.0218 228.669 60.2521 233.08L121.815 262.346L117.003 252.036C113.589 249.707 110.054 247.14 106.459 244.29C104.653 242.859 102.923 241.433 101.267 240.012C83.3678 233.291 65.466 226.569 47.5613 219.848Z" fill="#191919"/>
<path d="M118.312 252.638L120.593 256.583L128.054 260.694L128.763 263.844L162.448 278.265L171.575 268.66C160.705 264.521 149.834 260.383 138.962 256.245L137.442 258.965L133.142 259.932C128.948 258.442 124.902 256.565 121.055 254.326C120.105 253.768 119.191 253.205 118.312 252.638Z" fill="#191919"/>
<path d="M123.632 42.1426C141 50.5089 158.367 58.8745 175.733 67.2394L194.478 69.6945L203.602 66.1156C182.811 57.9195 162.014 49.7197 141.209 41.5161L123.632 42.1426Z" fill="#191919"/>
<path d="M196.445 70.6025L199.352 68.8803L207.305 71.0694L210.638 70.5107C217.137 73.0707 223.711 75.7285 230.358 78.4842C235.269 80.5221 240.113 82.5717 244.891 84.6331C244.473 88.1654 244.808 92.524 244.39 96.0563C237.428 92.7913 228.033 88.0123 219.023 83.4722C216.853 82.3748 214.44 82.1278 212.248 81.6121L213.228 78.7671C212.449 77.589 211.668 76.4113 210.887 75.234C206.075 73.6889 201.26 72.145 196.445 70.6025Z" fill="#191919"/>
<path d="M171.664 286.646C171.45 285.679 176.206 284.353 180.918 281.577C184.328 279.554 187.384 276.988 189.967 273.979C193.277 275.574 196.893 276.435 200.567 276.506C198.482 278.255 196.233 280.037 193.806 281.813C189.816 284.731 185.658 287.412 181.353 289.842C179.845 288.988 178.24 288.317 176.573 287.843C173.542 286.99 171.792 287.222 171.664 286.646Z" fill="#CC9A1F"/>
<path d="M258.727 103.679C260.194 97.3343 259.702 90.6938 257.316 84.6345C260.135 86.4551 262.953 88.2766 265.77 90.099L268.879 111.008C266.675 109.488 264.447 107.905 262.195 106.258C261.019 105.398 259.863 104.538 258.727 103.679Z" fill="#CC9A1F"/>
<path d="M117.597 251.973C119.592 256.964 121.887 261.578 124.92 266.876C135.428 272.435 147.401 278.394 161.27 283.246C168.283 285.702 175.036 287.734 181.455 289.422C185.047 287.529 188.532 285.44 191.895 283.164C195.198 280.926 198.464 278.273 201.049 276.115" stroke="black" stroke-width="2.06346" stroke-miterlimit="10" stroke-linecap="round"/>
<path d="M119.54 256.509C121.327 257.473 123.115 258.434 124.905 259.392C125.81 259.876 126.715 260.36 127.62 260.844L128.553 263.484C134.794 266.592 141.478 269.679 148.595 272.669C153.614 274.774 158.503 276.693 163.261 278.424C165.106 276.459 166.968 274.371 168.849 272.16C169.892 270.93 170.897 269.709 171.865 268.498" stroke="black" stroke-width="2.06346" stroke-miterlimit="10" stroke-linecap="round"/>
<path d="M124.875 267.343L122.535 269.886C122.18 270.275 121.709 270.538 121.192 270.637C120.675 270.736 120.14 270.666 119.666 270.436C109.068 265.288 98.2446 259.796 87.1942 253.959C76.7142 248.403 66.6069 242.834 56.8722 237.251C53.3723 231.861 49.8729 226.471 46.3739 221.081C46.2426 220.878 46.1788 220.639 46.1918 220.398C46.2047 220.157 46.2936 219.926 46.4459 219.739C46.5981 219.551 46.8058 219.417 47.0392 219.354C47.2726 219.292 47.5197 219.306 47.745 219.392C66.0091 226.404 84.2733 233.418 102.538 240.433" stroke="black" stroke-width="2.06346" stroke-miterlimit="10" stroke-linecap="round"/>
<path d="M46.4647 219.668L60.3451 233.197C80.9214 243.014 101.499 252.829 122.077 262.643" stroke="black" stroke-width="2.06346" stroke-miterlimit="10" stroke-linecap="round"/>
<path d="M194.5 70.0771C199.477 68.052 204.395 66.505 210.313 65.0154C221.607 68.7293 234.203 73.2199 247.32 79.8433C253.952 83.1926 260.1 86.6448 265.77 90.0989C266.898 93.9991 267.81 97.9584 268.502 101.959C269.064 105.132 269.441 108.335 269.634 111.551" stroke="black" stroke-width="2.06346" stroke-miterlimit="10" stroke-linecap="round"/>
<path d="M199.114 68.3306C201.048 68.9488 202.981 69.5697 204.911 70.1933L207.838 71.1412L210.387 69.9818C216.954 72.3233 223.815 74.9948 230.905 78.0534C235.902 80.2086 240.675 82.3989 245.223 84.6243C245.087 87.3156 244.883 90.1068 244.587 92.9943C244.424 94.6004 244.425 94.7079 244.226 96.2445" stroke="black" stroke-width="2.06346" stroke-miterlimit="10" stroke-linecap="round"/>
<path d="M210.618 64.6598L210.828 61.2091C210.86 60.6847 210.722 60.164 210.435 59.7241C210.148 59.2843 209.726 58.9487 209.233 58.7671C198.172 54.7035 186.706 50.7163 174.834 46.8053C163.565 43.1056 152.542 39.6888 141.766 36.5549L122.838 40.2089C122.601 40.2546 122.384 40.3741 122.219 40.5505C122.054 40.7269 121.949 40.951 121.919 41.1906C121.889 41.4303 121.936 41.6733 122.053 41.8847C122.17 42.0961 122.351 42.2651 122.569 42.3675L175.733 67.2392" stroke="black" stroke-width="2.06346" stroke-miterlimit="10" stroke-linecap="round"/>
<path d="M121.888 41.25L141.262 41.8625C162.606 49.8764 183.949 57.8904 205.292 65.9045" stroke="black" stroke-width="2.06346" stroke-miterlimit="10" stroke-linecap="round"/>
<path d="M132.567 259.776C126.786 257.002 121.166 253.906 115.732 250.502C105.96 244.372 102.945 241.076 101.14 238.78C97.855 234.598 96.4168 230.976 95.9826 229.819C95.5283 228.611 94.0908 224.56 93.951 218.867C93.8187 213.729 94.8088 209.877 96.1357 205.196C97.8024 199.324 100.079 191.836 103.13 183.123L108.452 180.746C111.592 182.21 114.38 184.331 116.629 186.967C118.02 188.608 120.773 191.858 121.421 196.634C121.762 199.162 121.381 201.124 121.072 202.63C119.687 209.422 118.177 215.824 116.85 221.13C120.096 223.679 124.282 227 129.194 230.984C131.673 232.997 133.708 234.667 135.784 237.509C137.294 239.572 138.966 241.864 139.646 245.331C140.507 249.743 139.257 253.495 138.649 255.322C138.215 256.626 137.666 257.889 137.009 259.096L132.567 259.776Z" stroke="black" stroke-width="2.06346" stroke-miterlimit="10"/>
<path d="M132.59 258.873C134.154 256.697 135.145 254.163 135.472 251.503C135.809 248.779 135.427 246.015 134.363 243.485C133.112 240.576 131.232 238.802 130.171 237.823C122.338 230.576 113.597 223.165 112.017 221.827C112.7 219.001 113.456 215.828 114.264 212.355C115.607 206.61 116.057 204.492 116.281 201.52C116.558 197.906 116.697 196.099 115.9 193.844C114.656 190.3 112.087 188.174 110.411 186.787C108.54 185.241 106.43 184.01 104.163 183.142" stroke="black" stroke-width="2.06346" stroke-miterlimit="10"/>
<path d="M112.475 221.423L116.845 221.142" stroke="black" stroke-width="2.06346" stroke-miterlimit="10"/>
<path d="M210.071 75.1588C204.033 73.0055 197.878 71.1932 191.636 69.7304C180.403 67.1043 175.943 67.2837 173.039 67.6193C167.757 68.2286 164.171 69.7573 163.045 70.2629C161.865 70.7913 157.977 72.6226 153.836 76.5192C150.092 80.0398 148.057 83.455 145.664 87.6946C142.664 93.0107 138.951 99.8994 134.911 108.201C135.596 110.02 136.281 111.838 136.968 113.655C140.218 114.854 143.687 115.341 147.142 115.084C149.289 114.916 153.529 114.582 157.381 111.683C159.418 110.145 160.543 108.491 161.395 107.214C165.244 101.448 168.729 95.8697 171.565 91.1881C175.668 91.6998 180.964 92.3346 187.25 93.0195C190.425 93.3647 193.044 93.6321 196.524 93.107C199.052 92.7224 201.857 92.3028 204.798 90.3424C208.542 87.8451 210.324 84.3216 211.193 82.6032C211.813 81.3767 212.324 80.0978 212.719 78.7812L210.071 75.1588Z" stroke="black" stroke-width="2.06346" stroke-miterlimit="10"/>
<path d="M209.445 75.8106C209.002 78.4534 207.901 80.9422 206.242 83.0473C204.545 85.2029 202.313 86.8767 199.769 87.9024C196.825 89.0563 194.243 88.9796 192.794 88.9111C182.131 88.4484 170.717 87.4584 168.65 87.2756C167.125 89.7492 165.404 92.5206 163.506 95.5426C160.369 100.542 159.182 102.352 157.23 104.603C154.853 107.342 153.67 108.716 151.511 109.738C148.119 111.348 144.791 111.02 142.634 110.806C140.218 110.565 137.857 109.932 135.644 108.932" stroke="black" stroke-width="2.06346" stroke-miterlimit="10"/>
<path d="M168.683 87.8823C169.64 88.9834 170.6 90.0842 171.561 91.1849" stroke="black" stroke-width="2.06346" stroke-miterlimit="10"/>
<path d="M257.193 150.943C256.238 166.482 250.081 182.476 243.994 197.549C239.671 208.255 233.298 223.659 223.427 237.11C221.077 240.312 217.287 245.094 210.682 247.858C204.754 250.338 199.174 250.096 195.9 249.668C178.255 247.316 161.275 241.391 145.997 232.255C143.799 230.913 137.509 226.71 134.007 218.34C131.708 212.799 131.128 206.694 132.342 200.819C140.786 171.539 152.759 143.394 167.996 117.004C168.827 115.222 172.617 107.619 181.736 103.794C190.768 100.006 198.774 102.555 200.653 103.206C216.404 107.747 231.293 114.87 244.713 124.283C247.461 126.211 252.169 130.104 254.998 136.572C257.461 142.222 257.414 147.362 257.193 150.943Z" stroke="black" stroke-width="2.06346" stroke-miterlimit="10"/>
<path d="M262.755 148.365C261.703 165.483 254.926 183.105 248.215 199.705C243.453 211.498 236.431 228.467 225.56 243.28C222.971 246.809 218.797 252.076 211.518 255.119C204.987 257.85 198.84 257.586 195.234 257.115C175.797 254.524 157.091 247.997 140.262 237.933C137.837 236.461 130.912 231.825 127.053 222.605C124.522 216.503 123.884 209.781 125.22 203.311C134.522 171.057 147.711 140.054 164.496 110.983C165.412 109.02 169.588 100.645 179.631 96.4348C189.58 92.2642 198.405 95.0656 200.466 95.7893C217.818 100.792 234.219 108.638 249.003 119.008C252.028 121.13 257.221 125.426 260.331 132.545C263.043 138.751 262.997 144.42 262.755 148.365Z" stroke="black" stroke-width="2.06346" stroke-miterlimit="10"/>
<path d="M212.335 81.185C217.342 83.1175 222.598 85.3713 228.029 88.0092C238.831 93.2556 248.102 98.2491 256.686 103.041C261.144 105.62 270.877 109.843 274.036 118.774C276.781 126.529 274.187 134.047 272.939 139.931C268.634 160.237 262.289 181.721 255.106 201.904C249.95 216.389 241.43 233.642 228.061 253.925C225.14 258.34 219.511 266.452 211.113 272.684C204.181 277.825 195.387 275.864 190.168 274.506C182.506 272.343 170.469 267.611 158.488 263.642C151.483 261.349 144.636 258.6 137.989 255.415" stroke="black" stroke-width="2.06346" stroke-miterlimit="10"/>
<path d="M108.46 180.85C111.351 171.956 114.627 162.742 118.343 153.267C124.199 138.343 130.437 124.588 136.752 112.017" stroke="black" stroke-width="2.06346" stroke-miterlimit="10"/>
<path d="M135.965 123.642C132.215 130.681 128.43 138.476 124.811 147.016C120.947 156.125 117.817 164.79 115.27 172.824C114.63 174.385 114.622 176.134 115.248 177.701C115.563 178.476 116.028 179.181 116.616 179.776C117.205 180.371 117.905 180.843 118.676 181.167L119.034 181.318C119.59 181.449 120.163 181.492 120.732 181.447C121.76 181.341 122.744 180.974 123.591 180.381C125.32 179.209 126.137 177.518 126.36 177.039C128.558 172.345 133.582 157.628 135.897 151.975C137.832 147.251 143.572 133.841 146.522 127.977C147.167 126.701 147.335 125.237 146.997 123.848C146.658 122.458 145.835 121.236 144.675 120.4L144.315 120.249C143.544 119.922 142.716 119.75 141.879 119.744C141.041 119.738 140.211 119.897 139.435 120.212C138.659 120.527 137.954 120.993 137.358 121.581C136.762 122.17 136.289 122.87 135.965 123.642Z" stroke="black" stroke-width="2.06346" stroke-miterlimit="10"/>
<path d="M138.686 182.179C142.606 180.766 146.89 180.725 150.837 182.062L167.518 142.803C165.395 142.046 163.512 140.737 162.064 139.01C160.616 137.283 159.655 135.201 159.281 132.978" stroke="black" stroke-width="2.06346" stroke-miterlimit="10"/>
<path d="M141.154 175.582C143.332 175.095 145.583 175.026 147.787 175.379L160.241 145.747C158.301 144.15 156.805 142.08 155.898 139.736" stroke="black" stroke-width="2.06346" stroke-miterlimit="10"/>
<path d="M105.846 117.201C121.157 97.1845 141.417 89.7064 145.299 88.3439" stroke="black" stroke-width="2.06346" stroke-miterlimit="10"/>
<path d="M96.5652 203.69C94.7957 199.868 85.8198 179.851 89.9853 154.348" stroke="black" stroke-width="2.06346" stroke-miterlimit="10"/>
<path d="M112.019 168.627L89.8139 154.878C87.3415 150.899 84.8679 146.92 82.393 142.941L91.1857 120.82L105.48 116.981C113.945 119.36 122.41 121.74 130.876 124.12" stroke="black" stroke-width="2.06346" stroke-miterlimit="10"/>
<path d="M82.9536 142.558L114.358 161.611" stroke="black" stroke-width="2.06346" stroke-miterlimit="10"/>
<path d="M92.0366 120.735L127.553 130.131" stroke="black" stroke-width="2.06346" stroke-miterlimit="10"/>
<path d="M97.7115 126.693L91.0295 142.477L102.44 147.308L109.122 131.523L97.7115 126.693Z" stroke="black" stroke-width="2.06346" stroke-miterlimit="10"/>
<path d="M96.3165 143.822L102.421 129.189" stroke="black" stroke-width="2.06346" stroke-miterlimit="10"/>
<path d="M116.626 186.975C119.485 188.322 121.866 190.506 123.455 193.237C125.043 195.969 125.764 199.118 125.521 202.269" stroke="black" stroke-width="2.06346" stroke-miterlimit="10"/>
<path d="M141.215 114.797C144.503 116.767 148.318 117.678 152.141 117.405C158.823 116.893 162.989 112.862 164.029 111.791" stroke="black" stroke-width="2.06346" stroke-miterlimit="10"/>
<path d="M139.849 250.123C140.386 248.383 141.374 246.817 142.712 245.582C145.317 243.192 148.355 242.936 149.263 242.893" stroke="black" stroke-width="2.06346" stroke-miterlimit="10"/>
<path d="M211.258 99.3109C210.602 98.9047 208.116 97.252 207.137 93.9541C206.604 92.1237 206.631 90.1754 207.216 88.3606" stroke="black" stroke-width="2.06346" stroke-miterlimit="10"/>
<path d="M110.136 240C115.386 243.819 120.634 247.641 125.88 251.464" stroke="black" stroke-width="2.06346" stroke-miterlimit="10" stroke-linecap="round"/>
<path d="M111.736 234.95C117.732 239.423 123.729 243.894 129.726 248.363" stroke="black" stroke-width="2.06346" stroke-miterlimit="10" stroke-linecap="round"/>
<path d="M179.486 73L198.7 76.179" stroke="black" stroke-width="2.06346" stroke-miterlimit="10" stroke-linecap="round"/>
<path d="M177.006 77.6689L199.186 81.0805" stroke="black" stroke-width="2.06346" stroke-miterlimit="10" stroke-linecap="round"/>
<path d="M142.532 214.251C144.481 216.894 146.78 218.908 150.475 221.327C155.125 224.348 160.103 226.829 165.314 228.724C173.809 231.88 178.962 233.794 186.123 233.563C190.477 233.424 197.444 233.199 200.823 228.295C202.723 225.538 202.713 222.421 202.684 221.518C202.57 218.421 201.189 215.652 198.107 212.151C196.393 210.206 190.316 203.672 178.08 198.77C172.275 196.487 166.174 195.043 159.962 194.483C155.903 194.116 151.666 194.126 147.134 195.745C142.855 197.272 141.327 199.154 140.666 200.164C139.68 201.684 139.121 203.442 139.047 205.252C138.842 209.155 140.926 212.061 142.532 214.251Z" fill="url(#paint6_linear_1540_138)"/>
<path d="M177.626 134.75C179.576 137.393 181.872 139.407 185.567 141.826C190.217 144.847 195.195 147.329 200.406 149.223C208.901 152.379 214.053 154.294 221.215 154.064C225.569 153.923 232.535 153.7 235.908 148.79C237.808 146.034 237.798 142.916 237.769 142.013C237.654 138.916 236.275 136.149 233.192 132.646C231.479 130.699 225.402 124.167 213.164 119.265C207.36 116.981 201.26 115.537 195.048 114.977C190.988 114.611 186.752 114.623 182.218 116.24C177.939 117.767 176.411 119.649 175.752 120.658C174.766 122.178 174.206 123.936 174.132 125.746C173.93 129.66 176.013 132.565 177.626 134.75Z" fill="url(#paint7_linear_1540_138)"/>
<path d="M182.27 218.942C184.007 214.815 178.881 208.719 170.82 205.327C162.759 201.934 154.817 202.53 153.08 206.657C151.343 210.784 156.469 216.88 164.53 220.272C172.591 223.665 180.533 223.069 182.27 218.942Z" fill="#EEFDC4"/>
<path d="M216.945 138.769C218.682 134.642 213.556 128.546 205.495 125.154C197.434 121.761 189.491 122.357 187.754 126.484C186.017 130.611 191.144 136.707 199.205 140.1C207.266 143.492 215.208 142.896 216.945 138.769Z" fill="#EEFEBF"/>
<path d="M203.353 200.382C205.535 200.924 207.717 201.468 209.898 202.013L224.392 169.829C222.336 168.411 220.279 166.992 218.222 165.573L203.353 200.382Z" fill="#F7F7F7"/>
<path d="M224.965 169.123L210.523 202.52C211.881 202.599 219.774 202.93 225.746 196.99C226.94 195.793 230.025 192.406 230.94 187.154C232.033 180.897 229.372 175.931 228.218 173.778C227.321 172.104 226.229 170.541 224.965 169.123Z" fill="#89181A"/>
<path d="M202.115 225.904C205.377 217.346 193.983 205.059 176.668 198.459C159.352 191.859 142.67 193.446 139.409 202.003C136.147 210.56 147.54 222.848 164.856 229.448C182.172 236.048 198.854 234.461 202.115 225.904Z" stroke="black" stroke-width="2.06346" stroke-miterlimit="10"/>
<path d="M173.893 205.737C170.387 204.4 166.93 203.698 163.892 203.596C167.668 206.734 169.569 210.293 168.501 213.098C167.433 215.903 163.643 217.295 158.733 217.128C161.066 219.066 164.113 220.843 167.62 222.179C176.803 225.679 185.648 224.838 187.379 220.301C189.109 215.763 183.075 209.238 173.893 205.737Z" fill="#613A03"/>
<path d="M171.826 210.323C172.57 208.372 169.972 205.57 166.023 204.065C162.074 202.56 158.27 202.922 157.526 204.873C156.782 206.824 159.38 209.626 163.329 211.132C167.278 212.637 171.083 212.275 171.826 210.323Z" fill="white"/>
<path d="M236.523 147.009C240.075 138.568 229.109 125.898 212.029 118.71C194.949 111.522 178.223 112.537 174.67 120.977C171.118 129.418 182.084 142.088 199.165 149.276C216.245 156.465 232.971 155.449 236.523 147.009Z" stroke="black" stroke-width="2.06346" stroke-miterlimit="10"/>
<path d="M202.157 142.073C198.698 140.618 195.712 138.738 193.447 136.722C198.343 137.06 202.173 135.795 203.342 133.032C204.511 130.269 202.726 126.643 199.061 123.379C202.085 123.588 205.515 124.411 208.977 125.863C218.036 129.674 223.852 136.391 221.968 140.87C220.083 145.349 211.214 145.884 202.157 142.073Z" fill="#613A03"/>
<path d="M203.859 137.354C204.669 135.429 202.168 132.539 198.273 130.9C194.378 129.261 190.563 129.492 189.753 131.417C188.943 133.342 191.444 136.231 195.339 137.871C199.235 139.51 203.049 139.278 203.859 137.354Z" fill="white"/>
<path d="M218.781 201.022C218.276 196.187 218.93 191.302 220.691 186.771C222.451 182.241 225.266 178.195 228.903 174.97L224.939 169.771L210.656 202.215C212.263 202.06 213.947 201.85 215.698 201.573C216.759 201.404 217.787 201.22 218.781 201.022Z" fill="#5C101D"/>
<path d="M203.025 200.45L218.19 165.611C228.602 169.429 233.698 181.013 230 190.581C226.099 200.676 213.488 205.724 203.025 200.45Z" stroke="black" stroke-width="2.06346" stroke-miterlimit="10"/>
<path d="M210.322 201.916L224.22 169.566" stroke="black" stroke-width="2.06346" stroke-miterlimit="10"/>
<path d="M255.834 239.057L265.404 262.159L289.01 264.242C289.943 264.221 290.86 263.99 291.69 263.565C291.69 263.565 293.055 262.864 293.9 261.64C294.692 260.493 295.046 258.249 292.456 252.826C290.447 248.622 288.28 244.084 283.1 240.015C277.775 235.834 272.455 234.655 269.615 234.057C266.114 233.326 262.524 233.117 258.962 233.439C257.808 234.199 256.902 235.283 256.36 236.554C256.029 237.348 255.851 238.197 255.834 239.057Z" fill="url(#paint8_linear_1540_138)"/>
<path d="M262.684 258.768L248.121 258.783L246.172 263.514C247.268 265.78 248.365 268.045 249.463 270.31L289.06 270.122C288.853 268.456 288.645 266.79 288.435 265.124C281.022 264.519 273.61 263.913 266.198 263.307C265.03 261.791 263.859 260.279 262.684 258.768Z" fill="url(#paint9_linear_1540_138)"/>
<path d="M294.865 258.117L306.6 257.678C307.026 256.804 307.262 255.849 307.29 254.877C307.336 252.75 306.295 251.176 305.366 249.813C303.323 246.824 301.447 244.17 299.675 241.758C298.805 241.524 297.935 241.291 297.065 241.057L291.826 249.207L294.865 258.117Z" fill="#242F31"/>
<path d="M303.608 258.479C305.516 260.148 307.424 261.816 309.331 263.482L314.334 261.942C312.714 252.185 307.732 243.303 300.253 236.832L299.358 234.63C298.481 234.919 297.704 235.448 297.114 236.158C295.717 237.878 296.052 239.946 296.11 240.281L299.262 240.832C300.258 241.711 301.204 242.647 302.094 243.634C304.132 245.893 306.084 248.056 307.003 251.303C307.397 252.713 307.564 254.177 307.499 255.64L306.601 257.673L303.608 258.479Z" fill="url(#paint10_linear_1540_138)"/>
<path d="M314.385 261.983C314.051 259.125 313.391 256.314 312.418 253.606C309.066 244.304 302.798 238.555 299.199 235.756C300.664 235.217 302.158 234.762 303.676 234.394C309.996 232.866 315.233 233.228 321.655 233.723C323.969 233.9 327.176 234.218 331.002 234.822C333.99 239.139 336.41 243.823 338.203 248.757L314.385 261.983Z" fill="url(#paint11_linear_1540_138)"/>
<path d="M302.436 268.686L308.098 271.98C320.291 267.35 331.851 261.198 342.502 253.67L341.073 247.599C334.584 251.285 327.964 254.97 321.211 258.653C314.893 262.096 308.635 265.441 302.436 268.686Z" fill="url(#paint12_linear_1540_138)"/>
<path d="M341.252 246.755C340.619 247.792 339.443 248.165 338.636 247.812C337.335 247.231 337.469 244.884 338.128 244.52C338.699 244.199 339.98 245.139 341.252 246.755Z" fill="#242F31"/>
<path d="M337.115 242.39C341.599 245.417 341.021 245.425 342.871 246.437C345.027 247.609 347.345 248.454 349.749 248.945C350.441 248.411 351.078 247.809 351.651 247.149C354.876 243.408 355.137 238.812 355.112 236.742C350.153 232.689 345.193 228.637 340.234 224.585L336.802 225.311C336.025 226.058 335.356 226.908 334.812 227.838C334.387 228.574 334.158 229.173 333.502 229.915C333.083 230.387 332.601 230.798 332.068 231.136C331.902 232.273 331.869 233.425 331.97 234.569C332.076 235.788 332.239 237.625 333.257 239.258C333.954 240.38 334.625 240.71 337.115 242.39Z" fill="#465363"/>
<path d="M331.126 230.048C330.054 228.914 329.929 227.574 329.884 227.093C329.669 224.875 331.104 222.527 333.475 220.968C335.26 222.152 337.044 223.337 338.827 224.521L333.089 231.265C332.341 231.033 331.666 230.614 331.126 230.048Z" fill="#242F31"/>
<path d="M321.848 233.846L322.632 236.953L331.912 237.999L331.353 234.666L321.848 233.846Z" fill="#242F31"/>
<path d="M246.752 263.286C251.752 264.493 258.019 264.994 265.558 263.53L263.276 258.451C258.05 258.479 252.824 258.505 247.598 258.531L245.844 263.056C246.144 263.136 246.446 263.213 246.752 263.286Z" fill="#191919"/>
<path d="M264.203 247.516C264.919 249.489 265.847 251.38 266.97 253.154C267.905 254.624 268.948 256.237 269.747 256.035C270.447 255.861 270.633 254.382 270.7 253.858C271.084 250.804 269.346 248.394 267.653 246.049C266.653 244.661 265.926 243.993 265.179 244.071C264.832 244.106 264.175 244.334 264.032 244.865C263.974 245.128 264.02 245.404 264.16 245.634" fill="#3F3F3F"/>
<path d="M309.965 244.048C310.353 245.646 313.237 246.674 315.206 245.635C316.857 244.761 317.894 242.428 317.019 241.08C316.201 239.818 314.034 239.937 312.727 240.452C311.221 241.055 309.628 242.663 309.965 244.048Z" fill="#3F3F3F"/>
<path d="M264.635 264.203C268.74 266.207 272.846 268.212 276.953 270.217L289.968 270.119L288.536 264.244L264.635 264.203Z" fill="#CC9A1F"/>
<path d="M284.68 249.927C284.592 249.141 284.789 248.35 285.235 247.697C286.053 246.57 287.667 246.101 289.253 246.568C287.888 244.588 286.288 242.781 284.488 241.186C279.722 236.962 275.011 235.54 270.059 234.045C263.157 231.958 261.126 232.771 260.382 233.122C258.039 234.241 256.791 236.389 256.174 237.76C258.419 237.847 260.657 238.067 262.876 238.418C266.911 239.057 271.12 239.721 275.547 242.093C277.767 243.28 281.33 245.586 284.68 249.927Z" fill="#CC9A1F"/>
<path d="M307.4 253.273C308.071 253.543 308.711 253.883 309.31 254.287C312.399 256.368 313.549 259.592 313.966 261.08C313.36 257.616 312.347 254.235 310.95 251.007C308.343 245.043 304.49 239.705 299.651 235.352L296.661 240.059C297.903 240.228 299.369 240.658 300.089 241.839C300.212 242.044 300.31 242.263 300.378 242.492C301.094 244.65 303.332 246.523 304.567 247.924C305.473 248.952 306.624 250.62 307.4 253.273Z" fill="#CC9A1F"/>
<path d="M322.528 265.642C325.958 262.367 328.533 258.302 330.029 253.802L341.072 247.599L342.353 253.048C338.876 255.813 335.235 258.367 331.452 260.696C328.347 262.609 325.35 264.243 322.528 265.642Z" fill="#CC9A1F"/>
<path d="M311.347 250.963C318.271 245.438 326.766 242.243 335.616 241.836L333.082 238.955C329.549 238.611 326.016 238.267 322.485 237.922L321.09 233.688C314.15 232.659 307.067 233.229 300.381 235.353C307.372 238.593 311.155 239.658 313.356 239.887C313.821 239.937 315.456 240.078 316.502 241.27C316.565 241.342 317.849 242.851 317.226 244.295C316.706 245.509 315.222 245.768 314.712 245.859C313.141 246.134 310.916 245.623 310.439 244.23C310.126 243.323 310.666 242.388 311.257 241.362C311.908 240.245 312.795 239.284 313.857 238.547C309.053 237.122 304.247 235.699 299.441 234.276L298.389 235.392C299.866 236.776 301.067 237.959 301.92 238.815C305.371 242.282 307.376 244.317 309.318 247.334C310.07 248.5 310.748 249.712 311.347 250.963Z" fill="#CC9A1F"/>
<path d="M256.423 234.93C255.773 234.899 255.483 234.639 255.415 234.573C254.937 234.116 254.998 233.348 255.025 233.042C255.133 231.693 256.764 225.849 259.215 217.985L261.997 232.55C261.068 232.805 260.175 233.177 259.339 233.657C258.204 234.313 257.517 234.984 256.423 234.93Z" fill="#CC9A1F"/>
<path d="M262.61 227.816C262.693 229.224 262.778 230.632 262.864 232.04C267.513 233.051 272.038 234.565 276.361 236.553C280.19 238.318 283.553 239.905 286.989 243.258C288.761 244.988 290.304 246.938 291.58 249.061C295.515 242.63 298.361 235.593 300.004 228.235C296.067 228.45 292.119 228.238 288.228 227.603C286.193 227.266 285.119 226.959 284.014 226.396C280.543 224.645 278.817 221.456 278.033 219.653C275.507 222.402 272.423 224.58 268.988 226.041C266.946 226.903 264.803 227.499 262.61 227.816Z" fill="#2D3D3F"/>
<path d="M255.376 202.709L264.214 203.805C265.753 202.501 268.743 199.591 270.126 194.906C272.846 185.745 267.025 178.02 266.341 177.141C265.541 177.018 264.741 176.895 263.942 176.77C262.631 181.202 261.209 185.738 259.676 190.377C258.27 194.613 256.836 198.724 255.376 202.709Z" fill="#CC9A1F"/>
<path d="M274.692 178.147C275.122 175.513 275.668 172.738 276.366 169.832C276.82 167.947 277.3 166.14 277.805 164.412C277.623 162.488 277.076 160.616 276.195 158.896C275.393 157.342 274.593 155.793 272.858 155.12C272.042 154.814 271.161 154.726 270.301 154.864C269.614 157.761 268.85 160.739 268.007 163.8C267.178 166.79 266.322 169.675 265.438 172.452C266.641 172.721 267.81 173.123 268.924 173.65C271.15 174.713 273.118 176.248 274.692 178.147Z" fill="#070604"/>
<path d="M263.213 227.468C264.099 226.378 264.814 225.159 265.332 223.853C266.207 221.62 266.5 219.201 266.186 216.823L264.228 209.206C262.158 208.449 260.326 207.156 258.919 205.46C258.391 212.941 259.256 220.455 261.469 227.621L263.213 227.468Z" fill="#070604"/>
<path d="M265.468 216.804C266.251 216.77 267.019 216.584 267.732 216.258C268.371 215.972 268.952 215.571 269.446 215.075C270.594 213.821 270.453 211.169 269.074 208.571L264.924 208.967C264.984 210.198 265.056 211.449 265.14 212.722C265.239 214.107 265.348 215.468 265.468 216.804Z" fill="#070604"/>
<path d="M259.801 204.606C260.079 206.101 261.206 207.406 262.442 208.079C264.615 209.25 266.993 208.394 267.939 208.055C271.035 206.943 272.695 204.498 273.782 202.845C276.873 198.152 277.108 193.363 277.19 191.35C277.409 185.589 275.545 181.509 274.479 179.181C273.667 177.401 272.694 175.762 270.974 174.451C270.188 173.85 268.282 172.395 266.166 172.87C265.784 172.957 265.416 173.1 265.075 173.293L264.3 176.252C265.17 176.539 265.98 176.983 266.689 177.563C267.328 178.082 268.606 179.341 269.719 183.729C270.552 187.021 271.118 189.257 270.64 192.262C270.378 193.91 269.64 195.537 268.164 198.79C266.401 202.675 265.697 203.116 265.238 203.321C263.085 204.284 260.449 202.629 259.813 203.65C259.666 203.887 259.714 204.15 259.801 204.606Z" fill="#454E4D"/>
<path d="M299.359 234.631L300.848 227.824C302.807 227.956 304.764 227.532 306.493 226.602C309.801 224.807 311.022 221.765 311.321 220.947C313.635 218.846 316.358 217.246 319.32 216.247C322.281 215.248 325.417 214.871 328.53 215.14L328.145 218.962C326.933 221.211 325.418 223.284 323.642 225.121C322.2 226.608 318.168 230.677 312.045 232.271C311.157 232.502 311.572 232.33 306.087 233.334C303.255 233.868 300.925 234.321 299.359 234.631Z" fill="#1F3135"/>
<path d="M264.946 226.804C265.461 225.81 265.852 224.757 266.111 223.667C266.603 221.559 266.601 219.366 266.104 217.259C266.858 217.284 267.604 217.11 268.269 216.755C268.611 216.572 269.811 215.872 270.223 214.543C270.458 213.788 270.301 213.266 270.032 211.878C269.855 210.962 269.62 209.614 269.415 207.922C271.485 206.499 273.277 204.71 274.705 202.644C275.171 205.02 275.666 207.429 276.189 209.869C276.846 212.923 277.526 215.912 278.229 218.835C277.204 220.175 276.02 221.385 274.704 222.441C271.868 224.688 268.512 226.189 264.946 226.804Z" fill="#1F3135"/>
<path d="M270.112 154.713C270.771 154.533 272.009 154.31 273.278 154.834C273.57 154.954 274.696 155.458 276.131 157.968C277.11 159.69 277.796 161.562 278.162 163.508C279.398 161.327 281.106 158.432 283.07 155.499C283.465 154.912 284.047 154.062 285.125 153.466C287.087 152.377 289.272 152.913 290.053 153.084C292.597 153.637 297.063 153.958 305.547 153.413C306.738 153.752 307.807 154.422 308.631 155.346C309.455 156.27 309.999 157.409 310.2 158.631C315.414 162.707 321.956 164.704 328.558 164.233C328.719 163.454 328.747 162.652 328.64 161.863C328.241 159.048 326.136 157.219 324.643 155.985C319.008 151.321 316.189 148.99 312.778 147.478C305.107 144.081 298.388 144.212 291.383 144.339C284.82 144.47 278.298 145.412 271.965 147.143L270.112 154.713Z" fill="#1F3135"/>
<path d="M311.478 202.05C313.652 202.55 315.889 202.715 318.113 202.54C319.906 202.394 322.306 202.179 324.961 200.753C326.313 200.026 327.542 199.093 328.605 197.986L328.501 180.773C327.011 179.076 325.183 177.71 323.134 176.761C317.81 174.314 312.778 175.602 311.24 176.05C310.18 182.671 309.979 189.402 310.641 196.075C310.85 198.164 311.136 200.158 311.478 202.05Z" fill="#4A5908"/>
<path d="M311.177 220.515C316.049 216.409 322.283 214.279 328.649 214.545L328.599 209.49C322.274 209.799 316.209 212.103 311.274 216.071L311.177 220.515Z" fill="#3F3F3F"/>
<path d="M310.589 163.886C315.777 167.838 322.193 169.831 328.706 169.515L328.342 165.117C322.056 164.713 315.946 162.874 310.481 159.741L310.589 163.886Z" fill="#3F3F3F"/>
<path d="M287.803 208.318C294.176 207.835 300.549 207.351 306.922 206.867L306.271 172.971L286.811 171.674C284.523 174.41 280.305 180.301 279.465 188.634C279.102 192.231 278.467 198.546 282.514 203.855C283.94 205.701 285.743 207.222 287.803 208.318Z" fill="#FCB920"/>
<path d="M287.536 201.068L302.289 200.993L303.413 199.456L303.603 180.585L301.174 178.551L287.892 178.126L285.54 180.172L285.56 199.402L287.536 201.068Z" fill="#F1FDBF"/>
<path d="M305.701 226.302C306.442 226.089 307.141 225.751 307.768 225.303C309.458 224.09 310.095 222.416 310.352 221.709C311.228 219.318 310.74 217.412 310.493 215.04C310.185 212.179 310.563 212.048 310.738 206.109C310.961 198.742 310.537 193.345 310.327 185.105C310.007 172.497 310.277 166.187 310.343 165.793C310.343 165.793 310.83 162.804 309.924 158.826C309.744 157.796 309.299 156.83 308.633 156.025C307.966 155.219 307.101 154.601 306.123 154.231C302.928 152.877 299.066 153.084 298.062 153.128C290.309 153.478 290.345 151.514 287.28 152.494C282.527 154.006 280.269 159.163 278.055 164.217C276.062 168.808 274.958 173.735 274.803 178.738C277.305 183.691 278.923 189.042 279.586 194.551C279.145 192.18 279.08 189.755 279.395 187.364C279.882 183.695 281.15 181.069 282.176 178.99C283.309 176.696 284.697 174.537 286.314 172.555L306.06 173.185L307.319 206.689L287.581 209.247C285.997 208.196 282.368 205.458 280.296 200.486C279.297 198.069 278.797 195.474 278.827 192.859C278.857 190.243 279.416 187.661 280.471 185.267L277.216 186.85C277.638 189.897 277.506 192.994 276.825 195.993C276.263 198.434 275.814 198.665 275.324 200.633C274.043 205.795 275.603 210.383 276.921 214.281C277.955 217.321 279.072 220.503 281.964 223.691C283.43 225.302 285.131 226.682 287.009 227.787C290.349 227.702 293.869 227.522 297.53 227.203C300.361 226.957 303.085 226.656 305.701 226.302Z" fill="url(#paint13_linear_1540_138)"/>
<path d="M311.608 215.41C316.388 211.308 322.519 209.125 328.816 209.283L328.274 199.382C326.579 200.628 324.714 201.623 322.735 202.336C317.742 204.121 313.309 203.636 311.021 203.205C310.637 207.28 310.835 211.39 311.608 215.41Z" fill="#C79019"/>
<path d="M310.438 175.818L310.725 164.801C315.924 168.222 322.048 169.965 328.27 169.794C329.411 177.41 328.903 179.473 328.101 179.746C327.079 180.093 326.178 177.321 322.91 176.242C320.877 175.571 319.877 176.196 315.718 176.179C313.952 176.173 312.189 176.052 310.438 175.818Z" fill="#C79019"/>
<path d="M294.746 207.791C293.696 207.269 292.884 206.368 292.475 205.269C292.158 204.361 292.137 203.377 292.415 202.456L288.056 201.701C287.397 201.078 286.835 200.36 286.387 199.571C284.805 196.767 285.265 193.964 285.552 190.861C285.862 187.422 285.941 183.966 285.79 180.516C286.658 179.748 287.666 179.155 288.758 178.769C290.314 178.226 291.988 178.114 293.602 178.444C293.582 177.392 293.771 176.346 294.158 175.367C294.68 174.056 295.539 172.905 296.647 172.03C293.173 172.03 289.703 172.03 286.235 172.031C284.806 173.721 279.593 180.285 279.633 190.111C279.67 200.552 285.608 207.329 287.022 208.862L294.746 207.791Z" fill="#C69014"/>
<path d="M288.221 227.097C290.443 226.486 296.975 224.374 301.779 217.929C304.205 214.652 305.791 210.831 306.398 206.799L306.05 173.177C305.835 171.172 304.987 165.89 300.783 161.114C295.178 154.77 287.733 153.998 286.073 153.86L304.558 153.464C305.76 153.451 307.269 153.671 308.426 154.679C309.826 155.904 310.064 157.73 310.151 158.399C310.625 162.046 310.807 186.84 310.625 220.783C310.654 221.088 310.811 223.009 309.377 224.601C308.5 225.547 307.292 226.12 306.004 226.201L287.577 228.164L288.221 227.097Z" fill="#C79019"/>
<path d="M311.477 202.05C317.667 201.206 322.319 195.975 322.442 189.91C322.567 183.522 317.623 177.911 311.063 177.231C313.975 175.927 317.223 175.567 320.351 176.2C323.479 176.833 326.33 178.428 328.507 180.762L328.611 197.976C327.385 199.441 325.9 200.67 324.231 201.6C318.605 204.71 312.789 203.255 311.217 202.807L311.477 202.05Z" fill="#443F21"/>
<path d="M278.545 229.62C279.09 229 279.582 228.386 280.029 227.792C279.129 226.874 278.048 226.153 276.855 225.674C276.246 225.432 272.717 224.031 271.368 225.613C270.527 226.607 270.918 228.327 271.44 229.313C272.273 230.893 274.105 231.86 276.251 231.93C277.059 231.205 277.825 230.433 278.545 229.62Z" fill="#535F6B"/>
<path d="M294.467 234.135C292.816 233.362 290.956 233.154 289.174 233.541C288.437 232.062 287.269 230.842 285.825 230.039C284.381 229.237 282.729 228.891 281.084 229.046C281.064 229.016 281.04 228.985 281.017 228.954C280.64 229.312 280.233 229.682 279.803 230.045C278.982 230.736 278.123 231.379 277.229 231.971C277.338 232.142 277.487 232.365 277.678 232.622C278.631 233.903 279.816 234.92 280.672 235.429C283.305 236.996 286.794 236.149 287.278 236.022C287.429 236.41 288.624 239.349 291.815 240.332C293.412 240.805 295.124 240.707 296.658 240.056L297.816 237.087C296.993 235.813 295.834 234.792 294.467 234.135Z" fill="#535F6B"/>
<path d="M282.653 238.827C283.906 237.481 285.215 235.959 286.526 234.248C287.923 232.431 289.219 230.538 290.408 228.578C291.894 228.139 293.65 227.733 293.915 228.231C294.145 228.664 293.072 229.454 291.376 231.251C288.061 234.761 287.858 236.302 285.313 237.753C284.478 238.227 283.584 238.589 282.653 238.827Z" fill="#2D3D3F"/>
<path d="M291.11 248.518C294.867 242.392 297.139 235.473 297.744 228.313C298.561 227.806 299.573 227.326 300.124 227.709C301.516 228.679 299.025 234.518 298.278 236.257C296.623 240.123 294.526 243.333 292.749 246.083C292.073 247.11 291.501 247.951 291.11 248.518Z" fill="#2D3D3F"/>
<path d="M291.11 249.729C295.84 243.355 298.91 235.904 300.041 228.048" stroke="black" stroke-width="2.06346" stroke-miterlimit="10" stroke-linecap="round"/>
<path d="M273.344 235.297C277.146 232.883 280.553 229.896 283.445 226.443" stroke="black" stroke-width="2.06346" stroke-miterlimit="10" stroke-linecap="round"/>
<path d="M282.794 239.852C284.544 238.335 286.383 236.616 288.252 234.677C290.328 232.523 292.137 230.418 293.706 228.431" stroke="black" stroke-width="2.06346" stroke-miterlimit="10" stroke-linecap="round"/>
<path d="M262.04 227.856C264.555 227.7 267.025 227.123 269.349 226.149C272.905 224.637 276.02 222.25 278.403 219.209" stroke="black" stroke-width="2.06346" stroke-miterlimit="10" stroke-linecap="round"/>
<path d="M262.579 232.907C261.509 228.107 260.529 222.954 259.714 217.471C259.033 212.853 258.523 208.424 258.161 204.218" stroke="black" stroke-width="2.06346" stroke-miterlimit="10" stroke-linecap="round"/>
<path d="M256.338 236.013C255.759 235.524 255.322 234.887 255.073 234.171C254.87 233.525 254.823 232.841 254.935 232.174C255.274 229.552 256.489 225.778 256.699 225.129L259.285 216.376" stroke="black" stroke-width="2.06346" stroke-miterlimit="10" stroke-linecap="round"/>
<path d="M254.577 203.379L263.69 203.834C264.098 203.854 264.504 203.775 264.875 203.603C265.246 203.432 265.569 203.173 265.818 202.849C267.471 200.702 270.329 196.132 270.357 189.82C270.358 185.714 269.184 181.693 266.973 178.233C266.624 177.687 266.079 177.296 265.449 177.141C264.875 177.001 264.302 176.86 263.729 176.717" stroke="black" stroke-width="2.06346" stroke-miterlimit="10" stroke-linecap="round"/>
<path d="M259.515 204.185C259.57 204.578 259.931 206.842 261.891 208.062C263.458 209.037 265.109 208.761 266.104 208.603C266.963 208.458 268.873 208.002 271.157 205.925C275.238 202.231 276.361 197.175 276.77 195.223C277.941 189.612 276.716 185.13 276.134 183.092C276.134 183.092 275.585 180.81 273.397 177.313C272.615 176.111 271.646 175.042 270.527 174.145C269.853 173.627 269.109 173.207 268.318 172.896C267.02 172.403 265.459 172.836 264.815 172.982" stroke="black" stroke-width="2.06346" stroke-miterlimit="10" stroke-linecap="round"/>
<path d="M263.801 227.234C264.432 226.465 264.928 225.594 265.266 224.658C265.56 223.816 265.725 222.933 265.756 222.041C265.857 219.969 265.596 215.344 264.894 209.288" stroke="black" stroke-width="2.06346" stroke-miterlimit="10" stroke-linecap="round"/>
<path d="M266.186 216.822L268.488 216.308C268.919 216.213 269.299 215.959 269.552 215.596C269.805 215.234 269.913 214.79 269.855 214.352L269.059 208.39" stroke="black" stroke-width="2.06346" stroke-miterlimit="10" stroke-linecap="round"/>
<path d="M269.921 173.08L269.848 167.58C269.842 167.16 269.673 166.76 269.375 166.463C269.078 166.167 268.677 165.998 268.257 165.994L266.902 165.981" stroke="black" stroke-width="2.06346" stroke-miterlimit="10" stroke-linecap="round"/>
<path d="M309.891 233.704C313.07 232.375 316.102 230.72 318.94 228.765C321.648 226.897 324.079 225.185 326.286 222.089C327.194 220.817 327.967 219.455 328.592 218.023L328.633 161.882C326.694 158.129 323.973 154.835 320.654 152.223C316.841 149.247 313.312 148.056 310.277 147.063C299.992 143.696 290.891 144.5 283.889 145.191C279.651 145.608 275.447 146.318 271.308 147.318" stroke="black" stroke-width="2.06346" stroke-miterlimit="10" stroke-linecap="round"/>
<path d="M310.879 220.391L310.283 159.613C310.266 157.904 309.578 156.271 308.368 155.065C307.157 153.859 305.521 153.177 303.812 153.165C298.602 153.135 293.392 153.104 288.182 153.071C287.143 153.064 286.117 153.306 285.191 153.777C284.264 154.248 283.465 154.935 282.859 155.779C278.024 162.555 275.331 170.623 275.125 178.944C275.1 179.816 275.25 180.683 275.567 181.496C276.09 182.821 276.492 184.191 276.77 185.588C277.89 191.233 276.721 196.088 275.67 199.053C275.389 199.846 275.265 200.686 275.307 201.527C275.376 203.002 275.514 204.851 275.794 206.959C276.594 212.971 277.318 218.423 281.045 223.278C282.061 224.598 283.232 225.791 284.531 226.833C285.822 227.865 287.459 228.363 289.105 228.224L304.9 226.948C306.541 226.813 308.07 226.062 309.179 224.845C310.289 223.629 310.896 222.037 310.879 220.391Z" stroke="black" stroke-width="2.06346" stroke-miterlimit="10" stroke-linecap="round"/>
<path d="M285.616 181.433L285.816 198.891C285.835 200.501 287.155 201.792 288.766 201.774L300.81 201.636C302.421 201.617 303.712 200.297 303.693 198.686L303.493 181.229C303.475 179.618 302.154 178.327 300.544 178.346L288.499 178.484C286.889 178.502 285.598 179.823 285.616 181.433Z" stroke="black" stroke-width="2.06346" stroke-miterlimit="10" stroke-linecap="round"/>
<path d="M286.809 171.672L286.56 157.601C286.541 156.321 286.21 155.064 285.597 153.94" stroke="black" stroke-width="2.06346" stroke-miterlimit="10" stroke-linecap="round"/>
<path d="M287.159 227.49C287.31 226.676 287.439 225.799 287.534 224.864C287.663 223.569 287.713 222.268 287.683 220.967C287.647 218.612 287.623 214.543 287.576 209.243" stroke="black" stroke-width="2.06346" stroke-miterlimit="10" stroke-linecap="round"/>
<path d="M306.415 172.635C306.225 168.172 306.489 163.613 306.189 158.428C306.138 157.383 305.922 156.352 305.55 155.374C305.293 154.704 304.963 154.065 304.566 153.467" stroke="black" stroke-width="2.06346" stroke-miterlimit="10" stroke-linecap="round"/>
<path d="M305.273 226.396C306.122 224.682 306.589 222.804 306.64 220.892C306.829 215.389 306.808 211.225 306.912 206.86" stroke="black" stroke-width="2.06346" stroke-miterlimit="10" stroke-linecap="round"/>
<path d="M287.667 208.716C286.494 208.097 285.418 207.308 284.475 206.374C281.229 203.156 280.583 199.134 279.957 195.235C279.56 192.769 279.003 189.076 279.971 184.393C280.362 182.506 281.183 178.748 284.013 174.93C284.809 173.856 285.703 172.859 286.682 171.95C293.269 172.293 299.855 172.638 306.441 172.986L306.929 206.408L287.667 208.716Z" stroke="black" stroke-width="2.06346" stroke-miterlimit="10" stroke-linecap="round"/>
<path d="M311.177 220.515C316.158 216.815 322.181 214.784 328.385 214.71" stroke="black" stroke-width="2.06346" stroke-miterlimit="10" stroke-linecap="round"/>
<path d="M311.329 215.615C316.309 211.914 322.331 209.882 328.536 209.808" stroke="black" stroke-width="2.06346" stroke-miterlimit="10" stroke-linecap="round"/>
<path d="M310.519 159.399C315.619 162.934 321.706 164.766 327.91 164.633" stroke="black" stroke-width="2.06346" stroke-miterlimit="10" stroke-linecap="round"/>
<path d="M310.832 164.293C315.933 167.826 322.02 169.658 328.224 169.526" stroke="black" stroke-width="2.06346" stroke-miterlimit="10" stroke-linecap="round"/>
<path d="M311.211 202.817C312.021 202.87 319.804 203.35 323.677 201.845C324.444 201.543 325.171 201.15 325.843 200.673C327.053 199.757 328.016 198.553 328.644 197.171" stroke="black" stroke-width="2.06346" stroke-miterlimit="10" stroke-linecap="round"/>
<path d="M310.859 176.314C311.666 176.232 319.426 175.469 323.352 176.832C324.131 177.107 324.873 177.475 325.562 177.929C326.805 178.8 327.811 179.968 328.49 181.326" stroke="black" stroke-width="2.06346" stroke-miterlimit="10" stroke-linecap="round"/>
<path d="M315.533 213.008L315.298 202.932" stroke="black" stroke-width="2.06346" stroke-miterlimit="10" stroke-linecap="round"/>
<path d="M320.316 211.082C320.236 207.723 320.104 206.023 320.025 202.663" stroke="black" stroke-width="2.06346" stroke-miterlimit="10" stroke-linecap="round"/>
<path d="M325.05 210.053C324.971 206.693 324.788 204.728 324.712 201.362" stroke="black" stroke-width="2.06346" stroke-miterlimit="10" stroke-linecap="round"/>
<path d="M314.827 166.822L314.818 176.016" stroke="black" stroke-width="2.06346" stroke-miterlimit="10" stroke-linecap="round"/>
<path d="M319.322 168.346L319.673 176.03" stroke="black" stroke-width="2.06346" stroke-miterlimit="10" stroke-linecap="round"/>
<path d="M324.05 169.387C324.315 172.738 324.272 173.711 324.536 177.06" stroke="black" stroke-width="2.06346" stroke-miterlimit="10" stroke-linecap="round"/>
<path d="M269.712 155.203C270.429 155.096 271.927 154.983 273.376 155.792C274.947 156.67 275.572 158.129 276.159 159.558C277.342 162.442 277.353 165.214 277.123 167.185" stroke="black" stroke-width="2.06346" stroke-miterlimit="10" stroke-linecap="round"/>
<path d="M267.979 263.323C267.212 263.273 266.474 263.004 265.855 262.547C265.236 262.09 264.761 261.465 264.487 260.746L256.578 239.996C256.14 238.901 256.064 237.695 256.36 236.554C256.643 235.667 257.128 234.857 257.777 234.19C259.742 232.212 265.713 232.581 272.132 234.861C276.225 236.316 283.388 238.861 288.902 246.067C288.902 246.067 293.753 252.407 293.995 260.416C294.049 262.167 293.36 262.969 293.216 263.13C293.073 263.29 292.41 263.983 290.873 264.158C288.649 264.412 279.94 264.101 267.979 263.323Z" stroke="black" stroke-width="2.06346" stroke-miterlimit="10" stroke-linecap="round"/>
<path d="M256.761 238.638C259.68 238.357 262.622 238.439 265.52 238.883C268.292 239.309 273.335 240.134 278.537 243.676C280.964 245.325 285.896 248.676 288.104 255.15C289.086 258.073 289.396 261.181 289.011 264.241" stroke="black" stroke-width="2.06346" stroke-miterlimit="10" stroke-linecap="round"/>
<path d="M269.521 249.08C267.836 245.724 265.524 243.479 264.357 244.065C263.19 244.651 263.61 247.846 265.295 251.202C266.981 254.558 269.293 256.803 270.46 256.217C271.627 255.631 271.206 252.435 269.521 249.08Z" stroke="black" stroke-width="2.06346" stroke-miterlimit="10" stroke-linecap="round"/>
<path d="M294.215 258.11C295.953 258.153 297.827 258.13 299.82 258.01C302.238 257.867 304.474 257.607 306.502 257.282C306.87 256.814 307.122 256.266 307.237 255.682C307.319 255.245 307.321 254.796 307.244 254.358C306.694 251.072 304.756 248.09 304.756 248.09C303.203 245.71 301.412 243.493 299.412 241.474C298.914 241.192 298.356 241.032 297.784 241.007C297.391 240.99 296.998 241.038 296.62 241.15C295.944 242.212 295.269 243.302 294.596 244.421C293.478 246.276 292.433 248.1 291.452 249.887" stroke="black" stroke-width="2.06346" stroke-miterlimit="10" stroke-linecap="round"/>
<path d="M291.703 248.181C294.833 248.009 297.973 248.182 301.066 248.696C301.174 248.715 301.27 248.774 301.336 248.861C301.402 248.948 301.432 249.057 301.421 249.166C301.41 249.275 301.359 249.375 301.277 249.447C301.195 249.52 301.089 249.558 300.979 249.556C297.953 249.449 294.923 249.676 291.946 250.23C290.501 250.433 290.247 248.324 291.703 248.181Z" fill="black"/>
<path d="M288.308 264.611L289.658 269.768C289.669 269.808 289.67 269.851 289.662 269.893C289.654 269.934 289.636 269.973 289.611 270.007C289.585 270.04 289.552 270.068 289.514 270.087C289.477 270.106 289.435 270.116 289.393 270.117L250.18 270.451L245.716 263.327L247.888 258.938C247.911 258.893 247.945 258.854 247.987 258.827C248.03 258.8 248.079 258.785 248.129 258.783L263.096 258.316" stroke="black" stroke-width="2.06346" stroke-miterlimit="10" stroke-linecap="round"/>
<path d="M245.884 263.503L288.047 264.244" stroke="black" stroke-width="2.06346" stroke-miterlimit="10" stroke-linecap="round"/>
<path d="M303.024 267.699C302.857 267.776 302.715 267.896 302.611 268.046C302.507 268.197 302.446 268.373 302.434 268.555C302.422 268.738 302.46 268.92 302.543 269.083C302.626 269.246 302.752 269.383 302.907 269.481C303.478 269.843 304.093 270.202 304.767 270.564C305.719 271.069 306.699 271.519 307.703 271.913C307.938 272.007 308.199 272.01 308.436 271.921C320.441 267.42 331.744 261.234 342.007 253.55C342.149 253.443 342.26 253.301 342.33 253.138C342.4 252.975 342.426 252.796 342.405 252.62L341.931 248.485C341.912 248.315 341.85 248.153 341.752 248.013C341.653 247.874 341.521 247.761 341.368 247.686C341.214 247.611 341.045 247.576 340.874 247.584C340.703 247.591 340.538 247.642 340.392 247.731C334.719 251.196 328.653 254.69 322.192 258.143C315.586 261.679 309.178 264.851 303.024 267.699Z" stroke="black" stroke-width="2.06346" stroke-miterlimit="10" stroke-linecap="round"/>
<path d="M303.224 258.072C303.954 258.858 304.764 259.67 305.657 260.49C307.049 261.764 308.525 262.942 310.076 264.016" stroke="black" stroke-width="2.06346" stroke-miterlimit="10" stroke-linecap="round"/>
<path d="M336.232 242.422C337.553 244.996 337.691 246.354 338.289 248.367" stroke="black" stroke-width="2.06346" stroke-miterlimit="10" stroke-linecap="round"/>
<path d="M314.334 261.943C312.685 252.014 307.558 242.997 299.869 236.503C299.733 236.39 299.633 236.241 299.579 236.073C299.526 235.905 299.522 235.725 299.567 235.555C299.612 235.384 299.705 235.23 299.835 235.111C299.965 234.992 300.126 234.912 300.299 234.881C310.433 233.069 320.804 233.035 330.949 234.779" stroke="black" stroke-width="2.06346" stroke-miterlimit="10" stroke-linecap="round"/>
<path d="M321.333 234.057L321.823 236.435C321.908 236.85 322.128 237.225 322.448 237.503C322.768 237.78 323.171 237.945 323.593 237.97C325.198 238.067 326.815 238.157 328.443 238.24C330.139 238.333 331.037 238.28 332.704 238.352" stroke="black" stroke-width="2.06346" stroke-miterlimit="10" stroke-linecap="round"/>
<path d="M317.6 242.922C317.572 241.343 315.869 240.093 313.796 240.129C311.723 240.166 310.065 241.476 310.093 243.055C310.121 244.634 311.824 245.885 313.897 245.848C315.97 245.811 317.628 244.501 317.6 242.922Z" stroke="black" stroke-width="2.06346" stroke-miterlimit="10" stroke-linecap="round"/>
<path d="M341.211 225.088L354.15 235.341C354.584 235.685 354.909 236.146 355.087 236.669C355.265 237.193 355.289 237.756 355.156 238.293C354.803 239.709 354.359 241.101 353.826 242.46C352.498 245.839 351.728 247.799 349.99 248.576C348.123 249.41 346.152 248.43 342.612 246.603C341.03 245.788 334.099 242.212 332.456 237.228C332.065 236.188 331.902 235.076 331.978 233.968C332.055 232.86 332.369 231.781 332.899 230.805C333.986 228.649 335.968 226.603 337.487 225.214C337.992 224.755 338.644 224.49 339.326 224.466C340.008 224.443 340.677 224.664 341.211 225.088Z" stroke="black" stroke-width="2.06346" stroke-miterlimit="10" stroke-linecap="round"/>
<path d="M338.629 224.365L335.004 221.486C334.837 221.354 334.645 221.258 334.439 221.205C334.233 221.151 334.018 221.142 333.808 221.177C333.599 221.211 333.398 221.29 333.221 221.407C333.043 221.524 332.892 221.676 332.777 221.855C332.017 223.022 331.379 224.265 330.875 225.562C329.927 228.007 330.125 228.941 330.358 229.497C330.763 230.458 331.574 231.001 332.092 231.282" stroke="black" stroke-width="2.06346" stroke-miterlimit="10" stroke-linecap="round"/>
<defs>
<linearGradient id="paint0_linear_1540_138" x1="90.3076" y1="132.641" x2="255.678" y2="203.82" gradientUnits="userSpaceOnUse">
<stop stop-color="#F1E786"/>
<stop offset="1" stop-color="#FABE0E"/>
</linearGradient>
<linearGradient id="paint1_linear_1540_138" x1="150.484" y1="159.167" x2="247.607" y2="196.866" gradientUnits="userSpaceOnUse">
<stop stop-color="#46516F"/>
<stop offset="0.97" stop-color="#222E3A"/>
</linearGradient>
<linearGradient id="paint2_linear_1540_138" x1="92.8088" y1="210.597" x2="144.503" y2="232.847" gradientUnits="userSpaceOnUse">
<stop stop-color="#F1E786"/>
<stop offset="1" stop-color="#FABE0E"/>
</linearGradient>
<linearGradient id="paint3_linear_1540_138" x1="148.203" y1="81.2664" x2="199.199" y2="103.215" gradientUnits="userSpaceOnUse">
<stop stop-color="#F1E786"/>
<stop offset="1" stop-color="#FABE0E"/>
</linearGradient>
<linearGradient id="paint4_linear_1540_138" x1="135.873" y1="267.129" x2="174.829" y2="276.247" gradientUnits="userSpaceOnUse">
<stop stop-color="#F1E786"/>
<stop offset="1" stop-color="#FABE0E"/>
</linearGradient>
<linearGradient id="paint5_linear_1540_138" x1="228.563" y1="82.0078" x2="255.155" y2="93.8398" gradientUnits="userSpaceOnUse">
<stop stop-color="#F1E786"/>
<stop offset="1" stop-color="#FABE0E"/>
</linearGradient>
<linearGradient id="paint6_linear_1540_138" x1="155.7" y1="207.714" x2="223.818" y2="233.401" gradientUnits="userSpaceOnUse">
<stop stop-color="#EFFDBF"/>
<stop offset="0.95" stop-color="#FABE0E"/>
</linearGradient>
<linearGradient id="paint7_linear_1540_138" x1="185.822" y1="124.876" x2="246.342" y2="152.165" gradientUnits="userSpaceOnUse">
<stop stop-color="#EFFDBF"/>
<stop offset="0.95" stop-color="#FABE0E"/>
</linearGradient>
<linearGradient id="paint8_linear_1540_138" x1="264.774" y1="261.648" x2="282.643" y2="239.64" gradientUnits="userSpaceOnUse">
<stop stop-color="#F1E786"/>
<stop offset="1" stop-color="#FABE0E"/>
</linearGradient>
<linearGradient id="paint9_linear_1540_138" x1="255.094" y1="270.155" x2="281.43" y2="259.02" gradientUnits="userSpaceOnUse">
<stop stop-color="#F1E786"/>
<stop offset="0.67" stop-color="#FABE0E"/>
</linearGradient>
<linearGradient id="paint10_linear_1540_138" x1="302.189" y1="263.77" x2="305.692" y2="248.044" gradientUnits="userSpaceOnUse">
<stop stop-color="#F1E786"/>
<stop offset="0.79" stop-color="#FABE0E"/>
</linearGradient>
<linearGradient id="paint11_linear_1540_138" x1="308.789" y1="262.683" x2="322.569" y2="234.289" gradientUnits="userSpaceOnUse">
<stop stop-color="#F1E786"/>
<stop offset="1" stop-color="#FABE0E"/>
</linearGradient>
<linearGradient id="paint12_linear_1540_138" x1="306.116" y1="273.315" x2="338.817" y2="249.043" gradientUnits="userSpaceOnUse">
<stop stop-color="#F1E786"/>
<stop offset="0.81" stop-color="#FABE0E"/>
</linearGradient>
<linearGradient id="paint13_linear_1540_138" x1="272.969" y1="191.363" x2="312.813" y2="188.088" gradientUnits="userSpaceOnUse">
<stop stop-color="#F1E786"/>
<stop offset="1" stop-color="#FABE0E"/>
</linearGradient>
</defs>
</svg>
