<svg width="414" height="394" viewBox="0 0 414 394" fill="none" xmlns="http://www.w3.org/2000/svg">
<mask id="mask0_1424_1613" style="mask-type:alpha" maskUnits="userSpaceOnUse" x="0" y="0" width="414" height="394">
<path d="M414 393.371H0V0H414V393.371Z" fill="#D9D9D9"/>
</mask>
<g mask="url(#mask0_1424_1613)">
<path d="M334.843 190.558C335.26 190.126 335.378 190.05 335.403 190.069C335.54 190.182 333.58 194.432 330.699 194.842C328.565 195.147 327.299 193.147 326.138 193.83C325.242 194.351 325.507 195.805 325.204 198.493C325.131 199.14 324.724 200.84 323.909 204.24C322.279 211.041 319.461 218.745 319.461 218.745C317.543 223.983 313.541 236.598 304.775 266.936C303.15 271.904 300.383 276.421 296.696 280.127C295.407 281.382 294.026 282.539 292.565 283.591C282.524 290.687 266.248 290.724 266.248 290.724C245.267 290.772 225.972 287.807 222.573 287.264C205.284 284.547 191.989 282.465 173.912 277.504C162.135 274.276 153.729 271.303 140.184 266.542C113.475 257.126 120.039 257.684 103.83 252.51C103.098 252.275 88.9781 247.772 77.9023 240.413C75.7802 239.003 72.4587 236.623 69.6882 232.423C69.1459 231.601 66.933 228.141 65.7147 222.62C64.715 217.917 64.6446 213.065 65.5076 208.335C69.6384 183.524 57.2781 239.703 69.9533 174.843C73.2403 158.022 75.9415 144.676 77.8245 135.491L74.9031 133.999L73.3187 127.409C77.2851 112.223 82.5614 100.931 86.6196 93.5016C90.6251 86.1705 93.6448 82.2333 97.511 78.7979C104.436 72.6319 111.557 70.2698 114.862 69.2083C122.995 66.639 131.624 66.0537 140.029 67.5013C158.018 55.8356 178.816 49.2273 200.239 48.3698L216.514 35.7461L248.135 43.2762L254.862 60.6697C274.982 71.1655 291.664 87.2207 302.922 106.925C308.089 108.322 313.013 110.501 317.523 113.385C320.652 115.389 326.777 119.405 331.791 127.046C334.278 130.931 336.166 135.168 337.392 139.614C338.792 144.587 338.86 149.283 338.943 158.465C339.1 175.897 337.202 183.369 335.826 187.696C335.442 188.902 335.09 189.888 334.843 190.558Z" fill="url(#paint0_linear_1424_1613)"/>
<path d="M300.504 153.042C306.258 161.159 307.104 169.351 307.45 173.187C307.868 177.846 307.457 181.372 305.767 190.424C302.614 207.383 301.023 215.861 298.059 224.723C295.781 231.539 292.781 237.999 286.785 250.926C284.716 255.388 282.396 260.207 278.072 265.574C272.989 271.865 268.957 274.161 266.736 275.22C264.026 276.512 261.73 277.051 259.563 277.557C255.128 278.588 250.576 279.02 246.027 278.843C222.354 278.034 206.409 274.957 206.409 274.957C190.624 271.91 175.411 268.974 154.517 262.435C134.778 256.255 124.062 251.271 114.201 244.981C103.91 238.418 99.558 233.628 96.6051 228.535C91.8222 220.286 91.4736 212.57 91.1584 202.99C90.9756 197.424 91.303 194.467 97.441 160.091C99.4794 148.671 100.919 140.941 105.451 131.69C108.011 126.461 110.781 122.339 114.244 118.623C116.67 116.016 120.813 111.579 127.151 108.89C134.047 105.981 140.292 106.501 145.189 106.983C169.5 109.379 182.92 112.349 182.92 112.349C216.188 119.722 209.892 117.17 223.167 120.738C249.142 127.718 253.213 130.25 271.281 133.914C273.069 134.278 278.088 137.17 283.264 139.544C287.252 141.368 294.744 144.918 300.504 153.042Z" fill="#1F3133"/>
<path d="M260.544 106.594C261.087 107.38 262.168 108.956 262.225 111.174C262.285 113.559 261.144 116.056 259.194 117.44C256.921 119.053 254.188 118.704 252.478 118.441C244.279 117.186 240.179 116.559 235.294 113.934C229.245 110.676 215.375 106.248 181.023 101.131C178.082 100.042 175.978 97.6575 175.646 94.8996C175.479 93.2619 175.882 91.6167 176.788 90.2423C178.579 87.4978 181.762 86.8407 183.692 86.4732C186.93 85.8958 190.26 86.1313 193.385 87.1585C197.606 88.5064 181.313 82.9611 216.637 92.147C243.384 99.1013 240.475 99.0948 242.758 99.2214C242.758 99.2214 250.832 99.6656 257.168 103.479C258.506 104.261 259.658 105.323 260.544 106.594Z" fill="#1F3133"/>
<path d="M317.469 189.759C315.393 189.424 313.265 189.676 311.325 190.487C309.384 191.298 307.71 192.636 306.49 194.35C306.942 187.713 307.391 181.076 307.839 174.438C308.632 176.106 309.582 178.079 310.679 180.295C312.698 184.374 313.585 185.989 315.221 187.727C315.915 188.463 316.667 189.143 317.469 189.759Z" fill="#07040B"/>
<path d="M307.818 168.043L306.43 143.451C297.321 138.003 290.521 135.076 285.764 133.382C283.906 132.718 280.366 131.536 276.924 128.402C274.54 126.202 272.642 123.528 271.352 120.552C270.55 122.686 270.336 124.998 270.733 127.243C271.705 132.575 275.886 135.361 276.693 135.875C279.585 136.966 282.356 138.353 284.961 140.016C288.911 142.532 291.446 145.023 293.379 146.945C298.5 152.015 301.496 156.788 303.323 159.732C304.984 162.411 306.485 165.186 307.818 168.043Z" fill="#07040B"/>
<path d="M170.162 91.7671C168.898 95.6907 166.604 99.2031 163.52 101.938C160.435 104.673 156.674 106.53 152.627 107.315C147.088 106.5 141.45 106.634 135.956 107.71C123.609 110.141 115.365 116.746 111.626 120.188C115.204 113.481 118.781 106.773 122.357 100.065C128.749 100.896 135.178 101.4 141.62 101.576C145.256 101.694 148.895 101.508 152.5 101.021C156.829 100.426 158.994 100.131 160.487 99.0966C164.034 96.6414 164.675 92.5986 168.462 91.8555C169.021 91.7458 169.594 91.7161 170.162 91.7671Z" fill="#07040B"/>
<path d="M105.839 129.222C103.885 134.732 101.932 140.242 99.982 145.75C99.3739 143.402 98.178 141.247 96.5069 139.489C95.4012 138.336 94.1079 137.38 92.6821 136.661C97.1783 134.747 101.309 132.069 104.891 128.745L105.839 129.222Z" fill="#07040B"/>
<path d="M241.633 52.8276C240.934 55.0308 240.237 57.235 239.54 59.4402L218.587 54.4644C219.02 52.2089 219.452 49.9533 219.883 47.6975L241.633 52.8276Z" fill="#4A5624"/>
<path d="M237.736 133.385L233.366 139.786L191.811 130.916C190.84 127.9 189.869 124.884 188.896 121.866C196.301 122.828 204.402 124.223 213.036 126.238C221.389 128.187 229.634 130.572 237.736 133.385Z" fill="#4A580B"/>
<path d="M288.624 155.818C295.351 163.019 295.735 173.259 296.034 181.261C296.355 189.817 294.921 196.136 293.073 204.279C291.513 211.141 289.801 216.019 286.373 225.78C285.094 229.418 277.303 251.315 268.806 260.847C267.434 262.375 265.921 263.771 264.287 265.018C263.334 265.732 260.007 268.121 254.245 269.934C250.189 271.19 245.977 271.871 241.732 271.955C230.678 272.303 221.391 270.756 216.396 269.898C202.553 267.525 195.627 266.338 188.137 264.642C177.403 262.214 162.847 258.87 144.531 252.286C140.9 250.977 125.565 245.357 114.53 236.078C107.623 230.413 102.788 222.619 100.78 213.915C99.5685 208.665 100.032 205.549 101.269 192.601C103.085 173.582 102.46 176.584 103.024 172.997C105.478 157.394 110.008 146.784 112.966 139.964C116.554 131.707 118.688 128.891 120.767 126.752C126.228 121.125 132.595 118.837 135.423 117.855C139.54 116.449 143.845 115.669 148.193 115.54C152.954 115.313 156.951 115.949 164.751 117.233C168.255 117.809 172.77 118.631 178.03 119.799C179.44 121.522 180.541 123.475 181.284 125.573C182.446 128.91 182.69 132.498 181.991 135.961L237.682 149.017C238.311 145.403 240.018 142.063 242.58 139.436C244.212 137.798 246.15 136.495 248.284 135.603C253.805 136.771 262.887 139.117 271.558 143.611C274.023 144.894 276.418 146.306 278.734 147.841C279.291 148.208 285.31 152.271 288.624 155.818Z" fill="url(#paint1_linear_1424_1613)"/>
<g opacity="0.49">
<mask id="mask1_1424_1613" style="mask-type:luminance" maskUnits="userSpaceOnUse" x="100" y="115" width="197" height="158">
<path d="M288.624 155.818C295.351 163.019 295.735 173.259 296.034 181.261C296.355 189.817 294.921 196.136 293.073 204.279C291.513 211.141 289.801 216.019 286.373 225.78C285.094 229.418 277.303 251.315 268.806 260.847C267.434 262.375 265.921 263.771 264.287 265.018C263.334 265.732 260.007 268.121 254.245 269.934C250.189 271.19 245.977 271.871 241.732 271.955C230.678 272.303 221.391 270.756 216.396 269.898C202.553 267.525 195.627 266.338 188.137 264.642C177.403 262.214 162.847 258.87 144.531 252.286C140.9 250.977 125.565 245.357 114.53 236.078C107.623 230.413 102.788 222.619 100.78 213.915C99.5685 208.665 100.032 205.549 101.269 192.601C103.085 173.582 102.46 176.584 103.024 172.997C105.478 157.394 110.008 146.784 112.966 139.964C116.554 131.707 118.688 128.891 120.767 126.752C126.228 121.125 132.595 118.837 135.423 117.855C139.54 116.449 143.845 115.669 148.193 115.54C152.954 115.313 156.951 115.949 164.751 117.233C168.255 117.809 172.77 118.631 178.03 119.799C179.44 121.522 180.541 123.475 181.284 125.573C182.446 128.91 182.69 132.498 181.991 135.961L237.682 149.017C238.311 145.403 240.018 142.063 242.58 139.436C244.212 137.798 246.15 136.495 248.284 135.603C253.805 136.771 262.887 139.117 271.558 143.611C274.023 144.894 276.418 146.306 278.734 147.841C279.291 148.208 285.31 152.271 288.624 155.818Z" fill="white"/>
</mask>
<g mask="url(#mask1_1424_1613)">
<path d="M54.7727 239.736L310.967 299.848L348.61 139.379L92.4161 79.2774L54.7727 239.736ZM310.715 299.431L55.1826 239.483L92.6762 79.6914L348.202 139.635L310.715 299.431Z" fill="#8E8E8E"/>
<path d="M56.8856 231.418L312.746 291.455L312.668 291.785L56.8081 231.748L56.8856 231.418Z" fill="#8E8E8E"/>
<path d="M58.7657 223.408L314.626 283.445L314.548 283.776L58.6882 223.739L58.7657 223.408Z" fill="#8E8E8E"/>
<path d="M60.6458 215.404L316.506 275.44L316.429 275.771L60.5683 215.734L60.6458 215.404Z" fill="#8E8E8E"/>
<path d="M62.5252 207.396L318.385 267.433L318.308 267.763L62.4477 207.727L62.5252 207.396Z" fill="#8E8E8E"/>
<path d="M64.4012 199.391L320.261 259.428L320.184 259.758L64.3237 199.721L64.4012 199.391Z" fill="#8E8E8E"/>
<path d="M66.2789 191.386L322.139 251.422L322.062 251.753L66.2014 191.716L66.2789 191.386Z" fill="#8E8E8E"/>
<path d="M68.158 183.378L324.018 243.415L323.941 243.745L68.0805 183.709L68.158 183.378Z" fill="#8E8E8E"/>
<path d="M70.0362 175.373L325.896 235.41L325.819 235.74L69.9587 175.704L70.0362 175.373Z" fill="#8E8E8E"/>
<path d="M71.9151 167.366L327.775 227.403L327.698 227.733L71.8376 167.696L71.9151 167.366Z" fill="#8E8E8E"/>
<path d="M73.7935 159.362L329.654 219.398L329.576 219.729L73.716 159.692L73.7935 159.362Z" fill="#8E8E8E"/>
<path d="M75.6717 151.356L331.532 211.393L331.454 211.723L75.5942 151.687L75.6717 151.356Z" fill="#8E8E8E"/>
<path d="M77.5513 143.346L333.412 203.383L333.334 203.713L77.4738 143.676L77.5513 143.346Z" fill="#8E8E8E"/>
<path d="M79.4292 135.341L335.29 195.378L335.212 195.708L79.3517 135.671L79.4292 135.341Z" fill="#8E8E8E"/>
<path d="M81.3084 127.334L337.169 187.371L337.091 187.701L81.2309 127.664L81.3084 127.334Z" fill="#8E8E8E"/>
<path d="M83.1868 119.329L339.047 179.366L338.97 179.696L83.1093 119.659L83.1868 119.329Z" fill="#8E8E8E"/>
<path d="M85.0648 111.324L340.925 171.36L340.848 171.691L84.9873 111.654L85.0648 111.324Z" fill="#8E8E8E"/>
<path d="M86.9439 103.316L342.804 163.353L342.727 163.683L86.8664 103.647L86.9439 103.316Z" fill="#8E8E8E"/>
<path d="M88.8223 95.3118L344.683 155.349L344.605 155.679L88.7448 95.6421L88.8223 95.3118Z" fill="#8E8E8E"/>
<path d="M90.7012 87.304L346.562 147.341L346.484 147.671L90.6237 87.6343L90.7012 87.304Z" fill="#8E8E8E"/>
<path d="M100.128 81.2457L100.459 81.3232L62.8863 241.446L62.556 241.369L100.128 81.2457Z" fill="#8E8E8E"/>
<path d="M107.883 83.0651L108.213 83.1426L70.6405 243.266L70.3102 243.188L107.883 83.0651Z" fill="#8E8E8E"/>
<path d="M115.635 84.8815L115.965 84.959L78.3929 245.082L78.0626 245.005L115.635 84.8815Z" fill="#8E8E8E"/>
<path d="M123.257 85.5968L123.587 85.6753L85.5443 245.721L85.2141 245.643L123.257 85.5968Z" fill="#8E8E8E"/>
<path d="M131.007 87.442L131.337 87.5205L93.2936 247.566L92.9634 247.488L131.007 87.442Z" fill="#8E8E8E"/>
<path d="M138.897 90.3424L139.228 90.4199L101.655 250.543L101.325 250.466L138.897 90.3424Z" fill="#8E8E8E"/>
<path d="M146.649 92.1613L146.979 92.2388L109.407 252.362L109.076 252.284L146.649 92.1613Z" fill="#8E8E8E"/>
<path d="M154.403 93.9781L154.733 94.0557L117.161 254.179L116.831 254.101L154.403 93.9781Z" fill="#8E8E8E"/>
<path d="M162.157 95.8004L162.487 95.8779L124.915 256.001L124.585 255.924L162.157 95.8004Z" fill="#8E8E8E"/>
<path d="M169.909 97.6193L170.239 97.6968L132.667 257.82L132.337 257.742L169.909 97.6193Z" fill="#8E8E8E"/>
<path d="M177.663 99.4386L177.993 99.5161L140.421 259.639L140.091 259.562L177.663 99.4386Z" fill="#8E8E8E"/>
<path d="M185.417 101.256L185.748 101.333L148.175 261.456L147.845 261.379L185.417 101.256Z" fill="#8E8E8E"/>
<path d="M193.169 103.074L193.5 103.152L155.927 263.275L155.597 263.198L193.169 103.074Z" fill="#8E8E8E"/>
<path d="M200.923 104.897L201.253 104.974L163.681 265.097L163.351 265.02L200.923 104.897Z" fill="#8E8E8E"/>
<path d="M208.677 106.716L209.007 106.793L171.435 266.917L171.105 266.839L208.677 106.716Z" fill="#8E8E8E"/>
<path d="M216.429 108.534L216.759 108.612L179.187 268.735L178.856 268.658L216.429 108.534Z" fill="#8E8E8E"/>
<path d="M224.186 110.352L224.516 110.43L186.944 270.553L186.614 270.475L224.186 110.352Z" fill="#8E8E8E"/>
<path d="M231.937 112.174L232.268 112.251L194.695 272.375L194.365 272.297L231.937 112.174Z" fill="#8E8E8E"/>
<path d="M239.689 113.992L240.019 114.07L202.447 274.193L202.116 274.115L239.689 113.992Z" fill="#8E8E8E"/>
<path d="M247.443 115.812L247.773 115.889L210.201 276.012L209.871 275.935L247.443 115.812Z" fill="#8E8E8E"/>
<path d="M255.198 117.629L255.528 117.707L217.956 277.83L217.625 277.752L255.198 117.629Z" fill="#8E8E8E"/>
<path d="M262.948 119.45L263.279 119.528L225.706 279.651L225.376 279.574L262.948 119.45Z" fill="#8E8E8E"/>
<path d="M270.703 121.27L271.033 121.347L233.461 281.47L233.131 281.393L270.703 121.27Z" fill="#8E8E8E"/>
<path d="M278.457 123.089L278.788 123.167L241.215 283.29L240.885 283.212L278.457 123.089Z" fill="#8E8E8E"/>
<path d="M286.209 124.908L286.539 124.985L248.967 285.109L248.636 285.031L286.209 124.908Z" fill="#8E8E8E"/>
<path d="M293.964 126.725L294.294 126.802L256.722 286.925L256.391 286.848L293.964 126.725Z" fill="#8E8E8E"/>
<path d="M301.717 128.547L302.048 128.625L264.475 288.748L264.145 288.67L301.717 128.547Z" fill="#8E8E8E"/>
<path d="M309.238 129.807L309.568 129.885L271.525 289.931L271.195 289.853L309.238 129.807Z" fill="#8E8E8E"/>
<path d="M317.223 132.185L317.554 132.263L279.981 292.386L279.651 292.308L317.223 132.185Z" fill="#8E8E8E"/>
<path d="M324.978 134.005L325.308 134.082L287.735 294.205L287.405 294.128L324.978 134.005Z" fill="#8E8E8E"/>
<path d="M332.731 135.824L333.062 135.902L295.489 296.025L295.159 295.948L332.731 135.824Z" fill="#8E8E8E"/>
</g>
</g>
<path d="M336.375 189.319C338.362 187.883 338.095 184.643 338.064 181.259C338.027 177.056 338.834 172.885 339 168.671C339.592 154.281 340.117 153.998 339.658 148.975C339.123 143.096 338.046 139.547 337.516 137.958C336.538 135.018 335.248 132.191 333.668 129.525C331.412 125.742 328.61 122.313 325.351 119.35C320.619 115.033 316.275 112.927 310.874 110.366C308.549 109.262 305.582 107.969 293.905 104.05C289.567 102.588 283.849 100.715 277.074 98.6021C275.864 101.009 275.164 103.639 275.016 106.329C274.857 109.944 275.676 113.535 277.387 116.723C278.377 118.657 280.082 121.282 283.644 124.286C293.078 132.247 308.999 137.376 312.314 138.415C312.954 145.578 313.364 151.386 313.606 155.343C314.087 162.829 314.194 166.528 315.593 171.973C316.776 176.565 317.513 179.317 319.806 182.359C323.636 187.443 328.982 189.599 332.986 189.913C334.803 190.077 335.716 189.795 336.375 189.319Z" fill="url(#paint2_linear_1424_1613)"/>
<path d="M170.057 73.8555C169.654 74.8828 169.067 76.3635 168.344 78.1463C164.929 86.6782 164.273 87.6845 163.455 88.7343C161.713 90.939 159.453 92.6793 156.876 93.8005C154.612 94.7821 152.704 94.9848 150.028 95.2898C147.469 95.5616 144.891 95.6058 142.325 95.4219C136.606 95.0598 135.09 94.1284 129.257 93.4598C126.458 93.1425 123.642 92.9944 120.825 93.0163C118.774 95.4607 116.856 98.015 115.082 100.668C113.451 103.115 112.229 105.213 110.718 107.814C108.924 110.897 108.909 111.103 106.943 114.49C103.642 120.168 102.666 121.337 101.734 122.289C101.238 122.795 99.9449 123.812 97.3596 125.841C93.817 128.626 92.0147 130.029 90.7668 130.56C88.4853 131.503 86.0068 131.871 83.5498 131.63C80.316 131.294 77.2657 129.965 74.818 127.825C79.1955 111.621 85.278 99.5717 90.016 91.6188C96.5201 80.7075 100.693 77.1689 103.8 75.057C113.068 68.7617 123.13 68.1749 127.704 67.9678C131.702 67.79 134.332 68.0987 147.09 70.1294C156.058 71.5557 163.832 72.8173 170.057 73.8555Z" fill="url(#paint3_linear_1424_1613)"/>
<path d="M335.136 190.507L332.102 194.511C329.153 194.36 326.26 193.652 323.574 192.426C314.648 188.312 311.189 179.591 310.058 176.741C308.578 173.027 308.215 169.717 307.55 163.269C306.861 156.583 306.574 149.862 306.69 143.142C303.42 141.849 298.789 139.935 293.322 137.374C283.07 132.587 277.945 130.195 274.848 126.885C272.818 124.712 266.937 117.45 268.891 101.285L274.682 99.2427C273.817 102.73 272.214 111.334 276.862 118.71C277.538 119.783 279.774 123.1 289.949 128.75C296.602 132.434 303.604 135.449 310.852 137.751C311.504 144.501 311.909 149.943 312.153 153.506C312.85 163.757 312.907 168.893 315.46 175.807C317.492 181.306 319.357 183.204 320.283 184.036C323.11 186.58 326.797 187.849 330.598 189.161C332.447 189.799 334.021 190.229 335.136 190.507Z" fill="#CC9A1F"/>
<path d="M170.602 74.8844L173.92 78.9209C172.951 82.3655 170.713 88.3122 165.376 93.4729C163.596 95.1938 160.44 98.1827 155.476 99.7591C151.27 101.098 147.9 100.728 144.289 100.431C139.271 100.012 131.966 99.562 122.453 99.5316C116.186 108.829 112.024 115.306 109.054 120.194C107.507 122.678 105.759 125.031 103.828 127.23C99.4991 132.186 96.7862 133.49 95.5059 134.014C93.3804 134.885 91.6392 135.066 89.9112 135.235C86.9779 135.521 81.9507 135.58 75.6901 133.477L74.3113 127.793C76.621 128.581 79.0182 129.084 81.4497 129.29C83.7284 129.484 89.5894 129.913 95.1383 127.145C98.8411 125.296 100.721 122.873 104.277 118.267C109.227 111.866 109.824 108.602 116.006 99.1424C117.717 96.5217 119.185 94.4566 120.077 93.2219C127.054 94.0509 134.075 94.4598 141.101 94.4465C147.269 94.4335 150.985 94.0901 155.128 92.3514C157.673 91.2818 160.844 89.9484 163.378 86.804C164.523 85.3867 164.824 84.4913 168.468 78.3949C169.378 76.9189 170.106 75.7061 170.602 74.8844Z" fill="#CC9A1F"/>
<path d="M239.845 59.7778C239.175 62.6276 238.507 65.4767 237.839 68.3252L215.854 62.8255L217.798 54.5778C223.171 55.4075 228.494 56.5398 233.74 57.9694C235.845 58.5438 237.88 59.1466 239.845 59.7778Z" fill="#CC9A1F"/>
<path d="M249.338 46.0248L256.097 60.6087L253.273 96.4106L244.302 93.2399C245.342 78.1829 246.381 63.1185 247.417 48.0467L249.338 46.0248Z" fill="#CC9A1F"/>
<path d="M216.808 36.9507C210.768 52.1547 204.729 67.3607 198.691 82.5687L190.282 80.2037L202.456 47.545C206.722 43.3614 211.553 39.7953 216.808 36.9507Z" fill="#CC9A1F"/>
<path d="M298.567 278.817C274.31 281.101 249.88 280.84 225.677 278.038C152.64 269.556 97.8823 239.615 66.0347 218.264C66.2587 221.807 67.095 225.284 68.5065 228.542C69.5306 230.899 72.0726 235.937 77.2176 240.032C80.2937 242.484 81.9911 242.758 90.1188 245.978C99.158 249.558 96.937 249.17 109.428 254.276C111.586 255.158 117.308 257.482 126.275 260.852C131.127 262.687 142.58 267.653 154.454 271.521C166.143 275.33 191.397 282.044 222.171 286.193C228.197 287.008 234.436 288.185 247.659 289.212C269.993 290.948 277.645 290.771 285.901 287.195C290.573 285.151 294.858 282.317 298.567 278.817Z" fill="#CC9A1F"/>
<path d="M301.688 277.319L330.112 266.607C340.566 240.938 347.584 214.001 350.984 186.493L340.39 167.753C339.43 174.274 338.467 180.796 337.503 187.318C335.969 189.659 334.435 192.001 332.9 194.345L328.735 193.704C325.768 205.408 322.35 217.596 318.399 230.193C313.11 247.035 307.463 262.749 301.688 277.319Z" fill="url(#paint4_linear_1424_1613)"/>
<path d="M351.308 187.876L358.136 186.132C360.893 172.009 363.452 157.346 365.811 142.144C368.581 124.166 370.811 106.779 372.589 90.0461L361.419 64.8903C354.26 90.0146 347.1 115.142 339.939 140.273C340.383 147.861 340.612 155.705 340.586 163.791C340.581 165.563 340.563 167.321 340.531 169.065L351.308 187.876Z" fill="#CC9A1F"/>
<path d="M108.565 6.71067L93.7719 82.2974C91.6592 86.3136 89.5467 90.4414 87.4345 94.6805C85.3849 98.8149 83.4264 102.891 81.5588 106.908L62.8682 120.128L57.5907 115.836C67.392 84.8806 77.1922 53.9219 86.9913 22.9604L105.227 5.99534L108.565 6.71067Z" fill="#CC9A1F"/>
<path d="M66.4653 221.085C58.8364 214.77 52.0888 207.46 46.4027 199.351C49.053 172.363 54.7925 145.768 63.5086 120.089C68.6495 115.314 74.5645 111.447 81.0009 108.653C78.919 114.688 76.8375 120.724 74.7565 126.763L76.5617 133.635L78.8552 134.965C76.7989 145.66 74.3591 158.679 71.7176 173.617C69.1681 188.058 67.5459 197.955 66.8107 211.275C66.585 215.376 66.5006 218.778 66.4653 221.085Z" fill="url(#paint5_linear_1424_1613)"/>
<path d="M361.069 66.1199C362.507 74.2206 363.944 82.3218 365.378 90.4234C359.688 120.481 353.998 150.537 348.305 180.591L340.918 167.171C341.108 161.61 341.116 155.728 340.872 149.565C340.75 146.465 340.574 143.451 340.344 140.523L361.069 66.1199Z" fill="#191919"/>
<path d="M340.533 169.065L343.011 174.677L341.556 186.053L344.418 189.325C340.724 205.347 337.031 221.371 333.339 237.397L315.651 239.681C319.787 224.567 323.92 209.462 328.051 194.367L332.219 194.876L336.683 190.967C338.392 185.225 339.565 179.337 340.186 173.378C340.337 171.911 340.453 170.473 340.533 169.065Z" fill="#191919"/>
<path d="M107.478 7.69395L93.3872 84.2551L81.1725 106.584L70.0361 113.659C77.6348 84.5408 85.2349 55.4234 92.8365 26.3072L107.478 7.69395Z" fill="#191919"/>
<path d="M80.5945 109.445L76.4138 111.236C75.1028 114.7 73.7906 118.162 72.477 121.623L69.2251 124.812C66.8461 133.905 64.5151 143.157 62.2321 152.569C60.5508 159.526 58.9325 166.421 57.3772 173.253C61.5489 175.601 66.0212 179.428 70.1934 181.773C72.1726 171.614 74.4379 157.605 76.657 144.207C77.19 140.976 78.8353 138.153 80.0143 135.362L76.1437 134.179L74.1707 128.828C76.3064 122.369 78.4477 115.908 80.5945 109.445Z" fill="#191919"/>
<path d="M335.058 253.969C334.177 252.967 328.957 257.085 322.2 260.004C317.294 262.108 312.077 263.397 306.756 263.82C305.859 268.685 303.924 273.299 301.084 277.35C304.643 276.476 308.364 275.442 312.222 274.214C318.564 272.194 324.78 269.802 330.84 267.052C331.11 264.734 331.656 262.456 332.464 260.267C333.943 256.275 335.584 254.566 335.058 253.969Z" fill="#CC9A1F"/>
<path d="M66.817 204.028C58.7555 200.581 51.9278 194.773 47.2343 187.368C46.9774 191.878 46.7199 196.388 46.4617 200.896L66.7258 220.881C66.8224 217.279 66.8705 213.599 66.8702 209.842C66.8661 207.885 66.8484 205.947 66.817 204.028Z" fill="#CC9A1F"/>
<path d="M339.875 167.814C343.715 173.944 346.912 180.106 350.262 187.608C347.959 203.452 344.929 221.193 339.186 240.123C336.284 249.696 333.133 258.65 329.868 266.972C324.958 269.377 319.92 271.51 314.775 273.36C309.719 275.175 304.241 276.617 299.84 277.715" stroke="black" stroke-width="2.1518" stroke-miterlimit="10" stroke-linecap="round"/>
<path d="M343.265 173.529C342.893 176.233 342.518 178.936 342.14 181.638C341.948 183.006 341.755 184.374 341.561 185.741L343.688 188.865C342.111 198.118 340.159 207.837 337.752 217.947C336.053 225.075 334.255 231.913 332.36 238.46C328.761 238.904 325.009 239.279 321.116 239.56C318.947 239.719 316.821 239.842 314.74 239.93" stroke="black" stroke-width="2.1518" stroke-miterlimit="10" stroke-linecap="round"/>
<path d="M350.802 187.932L355.426 187.406C356.129 187.328 356.788 187.025 357.305 186.542C357.822 186.059 358.17 185.422 358.296 184.726C361.114 169.117 363.74 152.985 366.171 136.333C368.459 120.528 370.43 105.12 372.084 90.1067L362.85 65.8505C362.739 65.541 362.531 65.2753 362.258 65.0929C361.984 64.9105 361.659 64.8211 361.331 64.8378C361.002 64.8545 360.688 64.9765 360.435 65.1857C360.181 65.3949 360.001 65.6802 359.923 65.9994C353.038 91.4216 346.157 116.845 339.281 142.269" stroke="black" stroke-width="2.1518" stroke-miterlimit="10" stroke-linecap="round"/>
<path d="M361.244 64.831C362.472 73.4501 363.701 82.0607 364.931 90.6629C359.265 120.828 353.595 150.993 347.919 181.156" stroke="black" stroke-width="2.1518" stroke-miterlimit="10" stroke-linecap="round"/>
<path d="M80.8571 107.447C74.7027 111.251 69.1153 115.365 62.7962 120.616C57.8629 135.843 52.7425 153.102 49.5284 172.623C47.9115 182.494 46.7752 191.919 46.0285 200.823C49.3719 205.147 52.9512 209.284 56.7502 213.214C59.7543 216.344 62.9357 219.3 66.2785 222.065" stroke="black" stroke-width="2.1518" stroke-miterlimit="10" stroke-linecap="round"/>
<path d="M75.2915 111.076C74.4277 113.673 73.568 116.272 72.7126 118.87C72.2819 120.183 71.8505 121.496 71.4182 122.808L68.1457 124.66C65.4755 133.659 62.9326 143.238 60.6191 153.374C58.9933 160.516 57.597 167.454 56.395 174.158C59.4281 176.146 62.6271 178.14 65.9977 180.112C67.8716 181.21 67.9883 181.298 69.8176 182.3" stroke="black" stroke-width="2.1518" stroke-miterlimit="10" stroke-linecap="round"/>
<path d="M62.1665 120.668L58.2496 118.156C57.6538 117.775 57.1968 117.211 56.9466 116.55C56.6964 115.888 56.6663 115.163 56.8607 114.483C61.2249 99.2323 65.996 83.6011 71.1743 67.5891C76.1012 52.3996 81.1398 37.7025 86.2901 23.4977L105.291 5.82131C105.527 5.59179 105.831 5.44441 106.157 5.40103C106.483 5.35764 106.815 5.42057 107.102 5.58046C107.39 5.74036 107.618 5.98872 107.754 6.2887C107.889 6.58868 107.924 6.9243 107.854 7.2458C102.796 33.0968 97.7362 58.945 92.6758 84.7903" stroke="black" stroke-width="2.1518" stroke-miterlimit="10" stroke-linecap="round"/>
<path d="M107.176 5.62646C102.269 12.8065 97.3627 19.9886 92.4579 27.1727C84.2197 56.7374 75.986 86.3048 67.757 115.875" stroke="black" stroke-width="2.1518" stroke-miterlimit="10" stroke-linecap="round"/>
<path d="M336.278 190.53C337.853 182.047 338.949 173.483 339.563 164.877C340.659 149.385 339.472 143.492 338.408 139.704C336.471 132.813 333.674 128.373 332.762 126.982C331.808 125.528 328.545 120.749 322.481 116.075C317.001 111.852 312.026 109.871 305.882 107.595C298.176 104.738 288.228 101.272 276.332 97.6712L269.524 101.568C268.62 106.144 268.711 110.861 269.792 115.398C270.471 118.216 271.817 123.788 276.497 128.284C278.973 130.663 281.411 131.805 283.292 132.667C291.776 136.554 299.934 139.997 306.762 142.769C306.956 148.332 307.241 155.509 307.67 164.01C307.888 168.304 308.092 171.844 309.53 176.355C310.575 179.636 311.737 183.275 314.969 186.766C319.082 191.192 324.155 192.813 326.624 193.609C328.386 194.173 330.194 194.579 332.028 194.822L336.278 190.53Z" stroke="black" stroke-width="2.1518" stroke-miterlimit="10"/>
<path d="M335.278 189.835C331.672 189.809 328.13 188.876 324.979 187.121C321.75 185.325 319.049 182.715 317.144 179.55C314.974 175.879 314.539 172.428 314.316 170.495C312.665 156.225 311.543 140.837 311.342 138.055C307.728 136.554 303.682 134.858 299.254 132.98C291.942 129.874 289.282 128.684 285.875 126.567C281.734 123.994 279.663 122.708 277.831 120.058C274.967 115.89 274.695 111.399 274.519 108.487C274.324 105.225 274.661 101.953 275.517 98.7994" stroke="black" stroke-width="2.1518" stroke-miterlimit="10"/>
<path d="M310.539 138.229C309.283 139.738 308.025 141.248 306.765 142.759" stroke="black" stroke-width="2.1518" stroke-miterlimit="10"/>
<path d="M74.0341 128.177C76.4862 119.902 79.4033 111.772 82.7715 103.826C88.8373 89.5284 92.575 84.8071 95.2425 81.929C100.101 76.6726 104.609 73.9871 106.053 73.1645C107.563 72.3015 112.644 69.5285 120.169 68.1311C126.97 66.8612 132.298 67.3657 138.806 68.1207C146.97 69.0802 157.406 70.5139 169.639 72.7129L173.933 79.2789C172.656 83.765 170.43 87.9243 167.406 91.4749C165.519 93.6764 161.789 98.0261 155.577 99.9039C152.289 100.899 149.599 100.807 147.533 100.719C138.221 100.328 129.378 99.6854 122.037 99.0477C119.333 103.917 115.817 110.18 111.569 117.557C109.425 121.283 107.635 124.34 104.303 127.709C101.88 130.154 99.1942 132.866 94.737 134.511C89.0645 136.597 83.8032 135.736 81.25 135.316C79.4239 135.018 77.6281 134.557 75.884 133.94L74.0341 128.177Z" stroke="black" stroke-width="2.1518" stroke-miterlimit="10"/>
<path d="M75.2376 128.018C78.4642 129.631 82.0445 130.407 85.6494 130.274C89.3405 130.142 92.9326 129.045 96.0675 127.092C99.6712 124.808 101.623 121.932 102.705 120.313C110.661 108.351 118.654 95.1544 120.1 92.7582C124.002 93.0632 128.381 93.3934 133.174 93.7296C141.098 94.2876 144.01 94.4357 148.008 94.1013C152.874 93.6937 155.306 93.4898 158.131 91.9588C162.569 89.5478 164.86 85.672 166.341 83.1583C167.998 80.3416 169.184 77.274 169.855 74.076" stroke="black" stroke-width="2.1518" stroke-miterlimit="10"/>
<path d="M120.731 93.294L122.035 99.0451" stroke="black" stroke-width="2.1518" stroke-miterlimit="10"/>
<path d="M118.992 239.588C136.643 250.888 158.923 256.895 180.144 262.235C195.214 266.038 217.022 271.342 239.482 271.291C244.828 271.28 253.037 270.957 261.287 265.971C268.691 261.496 272.858 255.239 274.993 251.339C286.45 230.289 293.494 207.123 295.693 183.258C296.403 175.027 294.54 166.779 290.363 159.651C286.185 152.524 279.898 146.869 272.37 143.467C233.834 129.393 193.729 120.058 152.939 115.668C150.34 115.158 139.065 113.239 127.672 120.113C116.384 126.923 112.796 137.652 112.016 140.213C104.445 160.943 100.364 182.784 99.9409 204.849C99.8547 209.367 100.35 217.587 105.132 225.788C109.304 232.941 114.931 236.982 118.992 239.588Z" stroke="black" stroke-width="2.1518" stroke-miterlimit="10"/>
<path d="M111.78 243.587C131.223 256.035 155.764 262.652 179.139 268.547C195.741 272.737 219.774 278.581 244.501 278.533C250.39 278.519 259.434 278.163 268.52 272.672C276.675 267.741 281.262 260.849 283.62 256.554C296.242 233.367 304 207.848 306.421 181.559C306.747 177.754 307.208 166.546 300.248 155.03C295.624 147.425 288.82 141.387 280.719 137.7C238.269 122.197 194.09 111.914 149.157 107.077C146.295 106.515 133.876 104.403 121.324 111.976C108.889 119.48 104.938 131.297 104.076 134.115C95.7359 156.95 91.2416 181.01 90.7765 205.316C90.68 210.291 91.2264 219.347 96.4966 228.383C101.1 236.266 107.299 240.716 111.78 243.587Z" stroke="black" stroke-width="2.1518" stroke-miterlimit="10"/>
<path d="M78.7878 135.428C76.9104 142.406 75.1884 149.908 73.7426 157.906C70.869 173.806 68.9332 187.861 67.3267 200.998C66.5912 207.886 63.4538 221.824 70.652 232.358C76.9037 241.502 86.6152 245.279 93.848 248.919C119.367 261.757 147.355 269.982 176.057 277.794C196.024 283.224 221.419 288.129 254.094 289.7C261.214 290.042 274.503 290.356 287.946 286.174C299.039 282.722 303.894 271.603 306.568 264.852C310.31 254.807 314.715 237.959 319.914 221.784C322.987 212.347 325.442 202.72 327.263 192.964" stroke="black" stroke-width="2.1518" stroke-miterlimit="10"/>
<path d="M269.62 101.644C257.658 97.7236 245.039 93.9688 231.787 90.4841C210.913 84.9982 191.005 80.8647 172.326 77.7416" stroke="black" stroke-width="2.1518" stroke-miterlimit="10"/>
<path d="M185.586 86.1169C196.22 87.6378 207.695 89.7066 219.851 92.5518C232.824 95.5873 244.728 99.0645 255.486 102.677C257.69 103.22 259.598 104.598 260.805 106.521C261.398 107.478 261.795 108.544 261.974 109.656C262.154 110.767 262.111 111.903 261.85 112.999L261.74 113.51C261.441 114.219 261.035 114.876 260.534 115.46C259.597 116.494 258.412 117.273 257.091 117.723C255.217 118.355 253.209 118.478 251.271 118.081C244.421 116.745 224.434 110.52 216.448 108.547C209.776 106.897 190.647 102.489 181.923 101.035C180.023 100.723 178.297 99.744 177.056 98.2728C175.815 96.8016 175.139 94.9354 175.152 93.0105L175.263 92.4969C175.522 91.3999 175.994 90.3646 176.653 89.4502C177.311 88.5357 178.144 87.7601 179.103 87.1676C180.061 86.5751 181.127 86.1773 182.24 85.997C183.352 85.8167 184.489 85.8575 185.586 86.1169Z" stroke="black" stroke-width="2.1518" stroke-miterlimit="10"/>
<path d="M247.064 135.561C242.414 138.698 238.968 143.32 237.287 148.671L181.361 135.629C182.225 132.721 182.298 129.635 181.57 126.689C180.843 123.744 179.342 121.046 177.222 118.875" stroke="black" stroke-width="2.1518" stroke-miterlimit="10"/>
<path d="M237.93 133.005C235.671 134.985 233.808 137.376 232.441 140.051L190.338 130.049C190.144 126.672 189.081 123.401 187.253 120.555" stroke="black" stroke-width="2.1518" stroke-miterlimit="10"/>
<path d="M202.501 48.2593C168.584 49.0023 144.366 65.0967 139.802 68.2347" stroke="black" stroke-width="2.1518" stroke-miterlimit="10"/>
<path d="M303.895 106.852C301.148 101.892 286.513 76.2386 255.48 60.5142" stroke="black" stroke-width="2.1518" stroke-miterlimit="10"/>
<path d="M253.513 95.8043L256.199 60.7478L249.116 43.2015L218.086 35.194L202.55 47.6959C198.417 58.7885 194.282 69.8817 190.145 80.9753" stroke="black" stroke-width="2.1518" stroke-miterlimit="10"/>
<path d="M248.25 43.502C246.841 59.9289 245.432 76.3548 244.023 92.7796" stroke="black" stroke-width="2.1518" stroke-miterlimit="10"/>
<path d="M217.31 36.0542C211.315 51.4124 205.319 66.7695 199.322 82.1257" stroke="black" stroke-width="2.1518" stroke-miterlimit="10"/>
<path d="M219.282 46.9431L241.746 52.2144L237.936 68.4549L215.471 63.1837L219.282 46.9431Z" stroke="black" stroke-width="2.1518" stroke-miterlimit="10"/>
<path d="M239.01 59.0389L218.255 54.0563" stroke="black" stroke-width="2.1518" stroke-miterlimit="10"/>
<path d="M269.795 115.388C268.989 119.565 269.473 123.888 271.18 127.784C272.888 131.679 275.74 134.964 279.357 137.202" stroke="black" stroke-width="2.1518" stroke-miterlimit="10"/>
<path d="M171.802 84.8C171.332 89.9436 169.289 94.8176 165.95 98.7581C160.089 105.617 152.399 106.942 150.406 107.225" stroke="black" stroke-width="2.1518" stroke-miterlimit="10"/>
<path d="M320.004 190.778C317.684 189.982 315.194 189.811 312.787 190.285C309.584 190.96 306.712 192.722 304.659 195.271" stroke="black" stroke-width="2.1518" stroke-miterlimit="10"/>
<path d="M99.3452 148.648C99.5742 145.526 98.6702 142.427 96.7992 139.918C95.2343 137.883 93.0941 136.365 90.6561 135.562" stroke="black" stroke-width="2.1518" stroke-miterlimit="10"/>
<path d="M332.585 150.439C332.574 159.178 332.562 167.918 332.547 176.66" stroke="black" stroke-width="2.1518" stroke-miterlimit="10" stroke-linecap="round"/>
<path d="M325.833 148.157C325.929 158.227 326.028 168.296 326.13 178.362" stroke="black" stroke-width="2.1518" stroke-miterlimit="10" stroke-linecap="round"/>
<path d="M95.9709 93.2148L84.1712 116.628" stroke="black" stroke-width="2.1518" stroke-miterlimit="10" stroke-linecap="round"/>
<path d="M103.03 94.2251C98.3952 103.166 93.7606 112.107 89.126 121.048" stroke="black" stroke-width="2.1518" stroke-miterlimit="10" stroke-linecap="round"/>
<path d="M279.459 165.311C280.785 169.529 281.15 173.628 280.844 179.566C280.439 187.019 279.185 194.401 277.108 201.57C273.794 213.311 271.784 220.432 265.845 228.036C262.233 232.657 256.455 240.05 248.447 239.832C243.939 239.709 240.558 237.23 239.6 236.474C236.325 233.89 234.412 230.192 233.052 224.061C232.296 220.655 230.02 208.859 234.417 191.663C236.545 183.539 239.821 175.761 244.145 168.562C246.967 163.859 250.337 159.259 255.704 155.619C260.761 152.181 264.021 152.015 265.641 152.09C268.076 152.225 270.43 153.011 272.457 154.368C276.858 157.245 278.364 161.824 279.459 165.311Z" fill="url(#paint6_linear_1424_1613)"/>
<path d="M165.169 140.331C166.494 144.549 166.86 148.646 166.555 154.583C166.149 162.037 164.895 169.42 162.817 176.59C159.504 188.331 157.493 195.452 151.557 203.054C147.946 207.675 142.167 215.071 134.156 214.852C129.652 214.727 126.269 212.247 125.31 211.492C122.035 208.908 120.122 205.209 118.761 199.081C118.007 195.673 115.731 183.877 120.127 166.683C122.255 158.559 125.53 150.781 129.854 143.582C132.68 138.878 136.046 134.279 141.414 130.637C146.471 127.198 149.731 127.033 151.351 127.107C153.786 127.242 156.14 128.029 158.167 129.385C162.566 132.27 164.074 136.844 165.169 140.331Z" fill="url(#paint7_linear_1424_1613)"/>
<path d="M253.002 212.197C247.136 210.807 244.58 200.394 247.293 188.938C250.007 177.482 256.962 169.321 262.829 170.711C268.695 172.1 271.251 182.514 268.538 193.97C265.824 205.426 258.869 213.586 253.002 212.197Z" fill="#EEFDC4"/>
<path d="M138.313 186.222C132.447 184.833 129.891 174.419 132.604 162.963C135.317 151.507 142.273 143.346 148.139 144.736C154.006 146.126 156.562 156.539 153.849 167.995C151.135 179.451 144.18 187.612 138.313 186.222Z" fill="#EEFEBF"/>
<path d="M216.088 220.416C214.948 223.223 213.806 226.026 212.664 228.826L166.167 219.028C166.259 215.665 166.35 212.302 166.44 208.938L216.088 220.416Z" fill="#F7F7F7"/>
<path d="M164.938 219.088L212.711 229.909C211.72 231.446 205.812 240.291 194.611 242.067C192.362 242.423 186.232 243.076 179.794 239.901C172.125 236.117 168.839 229.284 167.415 226.318C166.309 224.013 165.477 221.587 164.938 219.088Z" fill="#89181A"/>
<path d="M205.262 239.4C200.407 235.012 194.576 231.844 188.252 230.16C181.928 228.476 175.294 228.323 168.9 229.715L166.4 221.279L213.013 231.515C211.57 233.139 210.003 234.804 208.311 236.484C207.289 237.505 206.273 238.477 205.262 239.4Z" fill="#5C101D"/>
<path d="M216.605 221.238L166.686 210.057C162.57 224.401 171.119 239.148 184.455 242.724C198.524 246.511 214.029 236.799 216.605 221.238Z" stroke="black" stroke-width="2.1518" stroke-miterlimit="10"/>
<path d="M212.757 230.639L166.555 220.06" stroke="black" stroke-width="2.1518" stroke-miterlimit="10"/>
<path d="M244.809 239.327C232.917 236.077 228.608 213.933 235.185 189.867C241.762 165.802 256.734 148.928 268.626 152.178C280.519 155.428 284.827 177.571 278.25 201.637C271.673 225.702 256.701 242.577 244.809 239.327Z" stroke="black" stroke-width="2.1518" stroke-miterlimit="10"/>
<path d="M245.304 192.643C246.641 187.764 248.619 183.455 250.917 180.077C251.316 186.668 253.69 191.565 257.593 192.633C261.497 193.7 266.014 190.683 269.72 185.213C269.976 189.288 269.487 194.014 268.154 198.886C264.669 211.65 256.729 220.598 250.422 218.874C244.116 217.15 241.819 205.407 245.304 192.643Z" fill="#613A03"/>
<path d="M251.924 194.026C249.212 193.284 248.228 188.234 249.728 182.746C251.228 177.258 254.643 173.41 257.356 174.152C260.068 174.893 261.052 179.943 259.552 185.431C258.052 190.919 254.637 194.767 251.924 194.026Z" fill="white"/>
<path d="M131.724 214.051C119.728 211.21 114.664 189.227 120.414 164.95C126.164 140.674 140.551 123.297 152.547 126.139C164.543 128.98 169.607 150.964 163.857 175.24C158.107 199.516 143.72 216.893 131.724 214.051Z" stroke="black" stroke-width="2.1518" stroke-miterlimit="10"/>
<path d="M153.652 172.813C154.816 167.897 155.143 163.16 154.75 159.094C151.231 164.687 146.814 167.855 142.874 166.92C138.934 165.986 136.415 161.18 135.778 154.6C133.607 158.045 131.77 162.439 130.605 167.355C127.555 180.229 130.249 191.888 136.603 193.392C142.957 194.897 150.601 185.687 153.652 172.813Z" fill="#613A03"/>
<path d="M147.015 170.606C144.279 169.956 143.127 164.941 144.443 159.404C145.759 153.868 149.044 149.908 151.781 150.558C154.517 151.209 155.669 156.224 154.353 161.76C153.037 167.296 149.752 171.257 147.015 170.606Z" fill="white"/>
<path d="M325.319 314.872C327.635 315.285 330.018 315.101 332.242 314.336C338.022 312.312 340.313 306.988 340.708 306.034C342.679 306.308 344.686 306.136 346.581 305.529C351.471 303.944 353.811 299.93 354.388 298.868C354.27 293.661 353.308 288.508 351.539 283.609C350.396 280.454 348.923 277.429 347.144 274.583L355.282 264.731C355.398 264.195 356.085 260.569 353.711 257.632C351.479 254.865 347.453 253.846 343.73 255.209L324.139 275.501C322.147 273.947 319.52 273.578 317.337 274.57C314.865 275.692 314.037 278.065 313.899 278.487C312.574 279.868 309.343 283.624 308.908 289.173C308.781 290.816 308.906 292.468 309.277 294.074C312.364 298.63 315.818 303.348 319.68 308.153C321.564 310.491 323.444 312.73 325.319 314.872Z" fill="url(#paint8_linear_1424_1613)"/>
<path d="M322.714 315.967C321.51 317.383 320.142 318.65 318.64 319.744L293.971 303.971L307.426 293.939C314.079 299.741 319.666 306.661 323.936 314.387C323.576 314.904 323.169 315.434 322.714 315.967Z" fill="#1A333A"/>
<path d="M325.319 316.239L329.443 320.192C320.96 329.362 309.104 341.888 300.621 351.053C300.057 350.643 297.902 347.616 294.2 348.416C289.994 349.332 289.729 351.037 289.708 354.916C289.719 356.532 290.17 358.114 291.011 359.493L283.845 365.93C271.706 351.831 264.62 334.085 263.709 315.503C267.117 313.026 270.924 310.488 275.104 307.977C279.804 305.156 284.323 302.778 288.527 300.771L319.249 319.364L324.781 315.013L325.319 316.239Z" fill="url(#paint9_linear_1424_1613)"/>
<path d="M300.027 351.159L290.563 359.986C287.688 356.977 288.038 352.216 290.963 349.814C293.592 347.653 297.746 347.867 300.331 350.539C300.227 350.751 300.129 350.954 300.027 351.159Z" fill="#5E656B"/>
<path d="M277.191 355.092L253.354 367.439C251.213 368.006 248.959 367.992 246.825 367.399C244.691 366.806 242.753 365.656 241.211 364.067L230.294 345.779C230.712 342.911 231.129 340.043 231.545 337.175L251.209 324.959L255.272 326.926L265.211 323.858C267.641 334.81 271.675 345.342 277.184 355.114L277.191 355.092Z" fill="#1A333A"/>
<path d="M260.919 323.646L254.205 327.764C249.889 322.126 243.702 318.214 236.757 316.732C236.403 313.177 235.406 309.715 233.816 306.515C227.827 294.557 215.381 290.748 212.471 289.94L223.961 290.109C224.651 291.816 225.717 293.345 227.08 294.583C228.303 295.686 231.198 298.297 234.523 297.423C237.703 296.587 239.009 293.159 239.179 292.689L248.837 294.56C254.38 303.551 258.456 313.368 260.912 323.642L260.919 323.646Z" fill="url(#paint10_linear_1424_1613)"/>
<path d="M246.655 290.835L248.534 293.61L229.366 289.308L246.655 290.835Z" fill="#1E2D34"/>
<path d="M220.286 288.23L201.58 285.101L201.488 285.525L208.073 287.396L220.286 288.23Z" fill="#1E2D34"/>
<path d="M239.175 293.429C238.369 294.647 237.197 295.577 235.828 296.087C234.459 296.597 232.964 296.659 231.557 296.266C227.832 295.386 225.929 292.123 225.493 291.352C227.964 291.487 230.426 291.749 232.87 292.136C235.145 292.501 237.251 292.947 239.175 293.429Z" fill="#1A333A"/>
<path d="M294.624 305.593C291.43 308.526 288.389 311.621 285.512 314.866C283.858 316.732 278.814 322.421 276.724 326.058C270.68 336.568 276.806 351.626 279.803 357.952C273.608 350.141 269.084 341.14 266.511 331.509C265.102 326.171 264.314 320.688 264.162 315.169L287.859 301.122L294.624 305.593Z" fill="#CE9619"/>
<path d="M243.948 293.942C243.49 296.738 243.297 299.571 243.373 302.403C243.578 309.007 245.2 315.491 248.129 321.413L237.046 316.401C236.956 312.889 236.157 309.43 234.697 306.234C229.388 294.747 217.178 291.324 215.002 290.743L223.29 290.583C223.758 291.591 225.213 294.357 228.424 295.911C228.858 296.123 233.904 298.469 238.016 295.698C239.187 294.889 240.135 293.798 240.773 292.526L243.948 293.942Z" fill="#CE9619"/>
<path d="M253.391 327.886C250.563 329.831 248.21 332.388 246.505 335.366C246.056 336.16 245.659 336.981 245.315 337.825C242.092 346.582 241.472 356.084 243.529 365.186C239.462 361.912 236.064 357.885 233.52 353.325C232.189 350.926 231.108 348.395 230.295 345.774L232.186 338.311L251.534 324.733L253.391 327.886Z" fill="#07221D"/>
<path d="M315.954 302.286C316.71 302.857 316.873 302.791 317.796 302.918C319.597 303.17 321.093 302.458 321.628 302.195C323.226 301.381 324.488 300.031 325.192 298.381C326.084 296.384 325.883 294.592 325.735 293.466C325.394 291.027 324.311 288.752 322.634 286.95C322.457 286.755 324.742 290.134 327.836 290.494C329.009 290.6 330.186 290.338 331.204 289.744C332.25 289.11 333.075 288.168 333.566 287.047C333.669 286.809 334.594 284.589 333.558 282.261C332.974 280.947 332.045 280.221 331.143 279.519C330.518 279.031 330.104 278.821 327.787 277.706C323.901 275.838 323.564 275.707 323.12 275.562C321.357 274.979 320.277 274.622 318.964 274.711C315.751 274.926 313.575 277.644 312.728 278.685C311.708 279.936 310.976 282.265 309.511 286.918C308.826 289.103 308.468 290.526 308.848 292.255C309.021 293.045 309.196 294.263 309.711 295.126" stroke="black" stroke-width="2.1518" stroke-miterlimit="10"/>
<path d="M293.969 303.976C295.821 302.432 297.708 300.883 299.63 299.33C301.512 297.811 303.38 296.325 305.235 294.872C305.879 294.471 306.623 294.262 307.382 294.269C308.14 294.275 308.881 294.498 309.518 294.91C313.294 298.86 316.763 303.092 319.897 307.568C321.028 309.185 322.08 310.777 323.054 312.345C323.516 313.053 323.717 313.9 323.621 314.739C323.556 315.226 323.387 315.693 323.126 316.109C321.809 317.256 320.492 318.402 319.176 319.547L293.969 303.976Z" stroke="black" stroke-width="2.1518" stroke-miterlimit="10"/>
<path d="M332.689 288.468C333.807 292.062 335.22 295.559 336.913 298.921C337.869 300.812 339.023 302.858 341.249 304.523C342.118 305.173 343.063 305.863 344.459 306.105C347.338 306.609 349.703 304.793 350.761 303.994C351.52 303.415 353.707 301.743 354.389 298.86C354.663 297.706 354.601 296.752 354.377 295.159C353.843 291.412 352.958 287.725 351.733 284.145C351.137 282.405 350.286 280.077 349.133 277.366C348.75 276.722 347.704 275.19 346.092 275.005C344.66 274.841 343.5 275.822 342.778 276.43C340.295 278.529 337.528 280.842 334.412 283.493" stroke="black" stroke-width="2.1518" stroke-miterlimit="10"/>
<path d="M345.507 274.738C348.404 271.617 351.3 268.496 354.195 265.375C355.432 262.785 355.272 259.79 353.705 257.623C351.646 254.768 347.455 253.763 343.847 255.534L324.124 275.482" stroke="black" stroke-width="2.1518" stroke-miterlimit="10"/>
<path d="M339.191 278.647C337.17 277.869 335.323 276.696 333.759 275.197C332.194 273.698 330.944 271.903 330.081 269.915" stroke="black" stroke-width="1.79317" stroke-miterlimit="10"/>
<path d="M340.89 304.816C340.832 305.495 340.318 310.456 335.907 313.465C330.619 317.078 324.706 314.481 324.397 314.339" stroke="black" stroke-width="2.1518" stroke-miterlimit="10"/>
<path d="M295.631 305.005L288.507 300.768L266.122 312.788C265.269 313.231 264.557 313.903 264.065 314.729C263.572 315.554 263.319 316.501 263.334 317.462C266.073 335.269 273.379 352.062 284.54 366.204C291.676 359.774 299.008 352.779 306.454 345.205C314.828 336.674 322.478 328.293 329.433 320.191L325.31 314.86" stroke="black" stroke-width="2.1518" stroke-miterlimit="10"/>
<path d="M300.069 349.989C297.476 347.96 293.871 347.949 291.422 349.866C288.683 352.014 287.98 356.111 289.998 359.234" stroke="black" stroke-width="2.1518" stroke-miterlimit="10"/>
<path d="M275.825 354.796C271.318 357.523 267.88 359.655 265.756 360.967C265.686 361.012 261.965 363.32 256.958 365.72C255.47 366.441 253.104 367.521 250.133 367.498C247.731 367.51 245.399 366.69 243.533 365.178C240.335 362.747 238.197 359.446 237.972 359.089C234.237 353.229 231.222 347.556 229.761 344.734" stroke="black" stroke-width="2.1518" stroke-miterlimit="10"/>
<path d="M263.421 321.975C259.509 323.408 255.788 325.32 252.344 327.667C248.754 330.023 246.017 333.472 244.54 337.505C244.472 337.708 244.484 337.929 244.573 338.123C244.662 338.318 244.821 338.471 245.019 338.551C245.218 338.632 245.439 338.634 245.638 338.557C245.838 338.48 246 338.329 246.093 338.137C247.617 334.572 250.258 331.599 253.619 329.665C256.995 327.631 260.611 326.022 264.383 324.874C266.355 324.203 265.41 321.335 263.423 321.967L263.421 321.975Z" fill="black"/>
<path d="M271.388 347.718C267.191 350.498 262.758 352.904 258.141 354.911C255.784 355.932 253.509 356.794 251.344 357.523C250.38 357.802 249.357 357.808 248.39 357.539C247.423 357.27 246.55 356.737 245.869 356C242.542 352.669 240.356 347.061 240.356 347.061C239.315 344.381 237.553 340.189 235.655 335.288" stroke="black" stroke-width="1.79317" stroke-miterlimit="10"/>
<path d="M254.277 327.436C252.722 325.586 250.966 323.915 249.042 322.454C245.487 319.771 241.426 317.834 237.104 316.759C236.066 309.624 233.182 305.058 231.373 302.693C226.751 296.653 220.828 294.104 214.082 291.201C209.238 289.119 204.179 287.577 198.997 286.601" stroke="black" stroke-width="2.1518" stroke-miterlimit="10"/>
<path d="M261.197 323.952C258.503 311.91 253.735 300.429 247.105 290.022" stroke="black" stroke-width="2.1518" stroke-miterlimit="10"/>
<path d="M249.107 294.154C243.51 292.962 237.514 291.882 231.143 291C222.863 289.854 215.076 289.195 207.885 288.869" stroke="black" stroke-width="2.1518" stroke-miterlimit="10"/>
<path d="M239.939 293.204C239.458 294.089 237.98 296.515 235.261 297.27C231.475 298.321 226.656 295.755 224.371 290.619" stroke="black" stroke-width="1.79317" stroke-miterlimit="10"/>
<path d="M259.956 323.305C253.769 315.481 244.93 310.195 235.109 308.448" stroke="black" stroke-width="1.79317" stroke-miterlimit="10"/>
<path d="M86.1049 280.021C101.502 278.591 106.569 278.159 113.698 276.974C114.828 276.785 115.733 276.631 116.234 276.534C118.154 277.04 119.874 278.118 121.166 279.625C123.302 282.176 123.322 285.182 123.311 287.052C123.277 292.182 120.823 295.944 118.983 298.688C115.259 304.237 110.856 307.282 107.621 309.494C105.168 311.176 100.467 314.306 93.4985 316.254C87.6573 317.878 81.551 318.321 75.5367 317.557C75.1628 317.439 72.2653 316.488 71.1435 313.509C70.6165 312.065 70.5971 310.485 71.0885 309.028L80.7101 281.356L89.1914 284.895C89.4474 285.891 89.7576 286.873 90.1207 287.835C90.6793 289.329 90.9586 290.076 91.3286 290.464C92.6026 291.813 95.2724 291.165 98.8498 290.243C102.82 289.221 106.209 288.348 106.501 286.351C106.638 285.394 106.006 284.576 105.767 284.269C104.135 282.161 100.669 282.496 99.2406 282.633C96.6727 282.883 94.735 283.839 91.4502 285.458C90.2816 286.032 89.3384 286.566 88.69 286.932L81.1765 284.046L81.6205 280.431L86.1049 280.021Z" fill="url(#paint11_linear_1424_1613)"/>
<path d="M105.856 284.82C106.068 285.337 106.138 285.901 106.059 286.454C105.683 288.753 102.446 289.873 101.108 290.34C96.5606 291.919 89.9121 291.859 89.0524 289.357C88.3395 287.31 91.5963 284.531 92.0726 284.128C94.7149 281.884 98.9457 280.658 102.604 282.304C103.866 282.883 104.979 283.744 105.856 284.82Z" fill="#5E656B"/>
<path d="M89.4286 278.45L82.1449 279.743C84.3785 271.627 86.6138 263.511 88.8507 255.396L93.8705 259.937C92.3949 266.105 90.9143 272.276 89.4286 278.45Z" fill="#030802"/>
<path d="M87.5923 255.507L80.7399 280.759C78.228 286.73 75.7717 292.907 73.371 299.288C72.3729 301.943 71.4069 304.578 70.4731 307.193L65.6812 306.552L79.4831 256.514L87.5923 255.507Z" fill="url(#paint12_linear_1424_1613)"/>
<path d="M97.287 315.961L105.73 321.943C102.736 327.23 99.7413 332.519 96.7453 337.809C91.7656 337.794 86.8448 336.731 82.3033 334.688C77.7618 332.646 73.7015 329.669 70.3867 325.953L73.9258 317.787C81.759 318.677 89.6902 318.059 97.2909 315.967L97.287 315.961Z" fill="#1A333A"/>
<path d="M101.774 333.354C104.197 335.761 105.736 337.287 105.728 339.022C105.727 339.517 105.596 340.763 103.943 342.237C100.359 343.341 96.6209 343.863 92.8716 343.782C81.4967 343.526 73.5975 337.685 70.8853 335.625C67.0888 332.728 63.8236 329.194 61.2348 325.181C62.1302 323.287 63.6695 321.773 65.578 320.909C67.4865 320.045 69.64 319.887 71.654 320.464L69.1981 326.98C71.6868 329.342 74.4435 331.405 77.4121 333.127C83.1458 336.421 89.5352 338.412 96.1256 338.956L100.958 332.593C101.153 332.763 101.442 333.021 101.774 333.354Z" fill="#CC9A1F"/>
<path d="M104.378 344.581C99.3798 351.467 93.206 357.416 86.1402 362.154L68.1984 358.57L63.1572 366.801L51.3619 366.232C52.9538 357.753 54.5469 349.271 56.1412 340.789C56.7033 340.742 57.268 340.839 57.782 341.071C59.7631 341.999 59.3527 344.544 60.8727 345.588C62.6901 346.838 67.1932 345.885 68.0361 342.922C68.6273 340.845 67.2303 338.425 65.214 337.503C62.9018 336.44 59.8693 337.389 58.3252 339.926L55.6689 338.536C57.1144 333.792 58.5605 329.049 60.0073 324.307C60.7235 325.266 61.7437 326.558 63.0546 328.001C63.0546 328.001 66.6 331.901 70.6763 334.833C77.6168 339.822 85.5976 341.371 94.3451 343.068C98.5119 343.872 101.995 344.326 104.378 344.581Z" fill="url(#paint13_linear_1424_1613)"/>
<path d="M60.3307 338.293C61.8769 337.035 64.5914 336.29 66.8547 337.782C67.8078 338.419 68.5315 339.345 68.9194 340.424C69.3073 341.503 69.3389 342.677 69.0097 343.775C68.1198 346.605 64.8047 348.208 62.0049 347.191C59.399 346.243 58.0507 343.322 58.5854 340.987C58.852 339.92 59.466 338.972 60.3307 338.293Z" fill="#5E656B"/>
<path d="M80.3664 361.478C78.9328 364.361 76.5159 366.637 73.5518 367.895C71.7059 367.387 69.8324 366.85 67.9313 366.283C66.4901 365.851 65.0731 365.411 63.6802 364.965C65.0291 362.675 66.3793 360.387 67.7308 358.101C70.4499 358.421 73.1345 358.986 75.7519 359.789C77.319 360.269 78.8594 360.833 80.3664 361.478Z" fill="#1A333A"/>
<path d="M64.6833 320.664L65.6049 312.651L55.1905 315.13C50.6758 332.144 46.1626 349.159 41.6508 366.175C41.7891 366.844 42.1537 367.446 42.6834 367.878C44.239 369.072 47.359 368.369 50.1939 365.851C51.8348 355.591 54.076 345.437 56.906 335.439C58.0657 331.34 59.2826 327.394 60.5568 323.601L64.6833 320.664Z" fill="url(#paint14_linear_1424_1613)"/>
<path d="M51.292 367.263L60.9459 367.789C61.8885 366.765 63.0975 366.024 64.4377 365.648C68.7593 364.496 72.3736 368.031 72.577 368.236C72.8934 371.523 73.2103 374.811 73.5277 378.101L77.3695 385.561C77.2142 389.38 76.0278 393.086 73.9361 396.286C72.6353 398.247 71.0099 399.972 69.1296 401.387C67.4481 401.309 65.8152 400.799 64.3887 399.905C62.9622 399.012 61.7903 397.765 60.9864 396.286C62.152 394.32 63.3174 392.355 64.4826 390.39C64.4958 388.908 64.0521 388.209 63.6312 387.838C62.7967 387.112 61.7314 387.427 58.8091 386.867C58.2424 386.76 57.7794 386.644 57.4678 386.576C57.341 393.257 57.2134 399.938 57.085 406.618C56.1851 408.461 54.6212 409.894 52.7076 410.63C49.0528 411.981 45.8892 409.993 45.5371 409.762L42.8654 387.035C42.2338 386.271 41.6817 385.445 41.2176 384.569C40.8449 383.875 40.5303 383.151 40.2769 382.405L43.3139 369.147C46.0689 366.335 48.9669 365.152 50.4328 366.109C50.8387 366.388 51.1407 366.794 51.292 367.263Z" fill="url(#paint15_linear_1424_1613)"/>
<path d="M92.3159 316.556C97.1546 309.003 99.7875 300.248 99.9177 291.278C100.956 291.418 102.012 291.271 102.973 290.852C103.933 290.434 104.76 289.761 105.365 288.906C106.469 287.318 106.794 285.073 105.851 283.375C104.522 280.981 100.812 279.911 97.4479 281.667L98.6503 277.093L114.937 275.689C116.05 276.047 120.909 277.742 122.733 282.311C124.252 286.141 122.776 289.783 121.387 293.184C120.275 295.908 118.033 300.228 112.695 305.158C105.692 311.624 97.9826 314.871 92.3159 316.556Z" fill="#CE9619"/>
<path d="M84.1447 336.281C84.6681 336.478 85.1285 336.813 85.477 337.25C85.8255 337.688 86.0493 338.211 86.1246 338.765C86.1998 339.319 86.1238 339.884 85.9045 340.398C85.6852 340.912 85.3309 341.358 84.879 341.687L88.5551 343.418C87.6747 345.807 86.4223 348.042 84.8441 350.04C79.8983 356.278 73.188 358.298 70.4837 358.936L85.7874 362.059C91.5006 356.3 97.2145 350.538 102.929 344.773C103.512 344.409 105.465 343.091 105.943 340.767C106.555 337.793 104.521 334.33 100.785 332.8L96.4996 337.906L84.1447 336.281Z" fill="#CE9619"/>
<path d="M99.8584 331.054C91.963 325.416 83.0857 321.299 73.6815 318.914L96.8761 316.182L104.747 321.469L99.8584 331.054Z" fill="#07221D"/>
<path d="M80.3765 282.883C80.7313 282.072 81.2759 281.358 81.9644 280.801C82.6529 280.244 83.465 279.861 84.3325 279.684C84.8129 279.587 86.015 279.328 88.4418 278.922C89.4011 278.759 90.1811 278.641 90.5585 278.597C90.8099 278.558 91.8201 278.401 92.9824 278.253C94.1446 278.106 95.1217 278.017 97.4691 277.761C103.205 277.126 108.731 276.65 114.048 276.334C114.269 276.318 114.491 276.317 114.712 276.331C116.472 276.428 118.169 277.022 119.606 278.044C121.281 279.435 122.501 281.297 123.107 283.389C125.041 289.812 117.355 303.226 105.692 310.843C94.46 318.177 82.4914 318.215 76.4712 317.725C75.7382 317.669 75.0241 317.465 74.3717 317.126C73.007 316.431 71.9199 315.291 71.2895 313.895C70.6296 312.356 70.5563 310.629 71.0833 309.04C72.3326 304.479 73.857 299.612 75.7124 294.506C77.2187 290.361 78.7862 286.488 80.3765 282.883Z" stroke="black" stroke-width="2.1518" stroke-miterlimit="10"/>
<path d="M72.0304 305.739L66.9537 306.448C66.7345 306.48 66.5109 306.456 66.3033 306.379C66.0956 306.301 65.9107 306.174 65.7652 306.007C65.6197 305.84 65.5183 305.639 65.4703 305.423C65.4224 305.206 65.4293 304.982 65.4905 304.769L79.2472 256.77L89.2577 254.421L93.808 259.442C93.9553 259.603 94.0606 259.798 94.1144 260.01C94.1683 260.221 94.1691 260.443 94.1168 260.655C92.6239 266.678 91.133 272.7 89.6441 278.72" stroke="black" stroke-width="2.1518" stroke-miterlimit="10"/>
<path d="M88.3025 255.193C85.9898 263.915 83.6763 272.637 81.362 281.358" stroke="black" stroke-width="2.1518" stroke-miterlimit="10"/>
<path d="M116.499 277.358C116.328 279.195 114.688 293.98 101.142 302.815C87.6517 311.612 73.5282 307.223 71.7643 306.63" stroke="black" stroke-width="2.1518" stroke-miterlimit="10"/>
<path d="M89.1628 288.161C88.7481 285.874 92.3926 283.298 97.3031 282.408C102.214 281.518 106.53 282.65 106.945 284.938C107.36 287.225 103.715 289.801 98.8047 290.691C93.8943 291.581 89.5774 290.449 89.1628 288.161Z" stroke="black" stroke-width="2.1518" stroke-miterlimit="10"/>
<path d="M96.5876 315.524C98.4116 316.696 100.333 317.868 102.351 319.042C103.812 319.891 105.249 320.695 106.662 321.456C104.763 324.714 102.8 328.005 100.775 331.329C99.3098 333.729 97.841 336.091 96.3685 338.414C90.3741 338.145 84.5188 336.52 79.244 333.659C75.8698 331.818 72.7848 329.49 70.0884 326.75C71.2855 323.586 72.4804 320.425 73.6731 317.265" stroke="black" stroke-width="2.1518" stroke-miterlimit="10"/>
<path d="M85.1531 318.217C83.8549 320.39 82.5381 322.756 81.2478 325.314C79.9575 327.872 78.8667 330.28 77.8988 332.579" stroke="black" stroke-width="2.1518" stroke-miterlimit="10"/>
<path d="M72.0635 320.479C66.7896 320.099 62.9286 321.136 61.9321 323.627C60.1382 328.112 68.3173 335.601 80.2008 340.352C92.0844 345.104 103.171 345.33 104.966 340.842C105.917 338.464 104.06 335.238 100.332 332.023" stroke="black" stroke-width="2.1518" stroke-miterlimit="10"/>
<path d="M62.4973 346.715C59.775 346.125 58.0463 343.44 58.6362 340.718C59.226 337.996 61.911 336.267 64.6333 336.857C67.3556 337.447 69.0843 340.132 68.4945 342.854C67.9046 345.576 65.2196 347.305 62.4973 346.715Z" stroke="black" stroke-width="2.1518" stroke-miterlimit="10"/>
<path d="M104.968 340.832C105.044 342.106 104.844 343.382 104.379 344.571C104.081 345.326 103.677 346.036 103.181 346.679C100.235 350.096 97.0661 353.315 93.6958 356.315C91.1995 358.536 88.7554 360.491 86.4147 362.211C82.9145 361.366 79.2611 360.567 75.4594 359.837C72.9867 359.362 70.5637 358.935 68.1903 358.557L63.3636 365.799C62.9171 366.402 62.303 366.861 61.5977 367.118C61.1558 367.278 60.6878 367.354 60.2181 367.341L50.4224 366.109C51.3821 360.535 52.5271 354.732 53.8924 348.732C55.8078 340.314 57.9495 332.417 60.2015 325.072C60.3131 324.68 60.4937 324.312 60.7347 323.984C61.1674 323.403 61.7642 322.965 62.4481 322.726" stroke="black" stroke-width="2.1518" stroke-miterlimit="10"/>
<path d="M64.683 320.663C65.0964 318.362 65.5083 316.059 65.9187 313.755C65.9949 313.561 66.0056 313.347 65.9492 313.147C65.8928 312.946 65.7723 312.769 65.6062 312.643C65.4133 312.527 65.1825 312.49 64.9629 312.54L56.0701 314.647C55.721 314.715 55.4022 314.891 55.1587 315.15C54.9151 315.409 54.7592 315.738 54.713 316.091C50.3585 332.783 46.0024 349.474 41.6446 366.165C41.6811 366.519 41.7972 366.86 41.9844 367.163C42.6093 368.17 43.8019 368.316 43.9852 368.338L50.1893 365.834" stroke="black" stroke-width="2.1518" stroke-miterlimit="10"/>
<path d="M43.5383 368.259C42.8493 370.981 42.1811 373.767 41.5338 376.619C41.0633 378.694 40.6192 380.743 40.2016 382.767C40.4294 383.426 40.7731 384.039 41.2165 384.577C41.8642 385.358 42.7017 385.96 43.6489 386.325C46.3068 385.666 48.8343 384.562 51.1246 383.061C50.4631 377.651 50.6154 372.173 51.5765 366.808" stroke="black" stroke-width="2.1518" stroke-miterlimit="10"/>
<path d="M80.7883 361.926C80.2121 362.731 79.0737 364.298 77.6891 365.99C77.065 366.714 76.3647 367.369 75.6004 367.944C75.3469 368.15 75.0611 368.313 74.7545 368.426C74.0307 368.638 73.2543 368.575 72.5742 368.249C71.9999 368.032 71.417 367.819 70.8256 367.609C68.3999 366.757 66.0668 366.056 63.8101 365.496" stroke="black" stroke-width="2.1518" stroke-miterlimit="10"/>
<path d="M72.6668 368.676C72.4595 372.337 72.8782 376.007 73.9049 379.527C72.0005 380.823 70.0605 382.203 68.0849 383.666C66.7096 384.689 65.3798 385.706 64.0957 386.717C63.641 386.857 63.1743 386.954 62.7015 387.008C62.1471 387.061 61.5891 387.064 61.0341 387.017C59.9004 386.913 56.1851 385.567 51.4016 383.152" stroke="black" stroke-width="2.1518" stroke-miterlimit="10"/>
<path d="M73.841 379.304C74.7688 380.765 75.5222 382.33 76.0857 383.967C76.4321 384.967 76.7049 385.991 76.9019 387.03C75.8135 391.817 73.6913 396.307 70.6842 400.186C70.5101 400.483 70.2531 400.723 69.9446 400.877C69.6793 400.996 69.3882 401.047 69.0981 401.025C67.6295 400.978 66.1801 400.676 64.8146 400.133C63.4413 399.507 62.2008 398.623 61.1605 397.53C61.0298 397.278 60.9574 397 60.9484 396.716C60.9394 396.432 60.9942 396.15 61.1086 395.89C61.4615 395.079 61.9245 394.32 62.4846 393.635C62.9975 393.039 63.7033 392.179 64.5685 391.017L63.1166 387.309" stroke="black" stroke-width="2.1518" stroke-miterlimit="10"/>
<path d="M56.492 386.297C56.4029 389.84 56.4273 393.607 56.6151 397.571C56.7451 400.352 56.9388 403.024 57.196 405.588C57.2008 406.271 57.0543 406.947 56.7671 407.567C56.5182 408.071 56.1851 408.529 55.7823 408.92C54.3256 410.367 52.2651 410.769 51.6077 410.887C49.8381 411.189 48.0201 411.016 46.3392 410.385C46.036 410.23 45.7638 410.021 45.536 409.767C45.2468 409.421 45.0318 409.019 44.9044 408.586C43.9169 405.217 43.6348 396.917 43.6348 396.917C43.5134 393.333 43.2867 391.428 43.5363 387.734C43.5763 387.14 43.6202 386.648 43.6506 386.315" stroke="black" stroke-width="2.1518" stroke-miterlimit="10"/>
<path d="M191.621 384.22C188.586 383.205 184.224 381.782 178.94 380.196C169.023 377.22 158.848 374.201 145.958 371.91C141.147 371.055 134.53 370.047 126.534 369.361C126.015 370.032 123.677 373.26 124.319 377.537C124.585 379.255 125.276 380.879 126.328 382.263C127.815 383.027 130.061 384.116 132.858 385.268C142.838 389.346 150.662 390.271 157.873 391.374C164.412 392.371 173.805 394.028 185.539 396.87C188.92 393.45 191.061 388.997 191.621 384.22Z" fill="#FCBE11"/>
<path d="M187.194 383.76L185.594 388.075C184.246 388.274 182.291 388.511 179.925 388.624C172.472 388.978 165.658 387.862 151.74 383.478C145.591 381.543 137.987 378.932 129.342 375.519L129.763 370.504C132.645 370.769 136.552 371.192 141.161 371.862C150.729 373.303 160.195 375.354 169.501 378.003C174.325 379.366 180.342 381.234 187.194 383.76Z" fill="url(#paint16_linear_1424_1613)"/>
<path d="M174.397 396.38C173.639 401.271 172.254 406.043 170.277 410.58C169.431 412.523 168.478 414.416 167.421 416.252C155.499 415.203 143.789 412.441 132.654 408.053C132.049 400.837 132.87 393.573 135.07 386.674C148.597 387.888 161.859 391.161 174.397 396.38Z" fill="url(#paint17_linear_1424_1613)"/>
<path d="M181.908 396.896L186.893 396.052L192.728 385.184L211.551 389.484C212.373 391.463 213.195 393.443 214.017 395.424C212.415 403.757 210.814 412.09 209.214 420.424L197.655 418.776C195.602 419.741 193.339 420.172 191.075 420.028C184.888 419.596 181.27 414.824 180.686 414.026L170.37 412.895C171.305 409.762 172.278 406.596 173.289 403.397C174.057 400.969 174.833 398.569 175.616 396.198L181.908 396.896Z" fill="#FDBE00"/>
<path d="M197.243 391.34C200.521 393.355 202.136 396.611 202.261 396.865C204.062 400.601 203.438 404.168 202.858 407.435C202.231 410.954 201.689 414.034 199.037 416.527C198.428 417.099 195.425 419.826 191.03 419.676C185.032 419.47 181.742 414.09 181.357 413.434C178.593 408.745 179.162 402.445 182.761 397.388L186.893 396.051L190.111 391.126C191.023 390.687 193.111 389.847 195.428 390.503C196.07 390.693 196.681 390.975 197.243 391.34Z" fill="url(#paint18_linear_1424_1613)"/>
<path d="M134.056 387.12L131.386 403.312L122.337 400.908C121.509 401.512 118.586 403.509 114.594 403.177C108.482 402.667 105.453 397.177 105.243 396.76L93.3339 394.524C93.3267 391.037 93.673 387.558 94.3674 384.14C95.7653 377.332 98.4967 370.867 102.404 365.119L124.768 369.124L123.57 380.112L133.969 386.114L134.056 387.12Z" fill="#FDBE00"/>
<path d="M127.278 385.158C127.356 386.122 127.944 394.96 121.713 399.687C120.806 400.376 117.961 402.544 114.123 402.188C108.857 401.697 106.038 396.831 105.547 395.989C102.194 390.198 104.629 383.96 105.348 382.33C106.048 380.751 108.097 376.11 113.191 374.371C114.491 373.925 118.192 372.443 121.132 374.367C122.063 374.992 122.812 375.853 123.304 376.86C123.018 378.186 123.169 379.569 123.735 380.801C124.907 383.292 127.361 384.027 127.747 384.135L127.278 385.158Z" fill="url(#paint19_linear_1424_1613)"/>
<path d="M120.009 383.188C121.753 385.558 120.697 388.446 120.434 389.201C119.481 391.829 116.741 394.837 114.198 394.31C111.379 393.728 109.894 389.042 110.854 385.645C110.981 385.192 111.997 381.578 115.062 381.031C117.047 380.675 118.984 381.786 120.009 383.188Z" fill="#2D3D3F"/>
<path d="M135.643 387.242C134.77 392.478 133.896 397.715 133.022 402.952L121.535 400.131C123.681 397.905 125.337 395.253 126.394 392.346C127.451 389.44 127.885 386.344 127.67 383.259L135.643 387.242Z" fill="#485A08"/>
<path d="M210.501 413.746C209.335 413.823 208.165 413.719 207.031 413.438C206.418 413.286 205.818 413.082 205.239 412.828C206.16 410.587 206.794 408.239 207.124 405.839C207.571 402.571 208.228 397.78 205.93 393.591C202.375 387.109 193.973 386.135 192.846 386.021L190.665 390.881C191.727 390.634 195.065 390.007 198.329 391.798C201.878 393.752 203.006 397.306 203.516 398.926C206.401 407.997 198.733 417.085 197.889 418.067L207.117 420.147C207.64 420.119 208.145 419.944 208.574 419.643C208.953 419.362 209.388 418.872 209.952 416.606C210.185 415.663 210.368 414.708 210.501 413.746Z" fill="#CE9619"/>
<path d="M171.065 395.483C168.371 403.276 160.481 407.936 152.769 406.614C144.363 405.174 138.238 396.987 139.358 388.047L135.468 386.724C134.146 391.74 133.375 396.886 133.169 402.07C133.077 404.42 133.107 406.643 133.221 408.722C144.47 412.398 156.146 414.61 167.961 415.302C168.626 413.438 169.637 410.731 171.029 407.525C173.973 400.734 176.104 397.489 174.869 395.994C174.446 395.48 173.487 395.011 171.065 395.483Z" fill="#CE9619"/>
<path d="M121.005 368.844C117.855 368.493 111.544 367.789 106.68 371.661C102.151 375.266 101.244 380.958 100.774 383.897C100.497 385.64 100.412 387.408 100.519 389.17C99.3736 389.456 98.1821 389.507 97.0162 389.321C95.8503 389.135 94.7342 388.715 93.7348 388.086C92.6083 389.815 92.444 391.899 93.3483 393.484C93.8369 394.304 94.5647 394.956 95.4341 395.351C101.193 395.904 103.594 396.424 104.416 396.869C104.469 396.904 104.528 396.928 104.591 396.939C104.654 396.949 104.718 396.946 104.779 396.929C105.429 396.642 104.341 393.527 103.901 390.401C103.531 387.773 103.096 384.687 104.419 381.638C105.876 378.276 108.761 376.575 110.36 375.617C111.959 374.658 114.414 373.219 117.827 373.392C120.142 373.532 122.365 374.349 124.219 375.743C124.627 373.743 125.034 371.748 125.44 369.758C123.993 369.32 122.508 369.014 121.005 368.844Z" fill="#CE9619"/>
<path d="M186.638 385.263C177.612 382.347 167.666 379.555 156.891 377.121C147.355 374.969 138.305 373.355 129.85 372.15C129.95 371.205 130.051 370.262 130.153 369.318C138.915 370.887 148.048 372.746 157.511 374.948C167.721 377.325 177.421 379.893 186.582 382.57L187.363 383.23C187.12 383.908 186.879 384.585 186.638 385.263Z" fill="#F0FBB9"/>
<path d="M183.42 396.058C181.977 397.955 180.993 400.16 180.544 402.501C178.77 410.689 182.491 418.444 188.854 419.822C195.216 421.201 201.81 415.681 203.585 407.493C205.359 399.305 201.638 391.551 195.278 390.173C192.917 389.661 191.619 389.737 189.454 390.91" stroke="black" stroke-width="2.1518" stroke-miterlimit="10"/>
<path d="M127.139 383.3C127.667 385.624 127.651 388.039 127.09 390.356C125.316 398.543 118.719 404.063 112.357 402.684C105.994 401.306 102.276 393.551 104.05 385.364C105.824 377.176 112.421 371.656 118.781 373.034C121.142 373.546 122.292 374.153 123.778 376.117" stroke="black" stroke-width="2.1518" stroke-miterlimit="10"/>
<path d="M114.109 394.597C111.121 393.949 109.374 390.308 110.207 386.463C111.04 382.619 114.138 380.027 117.126 380.674C120.114 381.322 121.861 384.963 121.028 388.808C120.195 392.652 117.097 395.244 114.109 394.597Z" stroke="black" stroke-width="2.1518" stroke-miterlimit="10"/>
<path d="M196.817 418.583C199.634 419.243 203.194 419.884 206.011 420.544C206.42 420.697 206.856 420.765 207.293 420.745C207.729 420.725 208.157 420.616 208.55 420.426C208.995 420.187 209.379 419.849 209.673 419.439C209.968 419.028 210.164 418.556 210.248 418.058C211.065 414.432 211.829 410.609 212.51 406.598C213.139 402.887 213.648 399.307 214.051 395.87C213.986 394.501 213.586 393.169 212.885 391.991C212.184 390.813 211.205 389.826 210.033 389.116L191.248 384.121C190.377 383.672 189.268 383.129 187.953 382.593C186.762 382.109 185.547 381.685 184.313 381.324C151.474 371.658 129.777 369.273 129.777 369.273C128.092 369.088 126.637 368.945 125.494 368.838L107.417 365.021C106.137 364.693 104.789 364.744 103.538 365.167C101.833 365.785 100.431 367.036 99.6225 368.659C96.4361 375.979 94.1516 383.658 92.8192 391.529C92.8382 392.375 93.1059 393.196 93.589 393.891C93.9523 394.382 94.4109 394.794 94.9373 395.103C95.4637 395.412 96.0471 395.612 96.6526 395.69L104.769 396.927" stroke="black" stroke-width="2.1518" stroke-miterlimit="10"/>
<path d="M192.205 384.885L188.7 393.374C188.278 394.245 187.645 394.998 186.858 395.564C184.698 397.101 182.211 396.53 181.787 396.426C173.214 394.751 164.421 392.878 155.406 390.809C147.027 388.878 138.895 386.87 131.01 384.784C129.561 384.356 128.188 383.706 126.938 382.858C125.778 382.068 124.837 381.41 124.268 380.157C123.917 379.368 123.765 378.505 123.826 377.644L125.436 369.755" stroke="black" stroke-width="2.1518" stroke-miterlimit="10"/>
<path d="M187.366 383.222L186.549 386.849C186.418 387.429 186.084 387.945 185.608 388.302C185.132 388.659 184.544 388.835 183.949 388.799C165.599 387.692 147.573 383.449 130.656 376.255C130.141 376.038 129.714 375.655 129.442 375.169C129.169 374.682 129.066 374.118 129.15 373.566C129.332 372.387 129.513 371.208 129.692 370.029" stroke="black" stroke-width="1.43453" stroke-miterlimit="10"/>
<path d="M170.685 394.957C169.972 399.962 168.478 404.823 166.258 409.365C166.044 409.8 165.707 410.162 165.288 410.406C164.869 410.651 164.388 410.767 163.904 410.739C155.293 410.279 146.811 408.441 138.782 405.296C138.323 405.119 137.929 404.809 137.649 404.405C137.368 404.001 137.216 403.523 137.21 403.032C137.152 397.687 137.952 392.368 139.58 387.278" stroke="black" stroke-width="1.43453" stroke-miterlimit="10"/>
<path d="M174.932 395.576C174.027 401.953 172.125 408.147 169.294 413.932C169.023 414.485 168.595 414.946 168.063 415.258C167.532 415.569 166.92 415.717 166.305 415.683C155.339 415.099 144.538 412.759 134.314 408.752C133.73 408.526 133.227 408.131 132.87 407.618C132.513 407.104 132.318 406.495 132.31 405.869C132.245 399.064 133.271 392.293 135.35 385.813" stroke="black" stroke-width="2.1518" stroke-miterlimit="10"/>
<path d="M200.255 284.555C199.22 288.647 198.186 292.738 197.151 296.83C195.46 297.734 186.19 302.481 175.176 298.899C166.614 296.115 162.072 289.949 160.685 287.892C161.678 283.879 162.672 279.864 163.665 275.849C169.103 277.523 174.906 279.136 181.056 280.617C187.769 282.233 194.188 283.522 200.255 284.555Z" fill="#CC9A1F"/>
<path d="M134.343 274.466C129.341 271.244 126.761 270.547 126.761 270.547C124.268 269.873 117.556 268.061 112.617 271.831C111.444 272.736 110.461 273.865 109.726 275.151C110.086 275.104 110.608 275.042 111.242 274.986C113.261 274.8 114.27 274.708 115.392 274.841C116.576 274.985 117.728 275.323 118.801 275.841C119.226 276.049 119.636 276.286 120.028 276.551L126.544 276.876" fill="#CC9A1F"/>
<path d="M213.715 292.896C214.532 295.345 214.608 297.98 213.932 300.472C213.673 301.39 213.306 302.274 212.839 303.106C211.649 303.424 210.428 303.611 209.197 303.664C206.783 303.758 204.375 303.342 202.132 302.444C203.38 300.904 204.218 299.073 204.567 297.122C205.265 293.117 202.034 289.248 202.838 288.705C202.932 288.642 203.123 288.592 203.556 288.811C207.117 289.692 210.539 291.064 213.722 292.888L213.715 292.896Z" fill="#030802"/>
<path d="M158.797 278.162C157.211 279.226 155.885 280.634 154.918 282.281C153.526 284.709 152.95 287.52 153.277 290.3C149.669 290.763 146.004 290.471 142.515 289.443C142.452 287.445 142.388 285.447 142.324 283.447L133.639 282.268C133.326 280.81 133.398 279.296 133.849 277.876C134.096 277.115 134.452 276.395 134.905 275.737C142.943 274.39 151.194 275.232 158.794 278.175L158.797 278.162Z" fill="#030802"/>
<path d="M200.466 287.339C201.793 288.18 203.848 289.802 204.555 292.368C206.381 298.978 197.426 305.153 196.985 305.452C196.2 305.979 191.509 309.04 185.628 308.473C183.757 308.29 183.869 307.943 178.997 306.551C173.009 304.841 171.693 305.033 168.38 303.942C165.519 303.001 161.787 301.699 158.418 298.571C156.27 296.573 152.094 292.896 152.225 287.701C152.248 286.813 152.329 283.532 154.966 281.192C157.55 278.907 160.75 279.123 161.403 279.194C161.17 282.102 160.935 285.009 160.698 287.916C163.325 291.78 166.906 294.901 171.092 296.976C183.133 302.845 195.244 297.056 196.933 296.213L200.466 287.339Z" fill="#454E4D"/>
<path d="M213.722 302.851L213.728 303.09C213.819 308.446 212.084 313.674 208.807 317.912L191.791 308.248L200.089 302.056C204.4 303.908 209.225 304.189 213.722 302.851Z" fill="#1E2D34"/>
<path d="M152.637 291.403C152.637 291.403 154.108 294.505 155.35 296.468C156.562 298.363 158.07 300.052 159.816 301.469C155.94 301.122 152.043 301.069 148.159 301.31C145.574 301.471 143.161 301.752 140.941 302.096C138.422 299.539 136.502 296.455 135.32 293.066C134.138 289.677 133.724 286.068 134.106 282.499L141.471 283.688C141.295 285.027 141.53 286.387 142.145 287.59C142.808 288.818 143.833 289.811 145.08 290.437C145.08 290.437 146.617 291.261 152.637 291.403Z" fill="#1E2D34"/>
<path d="M230.55 339.731L226.302 358.649C220.549 368.534 212.316 376.748 202.418 382.479L194.7 382.582C195.979 375.639 198.858 369.089 203.108 363.451C204.892 363.315 208.687 362.76 211.967 359.91C213.678 358.425 214.58 356.9 215.31 355.641C216.521 353.554 218.457 349.476 218.713 343.465L230.55 339.731Z" fill="#1E2D34"/>
<path d="M126.776 367.893L120.686 364.577C114.238 355.197 109.538 344.729 106.812 333.677L108.844 323.794L118.454 327.763C117.643 329.968 117.383 332.338 117.697 334.665C118.693 341.71 124.827 345.346 125.738 345.878C127.801 353.034 128.156 360.575 126.776 367.893Z" fill="#1E2D34"/>
<path d="M221.59 330.102C219.926 336.448 218.262 342.794 216.598 349.141Z" fill="#A3A3A3"/>
<path d="M221.709 330.778L215.453 356.809C214.284 358.856 212.564 360.533 210.488 361.651C207.821 363.039 204.751 363.442 201.816 362.79C198.619 361.76 194.734 360.537 190.301 359.201C187.719 358.422 182.626 356.906 175.959 355.049C165.905 352.265 160.879 350.871 158.6 350.476C147.801 348.596 142.616 350.01 131.454 346.999C129.151 346.377 125.994 345.406 123.306 342.607C120.353 339.529 119.471 335.804 119.162 333.714C120.558 325.874 121.952 318.036 123.346 310.199C127.484 307.703 131.919 305.736 136.546 304.343C145.227 301.769 154.382 301.221 163.307 302.741C165.935 303.973 168.661 304.984 171.456 305.765C177.318 307.395 183.415 308.016 189.485 307.601C202.533 311.464 213.889 319.628 221.706 330.767L221.709 330.778Z" fill="url(#paint20_linear_1424_1613)"/>
<path d="M198.175 325.909C194.602 334.657 191.03 343.403 187.457 352.148L145.63 343.378C146.029 334.017 146.43 324.657 146.83 315.298C148.829 313.966 160.043 306.782 174.86 309.901C189.49 312.988 196.84 323.855 198.175 325.909Z" fill="#F5B517"/>
<path d="M189.33 323.697C187.354 331.114 185.378 338.529 183.401 345.942L151.828 338.657L155.096 316.058C162.704 315.652 172.969 316.31 183.712 320.927C185.632 321.752 187.507 322.676 189.33 323.697Z" fill="#F0FBB9"/>
<path d="M181.183 357.891C180.587 363.367 179.118 368.711 176.831 373.722C176.106 374.312 173.827 376 170.679 375.866C169.667 375.821 168.671 375.596 167.737 375.203C165.673 374.677 163.564 374.163 161.413 373.66C158.73 373.033 156.093 372.454 153.504 371.923L149.592 370.705C147.476 369.014 145.872 366.769 144.959 364.219C142.451 357.048 146.91 350.638 147.422 349.924C159.064 350.499 170.504 353.195 181.178 357.877L181.183 357.891Z" fill="#485A08"/>
<path d="M201.547 363.959C197.197 369.614 194.054 376.101 192.311 383.02C191.766 382.714 191.183 382.405 190.56 382.103C189.891 381.78 189.246 381.494 188.627 381.24C189.611 374.417 192.416 367.985 196.747 362.621C197.612 362.833 198.499 363.066 199.406 363.32C200.144 363.521 200.858 363.734 201.547 363.959Z" fill="#454E4D"/>
<path d="M194.324 361.96C192.095 366.174 190.109 370.512 188.377 374.953C187.641 376.831 186.971 378.671 186.366 380.474C184.246 379.816 182.094 379.164 179.909 378.519C178.083 377.982 176.272 377.461 174.476 376.955C176.684 375.026 178.52 372.709 179.891 370.118C181.886 366.308 182.836 362.038 182.646 357.741C186.711 358.614 190.64 360.033 194.324 361.96Z" fill="#F5B517"/>
<path d="M146.669 349.847C145.7 352.599 145.033 355.449 144.679 358.345C144.244 361.942 143.91 365.013 145.438 368.275C145.869 369.195 146.411 370.058 147.052 370.846C145.448 370.452 143.789 370.076 142.076 369.718C139.988 369.284 137.961 368.915 136.004 368.598C135.744 365.216 135.457 361.795 135.146 358.334C134.843 354.912 134.515 351.529 134.162 348.186C136.462 348.545 138.818 348.882 141.232 349.196C143.064 349.429 144.876 349.646 146.669 349.847Z" fill="#F5B517"/>
<path d="M132.962 348.221C134.733 354.765 134.98 361.627 133.685 368.281C132.688 368.138 131.661 368.009 130.605 367.893C129.863 367.811 129.133 367.74 128.415 367.68C128.853 360.519 128.367 353.332 126.969 346.296L132.962 348.221Z" fill="#454E4D"/>
<path d="M250.754 325.933C247.15 328.545 243.125 331.244 238.674 333.871C232.345 337.608 225.751 340.878 218.945 343.653C219.793 339.011 220.641 334.367 221.489 329.72L208.806 317.911C211.906 309.932 213.785 301.532 214.383 292.993C217.021 293.698 222.941 295.565 227.97 300.772C234.498 307.532 235.545 315.498 235.813 318.054C241.45 319.181 246.64 321.917 250.754 325.933Z" fill="#2D3D3F"/>
<path d="M133.006 275.578C132.207 280.323 132.46 285.186 133.745 289.822C135.031 294.459 137.319 298.757 140.447 302.414C135.254 303.299 130.236 305.009 125.585 307.481L122.918 309.715C121.418 314.357 120.313 319.117 119.613 323.945C119.454 325.043 119.321 326.124 119.208 327.188C112.749 323.364 106.179 320.387 99.8302 315.715C105.337 313.238 110.337 309.764 114.58 305.467C114.58 305.467 121.366 298.606 124.15 289.984C124.808 287.993 124.95 285.867 124.562 283.806C124.174 281.745 123.269 279.816 121.931 278.201C124.617 277.587 127.319 276.954 130.038 276.303C131.035 276.063 132.024 275.821 133.006 275.578Z" fill="#2D3D3F"/>
<path d="M225.613 321.246C223.242 318.59 222.655 315.245 224.301 313.776C225.948 312.307 229.204 313.27 231.574 315.926C233.945 318.583 234.532 321.927 232.886 323.396C231.24 324.865 227.983 323.903 225.613 321.246Z" fill="#5B627E"/>
<path d="M216.116 312.758C213.121 310.834 211.659 307.769 212.852 305.912C214.044 304.056 217.439 304.111 220.435 306.035C223.43 307.96 224.892 311.024 223.699 312.881C222.507 314.737 219.112 314.682 216.116 312.758Z" fill="#5B627E"/>
<path d="M124.046 300.372C122.944 298.46 124.552 295.469 127.637 293.692C130.721 291.914 134.115 292.022 135.217 293.934C136.319 295.846 134.711 298.837 131.626 300.614C128.541 302.392 125.148 302.284 124.046 300.372Z" fill="#5B627E"/>
<path d="M114.647 310.955C113.067 309.416 113.799 306.1 116.283 303.55C118.768 300.999 122.063 300.179 123.643 301.719C125.224 303.258 124.491 306.574 122.007 309.124C119.523 311.675 116.228 312.495 114.647 310.955Z" fill="#5B627E"/>
<path d="M108.279 321.962C106.334 320.919 106.123 317.53 107.806 314.392C109.49 311.255 112.43 309.557 114.374 310.6C116.319 311.644 116.53 315.033 114.847 318.17C113.164 321.307 110.223 323.005 108.279 321.962Z" fill="#5B627E"/>
<path d="M230.772 331.208C228.995 328.123 229.103 324.729 231.015 323.627C232.927 322.526 235.917 324.133 237.695 327.218C239.473 330.303 239.364 333.697 237.453 334.798C235.541 335.9 232.55 334.293 230.772 331.208Z" fill="#5B627E"/>
<path d="M219.986 334.188C219.232 335.962 214.597 346.377 203.243 350.02C198.932 351.374 194.344 351.594 189.923 350.661L185.995 352.887L146.824 344.384L143.848 341.014C138.411 339.501 133.547 336.408 129.871 332.126C122.926 323.944 123.12 314.505 123.213 312.26C121.75 320.4 120.286 328.54 118.819 336.68C120.149 339.411 122.076 341.808 124.457 343.694C128.541 346.868 132.879 347.518 134.608 347.78C144.67 349.303 154.604 351.714 164.725 352.773C172.637 353.603 183.922 355.876 197.571 362.48C200.809 363.689 204.375 363.686 207.61 362.471C210.846 361.257 213.534 358.912 215.176 355.871L221.67 335.295L219.986 334.188Z" fill="#CE9619"/>
<path d="M193.366 336.494L189.144 330.029C189.119 327.732 189.103 325.437 189.096 323.143C178.634 319.039 167.505 316.902 156.267 316.837C155.472 319.479 154.68 322.12 153.89 324.761C151.1 325.326 148.47 326.498 146.184 328.195C146.487 323.842 146.79 319.49 147.092 315.139C149.286 313.688 159.654 307.158 173.445 309.648C188.721 312.391 196.381 324.048 197.602 325.978L193.366 336.494Z" fill="#B78115"/>
<path d="M191.335 341.817C190.19 343.217 188.729 344.325 187.072 345.049C185.908 345.557 184.666 345.864 183.399 345.955L153.86 340.221C151.986 339.709 150.238 338.813 148.727 337.589C147.217 336.366 145.977 334.842 145.087 333.115C145.034 336.69 144.985 340.264 144.938 343.837L186.889 353.075L191.335 341.817Z" fill="#CE9619"/>
<path d="M180.851 361.608C179.793 362.478 172.793 368.04 163.13 366.45C152.085 364.631 147.214 355.056 146.761 354.122C146.156 355.591 144.37 360.472 146.312 365.931C147.004 367.864 148.071 369.642 149.451 371.163C151.941 371.607 154.5 372.117 157.128 372.693C161.575 373.675 165.778 374.769 169.739 375.93C172.649 375.336 175.297 373.836 177.303 371.646C181.002 367.548 180.897 362.636 180.851 361.608Z" fill="#404314"/>
<path d="M189.279 324.501L184.642 344.457C184.525 344.959 184.215 345.395 183.779 345.67C183.343 345.944 182.817 346.037 182.314 345.926L153.006 339.511C152.508 339.402 152.072 339.102 151.79 338.676C151.509 338.25 151.406 337.731 151.501 337.23L155.278 317.484C155.367 317.016 155.623 316.596 155.999 316.303C156.376 316.011 156.846 315.866 157.322 315.896C167.794 316.577 178.123 318.701 188.014 322.209C188.47 322.369 188.851 322.69 189.084 323.113C189.318 323.536 189.387 324.03 189.279 324.501Z" stroke="black" stroke-width="2.1518" stroke-miterlimit="10"/>
<path d="M197.396 327.098C194.472 334.971 191.548 342.843 188.624 350.716C188.336 351.489 187.778 352.133 187.053 352.527C186.327 352.921 185.484 353.039 184.678 352.86L147.146 344.467C146.344 344.286 145.633 343.822 145.144 343.16C144.656 342.498 144.422 341.683 144.487 340.863C145.121 332.898 145.755 324.933 146.388 316.97C146.431 316.416 146.61 315.88 146.908 315.411C147.206 314.941 147.614 314.552 148.096 314.276C152.108 311.978 161.842 307.457 174.186 309.832C186.59 312.217 193.991 320.106 196.894 323.799C197.253 324.26 197.488 324.806 197.576 325.383C197.664 325.961 197.602 326.551 197.396 327.098Z" stroke="black" stroke-width="2.1518" stroke-miterlimit="10"/>
<path d="M163.287 302.075C157.705 301.46 152.07 301.488 146.495 302.159C139.615 302.989 132.88 304.757 126.479 307.412C125.518 307.812 124.669 308.438 124.003 309.238C123.337 310.037 122.876 310.986 122.657 312.003L118.274 332.231C118.041 333.289 118.081 334.39 118.391 335.428C119.341 338.615 121.231 341.441 123.812 343.537C126.394 345.633 129.548 346.902 132.862 347.177C142.627 348.393 153.32 350.172 164.732 352.762C176.05 355.332 186.385 358.315 195.662 361.411C195.806 361.458 195.943 361.508 196.085 361.568C199.138 362.838 202.51 363.133 205.737 362.411C208.965 361.689 211.89 359.986 214.111 357.535C214.795 356.785 215.292 355.882 215.561 354.903L221.526 333.264C221.835 332.149 221.839 330.971 221.537 329.854C221.235 328.738 220.637 327.723 219.808 326.916C215.014 322.263 209.687 318.193 203.938 314.791C199.043 311.892 193.862 309.505 188.478 307.667" stroke="black" stroke-width="2.1518" stroke-miterlimit="10"/>
<path d="M221.112 330.018L198.875 326.087" stroke="black" stroke-width="1.43453" stroke-miterlimit="10"/>
<path d="M215.12 354.024C213.916 354.53 212.66 354.903 211.376 355.136C211.15 355.179 210.928 355.214 210.706 355.252C210.36 355.302 210.009 355.296 209.665 355.236C205.558 354.482 201.282 353.579 196.863 352.493C194.349 351.875 191.907 351.231 189.537 350.561" stroke="black" stroke-width="1.43453" stroke-miterlimit="10"/>
<path d="M123.84 309.302L145.707 314.927" stroke="black" stroke-width="1.43453" stroke-miterlimit="10"/>
<path d="M118.797 333.352C119.79 334.386 120.881 335.322 122.055 336.146C122.246 336.276 122.432 336.403 122.616 336.529C122.91 336.717 123.233 336.856 123.571 336.942C127.621 337.958 131.888 338.903 136.359 339.746C138.903 340.224 141.392 340.648 143.829 341.018" stroke="black" stroke-width="1.43453" stroke-miterlimit="10"/>
<path d="M200.494 283.454L198.232 293.893C198.023 294.854 197.579 295.749 196.94 296.497C196.301 297.244 195.487 297.823 194.57 298.179C189.088 300.371 183.066 300.828 177.316 299.489C171.566 298.15 166.365 295.079 162.416 290.69C161.792 290.006 161.338 289.185 161.089 288.293C160.841 287.402 160.804 286.464 160.983 285.556L163.064 274.869" stroke="black" stroke-width="2.1518" stroke-miterlimit="10"/>
<path d="M200.717 287.54C201.606 288.364 204.681 291.414 204.532 295.545C204.327 301.201 198.232 304.431 196.394 305.397C189.582 309.006 182.584 307.393 175.312 305.714C168.041 304.034 160.374 302.265 155.898 295.587C154.672 293.755 151.675 289.284 153.449 284.699C155.278 279.971 160.828 278.62 161.534 278.458" stroke="black" stroke-width="2.1518" stroke-miterlimit="10"/>
<path d="M203.252 363.266C198.376 369.345 194.897 376.423 193.062 383.998" stroke="black" stroke-width="2.1518" stroke-miterlimit="10"/>
<path d="M195.996 361.916C194.02 365.168 192.251 368.541 190.702 372.017C189.31 375.135 188.099 378.331 187.075 381.588" stroke="black" stroke-width="2.1518" stroke-miterlimit="10"/>
<path d="M126.05 345.069C128.169 352.543 128.755 360.368 127.774 368.074" stroke="black" stroke-width="2.1518" stroke-miterlimit="10"/>
<path d="M133.558 347.871C134.963 354.893 135.226 362.095 134.337 369.201" stroke="black" stroke-width="2.1518" stroke-miterlimit="10"/>
<path d="M182.117 357.677C181.726 360.724 181.096 363.735 180.233 366.684C179.316 369.818 178.835 371.413 177.705 372.8C174.794 376.38 169.61 376.679 167.157 376.641" stroke="black" stroke-width="2.1518" stroke-miterlimit="10"/>
<path d="M192.979 365.553L182.188 362.771" stroke="black" stroke-width="1.43453" stroke-miterlimit="10"/>
<path d="M190.915 370.679L180.122 367.897" stroke="black" stroke-width="1.43453" stroke-miterlimit="10"/>
<path d="M188.872 376.267L178.078 373.484" stroke="black" stroke-width="1.43453" stroke-miterlimit="10"/>
<path d="M147.427 349.938C146.522 352.874 145.849 355.876 145.414 358.918C144.951 362.151 144.729 363.802 145.184 365.532C146.352 369.995 150.947 372.414 153.196 373.394" stroke="black" stroke-width="2.1518" stroke-miterlimit="10"/>
<path d="M134.269 352.611L145.244 354.545" stroke="black" stroke-width="1.43453" stroke-miterlimit="10"/>
<path d="M134.027 358.137L145.004 360.071" stroke="black" stroke-width="1.43453" stroke-miterlimit="10"/>
<path d="M133.583 364.065L144.561 366" stroke="black" stroke-width="1.43453" stroke-miterlimit="10"/>
<path d="M251.003 324.557C241.631 332.495 230.963 338.76 219.465 343.078" stroke="black" stroke-width="2.1518" stroke-miterlimit="10"/>
<path d="M213.743 291.621C214.714 300.486 213.333 309.451 209.74 317.614" stroke="black" stroke-width="2.1518" stroke-miterlimit="10"/>
<path d="M228.235 299.867C226.561 305.694 224.373 311.361 221.694 316.8C220.414 319.394 219.094 321.791 217.764 324.014" stroke="black" stroke-width="2.1518" stroke-miterlimit="10"/>
<path d="M240.751 318.71C237.764 321.336 234.46 323.578 230.918 325.384C228.016 326.851 224.966 328.004 221.819 328.824" stroke="black" stroke-width="2.1518" stroke-miterlimit="10"/>
<path d="M213.314 299.074L205.315 296.715" stroke="black" stroke-width="1.43453" stroke-miterlimit="10"/>
<path d="M213.576 302.128C212.732 302.781 211.76 303.252 210.724 303.509C210.121 303.655 209.175 303.805 206.773 303.468C205.077 303.227 203.402 302.851 201.765 302.344" stroke="black" stroke-width="1.43453" stroke-miterlimit="10"/>
<path d="M231.538 338.293C230.026 344.837 228.515 351.384 227.006 357.932C226.796 358.841 226.386 359.691 225.806 360.421C219.21 368.681 211.416 375.909 202.682 381.864C202.032 382.304 201.305 382.621 200.54 382.799C199.716 382.986 198.843 383.159 197.909 383.301C196.542 383.51 195.164 383.639 193.782 383.689" stroke="black" stroke-width="2.1518" stroke-miterlimit="10"/>
<path d="M108.37 323.175C107.035 329.756 108.008 324.953 106.676 331.537C106.488 332.449 106.509 333.392 106.736 334.296C109.322 344.545 113.426 354.351 118.911 363.387C119.319 364.058 119.849 364.648 120.474 365.125C121.141 365.636 121.869 366.153 122.66 366.674C123.818 367.43 125.02 368.118 126.259 368.735" stroke="black" stroke-width="2.1518" stroke-miterlimit="10"/>
<path d="M118.805 326.989C116.384 326.039 113.862 324.957 111.263 323.726C107.129 321.771 103.11 319.582 99.2246 317.171" stroke="black" stroke-width="2.1518" stroke-miterlimit="10"/>
<path d="M161.392 277.62C147.657 274.218 133.283 274.363 119.62 278.04" stroke="black" stroke-width="2.1518" stroke-miterlimit="10"/>
<path d="M134.109 274.86C133.509 274.237 132.857 273.667 132.16 273.156C131.392 272.592 130.573 272.1 129.714 271.689C126.557 270.14 123.061 269.707 121.54 269.57C119.724 269.412 118.277 269.284 116.338 269.678C114.655 269.968 113.052 270.613 111.637 271.57C109.799 272.876 108.38 274.688 107.552 276.785" stroke="black" stroke-width="2.1518" stroke-miterlimit="10"/>
<path d="M141.094 302.27C137.924 298.774 135.617 294.585 134.358 290.038C133.099 285.491 132.923 280.711 133.844 276.084" stroke="black" stroke-width="2.1518" stroke-miterlimit="10"/>
<path d="M152.573 285.026L134.137 282.167" stroke="black" stroke-width="1.43453" stroke-miterlimit="10"/>
<path d="M152.594 290.854C151.17 290.945 149.963 290.947 149.04 290.922C146.422 290.858 145.369 290.573 144.605 290.282C143.881 290.01 143.505 289.866 143.119 289.516C141.509 288.066 142.076 284.592 142.201 284.115" stroke="black" stroke-width="1.43453" stroke-miterlimit="10"/>
<path d="M127.275 306.511C125.588 304.621 124.014 302.632 122.561 300.557C121.513 299.056 120.593 297.595 119.772 296.201" stroke="black" stroke-width="2.1518" stroke-miterlimit="10"/>
<path d="M120.786 317.17C118.683 314.997 116.549 312.629 114.412 310.046C113.499 308.947 112.624 307.858 111.79 306.779" stroke="black" stroke-width="2.1518" stroke-miterlimit="10"/>
</g>
<defs>
<linearGradient id="paint0_linear_1424_1613" x1="230.649" y1="43.6904" x2="176.696" y2="279.991" gradientUnits="userSpaceOnUse">
<stop stop-color="#F1E786"/>
<stop offset="1" stop-color="#FABE0E"/>
</linearGradient>
<linearGradient id="paint1_linear_1424_1613" x1="213.201" y1="130.576" x2="177.052" y2="266.096" gradientUnits="userSpaceOnUse">
<stop stop-color="#46516F"/>
<stop offset="0.97" stop-color="#222E3A"/>
</linearGradient>
<linearGradient id="paint2_linear_1424_1613" x1="314.913" y1="108.723" x2="298.047" y2="182.59" gradientUnits="userSpaceOnUse">
<stop stop-color="#F1E786"/>
<stop offset="1" stop-color="#FABE0E"/>
</linearGradient>
<linearGradient id="paint3_linear_1424_1613" x1="130.328" y1="66.2312" x2="113.692" y2="139.098" gradientUnits="userSpaceOnUse">
<stop stop-color="#F1E786"/>
<stop offset="1" stop-color="#FABE0E"/>
</linearGradient>
<linearGradient id="paint4_linear_1424_1613" x1="342.332" y1="199.66" x2="321.306" y2="249.251" gradientUnits="userSpaceOnUse">
<stop stop-color="#F1E786"/>
<stop offset="1" stop-color="#FABE0E"/>
</linearGradient>
<linearGradient id="paint5_linear_1424_1613" x1="67.4803" y1="153.404" x2="59.2247" y2="191.711" gradientUnits="userSpaceOnUse">
<stop stop-color="#F1E786"/>
<stop offset="1" stop-color="#FABE0E"/>
</linearGradient>
<linearGradient id="paint6_linear_1424_1613" x1="261.894" y1="174.427" x2="235.718" y2="268.875" gradientUnits="userSpaceOnUse">
<stop stop-color="#EFFDBF"/>
<stop offset="0.95" stop-color="#FABE0E"/>
</linearGradient>
<linearGradient id="paint7_linear_1424_1613" x1="147.918" y1="141.387" x2="129.522" y2="228.848" gradientUnits="userSpaceOnUse">
<stop stop-color="#EFFDBF"/>
<stop offset="0.95" stop-color="#FABE0E"/>
</linearGradient>
<linearGradient id="paint8_linear_1424_1613" x1="356.827" y1="265.337" x2="316.871" y2="306.262" gradientUnits="userSpaceOnUse">
<stop stop-color="#5B627E"/>
<stop offset="1" stop-color="#1E323B"/>
</linearGradient>
<linearGradient id="paint9_linear_1424_1613" x1="324.781" y1="341.711" x2="261.013" y2="327.895" gradientUnits="userSpaceOnUse">
<stop stop-color="#F1E786"/>
<stop offset="0.79" stop-color="#FABE0E"/>
</linearGradient>
<linearGradient id="paint10_linear_1424_1613" x1="263.081" y1="313.668" x2="209.837" y2="302.132" gradientUnits="userSpaceOnUse">
<stop stop-color="#F1E786"/>
<stop offset="0.53" stop-color="#FABE0E"/>
</linearGradient>
<linearGradient id="paint11_linear_1424_1613" x1="74.1432" y1="293.003" x2="120.125" y2="301.551" gradientUnits="userSpaceOnUse">
<stop stop-color="#F1E786"/>
<stop offset="1" stop-color="#FABE0E"/>
</linearGradient>
<linearGradient id="paint12_linear_1424_1613" x1="81.819" y1="282.152" x2="71.4545" y2="279.907" gradientUnits="userSpaceOnUse">
<stop stop-color="#F1E786"/>
<stop offset="1" stop-color="#FABE0E"/>
</linearGradient>
<linearGradient id="paint13_linear_1424_1613" x1="47.3662" y1="344.761" x2="96.157" y2="347.765" gradientUnits="userSpaceOnUse">
<stop stop-color="#F1E786"/>
<stop offset="1" stop-color="#FABE0E"/>
</linearGradient>
<linearGradient id="paint14_linear_1424_1613" x1="60.1282" y1="341.687" x2="47.5473" y2="338.961" gradientUnits="userSpaceOnUse">
<stop stop-color="#F1E786"/>
<stop offset="1" stop-color="#FABE0E"/>
</linearGradient>
<linearGradient id="paint15_linear_1424_1613" x1="76.2502" y1="392.196" x2="39.8637" y2="384.312" gradientUnits="userSpaceOnUse">
<stop stop-color="#5B627E"/>
<stop offset="1" stop-color="#1E323B"/>
</linearGradient>
<linearGradient id="paint16_linear_1424_1613" x1="160.907" y1="366.059" x2="154.114" y2="397.049" gradientUnits="userSpaceOnUse">
<stop stop-color="#F1E786"/>
<stop offset="0.59" stop-color="#F6CF41"/>
<stop offset="1" stop-color="#FABE0E"/>
</linearGradient>
<linearGradient id="paint17_linear_1424_1613" x1="155.863" y1="386.196" x2="149.734" y2="413.832" gradientUnits="userSpaceOnUse">
<stop stop-color="#F1E786"/>
<stop offset="1" stop-color="#FABE0E"/>
</linearGradient>
<linearGradient id="paint18_linear_1424_1613" x1="194.589" y1="392.06" x2="189.337" y2="414.699" gradientUnits="userSpaceOnUse">
<stop stop-color="#F1E786"/>
<stop offset="1" stop-color="#FABE0E"/>
</linearGradient>
<linearGradient id="paint19_linear_1424_1613" x1="118.698" y1="375.421" x2="113.212" y2="397.996" gradientUnits="userSpaceOnUse">
<stop stop-color="#F1E786"/>
<stop offset="1" stop-color="#FABE0E"/>
</linearGradient>
<linearGradient id="paint20_linear_1424_1613" x1="174.964" y1="310.08" x2="165.164" y2="351.901" gradientUnits="userSpaceOnUse">
<stop stop-color="#F1E786"/>
<stop offset="1" stop-color="#FABE0E"/>
</linearGradient>
</defs>
</svg>
