<svg width="219" height="43" viewBox="0 0 219 43" fill="none" xmlns="http://www.w3.org/2000/svg">
<path fill-rule="evenodd" clip-rule="evenodd" d="M34.2479 25.3687V0.886719H24.745L0.568359 41.2206H10.0731L25.3399 15.7501V41.2206H34.2473L49.5141 15.7501V41.2206H58.424V0.886719H48.9211L34.2473 25.3687H34.2479ZM203.362 41.2206C213.218 41.2006 218.286 36.4912 218.286 29.2712C218.286 23.6606 215.335 20.3535 207.988 17.6575C207.004 17.2638 205.846 16.8755 204.516 16.4242L201.625 15.4703C201.105 15.2468 200.469 14.9663 199.832 14.6271C198.617 13.8972 198.269 13.1135 198.269 11.827C198.269 10.2806 199.597 9.08917 201.742 8.73786H212.209L218.244 0.886719H202.898C199.137 0.886719 195.955 1.89643 193.35 3.91403C190.815 5.82866 189.542 8.43258 189.48 11.6755C188.521 9.95835 187.281 8.35869 185.759 6.87835C181.593 2.88009 176.573 0.886719 170.695 0.886719H153.972L149.19 8.87596H170.696C174.177 8.87596 177.14 10.1328 179.538 12.5847C181.936 15.0366 183.134 18.0051 183.134 21.4867C183.134 24.9683 181.936 28.0483 179.538 30.5038C177.14 32.8988 174.177 34.0975 170.696 34.0975C167.214 34.0975 164.307 32.8988 161.91 30.4469C159.454 27.9896 158.256 24.9647 158.256 21.4867C158.256 18.6302 159.058 16.1196 160.674 13.9572H150.839C149.925 16.268 149.47 18.7744 149.47 21.4867C149.47 27.2512 151.524 32.1586 155.63 36.1478C159.739 40.0891 164.763 42.0867 170.695 42.0867C176.627 42.0867 181.593 40.0891 185.759 36.1478C189.864 32.1586 191.918 27.2518 191.918 21.4867C191.918 20.5279 191.861 19.5939 191.749 18.6866C193.402 20.6472 195.938 22.0949 199.252 23.2736C200.41 23.72 202.725 24.448 203.704 24.8399C204.805 25.1222 206.425 25.7909 207.178 26.3003C208.508 27.081 209.376 28.0944 209.376 29.5529C209.376 31.4106 207.846 33.0436 204.588 33.3694H193.44L187.403 41.2218H203.361L203.362 41.2206ZM134.128 0.886719C128.109 0.886719 123.069 2.83042 118.886 6.78689C118.449 7.20543 118.03 7.63184 117.636 8.06916C116.991 6.87835 116.136 5.77899 115.079 4.76565C112.399 2.20231 109.158 0.886719 105.417 0.886719H78.8344L83.6807 8.99104H105.186C108.022 8.99104 110.22 11.2491 110.22 14.3122C110.22 17.7277 107.906 19.9264 104.433 19.9264H90.2374C94.4895 27.0271 98.7439 34.1217 102.998 41.2206H112.932L104.854 27.7412C108.158 27.5232 110.775 26.6255 112.945 25.2603C113.652 29.5147 115.629 33.1544 118.887 36.238C123.07 40.1382 128.11 42.0855 134.129 42.0855C140.488 42.0855 146.275 39.335 150.342 34.5796L144.327 29.4778C141.632 32.516 138.254 34.063 134.129 34.063C130.516 34.063 127.544 32.8606 125.076 30.5117C122.669 28.1004 121.466 25.121 121.466 21.5146C121.466 17.9082 122.669 14.9239 125.133 12.5175C127.597 10.1116 130.574 8.90806 134.129 8.90806H143.456L148.259 0.886719H134.129H134.128ZM63.3236 41.2206V0.886719H72.8283L97.0032 41.2206H87.5003L72.2335 15.7501V33.5263H77.7611L82.3687 41.2206H63.3242H63.3236Z" fill="#BABABA"/>
</svg>
