<svg width="356" height="394" viewBox="0 0 356 394" fill="none" xmlns="http://www.w3.org/2000/svg">
<path d="M305.843 190.558C306.26 190.126 306.378 190.05 306.403 190.069C306.54 190.182 304.58 194.432 301.699 194.842C299.565 195.147 298.299 193.147 297.138 193.83C296.242 194.351 296.507 195.805 296.204 198.493C296.131 199.14 295.724 200.84 294.909 204.24C293.279 211.041 290.461 218.745 290.461 218.745C288.543 223.983 284.541 236.598 275.775 266.936C274.15 271.904 271.383 276.421 267.696 280.127C266.407 281.382 265.026 282.539 263.565 283.591C253.524 290.687 237.248 290.724 237.248 290.724C216.267 290.772 196.972 287.807 193.573 287.264C176.284 284.547 162.989 282.465 144.912 277.504C133.135 274.276 124.729 271.303 111.184 266.542C84.4747 257.126 91.0387 257.684 74.8302 252.51C74.0979 252.275 59.9781 247.772 48.9023 240.413C46.7802 239.003 43.4587 236.623 40.6882 232.423C40.1459 231.601 37.933 228.141 36.7147 222.62C35.715 217.917 35.6446 213.065 36.5076 208.335C40.6384 183.524 28.2781 239.703 40.9533 174.843C44.2403 158.022 46.9414 144.676 48.8245 135.491L45.9031 133.999L44.3187 127.409C48.2851 112.223 53.5614 100.931 57.6196 93.5016C61.6251 86.1705 64.6448 82.2333 68.511 78.7979C75.4357 72.6319 82.5568 70.2698 85.8617 69.2083C93.9945 66.639 102.624 66.0537 111.029 67.5013C129.018 55.8356 149.816 49.2273 171.239 48.3698L187.514 35.7461L219.135 43.2762L225.862 60.6697C245.982 71.1655 262.664 87.2207 273.922 106.925C279.089 108.322 284.013 110.501 288.523 113.385C291.652 115.389 297.777 119.405 302.791 127.046C305.278 130.931 307.166 135.168 308.392 139.614C309.792 144.587 309.86 149.283 309.943 158.465C310.1 175.897 308.202 183.369 306.826 187.696C306.442 188.902 306.09 189.888 305.843 190.558Z" fill="url(#paint0_linear_1424_1615)"/>
<path d="M271.504 153.042C277.258 161.159 278.104 169.351 278.45 173.187C278.868 177.846 278.457 181.372 276.767 190.424C273.614 207.383 272.023 215.861 269.059 224.723C266.781 231.539 263.781 237.999 257.785 250.926C255.716 255.388 253.396 260.207 249.072 265.574C243.989 271.865 239.957 274.161 237.736 275.22C235.026 276.512 232.73 277.051 230.563 277.557C226.128 278.588 221.576 279.02 217.027 278.843C193.354 278.034 177.409 274.957 177.409 274.957C161.624 271.91 146.411 268.974 125.517 262.435C105.778 256.255 95.0622 251.271 85.2007 244.981C74.9103 238.418 70.558 233.628 67.6051 228.535C62.8222 220.286 62.4736 212.57 62.1584 202.99C61.9756 197.424 62.303 194.467 68.441 160.091C70.4794 148.671 71.9194 140.941 76.4505 131.69C79.0115 126.461 81.7814 122.339 85.2438 118.623C87.6698 116.016 91.8132 111.579 98.1514 108.89C105.047 105.981 111.292 106.501 116.189 106.983C140.5 109.379 153.92 112.349 153.92 112.349C187.188 119.722 180.892 117.17 194.167 120.738C220.142 127.718 224.213 130.25 242.281 133.914C244.069 134.278 249.088 137.17 254.264 139.544C258.252 141.368 265.744 144.918 271.504 153.042Z" fill="#1F3133"/>
<path d="M231.544 106.594C232.087 107.38 233.168 108.956 233.225 111.174C233.285 113.559 232.144 116.056 230.194 117.44C227.921 119.053 225.188 118.704 223.478 118.441C215.279 117.186 211.179 116.559 206.294 113.934C200.245 110.676 186.375 106.248 152.023 101.131C149.082 100.042 146.978 97.6575 146.646 94.8996C146.479 93.2619 146.882 91.6167 147.788 90.2423C149.579 87.4978 152.762 86.8407 154.692 86.4732C157.93 85.8958 161.26 86.1313 164.385 87.1585C168.606 88.5064 152.313 82.9611 187.637 92.147C214.384 99.1013 211.475 99.0948 213.758 99.2214C213.758 99.2214 221.832 99.6656 228.168 103.479C229.506 104.261 230.658 105.323 231.544 106.594Z" fill="#1F3133"/>
<path d="M288.469 189.759C286.393 189.424 284.265 189.676 282.325 190.487C280.384 191.298 278.71 192.636 277.49 194.35C277.942 187.713 278.391 181.076 278.839 174.438C279.632 176.106 280.582 178.079 281.679 180.295C283.698 184.374 284.585 185.989 286.221 187.727C286.915 188.463 287.667 189.143 288.469 189.759Z" fill="#07040B"/>
<path d="M278.818 168.043L277.43 143.451C268.321 138.003 261.521 135.076 256.764 133.382C254.906 132.718 251.366 131.536 247.924 128.402C245.54 126.202 243.642 123.528 242.352 120.552C241.55 122.686 241.336 124.998 241.733 127.243C242.705 132.575 246.886 135.361 247.693 135.875C250.585 136.966 253.356 138.353 255.961 140.016C259.911 142.532 262.446 145.023 264.379 146.945C269.5 152.015 272.496 156.788 274.323 159.732C275.984 162.411 277.485 165.186 278.818 168.043Z" fill="#07040B"/>
<path d="M141.162 91.7671C139.898 95.6907 137.604 99.2031 134.52 101.938C131.435 104.673 127.674 106.53 123.627 107.315C118.088 106.5 112.45 106.634 106.956 107.71C94.6095 110.141 86.3653 116.746 82.6255 120.188C86.2037 113.481 89.7809 106.773 93.3574 100.065C99.7485 100.896 106.178 101.4 112.62 101.576C116.256 101.694 119.895 101.508 123.5 101.021C127.829 100.426 129.994 100.131 131.487 99.0966C135.034 96.6414 135.675 92.5986 139.462 91.8555C140.021 91.7458 140.594 91.7161 141.162 91.7671Z" fill="#07040B"/>
<path d="M76.8393 129.222C74.8849 134.732 72.9324 140.242 70.982 145.75C70.3739 143.402 69.178 141.247 67.5069 139.489C66.4012 138.336 65.1079 137.38 63.6821 136.661C68.1783 134.747 72.3089 132.069 75.8907 128.745L76.8393 129.222Z" fill="#07040B"/>
<path d="M212.633 52.8276C211.934 55.0308 211.237 57.235 210.54 59.4402L189.587 54.4644C190.02 52.2089 190.452 49.9533 190.883 47.6975L212.633 52.8276Z" fill="#4A5624"/>
<path d="M208.736 133.385L204.366 139.786L162.811 130.916C161.84 127.9 160.869 124.884 159.896 121.866C167.301 122.828 175.402 124.223 184.036 126.238C192.389 128.187 200.634 130.572 208.736 133.385Z" fill="#4A580B"/>
<path d="M259.624 155.818C266.351 163.019 266.735 173.259 267.034 181.261C267.355 189.817 265.921 196.136 264.073 204.279C262.513 211.141 260.801 216.019 257.373 225.78C256.094 229.418 248.303 251.315 239.806 260.847C238.434 262.375 236.921 263.771 235.287 265.018C234.334 265.732 231.007 268.121 225.245 269.934C221.189 271.19 216.977 271.871 212.732 271.955C201.678 272.303 192.391 270.756 187.396 269.898C173.553 267.525 166.627 266.338 159.137 264.642C148.403 262.214 133.847 258.87 115.531 252.286C111.9 250.977 96.5652 245.357 85.5296 236.078C78.6231 230.413 73.788 222.619 71.7801 213.915C70.5685 208.665 71.0321 205.549 72.2688 192.601C74.0848 173.582 73.4604 176.584 74.0236 172.997C76.4776 157.394 81.0084 146.784 83.966 139.964C87.5536 131.707 89.6882 128.891 91.7674 126.752C97.2283 121.125 103.595 118.837 106.423 117.855C110.54 116.449 114.845 115.669 119.193 115.54C123.954 115.313 127.951 115.949 135.751 117.233C139.255 117.809 143.77 118.631 149.03 119.799C150.44 121.522 151.541 123.475 152.284 125.573C153.446 128.91 153.69 132.498 152.991 135.961L208.682 149.017C209.311 145.403 211.018 142.063 213.58 139.436C215.212 137.798 217.15 136.495 219.284 135.603C224.805 136.771 233.887 139.117 242.558 143.611C245.023 144.894 247.418 146.306 249.734 147.841C250.291 148.208 256.31 152.271 259.624 155.818Z" fill="url(#paint1_linear_1424_1615)"/>
<g opacity="0.49">
<mask id="mask0_1424_1615" style="mask-type:luminance" maskUnits="userSpaceOnUse" x="71" y="115" width="197" height="158">
<path d="M259.624 155.818C266.351 163.019 266.735 173.259 267.034 181.261C267.355 189.817 265.921 196.136 264.073 204.279C262.513 211.141 260.801 216.019 257.373 225.78C256.094 229.418 248.303 251.315 239.806 260.847C238.434 262.375 236.921 263.771 235.287 265.018C234.334 265.732 231.007 268.121 225.245 269.934C221.189 271.19 216.977 271.871 212.732 271.955C201.678 272.303 192.391 270.756 187.396 269.898C173.553 267.525 166.627 266.338 159.137 264.642C148.403 262.214 133.847 258.87 115.531 252.286C111.9 250.977 96.5652 245.357 85.5296 236.078C78.6231 230.413 73.788 222.619 71.7801 213.915C70.5685 208.665 71.0321 205.549 72.2688 192.601C74.0848 173.582 73.4604 176.584 74.0236 172.997C76.4776 157.394 81.0084 146.784 83.966 139.964C87.5536 131.707 89.6882 128.891 91.7674 126.752C97.2283 121.125 103.595 118.837 106.423 117.855C110.54 116.449 114.845 115.669 119.193 115.54C123.954 115.313 127.951 115.949 135.751 117.233C139.255 117.809 143.77 118.631 149.03 119.799C150.44 121.522 151.541 123.475 152.284 125.573C153.446 128.91 153.69 132.498 152.991 135.961L208.682 149.017C209.311 145.403 211.018 142.063 213.58 139.436C215.212 137.798 217.15 136.495 219.284 135.603C224.805 136.771 233.887 139.117 242.558 143.611C245.023 144.894 247.418 146.306 249.734 147.841C250.291 148.208 256.31 152.271 259.624 155.818Z" fill="white"/>
</mask>
<g mask="url(#mask0_1424_1615)">
<path d="M25.7727 239.736L281.967 299.848L319.61 139.379L63.4161 79.2774L25.7727 239.736ZM281.715 299.431L26.1826 239.483L63.6762 79.6914L319.202 139.635L281.715 299.431Z" fill="#8E8E8E"/>
<path d="M27.8856 231.418L283.746 291.455L283.668 291.785L27.8081 231.748L27.8856 231.418Z" fill="#8E8E8E"/>
<path d="M29.7657 223.408L285.626 283.445L285.548 283.776L29.6882 223.739L29.7657 223.408Z" fill="#8E8E8E"/>
<path d="M31.6458 215.404L287.506 275.44L287.429 275.771L31.5683 215.734L31.6458 215.404Z" fill="#8E8E8E"/>
<path d="M33.5252 207.396L289.385 267.433L289.308 267.763L33.4477 207.727L33.5252 207.396Z" fill="#8E8E8E"/>
<path d="M35.4012 199.391L291.261 259.428L291.184 259.758L35.3237 199.721L35.4012 199.391Z" fill="#8E8E8E"/>
<path d="M37.2789 191.386L293.139 251.422L293.062 251.753L37.2014 191.716L37.2789 191.386Z" fill="#8E8E8E"/>
<path d="M39.158 183.378L295.018 243.415L294.941 243.745L39.0805 183.709L39.158 183.378Z" fill="#8E8E8E"/>
<path d="M41.0362 175.373L296.896 235.41L296.819 235.74L40.9587 175.704L41.0362 175.373Z" fill="#8E8E8E"/>
<path d="M42.9151 167.366L298.775 227.403L298.698 227.733L42.8376 167.696L42.9151 167.366Z" fill="#8E8E8E"/>
<path d="M44.7935 159.362L300.654 219.398L300.576 219.729L44.716 159.692L44.7935 159.362Z" fill="#8E8E8E"/>
<path d="M46.6717 151.356L302.532 211.393L302.454 211.723L46.5942 151.687L46.6717 151.356Z" fill="#8E8E8E"/>
<path d="M48.5513 143.346L304.412 203.383L304.334 203.713L48.4738 143.676L48.5513 143.346Z" fill="#8E8E8E"/>
<path d="M50.4292 135.341L306.29 195.378L306.212 195.708L50.3517 135.671L50.4292 135.341Z" fill="#8E8E8E"/>
<path d="M52.3084 127.334L308.169 187.371L308.091 187.701L52.2309 127.664L52.3084 127.334Z" fill="#8E8E8E"/>
<path d="M54.1868 119.329L310.047 179.366L309.97 179.696L54.1093 119.659L54.1868 119.329Z" fill="#8E8E8E"/>
<path d="M56.0648 111.324L311.925 171.36L311.848 171.691L55.9873 111.654L56.0648 111.324Z" fill="#8E8E8E"/>
<path d="M57.9439 103.316L313.804 163.353L313.727 163.683L57.8664 103.647L57.9439 103.316Z" fill="#8E8E8E"/>
<path d="M59.8223 95.3118L315.683 155.349L315.605 155.679L59.7448 95.6421L59.8223 95.3118Z" fill="#8E8E8E"/>
<path d="M61.7012 87.304L317.562 147.341L317.484 147.671L61.6237 87.6343L61.7012 87.304Z" fill="#8E8E8E"/>
<path d="M71.1284 81.2457L71.4587 81.3232L33.8863 241.446L33.556 241.369L71.1284 81.2457Z" fill="#8E8E8E"/>
<path d="M78.8826 83.0651L79.2129 83.1426L41.6405 243.266L41.3102 243.188L78.8826 83.0651Z" fill="#8E8E8E"/>
<path d="M86.635 84.8815L86.9653 84.959L49.3929 245.082L49.0626 245.005L86.635 84.8815Z" fill="#8E8E8E"/>
<path d="M94.2572 85.5968L94.5874 85.6753L56.5443 245.721L56.2141 245.643L94.2572 85.5968Z" fill="#8E8E8E"/>
<path d="M102.007 87.442L102.337 87.5205L64.2936 247.566L63.9634 247.488L102.007 87.442Z" fill="#8E8E8E"/>
<path d="M109.897 90.3424L110.228 90.4199L72.6551 250.543L72.3248 250.466L109.897 90.3424Z" fill="#8E8E8E"/>
<path d="M117.649 92.1613L117.979 92.2388L80.4068 252.362L80.0765 252.284L117.649 92.1613Z" fill="#8E8E8E"/>
<path d="M125.403 93.9781L125.733 94.0557L88.161 254.179L87.8306 254.101L125.403 93.9781Z" fill="#8E8E8E"/>
<path d="M133.157 95.8004L133.487 95.8779L95.9149 256.001L95.5846 255.924L133.157 95.8004Z" fill="#8E8E8E"/>
<path d="M140.909 97.6193L141.239 97.6968L103.667 257.82L103.337 257.742L140.909 97.6193Z" fill="#8E8E8E"/>
<path d="M148.663 99.4386L148.993 99.5161L111.421 259.639L111.091 259.562L148.663 99.4386Z" fill="#8E8E8E"/>
<path d="M156.417 101.256L156.748 101.333L119.175 261.456L118.845 261.379L156.417 101.256Z" fill="#8E8E8E"/>
<path d="M164.169 103.074L164.5 103.152L126.927 263.275L126.597 263.198L164.169 103.074Z" fill="#8E8E8E"/>
<path d="M171.923 104.897L172.253 104.974L134.681 265.097L134.351 265.02L171.923 104.897Z" fill="#8E8E8E"/>
<path d="M179.677 106.716L180.007 106.793L142.435 266.917L142.105 266.839L179.677 106.716Z" fill="#8E8E8E"/>
<path d="M187.429 108.534L187.759 108.612L150.187 268.735L149.856 268.658L187.429 108.534Z" fill="#8E8E8E"/>
<path d="M195.186 110.352L195.516 110.43L157.944 270.553L157.614 270.475L195.186 110.352Z" fill="#8E8E8E"/>
<path d="M202.937 112.174L203.268 112.251L165.695 272.375L165.365 272.297L202.937 112.174Z" fill="#8E8E8E"/>
<path d="M210.689 113.992L211.019 114.07L173.447 274.193L173.116 274.115L210.689 113.992Z" fill="#8E8E8E"/>
<path d="M218.443 115.812L218.773 115.889L181.201 276.012L180.871 275.935L218.443 115.812Z" fill="#8E8E8E"/>
<path d="M226.198 117.629L226.528 117.707L188.956 277.83L188.625 277.752L226.198 117.629Z" fill="#8E8E8E"/>
<path d="M233.948 119.45L234.279 119.528L196.706 279.651L196.376 279.574L233.948 119.45Z" fill="#8E8E8E"/>
<path d="M241.703 121.27L242.033 121.347L204.461 281.47L204.131 281.393L241.703 121.27Z" fill="#8E8E8E"/>
<path d="M249.457 123.089L249.788 123.167L212.215 283.29L211.885 283.212L249.457 123.089Z" fill="#8E8E8E"/>
<path d="M257.209 124.908L257.539 124.985L219.967 285.109L219.636 285.031L257.209 124.908Z" fill="#8E8E8E"/>
<path d="M264.964 126.725L265.294 126.802L227.722 286.925L227.391 286.848L264.964 126.725Z" fill="#8E8E8E"/>
<path d="M272.717 128.547L273.048 128.625L235.475 288.748L235.145 288.67L272.717 128.547Z" fill="#8E8E8E"/>
<path d="M280.238 129.807L280.568 129.885L242.525 289.931L242.195 289.853L280.238 129.807Z" fill="#8E8E8E"/>
<path d="M288.223 132.185L288.554 132.263L250.981 292.386L250.651 292.308L288.223 132.185Z" fill="#8E8E8E"/>
<path d="M295.978 134.005L296.308 134.082L258.735 294.205L258.405 294.128L295.978 134.005Z" fill="#8E8E8E"/>
<path d="M303.731 135.824L304.062 135.902L266.489 296.025L266.159 295.948L303.731 135.824Z" fill="#8E8E8E"/>
</g>
</g>
<path d="M307.375 189.319C309.362 187.883 309.095 184.643 309.064 181.259C309.027 177.056 309.834 172.885 310 168.671C310.592 154.281 311.117 153.998 310.658 148.975C310.123 143.096 309.046 139.547 308.516 137.958C307.538 135.018 306.248 132.191 304.668 129.525C302.412 125.742 299.61 122.313 296.351 119.35C291.619 115.033 287.275 112.927 281.874 110.366C279.549 109.262 276.582 107.969 264.905 104.05C260.567 102.588 254.849 100.715 248.074 98.6021C246.864 101.009 246.164 103.639 246.016 106.329C245.857 109.944 246.676 113.535 248.387 116.723C249.377 118.657 251.082 121.282 254.644 124.286C264.078 132.247 279.999 137.376 283.314 138.415C283.954 145.578 284.364 151.386 284.606 155.343C285.087 162.829 285.194 166.528 286.593 171.973C287.776 176.565 288.513 179.317 290.806 182.359C294.636 187.443 299.982 189.599 303.986 189.913C305.803 190.077 306.716 189.795 307.375 189.319Z" fill="url(#paint2_linear_1424_1615)"/>
<path d="M141.057 73.8555C140.654 74.8828 140.067 76.3635 139.344 78.1463C135.929 86.6782 135.273 87.6845 134.455 88.7343C132.713 90.939 130.453 92.6793 127.876 93.8005C125.612 94.7821 123.704 94.9848 121.028 95.2898C118.469 95.5616 115.891 95.6058 113.325 95.4219C107.606 95.0598 106.09 94.1284 100.257 93.4598C97.458 93.1425 94.6423 92.9944 91.8254 93.0163C89.7735 95.4607 87.8564 98.015 86.0824 100.668C84.4506 103.115 83.2287 105.213 81.7175 107.814C79.9244 110.897 79.9086 111.103 77.9426 114.49C74.6424 120.168 73.666 121.337 72.7341 122.289C72.2382 122.795 70.9449 123.812 68.3596 125.841C64.817 128.626 63.0147 130.029 61.7668 130.56C59.4853 131.503 57.0068 131.871 54.5498 131.63C51.316 131.294 48.2657 129.965 45.818 127.825C50.1955 111.621 56.278 99.5717 61.016 91.6188C67.5201 80.7075 71.6933 77.1689 74.8003 75.057C84.0683 68.7617 94.1303 68.1749 98.704 67.9678C102.702 67.79 105.332 68.0987 118.09 70.1294C127.058 71.5557 134.832 72.8173 141.057 73.8555Z" fill="url(#paint3_linear_1424_1615)"/>
<path d="M306.136 190.507L303.102 194.511C300.153 194.36 297.26 193.652 294.574 192.426C285.648 188.312 282.189 179.591 281.058 176.741C279.578 173.027 279.215 169.717 278.55 163.269C277.861 156.583 277.574 149.862 277.69 143.142C274.42 141.849 269.789 139.935 264.322 137.374C254.07 132.587 248.945 130.195 245.848 126.885C243.818 124.712 237.937 117.45 239.891 101.285L245.682 99.2427C244.817 102.73 243.214 111.334 247.862 118.71C248.538 119.783 250.774 123.1 260.949 128.75C267.602 132.434 274.604 135.449 281.852 137.751C282.504 144.501 282.909 149.943 283.153 153.506C283.85 163.757 283.907 168.893 286.46 175.807C288.492 181.306 290.357 183.204 291.283 184.036C294.11 186.58 297.797 187.849 301.598 189.161C303.447 189.799 305.021 190.229 306.136 190.507Z" fill="#CC9A1F"/>
<path d="M141.602 74.8844L144.92 78.9209C143.951 82.3655 141.713 88.3122 136.376 93.4729C134.596 95.1938 131.44 98.1827 126.476 99.7591C122.27 101.098 118.9 100.728 115.289 100.431C110.271 100.012 102.966 99.562 93.4527 99.5316C87.1861 108.829 83.0235 115.306 80.0537 120.194C78.5069 122.678 76.7592 125.031 74.828 127.23C70.4991 132.186 67.7862 133.49 66.5059 134.014C64.3804 134.885 62.6392 135.066 60.9112 135.235C57.9779 135.521 52.9507 135.58 46.6901 133.477L45.3113 127.793C47.621 128.581 50.0182 129.084 52.4497 129.29C54.7284 129.484 60.5894 129.913 66.1383 127.145C69.8411 125.296 71.7207 122.873 75.2769 118.267C80.2269 111.866 80.8244 108.602 87.0061 99.1424C88.7172 96.5217 90.1853 94.4566 91.0767 93.2219C98.0539 94.0509 105.075 94.4598 112.101 94.4465C118.269 94.4335 121.985 94.0901 126.128 92.3514C128.673 91.2818 131.844 89.9484 134.378 86.804C135.523 85.3867 135.824 84.4913 139.468 78.3949C140.378 76.9189 141.106 75.7061 141.602 74.8844Z" fill="#CC9A1F"/>
<path d="M210.845 59.7778C210.175 62.6276 209.507 65.4767 208.839 68.3252L186.854 62.8255L188.798 54.5778C194.171 55.4075 199.494 56.5398 204.74 57.9694C206.845 58.5438 208.88 59.1466 210.845 59.7778Z" fill="#CC9A1F"/>
<path d="M220.338 46.0248L227.097 60.6087L224.273 96.4106L215.302 93.2399C216.342 78.1829 217.381 63.1185 218.417 48.0467L220.338 46.0248Z" fill="#CC9A1F"/>
<path d="M187.808 36.9507C181.768 52.1547 175.729 67.3607 169.691 82.5687L161.282 80.2037L173.456 47.545C177.722 43.3614 182.553 39.7953 187.808 36.9507Z" fill="#CC9A1F"/>
<path d="M269.567 278.817C245.31 281.101 220.88 280.84 196.677 278.038C123.64 269.556 68.8823 239.615 37.0347 218.264C37.2587 221.807 38.095 225.284 39.5065 228.542C40.5306 230.899 43.0726 235.937 48.2176 240.032C51.2937 242.484 52.9911 242.758 61.1188 245.978C70.158 249.558 67.937 249.17 80.4279 254.276C82.5859 255.158 88.3082 257.482 97.2751 260.852C102.127 262.687 113.58 267.653 125.454 271.521C137.143 275.33 162.397 282.044 193.171 286.193C199.197 287.008 205.436 288.185 218.659 289.212C240.993 290.948 248.645 290.771 256.901 287.195C261.573 285.151 265.858 282.317 269.567 278.817Z" fill="#CC9A1F"/>
<path d="M272.688 277.319L301.112 266.607C311.566 240.938 318.584 214.001 321.984 186.493L311.39 167.753C310.43 174.274 309.467 180.796 308.503 187.318C306.969 189.659 305.435 192.001 303.9 194.345L299.735 193.704C296.768 205.408 293.35 217.596 289.399 230.193C284.11 247.035 278.463 262.749 272.688 277.319Z" fill="url(#paint4_linear_1424_1615)"/>
<path d="M322.308 187.876L329.136 186.132C331.893 172.009 334.452 157.346 336.811 142.144C339.581 124.166 341.811 106.779 343.589 90.0461L332.419 64.8903C325.26 90.0146 318.1 115.142 310.939 140.273C311.383 147.861 311.612 155.705 311.586 163.791C311.581 165.563 311.563 167.321 311.531 169.065L322.308 187.876Z" fill="#CC9A1F"/>
<path d="M79.565 6.71067L64.7719 82.2974C62.6592 86.3136 60.5467 90.4414 58.4345 94.6805C56.3849 98.8149 54.4264 102.891 52.5588 106.908L33.8682 120.128L28.5907 115.836C38.392 84.8806 48.1922 53.9219 57.9913 22.9604L76.2274 5.99534L79.565 6.71067Z" fill="#CC9A1F"/>
<path d="M37.4653 221.085C29.8364 214.77 23.0888 207.46 17.4027 199.351C20.053 172.363 25.7925 145.768 34.5086 120.089C39.6495 115.314 45.5645 111.447 52.0009 108.653C49.919 114.688 47.8375 120.724 45.7565 126.763L47.5617 133.635L49.8552 134.965C47.7989 145.66 45.3591 158.679 42.7176 173.617C40.1681 188.058 38.5459 197.955 37.8107 211.275C37.585 215.376 37.5006 218.778 37.4653 221.085Z" fill="url(#paint5_linear_1424_1615)"/>
<path d="M332.069 66.1199C333.507 74.2206 334.944 82.3218 336.378 90.4234C330.688 120.481 324.998 150.537 319.305 180.591L311.918 167.171C312.108 161.61 312.116 155.728 311.872 149.565C311.75 146.465 311.574 143.451 311.344 140.523L332.069 66.1199Z" fill="#191919"/>
<path d="M311.533 169.065L314.011 174.677L312.556 186.053L315.418 189.325C311.724 205.347 308.031 221.371 304.339 237.397L286.651 239.681C290.787 224.567 294.92 209.462 299.051 194.367L303.219 194.876L307.683 190.967C309.392 185.225 310.565 179.337 311.186 173.378C311.337 171.911 311.453 170.473 311.533 169.065Z" fill="#191919"/>
<path d="M78.4777 7.69395L64.3872 84.2551L52.1725 106.584L41.0361 113.659C48.6348 84.5408 56.2349 55.4234 63.8365 26.3072L78.4777 7.69395Z" fill="#191919"/>
<path d="M51.5945 109.445L47.4138 111.236C46.1028 114.7 44.7906 118.162 43.477 121.623L40.2251 124.812C37.8461 133.905 35.5151 143.157 33.2321 152.569C31.5508 159.526 29.9325 166.421 28.3772 173.253C32.5489 175.601 37.0212 179.428 41.1934 181.773C43.1726 171.614 45.4379 157.605 47.657 144.207C48.19 140.976 49.8353 138.153 51.0143 135.362L47.1437 134.179L45.1707 128.828C47.3064 122.369 49.4477 115.908 51.5945 109.445Z" fill="#191919"/>
<path d="M306.058 253.969C305.177 252.967 299.957 257.085 293.2 260.004C288.294 262.108 283.077 263.397 277.756 263.82C276.859 268.685 274.924 273.299 272.084 277.35C275.643 276.476 279.364 275.442 283.222 274.214C289.564 272.194 295.78 269.802 301.84 267.052C302.11 264.734 302.656 262.456 303.464 260.267C304.943 256.275 306.584 254.566 306.058 253.969Z" fill="#CC9A1F"/>
<path d="M37.817 204.028C29.7555 200.581 22.9278 194.773 18.2343 187.368C17.9774 191.878 17.7199 196.388 17.4617 200.896L37.7258 220.881C37.8224 217.279 37.8705 213.599 37.8702 209.842C37.8661 207.885 37.8484 205.947 37.817 204.028Z" fill="#CC9A1F"/>
<path d="M310.875 167.814C314.715 173.944 317.912 180.106 321.262 187.608C318.959 203.452 315.929 221.193 310.186 240.123C307.284 249.696 304.133 258.65 300.868 266.972C295.958 269.377 290.92 271.51 285.775 273.36C280.719 275.175 275.241 276.617 270.84 277.715" stroke="black" stroke-width="2.1518" stroke-miterlimit="10" stroke-linecap="round"/>
<path d="M314.265 173.529C313.893 176.233 313.518 178.936 313.14 181.638C312.948 183.006 312.755 184.374 312.561 185.741L314.688 188.865C313.111 198.118 311.159 207.837 308.752 217.947C307.053 225.075 305.255 231.913 303.36 238.46C299.761 238.904 296.009 239.279 292.116 239.56C289.947 239.719 287.821 239.842 285.74 239.93" stroke="black" stroke-width="2.1518" stroke-miterlimit="10" stroke-linecap="round"/>
<path d="M321.802 187.932L326.426 187.406C327.129 187.328 327.788 187.025 328.305 186.542C328.822 186.059 329.17 185.422 329.296 184.726C332.114 169.117 334.74 152.985 337.171 136.333C339.459 120.528 341.43 105.12 343.084 90.1067L333.85 65.8505C333.739 65.541 333.531 65.2753 333.258 65.0929C332.984 64.9105 332.659 64.8211 332.331 64.8378C332.002 64.8545 331.688 64.9765 331.435 65.1857C331.181 65.3949 331.001 65.6802 330.923 65.9994C324.038 91.4216 317.157 116.845 310.281 142.269" stroke="black" stroke-width="2.1518" stroke-miterlimit="10" stroke-linecap="round"/>
<path d="M332.244 64.831C333.472 73.4501 334.701 82.0607 335.931 90.6629C330.265 120.828 324.595 150.993 318.919 181.156" stroke="black" stroke-width="2.1518" stroke-miterlimit="10" stroke-linecap="round"/>
<path d="M51.8571 107.447C45.7027 111.251 40.1153 115.365 33.7962 120.616C28.8629 135.843 23.7425 153.102 20.5284 172.623C18.9115 182.494 17.7752 191.919 17.0285 200.823C20.3719 205.147 23.9512 209.284 27.7502 213.214C30.7543 216.344 33.9357 219.3 37.2785 222.065" stroke="black" stroke-width="2.1518" stroke-miterlimit="10" stroke-linecap="round"/>
<path d="M46.2915 111.076C45.4277 113.673 44.568 116.272 43.7126 118.87C43.2819 120.183 42.8505 121.496 42.4182 122.808L39.1457 124.66C36.4755 133.659 33.9326 143.238 31.6191 153.374C29.9933 160.516 28.597 167.454 27.395 174.158C30.4281 176.146 33.6271 178.14 36.9977 180.112C38.8716 181.21 38.9883 181.298 40.8176 182.3" stroke="black" stroke-width="2.1518" stroke-miterlimit="10" stroke-linecap="round"/>
<path d="M33.1665 120.668L29.2496 118.156C28.6538 117.775 28.1968 117.211 27.9466 116.55C27.6964 115.888 27.6663 115.163 27.8607 114.483C32.2249 99.2323 36.996 83.6011 42.1743 67.5891C47.1012 52.3996 52.1398 37.7025 57.2901 23.4977L76.2912 5.82131C76.527 5.59179 76.8306 5.44441 77.1569 5.40103C77.4831 5.35764 77.8146 5.42057 78.1023 5.58046C78.39 5.74036 78.6184 5.98872 78.7538 6.2887C78.8892 6.58868 78.9243 6.9243 78.8538 7.2458C73.7956 33.0968 68.7362 58.945 63.6758 84.7903" stroke="black" stroke-width="2.1518" stroke-miterlimit="10" stroke-linecap="round"/>
<path d="M78.176 5.62646C73.2687 12.8065 68.3627 19.9886 63.4579 27.1727C55.2197 56.7374 46.986 86.3048 38.757 115.875" stroke="black" stroke-width="2.1518" stroke-miterlimit="10" stroke-linecap="round"/>
<path d="M307.278 190.53C308.853 182.047 309.949 173.483 310.563 164.877C311.659 149.385 310.472 143.492 309.408 139.704C307.471 132.813 304.674 128.373 303.762 126.982C302.808 125.528 299.545 120.749 293.481 116.075C288.001 111.852 283.026 109.871 276.882 107.595C269.176 104.738 259.228 101.272 247.332 97.6712L240.524 101.568C239.62 106.144 239.711 110.861 240.792 115.398C241.471 118.216 242.817 123.788 247.497 128.284C249.973 130.663 252.411 131.805 254.292 132.667C262.776 136.554 270.934 139.997 277.762 142.769C277.956 148.332 278.241 155.509 278.67 164.01C278.888 168.304 279.092 171.844 280.53 176.355C281.575 179.636 282.737 183.275 285.969 186.766C290.082 191.192 295.155 192.813 297.624 193.609C299.386 194.173 301.194 194.579 303.028 194.822L307.278 190.53Z" stroke="black" stroke-width="2.1518" stroke-miterlimit="10"/>
<path d="M306.278 189.835C302.672 189.809 299.13 188.876 295.979 187.121C292.75 185.325 290.049 182.715 288.144 179.55C285.974 175.879 285.539 172.428 285.316 170.495C283.665 156.225 282.543 140.837 282.342 138.055C278.728 136.554 274.682 134.858 270.254 132.98C262.942 129.874 260.282 128.684 256.875 126.567C252.734 123.994 250.663 122.708 248.831 120.058C245.967 115.89 245.695 111.399 245.519 108.487C245.324 105.225 245.661 101.953 246.517 98.7994" stroke="black" stroke-width="2.1518" stroke-miterlimit="10"/>
<path d="M281.539 138.229C280.283 139.738 279.025 141.248 277.765 142.759" stroke="black" stroke-width="2.1518" stroke-miterlimit="10"/>
<path d="M45.0341 128.177C47.4862 119.902 50.4033 111.772 53.7715 103.826C59.8373 89.5284 63.575 84.8071 66.2425 81.929C71.1011 76.6726 75.6089 73.9871 77.0531 73.1645C78.5635 72.3015 83.6436 69.5285 91.1691 68.1311C97.9699 66.8612 103.298 67.3657 109.806 68.1207C117.97 69.0802 128.406 70.5139 140.639 72.7129L144.933 79.2789C143.656 83.765 141.43 87.9243 138.406 91.4749C136.519 93.6764 132.789 98.0261 126.577 99.9039C123.289 100.899 120.599 100.807 118.533 100.719C109.221 100.328 100.378 99.6854 93.0373 99.0477C90.3325 103.917 86.8169 110.18 82.5689 117.557C80.4253 121.283 78.6351 124.34 75.3029 127.709C72.8805 130.154 70.1942 132.866 65.737 134.511C60.0645 136.597 54.8032 135.736 52.25 135.316C50.4239 135.018 48.6281 134.557 46.884 133.94L45.0341 128.177Z" stroke="black" stroke-width="2.1518" stroke-miterlimit="10"/>
<path d="M46.2376 128.018C49.4642 129.631 53.0445 130.407 56.6494 130.274C60.3405 130.142 63.9326 129.045 67.0675 127.092C70.6712 124.808 72.6231 121.932 73.7048 120.313C81.6607 108.351 89.6545 95.1544 91.1003 92.7582C95.0019 93.0632 99.3809 93.3934 104.174 93.7296C112.098 94.2876 115.01 94.4357 119.008 94.1013C123.874 93.6937 126.306 93.4898 129.131 91.9588C133.569 89.5478 135.86 85.672 137.341 83.1583C138.998 80.3416 140.184 77.274 140.855 74.076" stroke="black" stroke-width="2.1518" stroke-miterlimit="10"/>
<path d="M91.7306 93.294L93.0348 99.0451" stroke="black" stroke-width="2.1518" stroke-miterlimit="10"/>
<path d="M89.992 239.588C107.643 250.888 129.923 256.895 151.144 262.235C166.214 266.038 188.022 271.342 210.482 271.291C215.828 271.28 224.037 270.957 232.287 265.971C239.691 261.496 243.858 255.239 245.993 251.339C257.45 230.289 264.494 207.123 266.693 183.258C267.403 175.027 265.54 166.779 261.363 159.651C257.185 152.524 250.898 146.869 243.37 143.467C204.834 129.393 164.729 120.058 123.939 115.668C121.34 115.158 110.065 113.239 98.6717 120.113C87.384 126.923 83.796 137.652 83.0165 140.213C75.445 160.943 71.3645 182.784 70.9409 204.849C70.8547 209.367 71.3498 217.587 76.1324 225.788C80.3044 232.941 85.9311 236.982 89.992 239.588Z" stroke="black" stroke-width="2.1518" stroke-miterlimit="10"/>
<path d="M82.7798 243.587C102.223 256.035 126.764 262.652 150.139 268.547C166.741 272.737 190.774 278.581 215.501 278.533C221.39 278.519 230.434 278.163 239.52 272.672C247.675 267.741 252.262 260.849 254.62 256.554C267.242 233.367 275 207.848 277.421 181.559C277.747 177.754 278.208 166.546 271.248 155.03C266.624 147.425 259.82 141.387 251.719 137.7C209.269 122.197 165.09 111.914 120.157 107.077C117.295 106.515 104.876 104.403 92.3244 111.976C79.8892 119.48 75.9376 131.297 75.0764 134.115C66.7359 156.95 62.2416 181.01 61.7765 205.316C61.68 210.291 62.2264 219.347 67.4966 228.383C72.1002 236.266 78.2988 240.716 82.7798 243.587Z" stroke="black" stroke-width="2.1518" stroke-miterlimit="10"/>
<path d="M49.7878 135.428C47.9104 142.406 46.1884 149.908 44.7426 157.906C41.869 173.806 39.9332 187.861 38.3267 200.998C37.5912 207.886 34.4538 221.824 41.652 232.358C47.9037 241.502 57.6152 245.279 64.848 248.919C90.3672 261.757 118.355 269.982 147.057 277.794C167.024 283.224 192.419 288.129 225.094 289.7C232.214 290.042 245.503 290.356 258.946 286.174C270.039 282.722 274.894 271.603 277.568 264.852C281.31 254.807 285.715 237.959 290.914 221.784C293.987 212.347 296.442 202.72 298.263 192.964" stroke="black" stroke-width="2.1518" stroke-miterlimit="10"/>
<path d="M240.62 101.644C228.658 97.7236 216.039 93.9688 202.787 90.4841C181.913 84.9982 162.005 80.8647 143.326 77.7416" stroke="black" stroke-width="2.1518" stroke-miterlimit="10"/>
<path d="M156.586 86.1169C167.22 87.6378 178.695 89.7066 190.851 92.5518C203.824 95.5873 215.728 99.0645 226.486 102.677C228.69 103.22 230.598 104.598 231.805 106.521C232.398 107.478 232.795 108.544 232.974 109.656C233.154 110.767 233.111 111.903 232.85 112.999L232.74 113.51C232.441 114.219 232.035 114.876 231.534 115.46C230.597 116.494 229.412 117.273 228.091 117.723C226.217 118.355 224.209 118.478 222.271 118.081C215.421 116.745 195.434 110.52 187.448 108.547C180.776 106.897 161.647 102.489 152.923 101.035C151.023 100.723 149.297 99.744 148.056 98.2728C146.815 96.8016 146.139 94.9354 146.152 93.0105L146.263 92.4969C146.522 91.3999 146.994 90.3646 147.653 89.4502C148.311 88.5357 149.144 87.7601 150.103 87.1676C151.061 86.5751 152.127 86.1773 153.24 85.997C154.352 85.8167 155.489 85.8575 156.586 86.1169Z" stroke="black" stroke-width="2.1518" stroke-miterlimit="10"/>
<path d="M218.064 135.561C213.414 138.698 209.968 143.32 208.287 148.671L152.361 135.629C153.225 132.721 153.298 129.635 152.57 126.689C151.843 123.744 150.342 121.046 148.222 118.875" stroke="black" stroke-width="2.1518" stroke-miterlimit="10"/>
<path d="M208.93 133.005C206.671 134.985 204.808 137.376 203.441 140.051L161.338 130.049C161.144 126.672 160.081 123.401 158.253 120.555" stroke="black" stroke-width="2.1518" stroke-miterlimit="10"/>
<path d="M173.501 48.2593C139.584 49.0023 115.366 65.0967 110.802 68.2347" stroke="black" stroke-width="2.1518" stroke-miterlimit="10"/>
<path d="M274.895 106.852C272.148 101.892 257.513 76.2386 226.48 60.5142" stroke="black" stroke-width="2.1518" stroke-miterlimit="10"/>
<path d="M224.513 95.8043L227.199 60.7478L220.116 43.2015L189.086 35.194L173.55 47.6959C169.417 58.7885 165.282 69.8817 161.145 80.9753" stroke="black" stroke-width="2.1518" stroke-miterlimit="10"/>
<path d="M219.25 43.502C217.841 59.9289 216.432 76.3548 215.023 92.7796" stroke="black" stroke-width="2.1518" stroke-miterlimit="10"/>
<path d="M188.31 36.0542C182.315 51.4124 176.319 66.7695 170.322 82.1257" stroke="black" stroke-width="2.1518" stroke-miterlimit="10"/>
<path d="M190.282 46.9431L212.746 52.2144L208.936 68.4549L186.471 63.1837L190.282 46.9431Z" stroke="black" stroke-width="2.1518" stroke-miterlimit="10"/>
<path d="M210.01 59.0389L189.255 54.0563" stroke="black" stroke-width="2.1518" stroke-miterlimit="10"/>
<path d="M240.795 115.388C239.989 119.565 240.473 123.888 242.18 127.784C243.888 131.679 246.74 134.964 250.357 137.202" stroke="black" stroke-width="2.1518" stroke-miterlimit="10"/>
<path d="M142.802 84.8C142.332 89.9436 140.289 94.8176 136.95 98.7581C131.089 105.617 123.399 106.942 121.406 107.225" stroke="black" stroke-width="2.1518" stroke-miterlimit="10"/>
<path d="M291.004 190.778C288.684 189.982 286.194 189.811 283.787 190.285C280.584 190.96 277.712 192.722 275.659 195.271" stroke="black" stroke-width="2.1518" stroke-miterlimit="10"/>
<path d="M70.3452 148.648C70.5742 145.526 69.6702 142.427 67.7992 139.918C66.2343 137.883 64.0941 136.365 61.6561 135.562" stroke="black" stroke-width="2.1518" stroke-miterlimit="10"/>
<path d="M303.585 150.439C303.574 159.178 303.562 167.918 303.547 176.66" stroke="black" stroke-width="2.1518" stroke-miterlimit="10" stroke-linecap="round"/>
<path d="M296.833 148.157C296.929 158.227 297.028 168.296 297.13 178.362" stroke="black" stroke-width="2.1518" stroke-miterlimit="10" stroke-linecap="round"/>
<path d="M66.9709 93.2148L55.1712 116.628" stroke="black" stroke-width="2.1518" stroke-miterlimit="10" stroke-linecap="round"/>
<path d="M74.0298 94.2251C69.3952 103.166 64.7606 112.107 60.126 121.048" stroke="black" stroke-width="2.1518" stroke-miterlimit="10" stroke-linecap="round"/>
<path d="M250.459 165.311C251.785 169.529 252.15 173.628 251.844 179.566C251.439 187.019 250.185 194.401 248.108 201.57C244.794 213.311 242.784 220.432 236.845 228.036C233.233 232.657 227.455 240.05 219.447 239.832C214.939 239.709 211.558 237.23 210.6 236.474C207.325 233.89 205.412 230.192 204.052 224.061C203.296 220.655 201.02 208.859 205.417 191.663C207.545 183.539 210.821 175.761 215.145 168.562C217.967 163.859 221.337 159.259 226.704 155.619C231.761 152.181 235.021 152.015 236.641 152.09C239.076 152.225 241.43 153.011 243.457 154.368C247.858 157.245 249.364 161.824 250.459 165.311Z" fill="url(#paint6_linear_1424_1615)"/>
<path d="M136.169 140.331C137.494 144.549 137.86 148.646 137.555 154.583C137.149 162.037 135.895 169.42 133.817 176.59C130.504 188.331 128.493 195.452 122.557 203.054C118.946 207.675 113.167 215.071 105.156 214.852C100.652 214.727 97.2686 212.247 96.31 211.492C93.0353 208.908 91.1219 205.209 89.7612 199.081C89.0066 195.673 86.7307 183.877 91.127 166.683C93.2549 158.559 96.5303 150.781 100.854 143.582C103.68 138.878 107.046 134.279 112.414 130.637C117.471 127.198 120.731 127.033 122.351 127.107C124.786 127.242 127.14 128.029 129.167 129.385C133.566 132.27 135.074 136.844 136.169 140.331Z" fill="url(#paint7_linear_1424_1615)"/>
<path d="M224.002 212.197C218.136 210.807 215.58 200.394 218.293 188.938C221.007 177.482 227.962 169.321 233.829 170.711C239.695 172.1 242.251 182.514 239.538 193.97C236.824 205.426 229.869 213.586 224.002 212.197Z" fill="#EEFDC4"/>
<path d="M109.313 186.222C103.447 184.833 100.891 174.419 103.604 162.963C106.317 151.507 113.273 143.346 119.139 144.736C125.006 146.126 127.562 156.539 124.849 167.995C122.135 179.451 115.18 187.612 109.313 186.222Z" fill="#EEFEBF"/>
<path d="M187.088 220.416C185.948 223.223 184.806 226.026 183.664 228.826L137.167 219.028C137.259 215.665 137.35 212.302 137.44 208.938L187.088 220.416Z" fill="#F7F7F7"/>
<path d="M135.938 219.088L183.711 229.909C182.72 231.446 176.812 240.291 165.611 242.067C163.362 242.423 157.232 243.076 150.794 239.901C143.125 236.117 139.839 229.284 138.415 226.318C137.309 224.013 136.477 221.587 135.938 219.088Z" fill="#89181A"/>
<path d="M176.262 239.4C171.407 235.012 165.576 231.844 159.252 230.16C152.928 228.476 146.294 228.323 139.9 229.715L137.4 221.279L184.013 231.515C182.57 233.139 181.003 234.804 179.311 236.484C178.289 237.505 177.273 238.477 176.262 239.4Z" fill="#5C101D"/>
<path d="M187.605 221.238L137.686 210.057C133.57 224.401 142.119 239.148 155.455 242.724C169.524 246.511 185.029 236.799 187.605 221.238Z" stroke="black" stroke-width="2.1518" stroke-miterlimit="10"/>
<path d="M183.757 230.639L137.555 220.06" stroke="black" stroke-width="2.1518" stroke-miterlimit="10"/>
<path d="M215.809 239.327C203.917 236.077 199.608 213.933 206.185 189.867C212.762 165.802 227.734 148.928 239.626 152.178C251.519 155.428 255.827 177.571 249.25 201.637C242.673 225.702 227.701 242.577 215.809 239.327Z" stroke="black" stroke-width="2.1518" stroke-miterlimit="10"/>
<path d="M216.304 192.643C217.641 187.764 219.619 183.455 221.917 180.077C222.316 186.668 224.69 191.565 228.593 192.633C232.497 193.7 237.014 190.683 240.72 185.213C240.976 189.288 240.487 194.014 239.154 198.886C235.669 211.65 227.729 220.598 221.422 218.874C215.116 217.15 212.819 205.407 216.304 192.643Z" fill="#613A03"/>
<path d="M222.924 194.026C220.212 193.284 219.228 188.234 220.728 182.746C222.228 177.258 225.643 173.41 228.356 174.152C231.068 174.893 232.052 179.943 230.552 185.431C229.052 190.919 225.637 194.767 222.924 194.026Z" fill="white"/>
<path d="M102.724 214.051C90.7279 211.21 85.6643 189.227 91.4143 164.95C97.1644 140.674 111.551 123.297 123.547 126.139C135.543 128.98 140.607 150.964 134.857 175.24C129.107 199.516 114.72 216.893 102.724 214.051Z" stroke="black" stroke-width="2.1518" stroke-miterlimit="10"/>
<path d="M124.652 172.813C125.816 167.897 126.143 163.16 125.75 159.094C122.231 164.687 117.814 167.855 113.874 166.92C109.934 165.986 107.415 161.18 106.778 154.6C104.607 158.045 102.77 162.439 101.605 167.355C98.5551 180.229 101.249 191.888 107.603 193.392C113.957 194.897 121.601 185.687 124.652 172.813Z" fill="#613A03"/>
<path d="M118.015 170.606C115.279 169.956 114.127 164.941 115.443 159.404C116.759 153.868 120.044 149.908 122.781 150.558C125.517 151.209 126.669 156.224 125.353 161.76C124.037 167.296 120.752 171.257 118.015 170.606Z" fill="white"/>
<path d="M296.319 314.872C298.635 315.285 301.018 315.101 303.242 314.336C309.022 312.312 311.313 306.988 311.708 306.034C313.679 306.308 315.686 306.136 317.581 305.529C322.471 303.944 324.811 299.93 325.388 298.868C325.27 293.661 324.308 288.508 322.539 283.609C321.396 280.454 319.923 277.429 318.144 274.583L326.282 264.731C326.398 264.195 327.085 260.569 324.711 257.632C322.479 254.865 318.453 253.846 314.73 255.209L295.139 275.501C293.147 273.947 290.52 273.578 288.337 274.57C285.865 275.692 285.037 278.065 284.899 278.487C283.574 279.868 280.343 283.624 279.908 289.173C279.781 290.816 279.906 292.468 280.277 294.074C283.364 298.63 286.818 303.348 290.68 308.153C292.564 310.491 294.444 312.73 296.319 314.872Z" fill="url(#paint8_linear_1424_1615)"/>
<path d="M293.714 315.967C292.51 317.383 291.142 318.65 289.64 319.744L264.971 303.971L278.426 293.939C285.079 299.741 290.666 306.661 294.936 314.387C294.576 314.904 294.169 315.434 293.714 315.967Z" fill="#1A333A"/>
<path d="M296.319 316.239L300.443 320.192C291.96 329.362 280.104 341.888 271.621 351.053C271.057 350.643 268.902 347.616 265.2 348.416C260.994 349.332 260.729 351.037 260.708 354.916C260.719 356.532 261.17 358.114 262.011 359.493L254.845 365.93C242.706 351.831 235.62 334.085 234.709 315.503C238.117 313.026 241.924 310.488 246.104 307.977C250.804 305.156 255.323 302.778 259.527 300.771L290.249 319.364L295.781 315.013L296.319 316.239Z" fill="url(#paint9_linear_1424_1615)"/>
<path d="M271.027 351.159L261.563 359.986C258.688 356.977 259.038 352.216 261.963 349.814C264.592 347.653 268.746 347.867 271.331 350.539C271.227 350.751 271.129 350.954 271.027 351.159Z" fill="#5E656B"/>
<path d="M248.191 355.092L224.354 367.439C222.213 368.006 219.959 367.992 217.825 367.399C215.691 366.806 213.753 365.656 212.211 364.067L201.294 345.779C201.712 342.911 202.129 340.043 202.545 337.175L222.209 324.959L226.272 326.926L236.211 323.858C238.641 334.81 242.675 345.342 248.184 355.114L248.191 355.092Z" fill="#1A333A"/>
<path d="M231.919 323.646L225.205 327.764C220.889 322.126 214.702 318.214 207.757 316.732C207.403 313.177 206.406 309.715 204.816 306.515C198.827 294.557 186.381 290.748 183.471 289.94L194.961 290.109C195.651 291.816 196.717 293.345 198.08 294.583C199.303 295.686 202.198 298.297 205.523 297.423C208.703 296.587 210.009 293.159 210.179 292.689L219.837 294.56C225.38 303.551 229.456 313.368 231.912 323.642L231.919 323.646Z" fill="url(#paint10_linear_1424_1615)"/>
<path d="M217.655 290.835L219.534 293.61L200.366 289.308L217.655 290.835Z" fill="#1E2D34"/>
<path d="M191.286 288.23L172.58 285.101L172.488 285.525L179.073 287.396L191.286 288.23Z" fill="#1E2D34"/>
<path d="M210.175 293.429C209.369 294.647 208.197 295.577 206.828 296.087C205.459 296.597 203.964 296.659 202.557 296.266C198.832 295.386 196.929 292.123 196.493 291.352C198.964 291.487 201.426 291.749 203.87 292.136C206.145 292.501 208.251 292.947 210.175 293.429Z" fill="#1A333A"/>
<path d="M265.624 305.593C262.43 308.526 259.389 311.621 256.512 314.866C254.858 316.732 249.814 322.421 247.724 326.058C241.68 336.568 247.806 351.626 250.803 357.952C244.608 350.141 240.084 341.14 237.511 331.509C236.102 326.171 235.314 320.688 235.162 315.169L258.859 301.122L265.624 305.593Z" fill="#CE9619"/>
<path d="M214.948 293.942C214.49 296.738 214.297 299.571 214.373 302.403C214.578 309.007 216.2 315.491 219.129 321.413L208.046 316.401C207.956 312.889 207.157 309.43 205.697 306.234C200.388 294.747 188.178 291.324 186.002 290.743L194.29 290.583C194.758 291.591 196.213 294.357 199.424 295.911C199.858 296.123 204.904 298.469 209.016 295.698C210.187 294.889 211.135 293.798 211.773 292.526L214.948 293.942Z" fill="#CE9619"/>
<path d="M224.391 327.886C221.563 329.831 219.21 332.388 217.505 335.366C217.056 336.16 216.659 336.981 216.315 337.825C213.092 346.582 212.472 356.084 214.529 365.186C210.462 361.912 207.064 357.885 204.52 353.325C203.189 350.926 202.108 348.395 201.295 345.774L203.186 338.311L222.534 324.733L224.391 327.886Z" fill="#07221D"/>
<path d="M286.954 302.286C287.71 302.857 287.873 302.791 288.796 302.918C290.597 303.17 292.093 302.458 292.628 302.195C294.226 301.381 295.488 300.031 296.192 298.381C297.084 296.384 296.883 294.592 296.735 293.466C296.394 291.027 295.311 288.752 293.634 286.95C293.457 286.755 295.742 290.134 298.836 290.494C300.009 290.6 301.186 290.338 302.204 289.744C303.25 289.11 304.075 288.168 304.566 287.047C304.669 286.809 305.594 284.589 304.558 282.261C303.974 280.947 303.045 280.221 302.143 279.519C301.518 279.031 301.104 278.821 298.787 277.706C294.901 275.838 294.564 275.707 294.12 275.562C292.357 274.979 291.277 274.622 289.964 274.711C286.751 274.926 284.575 277.644 283.728 278.685C282.708 279.936 281.976 282.265 280.511 286.918C279.826 289.103 279.468 290.526 279.848 292.255C280.021 293.045 280.196 294.263 280.711 295.126" stroke="black" stroke-width="2.1518" stroke-miterlimit="10"/>
<path d="M264.969 303.976C266.821 302.432 268.708 300.883 270.63 299.33C272.512 297.811 274.38 296.325 276.235 294.872C276.879 294.471 277.623 294.262 278.382 294.269C279.14 294.275 279.881 294.498 280.518 294.91C284.294 298.86 287.763 303.092 290.897 307.568C292.028 309.185 293.08 310.777 294.054 312.345C294.516 313.053 294.717 313.9 294.621 314.739C294.556 315.226 294.387 315.693 294.126 316.109C292.809 317.256 291.492 318.402 290.176 319.547L264.969 303.976Z" stroke="black" stroke-width="2.1518" stroke-miterlimit="10"/>
<path d="M303.689 288.468C304.807 292.062 306.22 295.559 307.913 298.921C308.869 300.812 310.023 302.858 312.249 304.523C313.118 305.173 314.063 305.863 315.459 306.105C318.338 306.609 320.703 304.793 321.761 303.994C322.52 303.415 324.707 301.743 325.389 298.86C325.663 297.706 325.601 296.752 325.377 295.159C324.843 291.412 323.958 287.725 322.733 284.145C322.137 282.405 321.286 280.077 320.133 277.366C319.75 276.722 318.704 275.19 317.092 275.005C315.66 274.841 314.5 275.822 313.778 276.43C311.295 278.529 308.528 280.842 305.412 283.493" stroke="black" stroke-width="2.1518" stroke-miterlimit="10"/>
<path d="M316.507 274.738C319.404 271.617 322.3 268.496 325.195 265.375C326.432 262.785 326.272 259.79 324.705 257.623C322.646 254.768 318.455 253.763 314.847 255.534L295.124 275.482" stroke="black" stroke-width="2.1518" stroke-miterlimit="10"/>
<path d="M310.191 278.647C308.17 277.869 306.323 276.696 304.759 275.197C303.194 273.698 301.944 271.903 301.081 269.915" stroke="black" stroke-width="1.79317" stroke-miterlimit="10"/>
<path d="M311.89 304.816C311.832 305.495 311.318 310.456 306.907 313.465C301.619 317.078 295.706 314.481 295.397 314.339" stroke="black" stroke-width="2.1518" stroke-miterlimit="10"/>
<path d="M266.631 305.005L259.507 300.768L237.122 312.788C236.269 313.231 235.557 313.903 235.065 314.729C234.572 315.554 234.319 316.501 234.334 317.462C237.073 335.269 244.379 352.062 255.54 366.204C262.676 359.774 270.008 352.779 277.454 345.205C285.828 336.674 293.478 328.293 300.433 320.191L296.31 314.86" stroke="black" stroke-width="2.1518" stroke-miterlimit="10"/>
<path d="M271.069 349.989C268.476 347.96 264.871 347.949 262.422 349.866C259.683 352.014 258.98 356.111 260.998 359.234" stroke="black" stroke-width="2.1518" stroke-miterlimit="10"/>
<path d="M246.825 354.796C242.318 357.523 238.88 359.655 236.756 360.967C236.686 361.012 232.965 363.32 227.958 365.72C226.47 366.441 224.104 367.521 221.133 367.498C218.731 367.51 216.399 366.69 214.533 365.178C211.335 362.747 209.197 359.446 208.972 359.089C205.237 353.229 202.222 347.556 200.761 344.734" stroke="black" stroke-width="2.1518" stroke-miterlimit="10"/>
<path d="M234.421 321.975C230.509 323.408 226.788 325.32 223.344 327.667C219.754 330.023 217.017 333.472 215.54 337.505C215.472 337.708 215.484 337.929 215.573 338.123C215.662 338.318 215.821 338.471 216.019 338.551C216.218 338.632 216.439 338.634 216.638 338.557C216.838 338.48 217 338.329 217.093 338.137C218.617 334.572 221.258 331.599 224.619 329.665C227.995 327.631 231.611 326.022 235.383 324.874C237.355 324.203 236.41 321.335 234.423 321.967L234.421 321.975Z" fill="black"/>
<path d="M242.388 347.718C238.191 350.498 233.758 352.904 229.141 354.911C226.784 355.932 224.509 356.794 222.344 357.523C221.38 357.802 220.357 357.808 219.39 357.539C218.423 357.27 217.55 356.737 216.869 356C213.542 352.669 211.356 347.061 211.356 347.061C210.315 344.381 208.553 340.189 206.655 335.288" stroke="black" stroke-width="1.79317" stroke-miterlimit="10"/>
<path d="M225.277 327.436C223.722 325.586 221.966 323.915 220.042 322.454C216.487 319.771 212.426 317.834 208.104 316.759C207.066 309.624 204.182 305.058 202.373 302.693C197.751 296.653 191.828 294.104 185.082 291.201C180.238 289.119 175.179 287.577 169.997 286.601" stroke="black" stroke-width="2.1518" stroke-miterlimit="10"/>
<path d="M232.197 323.952C229.503 311.91 224.735 300.429 218.105 290.022" stroke="black" stroke-width="2.1518" stroke-miterlimit="10"/>
<path d="M220.107 294.154C214.51 292.962 208.514 291.882 202.143 291C193.863 289.854 186.076 289.195 178.885 288.869" stroke="black" stroke-width="2.1518" stroke-miterlimit="10"/>
<path d="M210.939 293.204C210.458 294.089 208.98 296.515 206.261 297.27C202.475 298.321 197.656 295.755 195.371 290.619" stroke="black" stroke-width="1.79317" stroke-miterlimit="10"/>
<path d="M230.956 323.305C224.769 315.481 215.93 310.195 206.109 308.448" stroke="black" stroke-width="1.79317" stroke-miterlimit="10"/>
<path d="M57.1049 280.021C72.5024 278.591 77.5686 278.159 84.6984 276.974C85.8277 276.785 86.7329 276.631 87.2343 276.534C89.1538 277.04 90.8738 278.118 92.1662 279.625C94.302 282.176 94.3215 285.182 94.3107 287.052C94.2772 292.182 91.8228 295.944 89.9831 298.688C86.2592 304.237 81.8563 307.282 78.6205 309.494C76.1678 311.176 71.4673 314.306 64.4985 316.254C58.6573 317.878 52.551 318.321 46.5367 317.557C46.1628 317.439 43.2653 316.488 42.1435 313.509C41.6165 312.065 41.5971 310.485 42.0885 309.028L51.7101 281.356L60.1914 284.895C60.4474 285.891 60.7576 286.873 61.1207 287.835C61.6793 289.329 61.9586 290.076 62.3286 290.464C63.6026 291.813 66.2724 291.165 69.8498 290.243C73.8196 289.221 77.2091 288.348 77.5007 286.351C77.6376 285.394 77.0057 284.576 76.7669 284.269C75.1354 282.161 71.6694 282.496 70.2406 282.633C67.6727 282.883 65.735 283.839 62.4502 285.458C61.2816 286.032 60.3384 286.566 59.69 286.932L52.1765 284.046L52.6205 280.431L57.1049 280.021Z" fill="url(#paint11_linear_1424_1615)"/>
<path d="M76.8564 284.82C77.0683 285.337 77.1381 285.901 77.0585 286.454C76.683 288.753 73.4462 289.873 72.1077 290.34C67.5606 291.919 60.9121 291.859 60.0524 289.357C59.3395 287.31 62.5963 284.531 63.0726 284.128C65.7149 281.884 69.9457 280.658 73.6037 282.304C74.8661 282.883 75.9789 283.744 76.8564 284.82Z" fill="#5E656B"/>
<path d="M60.4286 278.45L53.1449 279.743C55.3785 271.627 57.6138 263.511 59.8507 255.396L64.8705 259.937C63.3949 266.105 61.9143 272.276 60.4286 278.45Z" fill="#030802"/>
<path d="M58.5923 255.507L51.7399 280.759C49.228 286.73 46.7717 292.907 44.371 299.288C43.3729 301.943 42.4069 304.578 41.4731 307.193L36.6812 306.552L50.4831 256.514L58.5923 255.507Z" fill="url(#paint12_linear_1424_1615)"/>
<path d="M68.287 315.961L76.7299 321.943C73.7362 327.23 70.7413 332.519 67.7453 337.809C62.7656 337.794 57.8448 336.731 53.3033 334.688C48.7618 332.646 44.7015 329.669 41.3867 325.953L44.9258 317.787C52.759 318.677 60.6902 318.059 68.2909 315.967L68.287 315.961Z" fill="#1A333A"/>
<path d="M72.7743 333.354C75.1972 335.761 76.7355 337.287 76.7278 339.022C76.7274 339.517 76.5959 340.763 74.9426 342.237C71.3588 343.341 67.6209 343.863 63.8716 343.782C52.4967 343.526 44.5975 337.685 41.8853 335.625C38.0888 332.728 34.8236 329.194 32.2348 325.181C33.1302 323.287 34.6695 321.773 36.578 320.909C38.4865 320.045 40.64 319.887 42.654 320.464L40.1981 326.98C42.6868 329.342 45.4435 331.405 48.4121 333.127C54.1458 336.421 60.5352 338.412 67.1256 338.956L71.9579 332.593C72.1533 332.763 72.4419 333.021 72.7743 333.354Z" fill="#CC9A1F"/>
<path d="M75.3775 344.581C70.3798 351.467 64.206 357.416 57.1402 362.154L39.1984 358.57L34.1572 366.801L22.3619 366.232C23.9538 357.753 25.5469 349.271 27.1412 340.789C27.7033 340.742 28.268 340.839 28.782 341.071C30.7631 341.999 30.3527 344.544 31.8727 345.588C33.6901 346.838 38.1932 345.885 39.0361 342.922C39.6273 340.845 38.2303 338.425 36.214 337.503C33.9018 336.44 30.8693 337.389 29.3252 339.926L26.6689 338.536C28.1144 333.792 29.5605 329.049 31.0073 324.307C31.7235 325.266 32.7437 326.558 34.0546 328.001C34.0546 328.001 37.6 331.901 41.6763 334.833C48.6168 339.822 56.5976 341.371 65.3451 343.068C69.5119 343.872 72.9948 344.326 75.3775 344.581Z" fill="url(#paint13_linear_1424_1615)"/>
<path d="M31.3307 338.293C32.8769 337.035 35.5914 336.29 37.8547 337.782C38.8078 338.419 39.5315 339.345 39.9194 340.424C40.3073 341.503 40.3389 342.677 40.0097 343.775C39.1198 346.605 35.8047 348.208 33.0049 347.191C30.399 346.243 29.0507 343.322 29.5854 340.987C29.852 339.92 30.466 338.972 31.3307 338.293Z" fill="#5E656B"/>
<path d="M51.3664 361.478C49.9328 364.361 47.5159 366.637 44.5518 367.895C42.7059 367.387 40.8324 366.85 38.9313 366.283C37.4901 365.851 36.0731 365.411 34.6802 364.965C36.0291 362.675 37.3793 360.387 38.7308 358.101C41.4499 358.421 44.1345 358.986 46.7519 359.789C48.319 360.269 49.8594 360.833 51.3664 361.478Z" fill="#1A333A"/>
<path d="M35.6833 320.664L36.6049 312.651L26.1905 315.13C21.6758 332.144 17.1626 349.159 12.6508 366.175C12.7891 366.844 13.1537 367.446 13.6834 367.878C15.239 369.072 18.359 368.369 21.1939 365.851C22.8348 355.591 25.076 345.437 27.906 335.439C29.0657 331.34 30.2826 327.394 31.5568 323.601L35.6833 320.664Z" fill="url(#paint14_linear_1424_1615)"/>
<path d="M22.292 367.263L31.9459 367.789C32.8885 366.765 34.0975 366.024 35.4377 365.648C39.7593 364.496 43.3736 368.031 43.577 368.236C43.8934 371.523 44.2103 374.811 44.5277 378.101L48.3695 385.561C48.2142 389.38 47.0278 393.086 44.9361 396.286C43.6353 398.247 42.0099 399.972 40.1296 401.387C38.4481 401.309 36.8152 400.799 35.3887 399.905C33.9622 399.012 32.7903 397.765 31.9864 396.286C33.152 394.32 34.3174 392.355 35.4826 390.39C35.4958 388.908 35.0521 388.209 34.6312 387.838C33.7967 387.112 32.7314 387.427 29.8091 386.867C29.2424 386.76 28.7794 386.644 28.4678 386.576C28.341 393.257 28.2134 399.938 28.085 406.618C27.1851 408.461 25.6212 409.894 23.7076 410.63C20.0528 411.981 16.8892 409.993 16.5371 409.762L13.8654 387.035C13.2338 386.271 12.6817 385.445 12.2176 384.569C11.8449 383.875 11.5303 383.151 11.2769 382.405L14.3139 369.147C17.0689 366.335 19.9669 365.152 21.4328 366.109C21.8387 366.388 22.1407 366.794 22.292 367.263Z" fill="url(#paint15_linear_1424_1615)"/>
<path d="M63.3159 316.556C68.1546 309.003 70.7875 300.248 70.9177 291.278C71.9558 291.418 73.0123 291.271 73.9727 290.852C74.933 290.434 75.7604 289.761 76.3652 288.906C77.4689 287.318 77.7935 285.073 76.8509 283.375C75.5216 280.981 71.8119 279.911 68.4479 281.667L69.6503 277.093L85.9375 275.689C87.0501 276.047 91.9087 277.742 93.7326 282.311C95.2521 286.141 93.7763 289.783 92.387 293.184C91.2747 295.908 89.0335 300.228 83.6947 305.158C76.6922 311.624 68.9826 314.871 63.3159 316.556Z" fill="#CE9619"/>
<path d="M55.1447 336.281C55.6681 336.478 56.1285 336.813 56.477 337.25C56.8255 337.688 57.0493 338.211 57.1246 338.765C57.1998 339.319 57.1238 339.884 56.9045 340.398C56.6852 340.912 56.3309 341.358 55.879 341.687L59.5551 343.418C58.6747 345.807 57.4223 348.042 55.8441 350.04C50.8983 356.278 44.188 358.298 41.4837 358.936L56.7874 362.059C62.5006 356.3 68.2145 350.538 73.9288 344.773C74.5116 344.409 76.4651 343.091 76.9425 340.767C77.5555 337.793 75.5207 334.33 71.7854 332.8L67.4996 337.906L55.1447 336.281Z" fill="#CE9619"/>
<path d="M70.8584 331.054C62.963 325.416 54.0857 321.299 44.6815 318.914L67.8761 316.182L75.7466 321.469L70.8584 331.054Z" fill="#07221D"/>
<path d="M51.3765 282.883C51.7313 282.072 52.2759 281.358 52.9644 280.801C53.6529 280.244 54.465 279.861 55.3325 279.684C55.8129 279.587 57.015 279.328 59.4418 278.922C60.4011 278.759 61.1811 278.641 61.5585 278.597C61.8099 278.558 62.8201 278.401 63.9824 278.253C65.1446 278.106 66.1217 278.017 68.4691 277.761C74.2049 277.126 79.7313 276.65 85.0484 276.334C85.2693 276.318 85.4909 276.317 85.7119 276.331C87.4723 276.428 89.1692 277.022 90.6057 278.044C92.2814 279.435 93.501 281.297 94.107 283.389C96.0409 289.812 88.355 303.226 76.6916 310.843C65.46 318.177 53.4914 318.215 47.4712 317.725C46.7382 317.669 46.0241 317.465 45.3717 317.126C44.007 316.431 42.9199 315.291 42.2895 313.895C41.6296 312.356 41.5563 310.629 42.0833 309.04C43.3326 304.479 44.857 299.612 46.7124 294.506C48.2187 290.361 49.7862 286.488 51.3765 282.883Z" stroke="black" stroke-width="2.1518" stroke-miterlimit="10"/>
<path d="M43.0304 305.739L37.9537 306.448C37.7345 306.48 37.5109 306.456 37.3033 306.379C37.0956 306.301 36.9107 306.174 36.7652 306.007C36.6197 305.84 36.5183 305.639 36.4703 305.423C36.4224 305.206 36.4293 304.982 36.4905 304.769L50.2472 256.77L60.2577 254.421L64.808 259.442C64.9553 259.603 65.0606 259.798 65.1144 260.01C65.1683 260.221 65.1691 260.443 65.1168 260.655C63.6239 266.678 62.133 272.7 60.6441 278.72" stroke="black" stroke-width="2.1518" stroke-miterlimit="10"/>
<path d="M59.3025 255.193C56.9898 263.915 54.6763 272.637 52.362 281.358" stroke="black" stroke-width="2.1518" stroke-miterlimit="10"/>
<path d="M87.4989 277.358C87.3279 279.195 85.6881 293.98 72.1423 302.815C58.6517 311.612 44.5282 307.223 42.7643 306.63" stroke="black" stroke-width="2.1518" stroke-miterlimit="10"/>
<path d="M60.1628 288.161C59.7481 285.874 63.3926 283.298 68.3031 282.408C73.2135 281.518 77.5303 282.65 77.945 284.938C78.3597 287.225 74.7151 289.801 69.8047 290.691C64.8943 291.581 60.5774 290.449 60.1628 288.161Z" stroke="black" stroke-width="2.1518" stroke-miterlimit="10"/>
<path d="M67.5876 315.524C69.4116 316.696 71.3328 317.868 73.3513 319.042C74.8118 319.891 76.2489 320.695 77.6625 321.456C75.7627 324.714 73.8002 328.005 71.7749 331.329C70.3098 333.729 68.841 336.091 67.3685 338.414C61.3741 338.145 55.5188 336.52 50.244 333.659C46.8698 331.818 43.7848 329.49 41.0884 326.75C42.2855 323.586 43.4804 320.425 44.6731 317.265" stroke="black" stroke-width="2.1518" stroke-miterlimit="10"/>
<path d="M56.1531 318.217C54.8549 320.39 53.5381 322.756 52.2478 325.314C50.9575 327.872 49.8667 330.28 48.8988 332.579" stroke="black" stroke-width="2.1518" stroke-miterlimit="10"/>
<path d="M43.0635 320.479C37.7896 320.099 33.9286 321.136 32.9321 323.627C31.1382 328.112 39.3173 335.601 51.2008 340.352C63.0844 345.104 74.1712 345.33 75.9657 340.842C76.9168 338.464 75.0605 335.238 71.3325 332.023" stroke="black" stroke-width="2.1518" stroke-miterlimit="10"/>
<path d="M33.4973 346.715C30.775 346.125 29.0463 343.44 29.6362 340.718C30.226 337.996 32.911 336.267 35.6333 336.857C38.3556 337.447 40.0843 340.132 39.4945 342.854C38.9046 345.576 36.2196 347.305 33.4973 346.715Z" stroke="black" stroke-width="2.1518" stroke-miterlimit="10"/>
<path d="M75.9675 340.832C76.0445 342.106 75.8438 343.382 75.3794 344.571C75.0807 345.326 74.6774 346.036 74.1813 346.679C71.2348 350.096 68.0661 353.315 64.6958 356.315C62.1995 358.536 59.7554 360.491 57.4147 362.211C53.9145 361.366 50.2611 360.567 46.4594 359.837C43.9867 359.362 41.5637 358.935 39.1903 358.557L34.3636 365.799C33.9171 366.402 33.303 366.861 32.5977 367.118C32.1558 367.278 31.6878 367.354 31.2181 367.341L21.4224 366.109C22.3821 360.535 23.5271 354.732 24.8924 348.732C26.8078 340.314 28.9495 332.417 31.2015 325.072C31.3131 324.68 31.4937 324.312 31.7347 323.984C32.1674 323.403 32.7642 322.965 33.4481 322.726" stroke="black" stroke-width="2.1518" stroke-miterlimit="10"/>
<path d="M35.683 320.663C36.0964 318.362 36.5083 316.059 36.9187 313.755C36.9949 313.561 37.0056 313.347 36.9492 313.147C36.8928 312.946 36.7723 312.769 36.6062 312.643C36.4133 312.527 36.1825 312.49 35.9629 312.54L27.0701 314.647C26.721 314.715 26.4022 314.891 26.1587 315.15C25.9151 315.409 25.7592 315.738 25.713 316.091C21.3585 332.783 17.0024 349.474 12.6446 366.165C12.6811 366.519 12.7972 366.86 12.9844 367.163C13.6093 368.17 14.8019 368.316 14.9852 368.338L21.1893 365.834" stroke="black" stroke-width="2.1518" stroke-miterlimit="10"/>
<path d="M14.5383 368.259C13.8493 370.981 13.1811 373.767 12.5338 376.619C12.0633 378.694 11.6192 380.743 11.2016 382.767C11.4294 383.426 11.7731 384.039 12.2165 384.577C12.8642 385.358 13.7017 385.96 14.6489 386.325C17.3068 385.666 19.8343 384.562 22.1246 383.061C21.4631 377.651 21.6154 372.173 22.5765 366.808" stroke="black" stroke-width="2.1518" stroke-miterlimit="10"/>
<path d="M51.7883 361.926C51.2121 362.731 50.0737 364.298 48.6891 365.99C48.065 366.714 47.3647 367.369 46.6004 367.944C46.3469 368.15 46.0611 368.313 45.7545 368.426C45.0307 368.638 44.2543 368.575 43.5742 368.249C42.9999 368.032 42.417 367.819 41.8256 367.609C39.3999 366.757 37.0668 366.056 34.8101 365.496" stroke="black" stroke-width="2.1518" stroke-miterlimit="10"/>
<path d="M43.6668 368.676C43.4595 372.337 43.8782 376.007 44.9049 379.527C43.0005 380.823 41.0605 382.203 39.0849 383.666C37.7096 384.689 36.3798 385.706 35.0957 386.717C34.641 386.857 34.1743 386.954 33.7015 387.008C33.1471 387.061 32.5891 387.064 32.0341 387.017C30.9004 386.913 27.1851 385.567 22.4016 383.152" stroke="black" stroke-width="2.1518" stroke-miterlimit="10"/>
<path d="M44.841 379.304C45.7688 380.765 46.5222 382.33 47.0857 383.967C47.4321 384.967 47.7049 385.991 47.9019 387.03C46.8135 391.817 44.6913 396.307 41.6842 400.186C41.5101 400.483 41.2531 400.723 40.9446 400.877C40.6793 400.996 40.3882 401.047 40.0981 401.025C38.6295 400.978 37.1801 400.676 35.8146 400.133C34.4413 399.507 33.2008 398.623 32.1605 397.53C32.0298 397.278 31.9574 397 31.9484 396.716C31.9394 396.432 31.9942 396.15 32.1086 395.89C32.4615 395.079 32.9245 394.32 33.4846 393.635C33.9975 393.039 34.7033 392.179 35.5685 391.017L34.1166 387.309" stroke="black" stroke-width="2.1518" stroke-miterlimit="10"/>
<path d="M27.492 386.297C27.4029 389.84 27.4273 393.607 27.6151 397.571C27.7451 400.352 27.9388 403.024 28.196 405.588C28.2008 406.271 28.0543 406.947 27.7671 407.567C27.5182 408.071 27.1851 408.529 26.7823 408.92C25.3256 410.367 23.2651 410.769 22.6077 410.887C20.8381 411.189 19.0201 411.016 17.3392 410.385C17.036 410.23 16.7638 410.021 16.536 409.767C16.2468 409.421 16.0318 409.019 15.9044 408.586C14.9169 405.217 14.6348 396.917 14.6348 396.917C14.5134 393.333 14.2867 391.428 14.5363 387.734C14.5763 387.14 14.6202 386.648 14.6506 386.315" stroke="black" stroke-width="2.1518" stroke-miterlimit="10"/>
<path d="M162.621 384.22C159.586 383.205 155.224 381.782 149.94 380.196C140.023 377.22 129.848 374.201 116.958 371.91C112.147 371.055 105.53 370.047 97.534 369.361C97.0154 370.032 94.6766 373.26 95.3188 377.537C95.5852 379.255 96.2757 380.879 97.3278 382.263C98.8148 383.027 101.061 384.116 103.858 385.268C113.838 389.346 121.662 390.271 128.873 391.374C135.412 392.371 144.805 394.028 156.539 396.87C159.92 393.45 162.061 388.997 162.621 384.22Z" fill="#FCBE11"/>
<path d="M158.194 383.76L156.594 388.075C155.246 388.274 153.291 388.511 150.925 388.624C143.472 388.978 136.658 387.862 122.74 383.478C116.591 381.543 108.987 378.932 100.342 375.519L100.763 370.504C103.645 370.769 107.552 371.192 112.161 371.862C121.729 373.303 131.195 375.354 140.501 378.003C145.325 379.366 151.342 381.234 158.194 383.76Z" fill="url(#paint16_linear_1424_1615)"/>
<path d="M145.397 396.38C144.639 401.271 143.254 406.043 141.277 410.58C140.431 412.523 139.478 414.416 138.421 416.252C126.499 415.203 114.789 412.441 103.654 408.053C103.049 400.837 103.87 393.573 106.07 386.674C119.597 387.888 132.859 391.161 145.397 396.38Z" fill="url(#paint17_linear_1424_1615)"/>
<path d="M152.908 396.896L157.893 396.052L163.728 385.184L182.551 389.484C183.373 391.463 184.195 393.443 185.017 395.424C183.415 403.757 181.814 412.09 180.214 420.424L168.655 418.776C166.602 419.741 164.339 420.172 162.075 420.028C155.888 419.596 152.27 414.824 151.686 414.026L141.37 412.895C142.305 409.762 143.278 406.596 144.289 403.397C145.057 400.969 145.833 398.569 146.616 396.198L152.908 396.896Z" fill="#FDBE00"/>
<path d="M168.243 391.34C171.521 393.355 173.136 396.611 173.261 396.865C175.062 400.601 174.438 404.168 173.858 407.435C173.231 410.954 172.689 414.034 170.037 416.527C169.428 417.099 166.425 419.826 162.03 419.676C156.032 419.47 152.742 414.09 152.357 413.434C149.593 408.745 150.162 402.445 153.761 397.388L157.893 396.051L161.111 391.126C162.023 390.687 164.111 389.847 166.428 390.503C167.07 390.693 167.681 390.975 168.243 391.34Z" fill="url(#paint18_linear_1424_1615)"/>
<path d="M105.056 387.12L102.386 403.312L93.3372 400.908C92.5095 401.512 89.5864 403.509 85.5942 403.177C79.4817 402.667 76.4531 397.177 76.2431 396.76L64.3339 394.524C64.3267 391.037 64.673 387.558 65.3674 384.14C66.7653 377.332 69.4967 370.867 73.4042 365.119L95.7681 369.124L94.5697 380.112L104.969 386.114L105.056 387.12Z" fill="#FDBE00"/>
<path d="M98.2777 385.158C98.3558 386.122 98.9442 394.96 92.7125 399.687C91.8064 400.376 88.9611 402.544 85.1229 402.188C79.8573 401.697 77.0378 396.831 76.5469 395.989C73.1944 390.198 75.6293 383.96 76.3478 382.33C77.0476 380.751 79.0972 376.11 84.1908 374.371C85.4909 373.925 89.1924 372.443 92.1324 374.367C93.0629 374.992 93.8121 375.853 94.3042 376.86C94.0177 378.186 94.1688 379.569 94.7346 380.801C95.9072 383.292 98.3608 384.027 98.7474 384.135L98.2777 385.158Z" fill="url(#paint19_linear_1424_1615)"/>
<path d="M91.0086 383.188C92.753 385.558 91.6966 388.446 91.4339 389.201C90.4807 391.829 87.7406 394.837 85.1976 394.31C82.3793 393.728 80.894 389.042 81.8545 385.645C81.9813 385.192 82.9968 381.578 86.0623 381.031C88.0475 380.675 89.9837 381.786 91.0086 383.188Z" fill="#2D3D3F"/>
<path d="M106.643 387.242C105.77 392.478 104.896 397.715 104.022 402.952L92.5348 400.131C94.6814 397.905 96.3368 395.253 97.3937 392.346C98.4506 389.44 98.8855 386.344 98.6703 383.259L106.643 387.242Z" fill="#485A08"/>
<path d="M181.501 413.746C180.335 413.823 179.165 413.719 178.031 413.438C177.418 413.286 176.818 413.082 176.239 412.828C177.16 410.587 177.794 408.239 178.124 405.839C178.571 402.571 179.228 397.78 176.93 393.591C173.375 387.109 164.973 386.135 163.846 386.021L161.665 390.881C162.727 390.634 166.065 390.007 169.329 391.798C172.878 393.752 174.006 397.306 174.516 398.926C177.401 407.997 169.733 417.085 168.889 418.067L178.117 420.147C178.64 420.119 179.145 419.944 179.574 419.643C179.953 419.362 180.388 418.872 180.952 416.606C181.185 415.663 181.368 414.708 181.501 413.746Z" fill="#CE9619"/>
<path d="M142.065 395.483C139.371 403.276 131.481 407.936 123.769 406.614C115.363 405.174 109.238 396.987 110.358 388.047L106.468 386.724C105.146 391.74 104.375 396.886 104.169 402.07C104.077 404.42 104.107 406.643 104.221 408.722C115.47 412.398 127.146 414.61 138.961 415.302C139.626 413.438 140.637 410.731 142.029 407.525C144.973 400.734 147.104 397.489 145.869 395.994C145.446 395.48 144.487 395.011 142.065 395.483Z" fill="#CE9619"/>
<path d="M92.0051 368.844C88.8548 368.493 82.5443 367.789 77.6803 371.661C73.1508 375.266 72.2438 380.958 71.774 383.897C71.4973 385.64 71.4119 387.408 71.5191 389.17C70.3736 389.456 69.1821 389.507 68.0162 389.321C66.8503 389.135 65.7342 388.715 64.7348 388.086C63.6083 389.815 63.444 391.899 64.3483 393.484C64.8369 394.304 65.5647 394.956 66.4341 395.351C72.1926 395.904 74.5936 396.424 75.4161 396.869C75.4685 396.904 75.5282 396.928 75.5909 396.939C75.6535 396.949 75.7177 396.946 75.7789 396.929C76.4285 396.642 75.3414 393.527 74.9015 390.401C74.5312 387.773 74.0956 384.687 75.4193 381.638C76.8761 378.276 79.7609 376.575 81.3599 375.617C82.9589 374.658 85.4137 373.219 88.827 373.392C91.1423 373.532 93.3653 374.349 95.2193 375.743C95.6266 373.743 96.0336 371.748 96.4403 369.758C94.9926 369.32 93.5081 369.014 92.0051 368.844Z" fill="#CE9619"/>
<path d="M157.638 385.263C148.612 382.347 138.666 379.555 127.891 377.121C118.355 374.969 109.305 373.355 100.85 372.15C100.95 371.205 101.051 370.262 101.153 369.318C109.915 370.887 119.048 372.746 128.511 374.948C138.721 377.325 148.421 379.893 157.582 382.57L158.363 383.23C158.12 383.908 157.879 384.585 157.638 385.263Z" fill="#F0FBB9"/>
<path d="M154.42 396.058C152.977 397.955 151.993 400.16 151.544 402.501C149.77 410.689 153.491 418.444 159.854 419.822C166.216 421.201 172.81 415.681 174.585 407.493C176.359 399.305 172.638 391.551 166.278 390.173C163.917 389.661 162.619 389.737 160.454 390.91" stroke="black" stroke-width="2.1518" stroke-miterlimit="10"/>
<path d="M98.1389 383.3C98.6673 385.624 98.6506 388.039 98.0902 390.356C96.3161 398.543 89.7195 404.063 83.3567 402.684C76.9939 401.306 73.276 393.551 75.05 385.364C76.8241 377.176 83.4207 371.656 89.781 373.034C92.1421 373.546 93.2923 374.153 94.7775 376.117" stroke="black" stroke-width="2.1518" stroke-miterlimit="10"/>
<path d="M85.1094 394.597C82.1214 393.949 80.3744 390.308 81.2074 386.463C82.0404 382.619 85.1379 380.027 88.126 380.674C91.1141 381.322 92.8611 384.963 92.0281 388.808C91.1951 392.652 88.0975 395.244 85.1094 394.597Z" stroke="black" stroke-width="2.1518" stroke-miterlimit="10"/>
<path d="M167.817 418.583C170.634 419.243 174.194 419.884 177.011 420.544C177.42 420.697 177.856 420.765 178.293 420.745C178.729 420.725 179.157 420.616 179.55 420.426C179.995 420.187 180.379 419.849 180.673 419.439C180.968 419.028 181.164 418.556 181.248 418.058C182.065 414.432 182.829 410.609 183.51 406.598C184.139 402.887 184.648 399.307 185.051 395.87C184.986 394.501 184.586 393.169 183.885 391.991C183.184 390.813 182.205 389.826 181.033 389.116L162.248 384.121C161.377 383.672 160.268 383.129 158.953 382.593C157.762 382.109 156.547 381.685 155.313 381.324C122.474 371.658 100.777 369.273 100.777 369.273C99.0915 369.088 97.6372 368.945 96.4935 368.838L78.4169 365.021C77.1369 364.693 75.7894 364.744 74.5377 365.167C72.8327 365.785 71.431 367.036 70.6225 368.659C67.4361 375.979 65.1516 383.658 63.8192 391.529C63.8382 392.375 64.1059 393.196 64.589 393.891C64.9523 394.382 65.4109 394.794 65.9373 395.103C66.4637 395.412 67.0471 395.612 67.6526 395.69L75.769 396.927" stroke="black" stroke-width="2.1518" stroke-miterlimit="10"/>
<path d="M163.205 384.885L159.7 393.374C159.278 394.245 158.645 394.998 157.858 395.564C155.698 397.101 153.211 396.53 152.787 396.426C144.214 394.751 135.421 392.878 126.406 390.809C118.027 388.878 109.895 386.87 102.01 384.784C100.561 384.356 99.1878 383.706 97.9378 382.858C96.7775 382.068 95.8368 381.41 95.2679 380.157C94.9168 379.368 94.765 378.505 94.8257 377.644L96.4359 369.755" stroke="black" stroke-width="2.1518" stroke-miterlimit="10"/>
<path d="M158.366 383.222L157.549 386.849C157.418 387.429 157.084 387.945 156.608 388.302C156.132 388.659 155.544 388.835 154.949 388.799C136.599 387.692 118.573 383.449 101.656 376.255C101.141 376.038 100.714 375.655 100.442 375.169C100.169 374.682 100.066 374.118 100.15 373.566C100.332 372.387 100.513 371.208 100.692 370.029" stroke="black" stroke-width="1.43453" stroke-miterlimit="10"/>
<path d="M141.685 394.957C140.972 399.962 139.478 404.823 137.258 409.365C137.044 409.8 136.707 410.162 136.288 410.406C135.869 410.651 135.388 410.767 134.904 410.739C126.293 410.279 117.811 408.441 109.782 405.296C109.323 405.119 108.929 404.809 108.649 404.405C108.368 404.001 108.216 403.523 108.21 403.032C108.152 397.687 108.952 392.368 110.58 387.278" stroke="black" stroke-width="1.43453" stroke-miterlimit="10"/>
<path d="M145.932 395.576C145.027 401.953 143.125 408.147 140.294 413.932C140.023 414.485 139.595 414.946 139.063 415.258C138.532 415.569 137.92 415.717 137.305 415.683C126.339 415.099 115.538 412.759 105.314 408.752C104.73 408.526 104.227 408.131 103.87 407.618C103.513 407.104 103.318 406.495 103.31 405.869C103.245 399.064 104.271 392.293 106.35 385.813" stroke="black" stroke-width="2.1518" stroke-miterlimit="10"/>
<path d="M171.255 284.555C170.22 288.647 169.186 292.738 168.151 296.83C166.46 297.734 157.19 302.481 146.176 298.899C137.614 296.115 133.072 289.949 131.685 287.892C132.678 283.879 133.672 279.864 134.665 275.849C140.103 277.523 145.906 279.136 152.056 280.617C158.769 282.233 165.188 283.522 171.255 284.555Z" fill="#CC9A1F"/>
<path d="M105.343 274.466C100.341 271.244 97.7613 270.547 97.7613 270.547C95.2682 269.873 88.5555 268.061 83.6171 271.831C82.444 272.736 81.4614 273.865 80.726 275.151C81.086 275.104 81.6083 275.042 82.2417 274.986C84.2607 274.8 85.2699 274.708 86.3922 274.841C87.5757 274.985 88.7275 275.323 89.8013 275.841C90.2264 276.049 90.6364 276.286 91.0284 276.551L97.5436 276.876" fill="#CC9A1F"/>
<path d="M184.715 292.896C185.532 295.345 185.608 297.98 184.932 300.472C184.673 301.39 184.306 302.274 183.839 303.106C182.649 303.424 181.428 303.611 180.197 303.664C177.783 303.758 175.375 303.342 173.132 302.444C174.38 300.904 175.218 299.073 175.567 297.122C176.265 293.117 173.034 289.248 173.838 288.705C173.932 288.642 174.123 288.592 174.556 288.811C178.117 289.692 181.539 291.064 184.722 292.888L184.715 292.896Z" fill="#030802"/>
<path d="M129.797 278.162C128.211 279.226 126.885 280.634 125.918 282.281C124.526 284.709 123.95 287.52 124.277 290.3C120.669 290.763 117.004 290.471 113.515 289.443C113.452 287.445 113.388 285.447 113.324 283.447L104.639 282.268C104.326 280.81 104.398 279.296 104.849 277.876C105.096 277.115 105.452 276.395 105.905 275.737C113.943 274.39 122.194 275.232 129.794 278.175L129.797 278.162Z" fill="#030802"/>
<path d="M171.466 287.339C172.793 288.18 174.848 289.802 175.555 292.368C177.381 298.978 168.426 305.153 167.985 305.452C167.2 305.979 162.509 309.04 156.628 308.473C154.757 308.29 154.869 307.943 149.997 306.551C144.009 304.841 142.693 305.033 139.38 303.942C136.519 303.001 132.787 301.699 129.418 298.571C127.27 296.573 123.094 292.896 123.225 287.701C123.248 286.813 123.329 283.532 125.966 281.192C128.55 278.907 131.75 279.123 132.403 279.194C132.17 282.102 131.935 285.009 131.698 287.916C134.325 291.78 137.906 294.901 142.092 296.976C154.133 302.845 166.244 297.056 167.933 296.213L171.466 287.339Z" fill="#454E4D"/>
<path d="M184.722 302.851L184.728 303.09C184.819 308.446 183.084 313.674 179.807 317.912L162.791 308.248L171.089 302.056C175.4 303.908 180.225 304.189 184.722 302.851Z" fill="#1E2D34"/>
<path d="M123.637 291.403C123.637 291.403 125.108 294.505 126.35 296.468C127.562 298.363 129.07 300.052 130.816 301.469C126.94 301.122 123.043 301.069 119.159 301.31C116.574 301.471 114.161 301.752 111.941 302.096C109.422 299.539 107.502 296.455 106.32 293.066C105.138 289.677 104.724 286.068 105.106 282.499L112.471 283.688C112.295 285.027 112.53 286.387 113.145 287.59C113.808 288.818 114.833 289.811 116.08 290.437C116.08 290.437 117.617 291.261 123.637 291.403Z" fill="#1E2D34"/>
<path d="M201.55 339.731L197.302 358.649C191.549 368.534 183.316 376.748 173.418 382.479L165.7 382.582C166.979 375.639 169.858 369.089 174.108 363.451C175.892 363.315 179.687 362.76 182.967 359.91C184.678 358.425 185.58 356.9 186.31 355.641C187.521 353.554 189.457 349.476 189.713 343.465L201.55 339.731Z" fill="#1E2D34"/>
<path d="M97.7756 367.893L91.6865 364.577C85.2383 355.197 80.538 344.729 77.8124 333.677L79.8442 323.794L89.4541 327.763C88.6432 329.968 88.3833 332.338 88.6973 334.665C89.6926 341.71 95.8271 345.346 96.7378 345.878C98.8006 353.034 99.1561 360.575 97.7756 367.893Z" fill="#1E2D34"/>
<path d="M192.59 330.102C190.926 336.448 189.262 342.794 187.598 349.141L192.59 330.102Z" fill="#A3A3A3"/>
<path d="M192.709 330.778L186.453 356.809C185.284 358.856 183.564 360.533 181.488 361.651C178.821 363.039 175.751 363.442 172.816 362.79C169.619 361.76 165.734 360.537 161.301 359.201C158.719 358.422 153.626 356.906 146.959 355.049C136.905 352.265 131.879 350.871 129.6 350.476C118.801 348.596 113.616 350.01 102.454 346.999C100.151 346.377 96.9942 345.406 94.3064 342.607C91.3528 339.529 90.4711 335.804 90.1617 333.714C91.5576 325.874 92.9523 318.036 94.3458 310.199C98.484 307.703 102.919 305.736 107.546 304.343C116.227 301.769 125.382 301.221 134.307 302.741C136.935 303.973 139.661 304.984 142.456 305.765C148.318 307.395 154.415 308.016 160.485 307.601C173.533 311.464 184.889 319.628 192.706 330.767L192.709 330.778Z" fill="url(#paint20_linear_1424_1615)"/>
<path d="M169.175 325.909C165.602 334.657 162.03 343.403 158.457 352.148L116.63 343.378C117.029 334.017 117.43 324.657 117.83 315.298C119.829 313.966 131.043 306.782 145.86 309.901C160.49 312.988 167.84 323.855 169.175 325.909Z" fill="#F5B517"/>
<path d="M160.33 323.697C158.354 331.114 156.378 338.529 154.401 345.942L122.828 338.657L126.096 316.058C133.704 315.652 143.969 316.31 154.712 320.927C156.632 321.752 158.507 322.676 160.33 323.697Z" fill="#F0FBB9"/>
<path d="M152.183 357.891C151.587 363.367 150.118 368.711 147.831 373.722C147.106 374.312 144.827 376 141.679 375.866C140.667 375.821 139.671 375.596 138.737 375.203C136.673 374.677 134.564 374.163 132.413 373.66C129.73 373.033 127.093 372.454 124.504 371.923L120.592 370.705C118.476 369.014 116.872 366.769 115.959 364.219C113.451 357.048 117.91 350.638 118.422 349.924C130.064 350.499 141.504 353.195 152.178 357.877L152.183 357.891Z" fill="#485A08"/>
<path d="M172.547 363.959C168.197 369.614 165.054 376.101 163.311 383.02C162.766 382.714 162.183 382.405 161.56 382.103C160.891 381.78 160.246 381.494 159.627 381.24C160.611 374.417 163.416 367.985 167.747 362.621C168.612 362.833 169.499 363.066 170.406 363.32C171.144 363.521 171.858 363.734 172.547 363.959Z" fill="#454E4D"/>
<path d="M165.324 361.96C163.095 366.174 161.109 370.512 159.377 374.953C158.641 376.831 157.971 378.671 157.366 380.474C155.246 379.816 153.094 379.164 150.909 378.519C149.083 377.982 147.272 377.461 145.476 376.955C147.684 375.026 149.52 372.709 150.891 370.118C152.886 366.308 153.836 362.038 153.646 357.741C157.711 358.614 161.64 360.033 165.324 361.96Z" fill="#F5B517"/>
<path d="M117.669 349.847C116.7 352.599 116.033 355.449 115.679 358.345C115.244 361.942 114.91 365.013 116.438 368.275C116.869 369.195 117.411 370.058 118.052 370.846C116.448 370.452 114.789 370.076 113.076 369.718C110.988 369.284 108.961 368.915 107.004 368.598C106.744 365.216 106.457 361.795 106.146 358.334C105.843 354.912 105.515 351.529 105.162 348.186C107.462 348.545 109.818 348.882 112.232 349.196C114.064 349.429 115.876 349.646 117.669 349.847Z" fill="#F5B517"/>
<path d="M103.962 348.221C105.733 354.765 105.98 361.627 104.685 368.281C103.688 368.138 102.661 368.009 101.605 367.893C100.863 367.811 100.133 367.74 99.4147 367.68C99.8529 360.519 99.3668 353.332 97.9685 346.296L103.962 348.221Z" fill="#454E4D"/>
<path d="M221.754 325.933C218.15 328.545 214.125 331.244 209.674 333.871C203.345 337.608 196.751 340.878 189.945 343.653C190.793 339.011 191.641 334.367 192.489 329.72L179.806 317.911C182.906 309.932 184.785 301.532 185.383 292.993C188.021 293.698 193.941 295.565 198.97 300.772C205.498 307.532 206.545 315.498 206.813 318.054C212.45 319.181 217.64 321.917 221.754 325.933Z" fill="#2D3D3F"/>
<path d="M104.006 275.578C103.207 280.323 103.46 285.186 104.745 289.822C106.031 294.459 108.319 298.757 111.447 302.414C106.254 303.299 101.236 305.009 96.5845 307.481L93.9184 309.715C92.4184 314.357 91.3128 319.117 90.6132 323.945C90.4535 325.043 90.3212 326.124 90.2081 327.188C83.7488 323.364 77.1789 320.387 70.8302 315.715C76.3367 313.238 81.3375 309.764 85.5799 305.467C85.5799 305.467 92.3656 298.606 95.1498 289.984C95.8084 287.993 95.9503 285.867 95.5622 283.806C95.1742 281.745 94.2689 279.816 92.9313 278.201C95.6172 277.587 98.3193 276.954 101.038 276.303C102.035 276.063 103.024 275.821 104.006 275.578Z" fill="#2D3D3F"/>
<path d="M196.613 321.246C194.242 318.59 193.655 315.245 195.301 313.776C196.948 312.307 200.204 313.27 202.574 315.926C204.945 318.583 205.532 321.927 203.886 323.396C202.24 324.865 198.983 323.903 196.613 321.246Z" fill="#5B627E"/>
<path d="M187.116 312.758C184.121 310.834 182.659 307.769 183.852 305.912C185.044 304.056 188.439 304.111 191.435 306.035C194.43 307.96 195.892 311.024 194.699 312.881C193.507 314.737 190.112 314.682 187.116 312.758Z" fill="#5B627E"/>
<path d="M95.0459 300.372C93.9442 298.46 95.5518 295.469 98.6366 293.692C101.721 291.914 105.115 292.022 106.217 293.934C107.319 295.846 105.711 298.837 102.626 300.614C99.5414 302.392 96.1476 302.284 95.0459 300.372Z" fill="#5B627E"/>
<path d="M85.6472 310.955C84.0666 309.416 84.7991 306.1 87.2833 303.55C89.7675 300.999 93.0627 300.179 94.6432 301.719C96.2238 303.258 95.4913 306.574 93.0071 309.124C90.5229 311.675 87.2277 312.495 85.6472 310.955Z" fill="#5B627E"/>
<path d="M79.2787 321.962C77.3345 320.919 77.1229 317.53 78.8062 314.392C80.4895 311.255 83.4302 309.557 85.3745 310.6C87.3187 311.644 87.5302 315.033 85.8469 318.17C84.1636 321.307 81.2229 323.005 79.2787 321.962Z" fill="#5B627E"/>
<path d="M201.772 331.208C199.995 328.123 200.103 324.729 202.015 323.627C203.927 322.526 206.917 324.133 208.695 327.218C210.473 330.303 210.364 333.697 208.453 334.798C206.541 335.9 203.55 334.293 201.772 331.208Z" fill="#5B627E"/>
<path d="M190.986 334.188C190.232 335.962 185.597 346.377 174.243 350.02C169.932 351.374 165.344 351.594 160.923 350.661L156.995 352.887L117.824 344.384L114.848 341.014C109.411 339.501 104.547 336.408 100.871 332.126C93.9259 323.944 94.1202 314.505 94.2127 312.26C92.7499 320.4 91.2855 328.54 89.8195 336.68C91.1491 339.411 93.0759 341.808 95.4572 343.694C99.5411 346.868 103.879 347.518 105.608 347.78C115.67 349.303 125.604 351.714 135.725 352.773C143.637 353.603 154.922 355.876 168.571 362.48C171.809 363.689 175.375 363.686 178.61 362.471C181.846 361.257 184.534 358.912 186.176 355.871L192.67 335.295L190.986 334.188Z" fill="#CE9619"/>
<path d="M164.366 336.494L160.144 330.029C160.119 327.732 160.103 325.437 160.096 323.143C149.634 319.039 138.505 316.902 127.267 316.837C126.472 319.479 125.68 322.12 124.89 324.761C122.1 325.326 119.47 326.498 117.184 328.195C117.487 323.842 117.79 319.49 118.092 315.139C120.286 313.688 130.654 307.158 144.445 309.648C159.721 312.391 167.381 324.048 168.602 325.978L164.366 336.494Z" fill="#B78115"/>
<path d="M162.335 341.817C161.19 343.217 159.729 344.325 158.072 345.049C156.908 345.557 155.666 345.864 154.399 345.955L124.86 340.221C122.986 339.709 121.238 338.813 119.727 337.589C118.217 336.366 116.977 334.842 116.087 333.115C116.034 336.69 115.985 340.264 115.938 343.837L157.889 353.075L162.335 341.817Z" fill="#CE9619"/>
<path d="M151.851 361.608C150.793 362.478 143.793 368.04 134.13 366.45C123.085 364.631 118.214 355.056 117.761 354.122C117.156 355.591 115.37 360.472 117.312 365.931C118.004 367.864 119.071 369.642 120.451 371.163C122.941 371.607 125.5 372.117 128.128 372.693C132.575 373.675 136.778 374.769 140.739 375.93C143.649 375.336 146.297 373.836 148.303 371.646C152.002 367.548 151.897 362.636 151.851 361.608Z" fill="#404314"/>
<path d="M160.279 324.501L155.642 344.457C155.525 344.959 155.215 345.395 154.779 345.67C154.343 345.944 153.817 346.037 153.314 345.926L124.006 339.511C123.508 339.402 123.072 339.102 122.79 338.676C122.509 338.25 122.406 337.731 122.501 337.23L126.278 317.484C126.367 317.016 126.623 316.596 126.999 316.303C127.376 316.011 127.846 315.866 128.322 315.896C138.794 316.577 149.123 318.701 159.014 322.209C159.47 322.369 159.851 322.69 160.084 323.113C160.318 323.536 160.387 324.03 160.279 324.501Z" stroke="black" stroke-width="2.1518" stroke-miterlimit="10"/>
<path d="M168.396 327.098C165.472 334.971 162.548 342.843 159.624 350.716C159.336 351.489 158.778 352.133 158.053 352.527C157.327 352.921 156.484 353.039 155.678 352.86L118.146 344.467C117.344 344.286 116.633 343.822 116.144 343.16C115.656 342.498 115.422 341.683 115.487 340.863C116.121 332.898 116.755 324.933 117.388 316.97C117.431 316.416 117.61 315.88 117.908 315.411C118.206 314.941 118.614 314.552 119.096 314.276C123.108 311.978 132.842 307.457 145.186 309.832C157.59 312.217 164.991 320.106 167.894 323.799C168.253 324.26 168.488 324.806 168.576 325.383C168.664 325.961 168.602 326.551 168.396 327.098Z" stroke="black" stroke-width="2.1518" stroke-miterlimit="10"/>
<path d="M134.287 302.075C128.705 301.46 123.07 301.488 117.495 302.159C110.615 302.989 103.88 304.757 97.4789 307.412C96.5181 307.812 95.6686 308.438 95.003 309.238C94.3373 310.037 93.8756 310.986 93.6572 312.003L89.2744 332.231C89.0411 333.289 89.0812 334.39 89.391 335.428C90.3414 338.615 92.2308 341.441 94.8124 343.537C97.3941 345.633 100.548 346.902 103.862 347.177C113.627 348.393 124.32 350.172 135.732 352.762C147.05 355.332 157.385 358.315 166.662 361.411C166.806 361.458 166.943 361.508 167.085 361.568C170.138 362.838 173.51 363.133 176.737 362.411C179.965 361.689 182.89 359.986 185.111 357.535C185.795 356.785 186.292 355.882 186.561 354.903L192.526 333.264C192.835 332.149 192.839 330.971 192.537 329.854C192.235 328.738 191.637 327.723 190.808 326.916C186.014 322.263 180.687 318.193 174.938 314.791C170.043 311.892 164.862 309.505 159.478 307.667" stroke="black" stroke-width="2.1518" stroke-miterlimit="10"/>
<path d="M192.112 330.018L169.875 326.087" stroke="black" stroke-width="1.43453" stroke-miterlimit="10"/>
<path d="M186.12 354.024C184.916 354.53 183.66 354.903 182.376 355.136C182.15 355.179 181.928 355.214 181.706 355.252C181.36 355.302 181.009 355.296 180.665 355.236C176.558 354.482 172.282 353.579 167.863 352.493C165.349 351.875 162.907 351.231 160.537 350.561" stroke="black" stroke-width="1.43453" stroke-miterlimit="10"/>
<path d="M94.8403 309.302L116.707 314.927" stroke="black" stroke-width="1.43453" stroke-miterlimit="10"/>
<path d="M89.7967 333.352C90.79 334.386 91.881 335.322 93.0546 336.146C93.2457 336.276 93.4323 336.403 93.6164 336.529C93.9102 336.717 94.2326 336.856 94.571 336.942C98.6213 337.958 102.888 338.903 107.359 339.746C109.903 340.224 112.392 340.648 114.829 341.018" stroke="black" stroke-width="1.43453" stroke-miterlimit="10"/>
<path d="M171.494 283.454L169.232 293.893C169.023 294.854 168.579 295.749 167.94 296.497C167.301 297.244 166.487 297.823 165.57 298.179C160.088 300.371 154.066 300.828 148.316 299.489C142.566 298.15 137.365 295.079 133.416 290.69C132.792 290.006 132.338 289.185 132.089 288.293C131.841 287.402 131.804 286.464 131.983 285.556L134.064 274.869" stroke="black" stroke-width="2.1518" stroke-miterlimit="10"/>
<path d="M171.717 287.54C172.606 288.364 175.681 291.414 175.532 295.545C175.327 301.201 169.232 304.431 167.394 305.397C160.582 309.006 153.584 307.393 146.312 305.714C139.041 304.034 131.374 302.265 126.898 295.587C125.672 293.755 122.675 289.284 124.449 284.699C126.278 279.971 131.828 278.62 132.534 278.458" stroke="black" stroke-width="2.1518" stroke-miterlimit="10"/>
<path d="M174.252 363.266C169.376 369.345 165.897 376.423 164.062 383.998" stroke="black" stroke-width="2.1518" stroke-miterlimit="10"/>
<path d="M166.996 361.916C165.02 365.168 163.251 368.541 161.702 372.017C160.31 375.135 159.099 378.331 158.075 381.588" stroke="black" stroke-width="2.1518" stroke-miterlimit="10"/>
<path d="M97.0496 345.069C99.1686 352.543 99.755 360.368 98.7736 368.074" stroke="black" stroke-width="2.1518" stroke-miterlimit="10"/>
<path d="M104.558 347.871C105.963 354.893 106.226 362.095 105.337 369.201" stroke="black" stroke-width="2.1518" stroke-miterlimit="10"/>
<path d="M153.117 357.677C152.726 360.724 152.096 363.735 151.233 366.684C150.316 369.818 149.835 371.413 148.705 372.8C145.794 376.38 140.61 376.679 138.157 376.641" stroke="black" stroke-width="2.1518" stroke-miterlimit="10"/>
<path d="M163.979 365.553L153.188 362.771" stroke="black" stroke-width="1.43453" stroke-miterlimit="10"/>
<path d="M161.915 370.679L151.122 367.897" stroke="black" stroke-width="1.43453" stroke-miterlimit="10"/>
<path d="M159.872 376.267L149.078 373.484" stroke="black" stroke-width="1.43453" stroke-miterlimit="10"/>
<path d="M118.427 349.938C117.522 352.874 116.849 355.876 116.414 358.918C115.951 362.151 115.729 363.802 116.184 365.532C117.352 369.995 121.947 372.414 124.196 373.394" stroke="black" stroke-width="2.1518" stroke-miterlimit="10"/>
<path d="M105.269 352.611L116.244 354.545" stroke="black" stroke-width="1.43453" stroke-miterlimit="10"/>
<path d="M105.027 358.137L116.004 360.071" stroke="black" stroke-width="1.43453" stroke-miterlimit="10"/>
<path d="M104.583 364.065L115.561 366" stroke="black" stroke-width="1.43453" stroke-miterlimit="10"/>
<path d="M222.003 324.557C212.631 332.495 201.963 338.76 190.465 343.078" stroke="black" stroke-width="2.1518" stroke-miterlimit="10"/>
<path d="M184.743 291.621C185.714 300.486 184.333 309.451 180.74 317.614" stroke="black" stroke-width="2.1518" stroke-miterlimit="10"/>
<path d="M199.235 299.867C197.561 305.694 195.373 311.361 192.694 316.8C191.414 319.394 190.094 321.791 188.764 324.014" stroke="black" stroke-width="2.1518" stroke-miterlimit="10"/>
<path d="M211.751 318.71C208.764 321.336 205.46 323.578 201.918 325.384C199.016 326.851 195.966 328.004 192.819 328.824" stroke="black" stroke-width="2.1518" stroke-miterlimit="10"/>
<path d="M184.314 299.074L176.315 296.715" stroke="black" stroke-width="1.43453" stroke-miterlimit="10"/>
<path d="M184.576 302.128C183.732 302.781 182.76 303.252 181.724 303.509C181.121 303.655 180.175 303.805 177.773 303.468C176.077 303.227 174.402 302.851 172.765 302.344" stroke="black" stroke-width="1.43453" stroke-miterlimit="10"/>
<path d="M202.538 338.293C201.026 344.837 199.515 351.384 198.006 357.932C197.796 358.841 197.386 359.691 196.806 360.421C190.21 368.681 182.416 375.909 173.682 381.864C173.032 382.304 172.305 382.621 171.54 382.799C170.716 382.986 169.843 383.159 168.909 383.301C167.542 383.51 166.164 383.639 164.782 383.689" stroke="black" stroke-width="2.1518" stroke-miterlimit="10"/>
<path d="M79.37 323.175C78.0354 329.756 79.0084 324.953 77.6757 331.537C77.4882 332.449 77.5088 333.392 77.7357 334.296C80.3222 344.545 84.4259 354.351 89.9109 363.387C90.3192 364.058 90.8492 364.648 91.4738 365.125C92.1408 365.636 92.8695 366.153 93.6597 366.674C94.8185 367.43 96.0203 368.118 97.259 368.735" stroke="black" stroke-width="2.1518" stroke-miterlimit="10"/>
<path d="M89.8046 326.989C87.3844 326.039 84.8623 324.957 82.263 323.726C78.1292 321.771 74.11 319.582 70.2246 317.171" stroke="black" stroke-width="2.1518" stroke-miterlimit="10"/>
<path d="M132.392 277.62C118.657 274.218 104.283 274.363 90.6199 278.04" stroke="black" stroke-width="2.1518" stroke-miterlimit="10"/>
<path d="M105.109 274.86C104.509 274.237 103.857 273.667 103.16 273.156C102.392 272.592 101.573 272.1 100.714 271.689C97.5565 270.14 94.0613 269.707 92.5404 269.57C90.724 269.412 89.277 269.284 87.3383 269.678C85.6547 269.968 84.0521 270.613 82.637 271.57C80.7991 272.876 79.3801 274.688 78.5522 276.785" stroke="black" stroke-width="2.1518" stroke-miterlimit="10"/>
<path d="M112.094 302.27C108.924 298.774 106.617 294.585 105.358 290.038C104.099 285.491 103.923 280.711 104.844 276.084" stroke="black" stroke-width="2.1518" stroke-miterlimit="10"/>
<path d="M123.573 285.026L105.137 282.167" stroke="black" stroke-width="1.43453" stroke-miterlimit="10"/>
<path d="M123.594 290.854C122.17 290.945 120.963 290.947 120.04 290.922C117.422 290.858 116.369 290.573 115.605 290.282C114.881 290.01 114.505 289.866 114.119 289.516C112.509 288.066 113.076 284.592 113.201 284.115" stroke="black" stroke-width="1.43453" stroke-miterlimit="10"/>
<path d="M98.2747 306.511C96.5882 304.621 95.0144 302.632 93.5613 300.557C92.5134 299.056 91.5925 297.595 90.7722 296.201" stroke="black" stroke-width="2.1518" stroke-miterlimit="10"/>
<path d="M91.7859 317.17C89.683 314.997 87.5492 312.629 85.4123 310.046C84.4985 308.947 83.6243 307.858 82.7895 306.779" stroke="black" stroke-width="2.1518" stroke-miterlimit="10"/>
<defs>
<linearGradient id="paint0_linear_1424_1615" x1="201.649" y1="43.6904" x2="147.696" y2="279.991" gradientUnits="userSpaceOnUse">
<stop stop-color="#F1E786"/>
<stop offset="1" stop-color="#FABE0E"/>
</linearGradient>
<linearGradient id="paint1_linear_1424_1615" x1="184.201" y1="130.576" x2="148.052" y2="266.096" gradientUnits="userSpaceOnUse">
<stop stop-color="#46516F"/>
<stop offset="0.97" stop-color="#222E3A"/>
</linearGradient>
<linearGradient id="paint2_linear_1424_1615" x1="285.913" y1="108.723" x2="269.047" y2="182.59" gradientUnits="userSpaceOnUse">
<stop stop-color="#F1E786"/>
<stop offset="1" stop-color="#FABE0E"/>
</linearGradient>
<linearGradient id="paint3_linear_1424_1615" x1="101.328" y1="66.2312" x2="84.6916" y2="139.098" gradientUnits="userSpaceOnUse">
<stop stop-color="#F1E786"/>
<stop offset="1" stop-color="#FABE0E"/>
</linearGradient>
<linearGradient id="paint4_linear_1424_1615" x1="313.332" y1="199.66" x2="292.306" y2="249.251" gradientUnits="userSpaceOnUse">
<stop stop-color="#F1E786"/>
<stop offset="1" stop-color="#FABE0E"/>
</linearGradient>
<linearGradient id="paint5_linear_1424_1615" x1="38.4803" y1="153.404" x2="30.2247" y2="191.711" gradientUnits="userSpaceOnUse">
<stop stop-color="#F1E786"/>
<stop offset="1" stop-color="#FABE0E"/>
</linearGradient>
<linearGradient id="paint6_linear_1424_1615" x1="232.894" y1="174.427" x2="206.718" y2="268.875" gradientUnits="userSpaceOnUse">
<stop stop-color="#EFFDBF"/>
<stop offset="0.95" stop-color="#FABE0E"/>
</linearGradient>
<linearGradient id="paint7_linear_1424_1615" x1="118.918" y1="141.387" x2="100.522" y2="228.848" gradientUnits="userSpaceOnUse">
<stop stop-color="#EFFDBF"/>
<stop offset="0.95" stop-color="#FABE0E"/>
</linearGradient>
<linearGradient id="paint8_linear_1424_1615" x1="327.827" y1="265.337" x2="287.871" y2="306.262" gradientUnits="userSpaceOnUse">
<stop stop-color="#5B627E"/>
<stop offset="1" stop-color="#1E323B"/>
</linearGradient>
<linearGradient id="paint9_linear_1424_1615" x1="295.781" y1="341.711" x2="232.013" y2="327.895" gradientUnits="userSpaceOnUse">
<stop stop-color="#F1E786"/>
<stop offset="0.79" stop-color="#FABE0E"/>
</linearGradient>
<linearGradient id="paint10_linear_1424_1615" x1="234.081" y1="313.668" x2="180.837" y2="302.132" gradientUnits="userSpaceOnUse">
<stop stop-color="#F1E786"/>
<stop offset="0.53" stop-color="#FABE0E"/>
</linearGradient>
<linearGradient id="paint11_linear_1424_1615" x1="45.1432" y1="293.003" x2="91.1248" y2="301.551" gradientUnits="userSpaceOnUse">
<stop stop-color="#F1E786"/>
<stop offset="1" stop-color="#FABE0E"/>
</linearGradient>
<linearGradient id="paint12_linear_1424_1615" x1="52.819" y1="282.152" x2="42.4545" y2="279.907" gradientUnits="userSpaceOnUse">
<stop stop-color="#F1E786"/>
<stop offset="1" stop-color="#FABE0E"/>
</linearGradient>
<linearGradient id="paint13_linear_1424_1615" x1="18.3662" y1="344.761" x2="67.157" y2="347.765" gradientUnits="userSpaceOnUse">
<stop stop-color="#F1E786"/>
<stop offset="1" stop-color="#FABE0E"/>
</linearGradient>
<linearGradient id="paint14_linear_1424_1615" x1="31.1282" y1="341.687" x2="18.5473" y2="338.961" gradientUnits="userSpaceOnUse">
<stop stop-color="#F1E786"/>
<stop offset="1" stop-color="#FABE0E"/>
</linearGradient>
<linearGradient id="paint15_linear_1424_1615" x1="47.2502" y1="392.196" x2="10.8637" y2="384.312" gradientUnits="userSpaceOnUse">
<stop stop-color="#5B627E"/>
<stop offset="1" stop-color="#1E323B"/>
</linearGradient>
<linearGradient id="paint16_linear_1424_1615" x1="131.907" y1="366.059" x2="125.114" y2="397.049" gradientUnits="userSpaceOnUse">
<stop stop-color="#F1E786"/>
<stop offset="0.59" stop-color="#F6CF41"/>
<stop offset="1" stop-color="#FABE0E"/>
</linearGradient>
<linearGradient id="paint17_linear_1424_1615" x1="126.863" y1="386.196" x2="120.734" y2="413.832" gradientUnits="userSpaceOnUse">
<stop stop-color="#F1E786"/>
<stop offset="1" stop-color="#FABE0E"/>
</linearGradient>
<linearGradient id="paint18_linear_1424_1615" x1="165.589" y1="392.06" x2="160.337" y2="414.699" gradientUnits="userSpaceOnUse">
<stop stop-color="#F1E786"/>
<stop offset="1" stop-color="#FABE0E"/>
</linearGradient>
<linearGradient id="paint19_linear_1424_1615" x1="89.6982" y1="375.421" x2="84.2116" y2="397.996" gradientUnits="userSpaceOnUse">
<stop stop-color="#F1E786"/>
<stop offset="1" stop-color="#FABE0E"/>
</linearGradient>
<linearGradient id="paint20_linear_1424_1615" x1="145.964" y1="310.08" x2="136.164" y2="351.901" gradientUnits="userSpaceOnUse">
<stop stop-color="#F1E786"/>
<stop offset="1" stop-color="#FABE0E"/>
</linearGradient>
</defs>
</svg>
