<svg width="39" height="39" viewBox="0 0 39 39" fill="none" xmlns="http://www.w3.org/2000/svg">
<rect x="0.5" y="0.5" width="38" height="38" stroke="white" stroke-opacity="0.15"/>
<path d="M28.1636 11.5796C26.5702 10.8485 24.8615 10.3098 23.075 10.0013C23.0424 9.99534 23.0099 10.0102 22.9932 10.04C22.7734 10.4308 22.53 10.9407 22.3595 11.3415C20.438 11.0538 18.5263 11.0538 16.6441 11.3415C16.4736 10.9318 16.2214 10.4308 16.0006 10.04C15.9839 10.0112 15.9514 9.99631 15.9188 10.0013C14.1333 10.3088 12.4246 10.8475 10.8302 11.5796C10.8164 11.5856 10.8045 11.5955 10.7967 11.6084C7.55565 16.4504 6.66776 21.1735 7.10331 25.8379C7.10526 25.8607 7.1181 25.8826 7.13583 25.8964C9.27416 27.4668 11.3455 28.4201 13.3784 29.052C13.4109 29.062 13.4454 29.0501 13.4661 29.0233C13.947 28.3666 14.3756 27.6742 14.7432 26.946C14.7648 26.9034 14.7441 26.8528 14.6998 26.8359C14.0199 26.578 13.3725 26.2635 12.7497 25.9064C12.7004 25.8776 12.6964 25.8072 12.7418 25.7734C12.8728 25.6752 13.004 25.573 13.1291 25.4699C13.1518 25.451 13.1833 25.4471 13.2099 25.4589C17.3013 27.327 21.7308 27.327 25.7739 25.4589C25.8005 25.446 25.832 25.45 25.8557 25.4688C25.9809 25.572 26.1119 25.6752 26.244 25.7734C26.2893 25.8071 26.2863 25.8776 26.2371 25.9063C25.6143 26.2704 24.9669 26.5779 24.2859 26.8349C24.2416 26.8517 24.2219 26.9033 24.2436 26.9459C24.6191 27.6731 25.0477 28.3655 25.5197 29.0223C25.5394 29.05 25.5749 29.062 25.6074 29.052C27.6501 28.4201 29.7215 27.4667 31.8598 25.8964C31.8786 25.8825 31.8904 25.8617 31.8924 25.8389C32.4136 20.4462 31.0193 15.7619 28.1961 11.6093C28.1892 11.5955 28.1774 11.5856 28.1636 11.5796ZM15.3542 22.9977C14.1225 22.9977 13.1075 21.8669 13.1075 20.478C13.1075 19.0891 14.1027 17.9583 15.3542 17.9583C16.6155 17.9583 17.6207 19.0991 17.601 20.478C17.601 21.8669 16.6057 22.9977 15.3542 22.9977ZM23.6612 22.9977C22.4295 22.9977 21.4145 21.8669 21.4145 20.478C21.4145 19.0891 22.4098 17.9583 23.6612 17.9583C24.9226 17.9583 25.9277 19.0991 25.908 20.478C25.908 21.8669 24.9226 22.9977 23.6612 22.9977Z" fill="url(#paint0_linear_1076_746)"/>
<defs>
<linearGradient id="paint0_linear_1076_746" x1="22.457" y1="29.0555" x2="34.643" y2="24.6784" gradientUnits="userSpaceOnUse">
<stop stop-color="#EE5D4B"/>
<stop offset="1" stop-color="#ED4732"/>
</linearGradient>
</defs>
</svg>
