<svg width="39" height="39" viewBox="0 0 39 39" fill="none" xmlns="http://www.w3.org/2000/svg">
<rect x="0.5" y="0.5" width="38" height="38" stroke="white" stroke-opacity="0.15"/>
<path d="M19.5 9.25225C22.8376 9.25225 23.233 9.26499 24.5511 9.3251C25.9131 9.38726 27.3169 9.6981 28.3093 10.6905C29.3112 11.6923 29.6125 13.0824 29.6749 14.4489C29.735 15.767 29.7477 16.1623 29.7477 19.5C29.7477 22.8376 29.735 23.233 29.6749 24.551C29.613 25.9061 29.296 27.3227 28.3095 28.3093C27.3071 29.3117 25.9188 29.6124 24.551 29.6749C23.2331 29.735 22.8378 29.7477 19.5 29.7477C16.1621 29.7477 15.7668 29.735 14.4488 29.6749C13.1042 29.6135 11.6691 29.2879 10.6906 28.3095C9.69404 27.3129 9.38706 25.9099 9.32505 24.551C9.26489 23.2329 9.2522 22.8376 9.2522 19.5C9.2522 16.1623 9.26494 15.7669 9.32505 14.4488C9.38667 13.0986 9.70772 11.6734 10.6904 10.6906C11.6904 9.69062 13.085 9.3873 14.4488 9.32505C15.767 9.26499 16.1624 9.25225 19.5 9.25225ZM19.5 7C16.1052 7 15.6795 7.01436 14.3462 7.0752C12.4132 7.16343 10.4952 7.70083 9.098 9.09795C7.69556 10.5004 7.16333 12.4147 7.0752 14.3463C7.01436 15.6795 7 16.1052 7 19.5C7 22.8948 7.01436 23.3205 7.0752 24.6538C7.16328 26.5837 7.70361 28.5076 9.09795 29.902C10.4987 31.3027 12.4169 31.8367 14.3462 31.9248C15.6795 31.9856 16.1052 32 19.5 32C22.8948 32 23.3205 31.9856 24.6538 31.9248C26.5847 31.8367 28.5063 31.2977 29.902 29.9021C31.305 28.4991 31.8367 26.5857 31.9248 24.6538C31.9856 23.3205 32 22.8948 32 19.5C32 16.1052 31.9856 15.6795 31.9248 14.3462C31.8367 12.4143 31.2982 10.4942 29.9021 9.09805C28.5033 7.69927 26.5796 7.16309 24.6537 7.0752C23.3205 7.01436 22.8948 7 19.5 7Z" fill="url(#paint0_linear_954_992)"/>
<path d="M19.499 13.0806C15.954 13.0806 13.0801 15.9544 13.0801 19.4995C13.0801 23.0446 15.954 25.9184 19.499 25.9184C23.0441 25.9184 25.918 23.0446 25.918 19.4995C25.918 15.9544 23.0441 13.0806 19.499 13.0806ZM19.499 23.6662C17.1979 23.6662 15.3324 21.8007 15.3324 19.4995C15.3324 17.1983 17.1979 15.3329 19.499 15.3329C21.8002 15.3329 23.6657 17.1983 23.6657 19.4995C23.6657 21.8007 21.8002 23.6662 19.499 23.6662Z" fill="url(#paint1_linear_954_992)"/>
<path d="M26.1729 14.3257C27.0013 14.3257 27.6729 13.6541 27.6729 12.8257C27.6729 11.9973 27.0013 11.3257 26.1729 11.3257C25.3444 11.3257 24.6729 11.9973 24.6729 12.8257C24.6729 13.6541 25.3444 14.3257 26.1729 14.3257Z" fill="url(#paint2_linear_954_992)"/>
<defs>
<linearGradient id="paint0_linear_954_992" x1="22.457" y1="32" x2="35.2558" y2="28.4958" gradientUnits="userSpaceOnUse">
<stop stop-color="#EE5D4B"/>
<stop offset="1" stop-color="#ED4732"/>
</linearGradient>
<linearGradient id="paint1_linear_954_992" x1="21.0175" y1="25.9184" x2="27.5899" y2="24.119" gradientUnits="userSpaceOnUse">
<stop stop-color="#EE5D4B"/>
<stop offset="1" stop-color="#ED4732"/>
</linearGradient>
<linearGradient id="paint2_linear_954_992" x1="26.5277" y1="14.3257" x2="28.0636" y2="13.9052" gradientUnits="userSpaceOnUse">
<stop stop-color="#EE5D4B"/>
<stop offset="1" stop-color="#ED4732"/>
</linearGradient>
</defs>
</svg>
