<svg width="39" height="39" viewBox="0 0 39 39" fill="none" xmlns="http://www.w3.org/2000/svg">
<rect x="0.5" y="0.5" width="38" height="38" stroke="white" stroke-opacity="0.15"/>
<path d="M11.59 14.9461C12.89 14.9461 13.93 13.8899 13.93 12.6061C13.93 11.3224 12.8738 10.2661 11.59 10.2661C10.3063 10.2661 9.25 11.3224 9.25 12.6061C9.25 13.8899 10.3063 14.9461 11.59 14.9461ZM16.1562 16.7174V29.7499H20.1862V23.3149C20.1862 21.6086 20.5113 19.9674 22.6075 19.9674C24.7038 19.9674 24.7038 21.9174 24.7038 23.4124V29.7499H28.75V22.5999C28.75 19.0899 28.0025 16.3924 23.9075 16.3924C21.9413 16.3924 20.625 17.4649 20.0887 18.4886H20.04V16.7011H16.1725L16.1562 16.7174ZM9.575 16.7174H13.6213V29.7499H9.575V16.7174Z" fill="url(#paint0_linear_1084_755)"/>
<defs>
<linearGradient id="paint0_linear_1084_755" x1="21.3065" y1="29.7499" x2="31.2884" y2="27.0147" gradientUnits="userSpaceOnUse">
<stop stop-color="#EE5D4B"/>
<stop offset="1" stop-color="#ED4732"/>
</linearGradient>
</defs>
</svg>
