<svg width="39" height="39" viewBox="0 0 39 39" fill="none" xmlns="http://www.w3.org/2000/svg">
<rect x="0.5" y="0.5" width="38" height="38" stroke="white" stroke-opacity="0.15"/>
<path fill-rule="evenodd" clip-rule="evenodd" d="M26.7769 11.5432C27.024 11.4392 27.2945 11.4034 27.5602 11.4394C27.8259 11.4754 28.0771 11.5819 28.2876 11.7479C28.4981 11.9139 28.6603 12.1334 28.7573 12.3833C28.8542 12.6333 28.8824 12.9047 28.8389 13.1692L26.5709 26.9262C26.3509 28.2532 24.8949 29.0142 23.6779 28.3532C22.6599 27.8002 21.1479 26.9482 19.7879 26.0592C19.1079 25.6142 17.0249 24.1892 17.2809 23.1752C17.5009 22.3082 21.0009 19.0502 23.0009 17.1132C23.7859 16.3522 23.4279 15.9132 22.5009 16.6132C20.1989 18.3512 16.5029 20.9942 15.2809 21.7382C14.2029 22.3942 13.6409 22.5062 12.9689 22.3942C11.7429 22.1902 10.6059 21.8742 9.6779 21.4892C8.4239 20.9692 8.4849 19.2452 9.6769 18.7432L26.7769 11.5432Z" fill="#EE5D4B"/>
</svg>
