<svg width="64" height="64" viewBox="0 0 64 64" fill="none" xmlns="http://www.w3.org/2000/svg">
<path d="M32.0001 21.3333C34.9456 21.3333 37.3334 18.9455 37.3334 16C37.3334 13.0544 34.9456 10.6666 32.0001 10.6666C29.0546 10.6666 26.6667 13.0544 26.6667 16C26.6667 18.9455 29.0546 21.3333 32.0001 21.3333Z" fill="url(#paint0_linear_967_49)"/>
<path d="M56 42.6667V37.3333C50.0267 37.3333 44.9067 34.7733 41.0667 30.1867L37.4933 25.92C36.9972 25.3186 36.374 24.8345 35.6686 24.5026C34.9632 24.1706 34.193 23.999 33.4133 24H30.6133C29.04 24 27.5467 24.6933 26.5333 25.92L22.96 30.1867C19.0933 34.7733 13.9733 37.3333 8 37.3333V42.6667C15.3867 42.6667 21.84 39.5467 26.6667 34V40L16.32 44.1333C14.5333 44.8533 13.3333 46.6133 13.3333 48.56C13.3333 51.2 15.4667 53.3333 18.1067 53.3333H24V52C24 50.2319 24.7024 48.5362 25.9526 47.286C27.2029 46.0357 28.8986 45.3333 30.6667 45.3333H38.6667C39.4133 45.3333 40 45.92 40 46.6667C40 47.4133 39.4133 48 38.6667 48H30.6667C28.4533 48 26.6667 49.7867 26.6667 52V53.3333H45.8933C48.5333 53.3333 50.6667 51.2 50.6667 48.56C50.6667 46.6133 49.4667 44.8533 47.68 44.1333L37.3333 40V34C42.16 39.5467 48.6133 42.6667 56 42.6667Z" fill="url(#paint1_linear_967_49)"/>
<defs>
<linearGradient id="paint0_linear_967_49" x1="33.2617" y1="21.3333" x2="38.7226" y2="19.8382" gradientUnits="userSpaceOnUse">
<stop stop-color="#EE5D4B"/>
<stop offset="1" stop-color="#ED4732"/>
</linearGradient>
<linearGradient id="paint1_linear_967_49" x1="37.6774" y1="53.3333" x2="59.6775" y2="43.477" gradientUnits="userSpaceOnUse">
<stop stop-color="#EE5D4B"/>
<stop offset="1" stop-color="#ED4732"/>
</linearGradient>
</defs>
</svg>
