<svg width="69" height="69" viewBox="0 0 69 69" fill="none" xmlns="http://www.w3.org/2000/svg">
<path d="M18.9147 16.168C19.1627 16.4156 19.3594 16.7097 19.4936 17.0334C19.6278 17.3572 19.6968 17.7042 19.6968 18.0546C19.6968 18.4051 19.6278 18.7521 19.4936 19.0758C19.3594 19.3995 19.1627 19.6936 18.9147 19.9413C14.9132 23.9435 12.6653 29.3712 12.6653 35.0306C12.6653 40.6901 14.9132 46.1178 18.9147 50.12C19.1694 50.3659 19.3726 50.6602 19.5123 50.9855C19.6521 51.3109 19.7257 51.6608 19.7287 52.0149C19.7318 52.369 19.6644 52.7201 19.5303 53.0478C19.3962 53.3756 19.1982 53.6733 18.9478 53.9237C18.6974 54.1741 18.3997 54.3721 18.072 54.5061C17.7442 54.6402 17.3931 54.7077 17.039 54.7046C16.6849 54.7015 16.335 54.628 16.0097 54.4882C15.6843 54.3485 15.3901 54.1453 15.1441 53.8906C4.72541 43.4746 4.72541 26.584 15.1441 16.168C15.6442 15.668 16.3223 15.3872 17.0294 15.3872C17.7365 15.3872 18.4147 15.668 18.9147 16.168ZM52.8667 16.168C63.2827 26.5866 63.2827 43.4746 52.8667 53.8906C52.3667 54.391 51.6884 54.6722 50.981 54.6725C50.2736 54.6727 49.5951 54.392 49.0947 53.892C48.5944 53.3919 48.3131 52.7136 48.3129 52.0062C48.3126 51.2988 48.5934 50.6203 49.0934 50.12C53.0949 46.1178 55.3429 40.6901 55.3429 35.0306C55.3429 29.3712 53.0949 23.9435 49.0934 19.9413C48.593 19.4409 48.3119 18.7623 48.3119 18.0546C48.3119 17.347 48.593 16.6683 49.0934 16.168C49.5938 15.6676 50.2724 15.3865 50.9801 15.3865C51.6877 15.3865 52.3664 15.6676 52.8667 16.168ZM26.8267 23.832C27.3267 24.332 27.6075 25.0102 27.6075 25.7173C27.6075 26.4244 27.3267 27.1025 26.8267 27.6026C25.856 28.5733 25.0859 29.7257 24.5605 30.9941C24.0351 32.2624 23.7647 33.6218 23.7647 34.9946C23.7647 36.3675 24.0351 37.7269 24.5605 38.9952C25.0859 40.2635 25.856 41.4159 26.8267 42.3866C27.0743 42.6344 27.2707 42.9285 27.4046 43.2521C27.5385 43.5758 27.6074 43.9226 27.6073 44.2729C27.6072 44.6232 27.538 44.97 27.4039 45.2935C27.2697 45.6171 27.0732 45.911 26.8254 46.1586C26.5777 46.4062 26.2835 46.6026 25.9599 46.7365C25.6363 46.8704 25.2894 46.9393 24.9391 46.9392C24.5889 46.939 24.2421 46.8699 23.9185 46.7358C23.595 46.6016 23.301 46.4051 23.0534 46.1573C20.093 43.1967 18.4298 39.1814 18.4298 34.9946C18.4298 30.8078 20.093 26.7925 23.0534 23.832C23.3011 23.584 23.5952 23.3873 23.9189 23.2531C24.2426 23.1189 24.5896 23.0499 24.9401 23.0499C25.2905 23.0499 25.6375 23.1189 25.9613 23.2531C26.285 23.3873 26.5791 23.584 26.8267 23.832ZM45.3814 23.832C48.3419 26.7925 50.005 30.8078 50.005 34.9946C50.005 39.1814 48.3419 43.1967 45.3814 46.1573C44.8785 46.643 44.2049 46.9118 43.5057 46.9058C42.8065 46.8997 42.1376 46.6192 41.6432 46.1248C41.1488 45.6304 40.8684 44.9615 40.8623 44.2624C40.8562 43.5632 41.125 42.8896 41.6107 42.3866C42.5815 41.4159 43.3516 40.2635 43.877 38.9952C44.4024 37.7269 44.6728 36.3675 44.6728 34.9946C44.6728 33.6218 44.4024 32.2624 43.877 30.9941C43.3516 29.7257 42.5815 28.5733 41.6107 27.6026C41.125 27.0997 40.8562 26.4261 40.8623 25.7269C40.8684 25.0277 41.1488 24.3589 41.6432 23.8644C42.1376 23.37 42.8065 23.0896 43.5057 23.0835C44.2049 23.0774 44.8785 23.3462 45.3814 23.832ZM34.2187 31.2186C35.2796 31.2186 36.297 31.6401 37.0472 32.3902C37.7973 33.1403 38.2187 34.1578 38.2187 35.2186C38.2187 36.2795 37.7973 37.2969 37.0472 38.0471C36.297 38.7972 35.2796 39.2186 34.2187 39.2186C33.1579 39.2186 32.1405 38.7972 31.3903 38.0471C30.6402 37.2969 30.2187 36.2795 30.2187 35.2186C30.2187 34.1578 30.6402 33.1403 31.3903 32.3902C32.1405 31.6401 33.1579 31.2186 34.2187 31.2186Z" fill="url(#paint0_linear_953_754)"/>
<defs>
<linearGradient id="paint0_linear_953_754" x1="40.3145" y1="54.7047" x2="66.1135" y2="45.1207" gradientUnits="userSpaceOnUse">
<stop stop-color="#EE5D4B"/>
<stop offset="1" stop-color="#ED4732"/>
</linearGradient>
</defs>
</svg>
