<svg width="64" height="64" viewBox="0 0 64 64" fill="none" xmlns="http://www.w3.org/2000/svg">
<path d="M45.3333 10.6666C48.2827 10.6666 50.5467 12.9146 52.224 15.3333L52.792 16.1893L53.312 17.0426C53.4773 17.3217 53.6356 17.5955 53.7867 17.864C55.8853 21.616 57.712 26.5146 58.92 31.3546C60.12 36.1573 60.784 41.1733 60.36 45.1173C59.9333 49.0773 57.8933 53.3333 53.3333 53.3333C49.2427 53.3333 46.0187 51.1466 43.4 49.0106L40.44 46.528C37.9787 44.512 35.2853 42.6666 32 42.6666C28.7147 42.6666 26.0187 44.512 23.5627 46.528L20.6027 49.008C17.9787 51.1466 14.7547 53.3333 10.6667 53.3333C6.10401 53.3333 4.064 49.0773 3.64 45.1173C3.21867 41.1706 3.88 36.1573 5.08 31.3546C6.288 26.5146 8.11467 21.616 10.2133 17.864L10.688 17.04L11.208 16.1893L11.776 15.3333C13.4533 12.9146 15.7173 10.6666 18.6667 10.6666C20.0267 10.6666 21.3787 10.9973 22.7067 11.3866L24.288 11.872C24.5493 11.952 24.8089 12.0284 25.0667 12.1013C27.3733 12.7626 29.7333 13.3333 32 13.3333C34.2667 13.3333 36.6267 12.7626 38.9333 12.1013L41.2933 11.3893C42.6213 10.9973 43.9733 10.6666 45.3333 10.6666ZM22.6667 21.3333C20.8986 21.3333 19.2029 22.0357 17.9526 23.2859C16.7024 24.5362 16 26.2318 16 28C16 29.7681 16.7024 31.4638 17.9526 32.714C19.2029 33.9642 20.8986 34.6666 22.6667 34.6666C24.4348 34.6666 26.1305 33.9642 27.3807 32.714C28.631 31.4638 29.3333 29.7681 29.3333 28C29.3333 26.2318 28.631 24.5362 27.3807 23.2859C26.1305 22.0357 24.4348 21.3333 22.6667 21.3333ZM41.3333 21.3333C40.6261 21.3333 39.9478 21.6142 39.4477 22.1143C38.9476 22.6144 38.6667 23.2927 38.6667 24V25.3333H37.3333C36.6261 25.3333 35.9478 25.6142 35.4477 26.1143C34.9476 26.6144 34.6667 27.2927 34.6667 28C34.6667 28.7072 34.9476 29.3855 35.4477 29.8856C35.9478 30.3857 36.6261 30.6666 37.3333 30.6666H38.6667V32C38.6667 32.7072 38.9476 33.3855 39.4477 33.8856C39.9478 34.3857 40.6261 34.6666 41.3333 34.6666C42.0406 34.6666 42.7189 34.3857 43.219 33.8856C43.7191 33.3855 44 32.7072 44 32V30.6666H45.3333C46.0406 30.6666 46.7189 30.3857 47.219 29.8856C47.7191 29.3855 48 28.7072 48 28C48 27.2927 47.7191 26.6144 47.219 26.1143C46.7189 25.6142 46.0406 25.3333 45.3333 25.3333H44V24C44 23.2927 43.7191 22.6144 43.219 22.1143C42.7189 21.6142 42.0406 21.3333 41.3333 21.3333ZM22.6667 26.6666C23.0203 26.6666 23.3594 26.8071 23.6095 27.0571C23.8595 27.3072 24 27.6463 24 28C24 28.3536 23.8595 28.6927 23.6095 28.9428C23.3594 29.1928 23.0203 29.3333 22.6667 29.3333C22.3131 29.3333 21.9739 29.1928 21.7239 28.9428C21.4738 28.6927 21.3333 28.3536 21.3333 28C21.3333 27.6463 21.4738 27.3072 21.7239 27.0571C21.9739 26.8071 22.3131 26.6666 22.6667 26.6666Z" fill="url(#paint0_linear_967_41)"/>
<defs>
<linearGradient id="paint0_linear_967_41" x1="38.7396" y1="53.3333" x2="66.398" y2="43.2212" gradientUnits="userSpaceOnUse">
<stop stop-color="#EE5D4B"/>
<stop offset="1" stop-color="#ED4732"/>
</linearGradient>
</defs>
</svg>
